%FSLAX44Y44*%
%MOMM*%
G71*
G01*
G75*
G04 Layer_Physical_Order=2*
G04 Layer_Color=32768*
%ADD10C,0.2500*%
%ADD11R,0.3000X0.3000*%
%ADD12R,0.4500X1.3800*%
%ADD13R,0.7620X0.7620*%
%ADD14R,0.6000X0.5500*%
%ADD15R,0.7620X0.7620*%
%ADD16R,0.6200X0.5700*%
%ADD17R,0.9500X0.9500*%
%ADD18R,0.9600X0.9700*%
%ADD19R,0.5500X1.5000*%
%ADD20R,0.9500X0.9500*%
%ADD21R,1.0000X0.6000*%
%ADD22R,0.5500X0.6000*%
%ADD23R,1.2000X3.0000*%
%ADD24R,0.6000X1.0000*%
%ADD25R,1.5500X1.5500*%
%ADD26O,0.6000X0.3000*%
%ADD27R,0.5000X0.4000*%
%ADD28R,0.5700X0.6200*%
%ADD29R,2.4000X1.5000*%
%ADD30R,0.5900X0.4500*%
%ADD31R,0.3500X0.8500*%
%ADD32R,0.2000X1.0000*%
%ADD33R,0.3000X1.2000*%
%ADD34R,3.2000X1.2000*%
%ADD35R,0.4500X0.2000*%
%ADD36R,0.5000X0.2000*%
%ADD37R,0.2000X0.4500*%
%ADD38R,0.2000X0.5000*%
%ADD39R,0.4500X0.5900*%
%ADD40R,0.3000X1.4500*%
%ADD41R,1.1000X1.4000*%
%ADD42R,0.2300X1.0000*%
%ADD43R,0.4000X0.5500*%
%ADD44R,0.3000X0.5500*%
%ADD45R,1.2500X1.7500*%
%ADD46R,0.9700X0.9600*%
%ADD47R,2.1000X2.1000*%
%ADD48R,0.2500X0.6000*%
%ADD49R,0.6000X0.2500*%
%ADD50O,0.5000X1.6000*%
%ADD51R,0.3000X0.3000*%
%ADD52R,1.0160X1.7000*%
%ADD53R,1.0160X1.7000*%
%ADD54R,1.0000X1.5000*%
%ADD55O,0.3000X0.8000*%
%ADD56O,0.8000X0.3000*%
G04:AMPARAMS|DCode=57|XSize=0.75mm|YSize=1.6mm|CornerRadius=0.075mm|HoleSize=0mm|Usage=FLASHONLY|Rotation=270.000|XOffset=0mm|YOffset=0mm|HoleType=Round|Shape=RoundedRectangle|*
%AMROUNDEDRECTD57*
21,1,0.7500,1.4500,0,0,270.0*
21,1,0.6000,1.6000,0,0,270.0*
1,1,0.1500,-0.7250,-0.3000*
1,1,0.1500,-0.7250,0.3000*
1,1,0.1500,0.7250,0.3000*
1,1,0.1500,0.7250,-0.3000*
%
%ADD57ROUNDEDRECTD57*%
G04:AMPARAMS|DCode=58|XSize=0.6mm|YSize=1.8mm|CornerRadius=0.06mm|HoleSize=0mm|Usage=FLASHONLY|Rotation=270.000|XOffset=0mm|YOffset=0mm|HoleType=Round|Shape=RoundedRectangle|*
%AMROUNDEDRECTD58*
21,1,0.6000,1.6800,0,0,270.0*
21,1,0.4800,1.8000,0,0,270.0*
1,1,0.1200,-0.8400,-0.2400*
1,1,0.1200,-0.8400,0.2400*
1,1,0.1200,0.8400,0.2400*
1,1,0.1200,0.8400,-0.2400*
%
%ADD58ROUNDEDRECTD58*%
G04:AMPARAMS|DCode=59|XSize=1.3mm|YSize=0.7mm|CornerRadius=0.07mm|HoleSize=0mm|Usage=FLASHONLY|Rotation=270.000|XOffset=0mm|YOffset=0mm|HoleType=Round|Shape=RoundedRectangle|*
%AMROUNDEDRECTD59*
21,1,1.3000,0.5600,0,0,270.0*
21,1,1.1600,0.7000,0,0,270.0*
1,1,0.1400,-0.2800,-0.5800*
1,1,0.1400,-0.2800,0.5800*
1,1,0.1400,0.2800,0.5800*
1,1,0.1400,0.2800,-0.5800*
%
%ADD59ROUNDEDRECTD59*%
%ADD60R,3.2000X3.2000*%
%ADD61R,0.7500X0.3000*%
%ADD62R,0.3000X0.7500*%
%ADD63R,1.0160X1.2700*%
%ADD64R,0.4000X0.9000*%
%ADD65R,0.4000X0.5000*%
%ADD66R,1.3900X1.4000*%
%ADD67R,3.3600X4.8600*%
%ADD68R,1.4000X1.1000*%
%ADD69R,0.8500X0.3560*%
%ADD70R,2.6000X3.0000*%
%ADD71R,0.3000X1.7500*%
%ADD72R,2.0000X3.5000*%
%ADD73R,3.4000X2.4000*%
%ADD74R,1.7000X1.0160*%
%ADD75R,1.7000X1.0160*%
%ADD76R,1.4000X2.1000*%
%ADD77R,2.3700X1.9000*%
%ADD78R,1.1750X1.9000*%
%ADD79C,0.2000*%
%ADD80C,0.3000*%
%ADD81C,0.1500*%
%ADD82C,0.4000*%
%ADD83C,0.1800*%
%ADD84C,0.2200*%
%ADD85C,0.3500*%
%ADD86R,2.1000X10.0000*%
%ADD87R,2.6000X6.8000*%
%ADD88R,4.4000X3.2000*%
%ADD89R,2.2000X13.7000*%
%ADD90O,1.0000X1.6000*%
%ADD91C,0.6500*%
%ADD92C,6.0000*%
%ADD93O,1.2000X1.7000*%
%ADD94O,1.2000X1.9000*%
%ADD95C,0.7500*%
%ADD96O,1.4000X2.8500*%
%ADD97O,1.2000X2.2500*%
%ADD98C,0.5000*%
%ADD99C,1.5000*%
%ADD100R,1.5000X1.5000*%
%ADD101O,4.5000X2.0000*%
%ADD102O,2.0000X4.0000*%
%ADD103O,4.0000X2.0000*%
%ADD104C,1.7000*%
%ADD105C,3.2500*%
%ADD106C,1.6500*%
%ADD107C,2.6000*%
%ADD108C,1.9000*%
%ADD109R,1.7000X1.7000*%
%ADD110C,0.6000*%
%ADD111C,1.0160*%
%ADD112R,3.4000X0.8000*%
%ADD113R,6.2000X1.5000*%
%ADD114O,1.6160X2.2160*%
%ADD115C,1.4160*%
%ADD116C,4.7160*%
%ADD117O,1.6160X2.1160*%
%ADD118O,1.6160X2.3160*%
%ADD119C,1.5660*%
%ADD120C,2.0160*%
%ADD121O,1.9160X3.3660*%
%ADD122O,1.7160X2.7560*%
%ADD123C,1.9160*%
%ADD124C,2.0360*%
%ADD125O,2.0160X4.0160*%
%ADD126O,4.0160X2.0160*%
%ADD127C,1.9060*%
%ADD128C,4.2660*%
%ADD129C,2.0360*%
%ADD130C,2.7160*%
%ADD131C,2.6160*%
%ADD132C,2.1160*%
%ADD133C,1.1660*%
%ADD134C,1.2660*%
%ADD135C,1.2160*%
G36*
X-341740Y-490D02*
X-428740D01*
Y70510D01*
X-341740D01*
Y-490D01*
D02*
G37*
D80*
X-997000Y461967D02*
X-119967D01*
X-94000Y436000D01*
Y169000D02*
Y436000D01*
X-110256Y152744D02*
X-94000Y169000D01*
X-110256Y1760D02*
Y152744D01*
D111*
X0Y0D02*
Y550000D01*
X-1002256D02*
X0D01*
X-1002256Y-0D02*
Y550000D01*
Y-0D02*
X-428740Y0D01*
Y70510D01*
X-427320D01*
Y71000D01*
X-343320D01*
Y70510D02*
Y71000D01*
Y70510D02*
X-341740D01*
Y0D02*
Y70510D01*
Y0D02*
X0D01*
D112*
X-381320Y113000D02*
D03*
D113*
X-385320Y77500D02*
D03*
D114*
X-569941Y43810D02*
D03*
X-484541D02*
D03*
X-569941Y91110D02*
D03*
X-484541D02*
D03*
D115*
X-519241Y95610D02*
D03*
X-535241D02*
D03*
X-499241Y102610D02*
D03*
X-555241D02*
D03*
X-507241D02*
D03*
X-547241D02*
D03*
X-515241D02*
D03*
X-539241D02*
D03*
X-503241Y95610D02*
D03*
X-511241D02*
D03*
X-543241D02*
D03*
X-551241D02*
D03*
X-523241Y102610D02*
D03*
X-531241D02*
D03*
D116*
X-50000Y40000D02*
D03*
X-144240Y59760D02*
D03*
X-49760Y509760D02*
D03*
X-952256Y40000D02*
D03*
X-952256Y510000D02*
D03*
X-780256Y59760D02*
D03*
D117*
X-623990Y21260D02*
D03*
X-732490D02*
D03*
D118*
X-623990Y66260D02*
D03*
X-732490D02*
D03*
D119*
X-358240Y79510D02*
D03*
X-394240D02*
D03*
X-376160D02*
D03*
X-412240D02*
D03*
Y113010D02*
D03*
X-376160D02*
D03*
X-394240D02*
D03*
X-358240D02*
D03*
X-398740Y120760D02*
D03*
X-407740D02*
D03*
X-362740Y87260D02*
D03*
X-371740D02*
D03*
X-380740Y120760D02*
D03*
X-389740D02*
D03*
X-362740D02*
D03*
X-371740D02*
D03*
X-398740Y87260D02*
D03*
X-407740D02*
D03*
X-380740D02*
D03*
X-389740D02*
D03*
D120*
X-432740Y121010D02*
D03*
X-337740D02*
D03*
D121*
X-440240Y89510D02*
D03*
X-330240D02*
D03*
D122*
X-437240Y34510D02*
D03*
X-333240D02*
D03*
D123*
X-27597Y190672D02*
D03*
Y148172D02*
D03*
Y256321D02*
D03*
Y213821D02*
D03*
D124*
X-74300Y186000D02*
D03*
X-99700D02*
D03*
D125*
X-12256Y109260D02*
D03*
D126*
X-61256Y78760D02*
D03*
D127*
X-959406Y190300D02*
D03*
X-946706Y164900D02*
D03*
X-870506D02*
D03*
X-895906D02*
D03*
X-921306D02*
D03*
X-934006Y190300D02*
D03*
X-908606D02*
D03*
X-883206D02*
D03*
X-857806D02*
D03*
X-845106Y164900D02*
D03*
D128*
Y101400D02*
D03*
X-959406D02*
D03*
D129*
X-872966Y238600D02*
D03*
X-931466D02*
D03*
X-847566D02*
D03*
X-956866D02*
D03*
D130*
X-823474Y131900D02*
D03*
X-981038D02*
D03*
D131*
X-121320Y481000D02*
D03*
D132*
X-809320D02*
D03*
D133*
X-369820Y421000D02*
D03*
X-366656Y264000D02*
D03*
X-307396Y225159D02*
D03*
X-363320Y421000D02*
D03*
X-373156Y264000D02*
D03*
X-313896Y225159D02*
D03*
X-139000Y221000D02*
D03*
X-119000Y461000D02*
D03*
X-124000Y409000D02*
D03*
X-580000Y472000D02*
D03*
X-634000Y248000D02*
D03*
X-648244Y327246D02*
D03*
X-653000Y297000D02*
D03*
X-277320Y503000D02*
D03*
X-639235Y197000D02*
D03*
X-270820Y503000D02*
D03*
X-645735Y197000D02*
D03*
X-664878D02*
D03*
X-262320Y503000D02*
D03*
X-658378Y197000D02*
D03*
X-255820Y503000D02*
D03*
X-703164Y197000D02*
D03*
X-247320Y503000D02*
D03*
X-696664Y197000D02*
D03*
X-240820Y503000D02*
D03*
X-565000Y473000D02*
D03*
X-150920Y484000D02*
D03*
X-157220D02*
D03*
X-576999Y508999D02*
D03*
X-569999D02*
D03*
X-96000Y533000D02*
D03*
X-180920Y510000D02*
D03*
X-495270Y481000D02*
D03*
X-187220Y510000D02*
D03*
X-501540Y481000D02*
D03*
X-480270Y468000D02*
D03*
X-195920Y543000D02*
D03*
X-486540Y468000D02*
D03*
X-202220Y543000D02*
D03*
X-126276Y248000D02*
D03*
X-228420Y422000D02*
D03*
X-120006Y248000D02*
D03*
X-234720Y422000D02*
D03*
X-100456Y249000D02*
D03*
X-249720Y422000D02*
D03*
X-106756Y249000D02*
D03*
X-243420Y422000D02*
D03*
X-74000Y198000D02*
D03*
X-279720Y421000D02*
D03*
X-74256Y204986D02*
D03*
X-273420Y421000D02*
D03*
X-805000Y528000D02*
D03*
X-149000Y411000D02*
D03*
X-158000Y412000D02*
D03*
X-65000Y460000D02*
D03*
X-710999Y452999D02*
D03*
X-718000Y455000D02*
D03*
X-722999Y459999D02*
D03*
X-733256Y464000D02*
D03*
X-710999Y508999D02*
D03*
X-709999Y501999D02*
D03*
X-712000Y495000D02*
D03*
X-149000Y169000D02*
D03*
X-629000Y491000D02*
D03*
X-616000Y482000D02*
D03*
X-393000Y377000D02*
D03*
X-351070Y418378D02*
D03*
X-744000Y457000D02*
D03*
X-116000Y142000D02*
D03*
X-285641Y268000D02*
D03*
X-549000Y297000D02*
D03*
X-553905Y279845D02*
D03*
X-480000Y423000D02*
D03*
X-426256Y417000D02*
D03*
Y425000D02*
D03*
X-602000Y402000D02*
D03*
X-712000Y403000D02*
D03*
Y427000D02*
D03*
X-717000Y422000D02*
D03*
X-295999Y367999D02*
D03*
X-296000Y375000D02*
D03*
X-295999Y381999D02*
D03*
X-296000Y389000D02*
D03*
X-292141Y268000D02*
D03*
X-279256Y377000D02*
D03*
X-427000Y374000D02*
D03*
X-501000Y425000D02*
D03*
X-511000Y312000D02*
D03*
X-521000D02*
D03*
X-513000Y379000D02*
D03*
X-738000Y477000D02*
D03*
X-730000Y505000D02*
D03*
X-601540Y473000D02*
D03*
X-738000Y505000D02*
D03*
X-746676Y260731D02*
D03*
X-563000Y392000D02*
D03*
X-86000Y411000D02*
D03*
X-466655Y347528D02*
D03*
X-794000Y142000D02*
D03*
X-885000Y130000D02*
D03*
X-794000Y94000D02*
D03*
X-478000Y247000D02*
D03*
X-507076Y239004D02*
D03*
X-779998Y270000D02*
D03*
X-746000Y505000D02*
D03*
X-788000Y336000D02*
D03*
X-264000Y205000D02*
D03*
X-432000Y177000D02*
D03*
X-825000Y42000D02*
D03*
X-800000Y11000D02*
D03*
X-530256Y476020D02*
D03*
X-517257Y468000D02*
D03*
X-585270Y485000D02*
D03*
X-595270Y473000D02*
D03*
X-72000Y361000D02*
D03*
X-416000Y399000D02*
D03*
X-354000Y329000D02*
D03*
X-218000Y66000D02*
D03*
X-805000Y317000D02*
D03*
X-725000Y346000D02*
D03*
X-748000Y326000D02*
D03*
X-647000Y496000D02*
D03*
X-696000Y538000D02*
D03*
X-285000Y214000D02*
D03*
X-26562Y235071D02*
D03*
X-43000Y264000D02*
D03*
X-22000Y289000D02*
D03*
X-278000Y130000D02*
D03*
X-561999Y426999D02*
D03*
X-574000Y428000D02*
D03*
X-589000D02*
D03*
X-160000Y424000D02*
D03*
X-747000Y270000D02*
D03*
X-717000Y269000D02*
D03*
X-719000Y253000D02*
D03*
X-587095Y261545D02*
D03*
X-586319Y251999D02*
D03*
X-607095Y261545D02*
D03*
X-553783Y333866D02*
D03*
X-359257Y145001D02*
D03*
X-425019Y95700D02*
D03*
X-422070Y101734D02*
D03*
X-388375Y97154D02*
D03*
X-349320Y80000D02*
D03*
X-601819Y92400D02*
D03*
X-636256Y92000D02*
D03*
X-653256Y263000D02*
D03*
X-11256Y298000D02*
D03*
X-239256Y229000D02*
D03*
X-725256Y473000D02*
D03*
X-649256Y465000D02*
D03*
Y473000D02*
D03*
X-619256Y426000D02*
D03*
X-634256D02*
D03*
X-769256Y230000D02*
D03*
X-712257Y209001D02*
D03*
X-770479Y220611D02*
D03*
X-814256Y243000D02*
D03*
X-702256Y211885D02*
D03*
X-648244Y335460D02*
D03*
X-743256Y353000D02*
D03*
X-714256Y281000D02*
D03*
X-628119Y319225D02*
D03*
X-521219Y285999D02*
D03*
X-525025Y280557D02*
D03*
X-536646Y162336D02*
D03*
X-542916D02*
D03*
X-617952Y176028D02*
D03*
X-526539Y162179D02*
D03*
X-661256Y493000D02*
D03*
Y486000D02*
D03*
X-819256Y195000D02*
D03*
X-790256Y107000D02*
D03*
X-468505Y265250D02*
D03*
X-566320Y255000D02*
D03*
X-567889Y261524D02*
D03*
X-477320Y271000D02*
D03*
X-411256Y377000D02*
D03*
X-415256Y166000D02*
D03*
X-403320Y113000D02*
D03*
X-281256Y96000D02*
D03*
X-271256Y188000D02*
D03*
X-250256Y93000D02*
D03*
X-209256Y73000D02*
D03*
X-200256Y81000D02*
D03*
X-223258Y85001D02*
D03*
X-252256Y66000D02*
D03*
X-353256Y357000D02*
D03*
X-16256Y335000D02*
D03*
X-40000Y315000D02*
D03*
X-142256Y132010D02*
D03*
X-241391Y90000D02*
D03*
X-142256Y125740D02*
D03*
X-235121Y90000D02*
D03*
X-238256Y79000D02*
D03*
X-298256Y22000D02*
D03*
X-299256Y12000D02*
D03*
X-266256Y122000D02*
D03*
X-430256Y297000D02*
D03*
X-420695Y351823D02*
D03*
X-811256Y326000D02*
D03*
X-570257Y354000D02*
D03*
X-576906Y261316D02*
D03*
X-563256Y354000D02*
D03*
X-843256Y78000D02*
D03*
X-529619Y236500D02*
D03*
X-593320Y210000D02*
D03*
X-581320Y222000D02*
D03*
X-503708Y247845D02*
D03*
X-487674Y217136D02*
D03*
X-457543Y229697D02*
D03*
X-459781Y219796D02*
D03*
X-504516Y270237D02*
D03*
X-495223Y270180D02*
D03*
X-415935Y509000D02*
D03*
X-422205D02*
D03*
X-408506Y282000D02*
D03*
X-402236D02*
D03*
X-45256Y294986D02*
D03*
Y288716D02*
D03*
X-144720Y425000D02*
D03*
X-138420D02*
D03*
X-142220Y461000D02*
D03*
X-155221Y457000D02*
D03*
X-161521D02*
D03*
X-135920Y461000D02*
D03*
X-536256Y506000D02*
D03*
X-516707Y510451D02*
D03*
X-550935Y507438D02*
D03*
X-557205D02*
D03*
X-210920Y542000D02*
D03*
X-217220D02*
D03*
X-510256Y468000D02*
D03*
X-232320Y503000D02*
D03*
X-225820D02*
D03*
X-702256Y205385D02*
D03*
X-649257Y428000D02*
D03*
X-521256Y300000D02*
D03*
X-531705Y280147D02*
D03*
X-426257Y403000D02*
D03*
Y410000D02*
D03*
X-341256Y419000D02*
D03*
X-348256Y424403D02*
D03*
X-380256Y506000D02*
D03*
X-296707Y510451D02*
D03*
X-281707D02*
D03*
X-394257Y509000D02*
D03*
X-530256Y469750D02*
D03*
X-547635Y279845D02*
D03*
X-469256Y417000D02*
D03*
X-459256D02*
D03*
X-450256D02*
D03*
X-440256D02*
D03*
X-433257Y425000D02*
D03*
X-412256D02*
D03*
X-437205Y509000D02*
D03*
X-430935D02*
D03*
X-544207Y428451D02*
D03*
X-529207D02*
D03*
X-514207D02*
D03*
X-489207D02*
D03*
X-459207D02*
D03*
X-384207D02*
D03*
X-161258Y510000D02*
D03*
X-591540Y485000D02*
D03*
X-591707Y510451D02*
D03*
X-531707D02*
D03*
X-131707D02*
D03*
X-146707D02*
D03*
X-206707D02*
D03*
X-221707D02*
D03*
X-491255Y506000D02*
D03*
X-476256D02*
D03*
X-451707Y510451D02*
D03*
X-466707D02*
D03*
X-481707D02*
D03*
X-330820Y503000D02*
D03*
X-337320D02*
D03*
X-322320D02*
D03*
X-326707Y510451D02*
D03*
X-311707D02*
D03*
X-315820Y503000D02*
D03*
X-251707Y510451D02*
D03*
X-307320Y503000D02*
D03*
X-292320D02*
D03*
X-300820D02*
D03*
X-285820D02*
D03*
X-236707Y510451D02*
D03*
X-266707D02*
D03*
X-352070Y215783D02*
D03*
X-345570D02*
D03*
X-327802Y239454D02*
D03*
X-332398Y234858D02*
D03*
X-372070Y215783D02*
D03*
X-365570D02*
D03*
X-425320Y198000D02*
D03*
X-574320Y337000D02*
D03*
X-781320Y163000D02*
D03*
X-616320Y39000D02*
D03*
X-606124Y27820D02*
D03*
X-764320Y16000D02*
D03*
X-725320Y245000D02*
D03*
X-290173Y147674D02*
D03*
X-593320Y202000D02*
D03*
X-558320Y57000D02*
D03*
X-752320Y161000D02*
D03*
X-555320Y74000D02*
D03*
X-591320Y217000D02*
D03*
X-564955Y127004D02*
D03*
X-601320Y16000D02*
D03*
X-549320Y198000D02*
D03*
X-558685Y127004D02*
D03*
X-446320Y222000D02*
D03*
X-425320Y80000D02*
D03*
X-728320Y98000D02*
D03*
X-286320Y111000D02*
D03*
X-296320Y157000D02*
D03*
X-478419Y201000D02*
D03*
X-481523Y188899D02*
D03*
X-444320Y211000D02*
D03*
X-597095Y261545D02*
D03*
X-617319Y100000D02*
D03*
X-615320Y50000D02*
D03*
X-714383Y90303D02*
D03*
X-765320Y98000D02*
D03*
Y182000D02*
D03*
X-636320Y124000D02*
D03*
X-735320Y190000D02*
D03*
X-577033Y101308D02*
D03*
X-740320Y238000D02*
D03*
X-485319Y270000D02*
D03*
X-443938Y368431D02*
D03*
X-475320Y140000D02*
D03*
X-741320Y130000D02*
D03*
X-703966Y63061D02*
D03*
X-690119Y69100D02*
D03*
X-710199Y68664D02*
D03*
X-755320Y89000D02*
D03*
X-364105Y106916D02*
D03*
X-592320Y235000D02*
D03*
X-214173Y152674D02*
D03*
X-227173D02*
D03*
X-188173Y158674D02*
D03*
X-745320Y115000D02*
D03*
X-711320Y236000D02*
D03*
X-370375Y106916D02*
D03*
X-307319Y179000D02*
D03*
X-314319D02*
D03*
X-352819Y166100D02*
D03*
X-692964Y165643D02*
D03*
X-677792Y165771D02*
D03*
X-662877Y166028D02*
D03*
X-647704Y165771D02*
D03*
X-543685Y150554D02*
D03*
X-354619Y140261D02*
D03*
X-384019Y146100D02*
D03*
X-398902Y146016D02*
D03*
X-452293Y98444D02*
D03*
X-449053Y118923D02*
D03*
X-471892Y95391D02*
D03*
X-473899Y109365D02*
D03*
X-443009Y148892D02*
D03*
X-442876Y165500D02*
D03*
X-346576Y126172D02*
D03*
X-356286Y105222D02*
D03*
X-352846Y126172D02*
D03*
X-159034Y108529D02*
D03*
X-170756Y171933D02*
D03*
X-251483Y161039D02*
D03*
X-260406Y159313D02*
D03*
X-236962Y131240D02*
D03*
X-194010Y168367D02*
D03*
X-465400Y357028D02*
D03*
Y337028D02*
D03*
Y342028D02*
D03*
X-425970Y356904D02*
D03*
X-426356Y336706D02*
D03*
X-420502Y341788D02*
D03*
X-626096Y84610D02*
D03*
X-780799Y180583D02*
D03*
X-491517Y279872D02*
D03*
X-463815Y159025D02*
D03*
Y142714D02*
D03*
X-589916Y27820D02*
D03*
X-711547Y154718D02*
D03*
X-697344Y63061D02*
D03*
X-576506Y111832D02*
D03*
X-617318Y111436D02*
D03*
X-642022Y68508D02*
D03*
X-654022D02*
D03*
X-666022D02*
D03*
X-678022D02*
D03*
X-726693Y115135D02*
D03*
X-167185Y157344D02*
D03*
X-628798Y300554D02*
D03*
X-618556Y304471D02*
D03*
X-606548Y336903D02*
D03*
X-71599Y274073D02*
D03*
Y259074D02*
D03*
Y244073D02*
D03*
X-17162Y141402D02*
D03*
X-39597Y151000D02*
D03*
X-689503Y58307D02*
D03*
X-747854Y41257D02*
D03*
X-628119Y343937D02*
D03*
X-368842Y145905D02*
D03*
X-617095Y261545D02*
D03*
X-561320Y318000D02*
D03*
X-259327Y117848D02*
D03*
X-259072Y126873D02*
D03*
X-549955Y150554D02*
D03*
X-453038Y133657D02*
D03*
X-592119Y92400D02*
D03*
X-566792Y213855D02*
D03*
X-670106Y126721D02*
D03*
X-655106D02*
D03*
X-285440Y189239D02*
D03*
X-550265Y220000D02*
D03*
X-457193Y263425D02*
D03*
X-467238Y253372D02*
D03*
X-611407Y176128D02*
D03*
X-604060Y176028D02*
D03*
X-628260Y146837D02*
D03*
X-509955Y149852D02*
D03*
X-576658Y64455D02*
D03*
X-500503Y157664D02*
D03*
X-503685Y149852D02*
D03*
X-515019Y124000D02*
D03*
X-516318Y130312D02*
D03*
X-524519Y124000D02*
D03*
X-530789Y124439D02*
D03*
X-522588Y130312D02*
D03*
X-466261Y292591D02*
D03*
X-382105Y97154D02*
D03*
X-920000Y438000D02*
D03*
X-943000Y446000D02*
D03*
X-941000Y470000D02*
D03*
X-951000D02*
D03*
Y333000D02*
D03*
X-920000Y422000D02*
D03*
X-846000Y454000D02*
D03*
Y446000D02*
D03*
X-864256Y78000D02*
D03*
X-906000Y59000D02*
D03*
X-561356Y332964D02*
D03*
X-548000Y338000D02*
D03*
X-458000Y368000D02*
D03*
X-460591Y329000D02*
D03*
X-490000Y327000D02*
D03*
X-16000Y366000D02*
D03*
X-42000Y409000D02*
D03*
Y382000D02*
D03*
X-78000Y395000D02*
D03*
X-43000Y424350D02*
D03*
X-727000Y537000D02*
D03*
X-276256Y399265D02*
D03*
X-150256Y192020D02*
D03*
X-276256Y392965D02*
D03*
X-150258Y185001D02*
D03*
X-55000Y177000D02*
D03*
Y169422D02*
D03*
X-41000Y214986D02*
D03*
X-41000Y208000D02*
D03*
X-264720Y421000D02*
D03*
X-258420D02*
D03*
X-22213Y202000D02*
D03*
X-174720Y424000D02*
D03*
X-92256Y278701D02*
D03*
X-168420Y424000D02*
D03*
X-92256Y285001D02*
D03*
X-213420Y426000D02*
D03*
X-76256Y298716D02*
D03*
X-219720Y426000D02*
D03*
X-76256Y304986D02*
D03*
X-189720Y421000D02*
D03*
X-88276Y339000D02*
D03*
X-183420Y421000D02*
D03*
X-82006Y339000D02*
D03*
X-27000Y330000D02*
D03*
X-204720Y420000D02*
D03*
X-76256Y323716D02*
D03*
X-198420Y420000D02*
D03*
X-76256Y329986D02*
D03*
X-70000Y340000D02*
D03*
X-41000Y400999D02*
D03*
Y390999D02*
D03*
X-488685Y125661D02*
D03*
X-494955D02*
D03*
X-400935Y509000D02*
D03*
X-430256Y231130D02*
D03*
X-858256Y71001D02*
D03*
X-407205Y509000D02*
D03*
X-430256Y237400D02*
D03*
X-870256Y72001D02*
D03*
X-896874Y279654D02*
D03*
Y273215D02*
D03*
X-608320Y456000D02*
D03*
X-614820D02*
D03*
X-864397Y291518D02*
D03*
X-629820Y456000D02*
D03*
X-868831Y287085D02*
D03*
X-623320Y456000D02*
D03*
X-788679Y173002D02*
D03*
X-799481Y220677D02*
D03*
X-845820Y303022D02*
D03*
X-644820Y456000D02*
D03*
X-845820Y296515D02*
D03*
X-638320Y456000D02*
D03*
X-821690Y313690D02*
D03*
X-659820Y456000D02*
D03*
X-821690Y307215D02*
D03*
X-653320Y456000D02*
D03*
D134*
X-757500Y471500D02*
D03*
X-766500Y461750D02*
D03*
Y481250D02*
D03*
X-758000Y491000D02*
D03*
X-766500Y500750D02*
D03*
X-885500Y445500D02*
D03*
X-900500D02*
D03*
Y430500D02*
D03*
X-893000Y438000D02*
D03*
X-885500Y430500D02*
D03*
X-991000Y494000D02*
D03*
Y485000D02*
D03*
X-981000D02*
D03*
Y494000D02*
D03*
X-920000Y258000D02*
D03*
X-936500D02*
D03*
X-953000D02*
D03*
X-969500D02*
D03*
X-986000D02*
D03*
Y271000D02*
D03*
X-910000Y525000D02*
D03*
Y514200D02*
D03*
Y503400D02*
D03*
Y492600D02*
D03*
Y481800D02*
D03*
Y471000D02*
D03*
X-849000Y378000D02*
D03*
X-838000D02*
D03*
X-828000D02*
D03*
X-818000D02*
D03*
Y388000D02*
D03*
X-745000Y391000D02*
D03*
X-740000Y386000D02*
D03*
D135*
X-596831Y103933D02*
D03*
X-530320Y218000D02*
D03*
X-519320D02*
D03*
X-508320D02*
D03*
M02*
