M48
;Layer_Color=9474304
;FILE_FORMAT=2:5
INCH,LZ
;TYPE=PLATED
T5F00S00C0.02362
T6F00S00C0.02756
T9F00S00C0.03543
T11F00S00C0.03937
;TYPE=NON_PLATED
%
G90
G05
T05
G00X-0288382Y0007386
M15
G01Y0009354
M16
G00X-0288382Y0024709
M15
G01Y0027465
M16
G00X-0245665Y0024709
M15
G01Y0027465
M16
G00X-0245665Y0007386
M15
G01Y0009354
M16
G00X-0224386Y0016067
M15
G01Y0018429
M16
G00X-0224386Y0034689
M15
G01Y0037051
M16
G00X-0190764Y0034689
M15
G01Y0037051
M16
G00X-0190764Y0016067
M15
G01Y0018429
M16
T06
G00X-0131197Y0011539
M15
G01Y0015634
M16
G00X-0172142Y0011539
M15
G01Y0015634
M16
T09
G00X-0130016Y0032386
M15
G01Y0038095
M16
G00X-0173323Y0032386
M15
G01Y0038095
M16
T11
G00X-0020179Y0031008
M15
G01X-0028054
M16
G00X-0029038Y005463
M15
G01X-0019195
M16
G00X-0004825Y0046953
M15
G01Y0039079
M16
M17
M30
