%FSLAX44Y44*%
%MOMM*%
G71*
G01*
G75*
G04 Layer_Color=16711935*
%ADD10C,0.2500*%
%ADD11R,0.3000X0.3000*%
%ADD12R,0.4500X1.3800*%
%ADD13R,0.7620X0.7620*%
%ADD14R,0.6000X0.5500*%
%ADD15R,0.7620X0.7620*%
%ADD16R,0.6200X0.5700*%
%ADD17R,0.9500X0.9500*%
%ADD18R,0.9600X0.9700*%
%ADD19R,0.5500X1.5000*%
%ADD20R,0.9500X0.9500*%
%ADD21R,1.0000X0.6000*%
%ADD22R,0.5500X0.6000*%
%ADD23R,1.2000X3.0000*%
%ADD24R,0.6000X1.0000*%
%ADD25R,1.5500X1.5500*%
%ADD26O,0.6000X0.3000*%
%ADD27R,0.5000X0.4000*%
%ADD28R,0.5700X0.6200*%
%ADD29R,2.4000X1.5000*%
%ADD30R,0.5900X0.4500*%
%ADD31R,0.3500X0.8500*%
%ADD32R,0.2000X1.0000*%
%ADD33R,0.3000X1.2000*%
%ADD34R,3.2000X1.2000*%
%ADD35R,0.4500X0.2000*%
%ADD36R,0.5000X0.2000*%
%ADD37R,0.2000X0.4500*%
%ADD38R,0.2000X0.5000*%
%ADD39R,0.4500X0.5900*%
%ADD40R,0.3000X1.4500*%
%ADD41R,1.1000X1.4000*%
%ADD42R,0.2300X1.0000*%
%ADD43R,0.4000X0.5500*%
%ADD44R,0.3000X0.5500*%
%ADD45R,1.2500X1.7500*%
%ADD46R,0.9700X0.9600*%
%ADD47R,2.1000X2.1000*%
%ADD48R,0.2500X0.6000*%
%ADD49R,0.6000X0.2500*%
%ADD50O,0.5000X1.6000*%
%ADD51R,0.3000X0.3000*%
%ADD52R,1.0160X1.7000*%
%ADD53R,1.0160X1.7000*%
%ADD54R,1.0000X1.5000*%
%ADD55O,0.3000X0.8000*%
%ADD56O,0.8000X0.3000*%
G04:AMPARAMS|DCode=57|XSize=0.75mm|YSize=1.6mm|CornerRadius=0.075mm|HoleSize=0mm|Usage=FLASHONLY|Rotation=270.000|XOffset=0mm|YOffset=0mm|HoleType=Round|Shape=RoundedRectangle|*
%AMROUNDEDRECTD57*
21,1,0.7500,1.4500,0,0,270.0*
21,1,0.6000,1.6000,0,0,270.0*
1,1,0.1500,-0.7250,-0.3000*
1,1,0.1500,-0.7250,0.3000*
1,1,0.1500,0.7250,0.3000*
1,1,0.1500,0.7250,-0.3000*
%
%ADD57ROUNDEDRECTD57*%
G04:AMPARAMS|DCode=58|XSize=0.6mm|YSize=1.8mm|CornerRadius=0.06mm|HoleSize=0mm|Usage=FLASHONLY|Rotation=270.000|XOffset=0mm|YOffset=0mm|HoleType=Round|Shape=RoundedRectangle|*
%AMROUNDEDRECTD58*
21,1,0.6000,1.6800,0,0,270.0*
21,1,0.4800,1.8000,0,0,270.0*
1,1,0.1200,-0.8400,-0.2400*
1,1,0.1200,-0.8400,0.2400*
1,1,0.1200,0.8400,0.2400*
1,1,0.1200,0.8400,-0.2400*
%
%ADD58ROUNDEDRECTD58*%
G04:AMPARAMS|DCode=59|XSize=1.3mm|YSize=0.7mm|CornerRadius=0.07mm|HoleSize=0mm|Usage=FLASHONLY|Rotation=270.000|XOffset=0mm|YOffset=0mm|HoleType=Round|Shape=RoundedRectangle|*
%AMROUNDEDRECTD59*
21,1,1.3000,0.5600,0,0,270.0*
21,1,1.1600,0.7000,0,0,270.0*
1,1,0.1400,-0.2800,-0.5800*
1,1,0.1400,-0.2800,0.5800*
1,1,0.1400,0.2800,0.5800*
1,1,0.1400,0.2800,-0.5800*
%
%ADD59ROUNDEDRECTD59*%
%ADD60R,3.2000X3.2000*%
%ADD61R,0.7500X0.3000*%
%ADD62R,0.3000X0.7500*%
%ADD63R,1.0160X1.2700*%
%ADD64R,0.4000X0.9000*%
%ADD65R,0.4000X0.5000*%
%ADD66R,1.3900X1.4000*%
%ADD67R,3.3600X4.8600*%
%ADD68R,1.4000X1.1000*%
%ADD69R,0.8500X0.3560*%
%ADD70R,2.6000X3.0000*%
%ADD71R,0.3000X1.7500*%
%ADD72R,2.0000X3.5000*%
%ADD73R,3.4000X2.4000*%
%ADD74R,1.7000X1.0160*%
%ADD75R,1.7000X1.0160*%
%ADD76R,1.4000X2.1000*%
%ADD77R,2.3700X1.9000*%
%ADD78R,1.1750X1.9000*%
%ADD79C,0.2000*%
%ADD80C,0.3000*%
%ADD81C,0.1500*%
%ADD82C,0.4000*%
%ADD83C,0.1800*%
%ADD84C,0.2200*%
%ADD85C,0.3500*%
%ADD86R,2.1000X10.0000*%
%ADD87R,2.6000X6.8000*%
%ADD88R,4.4000X3.2000*%
%ADD89R,2.2000X13.7000*%
%ADD90O,1.0000X1.6000*%
%ADD91C,0.6500*%
%ADD92C,6.0000*%
%ADD93O,1.2000X1.7000*%
%ADD94O,1.2000X1.9000*%
%ADD95C,0.7500*%
%ADD96O,1.4000X2.8500*%
%ADD97O,1.2000X2.2500*%
%ADD98C,0.5000*%
%ADD99C,1.5000*%
%ADD100R,1.5000X1.5000*%
%ADD101O,4.5000X2.0000*%
%ADD102O,2.0000X4.0000*%
%ADD103O,4.0000X2.0000*%
%ADD104C,1.7000*%
%ADD105C,3.2500*%
%ADD106C,1.6500*%
%ADD107C,2.6000*%
%ADD108C,1.9000*%
%ADD109R,1.7000X1.7000*%
%ADD110C,0.6000*%
%ADD111C,1.0160*%
%ADD112R,3.4000X0.8000*%
%ADD113R,6.2000X1.5000*%
%ADD114O,1.6160X2.2160*%
%ADD115C,1.4160*%
%ADD116C,4.7160*%
%ADD117O,1.6160X2.1160*%
%ADD118O,1.6160X2.3160*%
%ADD119C,1.5660*%
%ADD120C,2.0160*%
%ADD121O,1.9160X3.3660*%
%ADD122O,1.7160X2.7560*%
%ADD123C,1.9160*%
%ADD124C,2.0360*%
%ADD125O,2.0160X4.0160*%
%ADD126O,4.0160X2.0160*%
%ADD127C,1.9060*%
%ADD128C,4.2660*%
%ADD129C,2.0360*%
%ADD130C,2.7160*%
%ADD131C,2.6160*%
%ADD132C,2.1160*%
%ADD133C,1.1660*%
%ADD134C,1.2660*%
%ADD135C,1.2160*%
%ADD136C,0.0000*%
%ADD137C,0.0051*%
%ADD138O,4.5160X2.0160*%
%ADD139R,1.2000X0.3000*%
%ADD140R,2.7000X3.0000*%
%ADD141R,3.0000X2.7000*%
%ADD142C,0.2540*%
%ADD143C,0.1000*%
%ADD144C,0.5500*%
%ADD145C,0.2286*%
%ADD146C,0.1270*%
%ADD147C,0.1778*%
%ADD148C,0.1524*%
%ADD149C,0.1200*%
%ADD150R,0.5032X0.5032*%
%ADD151R,0.6532X1.5832*%
%ADD152R,0.9652X0.9652*%
%ADD153R,0.8032X0.7532*%
%ADD154R,0.9652X0.9652*%
%ADD155R,0.8232X0.7732*%
%ADD156R,1.1532X1.1532*%
%ADD157R,1.1632X1.1732*%
%ADD158R,0.7532X1.7032*%
%ADD159R,1.1532X1.1532*%
%ADD160R,1.2032X0.8032*%
%ADD161R,0.7532X0.8032*%
%ADD162R,1.4032X3.2032*%
%ADD163R,0.8032X1.2032*%
%ADD164R,1.7532X1.7532*%
%ADD165O,0.8032X0.5032*%
%ADD166R,0.7032X0.6032*%
%ADD167R,0.7732X0.8232*%
%ADD168R,2.6032X1.7032*%
%ADD169R,0.7932X0.6532*%
%ADD170R,0.5532X1.0532*%
%ADD171R,0.4032X1.2032*%
%ADD172R,0.5032X1.4032*%
%ADD173R,3.4032X1.4032*%
%ADD174R,0.6532X0.4032*%
%ADD175R,0.7032X0.4032*%
%ADD176R,0.4032X0.6532*%
%ADD177R,0.4032X0.7032*%
%ADD178R,0.6532X0.7932*%
%ADD179R,0.5032X1.6532*%
%ADD180R,1.3032X1.6032*%
%ADD181R,0.4332X1.2032*%
%ADD182R,0.6032X0.7532*%
%ADD183R,0.5032X0.7532*%
%ADD184R,1.4532X1.9532*%
%ADD185R,1.1732X1.1632*%
%ADD186R,2.3032X2.3032*%
%ADD187R,0.4532X0.8032*%
%ADD188R,0.8032X0.4532*%
%ADD189O,0.7032X1.8032*%
%ADD190R,0.5032X0.5032*%
%ADD191R,1.2192X1.9032*%
%ADD192R,1.2192X1.9032*%
%ADD193R,1.2032X1.7032*%
%ADD194O,0.5032X1.0032*%
%ADD195O,1.0032X0.5032*%
G04:AMPARAMS|DCode=196|XSize=0.9532mm|YSize=1.8032mm|CornerRadius=0.1766mm|HoleSize=0mm|Usage=FLASHONLY|Rotation=270.000|XOffset=0mm|YOffset=0mm|HoleType=Round|Shape=RoundedRectangle|*
%AMROUNDEDRECTD196*
21,1,0.9532,1.4500,0,0,270.0*
21,1,0.6000,1.8032,0,0,270.0*
1,1,0.3532,-0.7250,-0.3000*
1,1,0.3532,-0.7250,0.3000*
1,1,0.3532,0.7250,0.3000*
1,1,0.3532,0.7250,-0.3000*
%
%ADD196ROUNDEDRECTD196*%
G04:AMPARAMS|DCode=197|XSize=0.8032mm|YSize=2.0032mm|CornerRadius=0.1616mm|HoleSize=0mm|Usage=FLASHONLY|Rotation=270.000|XOffset=0mm|YOffset=0mm|HoleType=Round|Shape=RoundedRectangle|*
%AMROUNDEDRECTD197*
21,1,0.8032,1.6800,0,0,270.0*
21,1,0.4800,2.0032,0,0,270.0*
1,1,0.3232,-0.8400,-0.2400*
1,1,0.3232,-0.8400,0.2400*
1,1,0.3232,0.8400,0.2400*
1,1,0.3232,0.8400,-0.2400*
%
%ADD197ROUNDEDRECTD197*%
G04:AMPARAMS|DCode=198|XSize=1.5032mm|YSize=0.9032mm|CornerRadius=0.1716mm|HoleSize=0mm|Usage=FLASHONLY|Rotation=270.000|XOffset=0mm|YOffset=0mm|HoleType=Round|Shape=RoundedRectangle|*
%AMROUNDEDRECTD198*
21,1,1.5032,0.5600,0,0,270.0*
21,1,1.1600,0.9032,0,0,270.0*
1,1,0.3432,-0.2800,-0.5800*
1,1,0.3432,-0.2800,0.5800*
1,1,0.3432,0.2800,0.5800*
1,1,0.3432,0.2800,-0.5800*
%
%ADD198ROUNDEDRECTD198*%
%ADD199R,3.4032X3.4032*%
%ADD200R,0.9532X0.5032*%
%ADD201R,0.5032X0.9532*%
%ADD202R,1.2192X1.4732*%
%ADD203R,0.6032X1.1032*%
%ADD204R,0.6032X0.7032*%
%ADD205R,1.5932X1.6032*%
%ADD206R,3.5632X5.0632*%
%ADD207R,1.6032X1.3032*%
%ADD208R,1.0532X0.5592*%
%ADD209R,2.8032X3.2032*%
%ADD210R,0.5032X1.9532*%
%ADD211R,2.2032X3.7032*%
%ADD212R,3.6032X2.6032*%
%ADD213R,1.9032X1.2192*%
%ADD214R,1.9032X1.2192*%
%ADD215R,1.6032X2.3032*%
%ADD216R,2.5732X2.1032*%
%ADD217R,1.3782X2.1032*%
%ADD218O,1.2032X1.8032*%
%ADD219C,0.8532*%
%ADD220C,0.2032*%
%ADD221C,6.2032*%
%ADD222O,1.4032X1.9032*%
%ADD223O,1.4032X2.1032*%
%ADD224C,0.9532*%
%ADD225O,1.6032X3.0532*%
%ADD226O,1.4032X2.4532*%
%ADD227C,0.7032*%
%ADD228C,1.7032*%
%ADD229R,1.7032X1.7032*%
%ADD230O,4.7032X2.2032*%
%ADD231O,2.2032X4.2032*%
%ADD232O,4.2032X2.2032*%
%ADD233C,1.9032*%
%ADD234C,3.4532*%
%ADD235C,1.8532*%
%ADD236C,2.8032*%
%ADD237C,2.1032*%
%ADD238R,1.9032X1.9032*%
%ADD239R,1.4032X0.5032*%
%ADD240R,2.9032X3.2032*%
%ADD241R,3.2032X2.9032*%
G36*
X-215674Y352632D02*
X-215462Y352590D01*
X-215322Y352548D01*
X-215293Y352534D01*
X-215279Y352519D01*
X-215082Y352407D01*
X-214927Y352294D01*
X-214828Y352209D01*
X-214800Y352167D01*
X-214659Y351998D01*
X-214546Y351829D01*
X-214462Y351646D01*
X-214236Y351068D01*
X-214053Y350490D01*
X-213855Y349982D01*
X-213771Y349827D01*
X-213686Y349714D01*
X-213602Y349616D01*
X-213489Y349545D01*
X-213376Y349503D01*
X-213277Y349489D01*
X-213249D01*
X-213038Y349531D01*
X-212869Y349616D01*
X-212770Y349700D01*
X-212756Y349728D01*
X-212742Y349742D01*
X-212629Y349968D01*
X-212573Y350208D01*
X-212544Y350405D01*
Y350461D01*
Y350475D01*
X-212559Y350687D01*
X-212573Y350842D01*
X-212601Y350941D01*
X-212615Y350969D01*
Y350983D01*
X-212700Y351265D01*
X-212742Y351349D01*
X-212756Y351378D01*
X-212855Y351603D01*
X-212883Y351660D01*
X-212897Y351688D01*
X-212939Y351857D01*
X-212953Y351913D01*
Y351927D01*
X-212925Y352068D01*
X-212911Y352097D01*
Y352111D01*
X-212826Y352195D01*
X-212784Y352224D01*
X-212770Y352238D01*
X-212206Y352590D01*
X-212079Y352449D01*
X-211966Y352294D01*
X-211783Y351998D01*
X-211628Y351674D01*
X-211501Y351251D01*
X-211431Y350856D01*
X-211403Y350447D01*
X-211431Y350024D01*
X-211459Y349841D01*
X-211487Y349686D01*
X-211572Y349376D01*
X-211628Y349221D01*
X-211699Y349066D01*
X-211840Y348826D01*
X-211995Y348615D01*
X-212206Y348417D01*
X-212418Y348276D01*
X-212629Y348149D01*
X-212897Y348065D01*
X-213137Y348008D01*
X-213376Y347994D01*
X-213672Y348008D01*
X-213912Y348065D01*
X-214123Y348121D01*
X-214321Y348234D01*
X-214490Y348361D01*
X-214631Y348488D01*
X-214772Y348657D01*
X-214885Y348826D01*
X-214955Y348953D01*
X-214969Y348981D01*
X-214983Y348995D01*
X-215152Y349404D01*
X-215209Y349531D01*
X-215223Y349573D01*
Y349587D01*
X-215350Y349996D01*
X-215392Y350137D01*
X-215406Y350165D01*
Y350179D01*
X-215477Y350391D01*
X-215533Y350546D01*
X-215589Y350659D01*
X-215604Y350687D01*
Y350701D01*
X-215688Y350856D01*
X-215773Y350969D01*
X-215829Y351025D01*
X-215857Y351053D01*
X-215970Y351138D01*
X-216097Y351180D01*
X-216224Y351194D01*
X-216435Y351166D01*
X-216520Y351138D01*
X-216618Y351082D01*
X-216703Y351025D01*
X-216774Y350941D01*
X-216900Y350729D01*
X-216943Y350616D01*
X-216999Y350306D01*
X-217013Y350137D01*
X-216999Y349897D01*
X-216971Y349714D01*
X-216929Y349545D01*
X-216816Y349263D01*
X-216759Y349150D01*
X-216576Y348840D01*
X-216506Y348657D01*
X-216492Y348572D01*
X-216506Y348474D01*
X-216520Y348403D01*
X-216548Y348333D01*
X-216604Y348262D01*
X-216647Y348206D01*
X-216717Y348163D01*
X-217309Y347811D01*
X-217535Y348093D01*
X-217605Y348206D01*
X-217619Y348234D01*
X-217633Y348248D01*
X-217817Y348615D01*
X-217873Y348741D01*
X-217887Y348770D01*
Y348784D01*
X-218000Y349207D01*
X-218028Y349348D01*
X-218042Y349390D01*
Y349404D01*
X-218085Y349855D01*
X-218099Y350010D01*
Y350052D01*
Y350067D01*
X-218071Y350504D01*
X-218014Y350856D01*
X-217972Y351096D01*
X-217944Y351166D01*
Y351180D01*
X-217873Y351363D01*
X-217803Y351519D01*
X-217662Y351772D01*
X-217549Y351941D01*
X-217521Y351984D01*
X-217507Y351998D01*
X-217267Y352209D01*
X-217055Y352364D01*
X-216886Y352463D01*
X-216830Y352491D01*
X-216816D01*
X-216506Y352590D01*
X-216224Y352646D01*
X-216026Y352660D01*
X-215942D01*
X-215674Y352632D01*
D02*
G37*
G36*
X-213855Y359427D02*
X-213644Y359385D01*
X-213461Y359356D01*
X-213193Y359272D01*
X-213122Y359258D01*
X-213094Y359244D01*
X-212897Y359159D01*
X-212714Y359061D01*
X-212418Y358863D01*
X-212234Y358722D01*
X-212178Y358666D01*
X-212164Y358652D01*
X-211910Y358356D01*
X-211741Y358074D01*
X-211600Y357764D01*
X-211487Y357369D01*
X-211431Y357002D01*
X-211403Y356622D01*
X-211417Y356354D01*
X-211445Y356114D01*
X-211487Y355889D01*
X-211530Y355691D01*
X-211572Y355536D01*
X-211614Y355409D01*
X-211656Y355311D01*
X-211755Y355099D01*
X-211868Y354916D01*
X-212093Y354606D01*
X-212277Y354394D01*
X-212347Y354324D01*
X-212685Y354056D01*
X-213010Y353873D01*
X-213362Y353704D01*
X-213799Y353577D01*
X-214208Y353520D01*
X-214617Y353492D01*
X-215209Y353535D01*
X-215462Y353563D01*
X-215688Y353619D01*
X-216012Y353689D01*
X-216125Y353732D01*
X-216351Y353830D01*
X-216562Y353943D01*
X-216759Y354056D01*
X-216915Y354169D01*
X-217126Y354352D01*
X-217211Y354423D01*
X-217366Y354592D01*
X-217493Y354761D01*
X-217704Y355099D01*
X-217831Y355339D01*
X-217859Y355409D01*
X-217873Y355438D01*
X-218000Y355875D01*
X-218056Y356283D01*
X-218085Y356579D01*
Y356664D01*
Y356692D01*
X-218071Y356960D01*
X-218056Y357186D01*
X-218042Y357355D01*
Y357397D01*
Y357411D01*
X-218000Y357679D01*
X-217944Y357905D01*
X-217887Y358060D01*
X-217873Y358102D01*
Y358116D01*
X-217774Y358370D01*
X-217662Y358581D01*
X-217577Y358736D01*
X-217563Y358779D01*
X-217549Y358793D01*
X-217380Y359018D01*
X-217211Y359216D01*
X-217084Y359342D01*
X-217055Y359371D01*
X-217041Y359385D01*
X-216463Y358934D01*
X-216379Y358849D01*
X-216336Y358750D01*
X-216322Y358638D01*
X-216336Y358539D01*
X-216365Y358440D01*
X-216407Y358341D01*
X-216604Y357975D01*
X-216745Y357665D01*
X-216802Y357496D01*
X-216872Y357059D01*
X-216886Y356833D01*
X-216872Y356565D01*
X-216830Y356340D01*
X-216774Y356142D01*
X-216675Y355931D01*
X-216548Y355748D01*
X-216421Y355593D01*
X-216224Y355438D01*
X-216026Y355325D01*
X-215871Y355254D01*
X-215829Y355240D01*
X-215815Y355226D01*
X-215251Y355099D01*
X-215040Y355071D01*
X-214969Y355057D01*
X-214955D01*
Y359089D01*
X-214941Y359230D01*
X-214885Y359314D01*
X-214842Y359356D01*
X-214828Y359371D01*
X-214701Y359427D01*
X-214546Y359441D01*
X-214405Y359455D01*
X-214349D01*
X-213855Y359427D01*
D02*
G37*
G36*
X-230982Y351814D02*
X-230587Y351786D01*
X-229938Y351701D01*
X-229501Y351616D01*
X-229389Y351588D01*
X-229360Y351574D01*
X-229346D01*
X-229022Y351475D01*
X-228740Y351348D01*
X-228486Y351236D01*
X-228275Y351123D01*
X-227979Y350926D01*
X-227908Y350883D01*
X-227880Y350855D01*
X-227683Y350686D01*
X-227500Y350503D01*
X-227232Y350150D01*
X-227077Y349883D01*
X-227020Y349784D01*
X-226851Y349319D01*
X-226766Y348896D01*
X-226738Y348459D01*
X-226752Y348191D01*
X-226781Y347951D01*
X-226823Y347726D01*
X-226879Y347514D01*
X-226978Y347232D01*
X-227020Y347119D01*
X-227133Y346908D01*
X-227274Y346697D01*
X-227415Y346513D01*
X-227556Y346358D01*
X-227880Y346062D01*
X-228106Y345907D01*
X-228345Y345766D01*
X-228825Y345541D01*
X-229346Y345357D01*
X-230037Y345216D01*
X-230714Y345132D01*
X-231418Y345104D01*
X-231856Y345118D01*
X-232250Y345146D01*
X-232913Y345230D01*
X-233350Y345315D01*
X-233505Y345357D01*
X-233815Y345456D01*
X-234111Y345569D01*
X-234351Y345696D01*
X-234576Y345808D01*
X-234745Y345907D01*
X-234872Y345992D01*
X-234971Y346062D01*
X-235168Y346231D01*
X-235352Y346415D01*
X-235619Y346767D01*
X-235774Y347021D01*
X-235817Y347091D01*
X-235831Y347119D01*
X-235986Y347585D01*
X-236056Y348022D01*
X-236085Y348332D01*
X-236099Y348430D01*
Y348459D01*
X-236085Y348712D01*
X-236056Y348966D01*
X-236014Y349192D01*
X-235958Y349389D01*
X-235915Y349558D01*
X-235873Y349671D01*
X-235845Y349756D01*
X-235831Y349784D01*
X-235718Y350009D01*
X-235577Y350207D01*
X-235436Y350390D01*
X-235295Y350559D01*
X-235070Y350771D01*
X-234999Y350841D01*
X-234971Y350855D01*
X-234745Y351024D01*
X-234492Y351165D01*
X-234026Y351391D01*
X-233646Y351532D01*
X-233547Y351560D01*
X-233519Y351574D01*
X-233505D01*
X-232800Y351715D01*
X-232123Y351800D01*
X-231616Y351828D01*
X-231418D01*
X-230982Y351814D01*
D02*
G37*
G36*
X-234830Y357058D02*
X-226823D01*
Y355775D01*
X-229205Y352970D01*
X-229882Y353477D01*
X-229952Y353534D01*
X-229981Y353562D01*
X-229995Y353576D01*
X-230037Y353703D01*
X-230051Y353745D01*
Y353759D01*
Y353900D01*
Y353956D01*
Y353971D01*
X-230023Y354055D01*
X-229981Y354126D01*
X-229952Y354182D01*
X-229938Y354196D01*
X-228839Y355507D01*
X-229487Y355493D01*
X-234830D01*
Y353632D01*
X-236000D01*
Y358707D01*
X-234830D01*
Y357058D01*
D02*
G37*
G36*
X-213503Y346768D02*
X-213334Y346740D01*
X-213179Y346712D01*
X-212967Y346655D01*
X-212897Y346641D01*
X-212883Y346627D01*
X-212714Y346571D01*
X-212559Y346486D01*
X-212432Y346415D01*
X-212319Y346331D01*
X-212150Y346218D01*
X-212107Y346176D01*
X-212093Y346162D01*
X-211868Y345908D01*
X-211699Y345668D01*
X-211572Y345401D01*
X-211459Y345048D01*
X-211403Y344724D01*
X-211374Y344371D01*
X-211388Y344090D01*
X-211417Y343807D01*
X-211473Y343540D01*
X-211530Y343286D01*
X-211614Y343046D01*
X-211699Y342821D01*
X-211797Y342623D01*
X-211882Y342440D01*
X-212079Y342116D01*
X-212248Y341876D01*
X-212404Y341679D01*
X-212911Y341947D01*
X-213052Y342060D01*
X-213094Y342116D01*
X-213108Y342130D01*
X-213151Y342229D01*
X-213179Y342313D01*
X-213193Y342384D01*
Y342412D01*
X-213179Y342553D01*
X-213151Y342666D01*
X-213122Y342736D01*
X-213108Y342764D01*
X-212967Y342990D01*
X-212925Y343074D01*
X-212911Y343089D01*
Y343103D01*
X-212770Y343399D01*
X-212728Y343497D01*
X-212714Y343526D01*
Y343540D01*
X-212657Y343751D01*
X-212629Y343949D01*
X-212615Y344118D01*
Y344160D01*
Y344174D01*
X-212629Y344357D01*
X-212671Y344526D01*
X-212770Y344780D01*
X-212883Y344921D01*
X-212939Y344978D01*
X-213066Y345076D01*
X-213221Y345147D01*
X-213531Y345231D01*
X-213898Y345260D01*
X-214278D01*
X-214293Y344865D01*
X-214321Y344498D01*
X-214405Y343906D01*
X-214433Y343695D01*
X-214476Y343540D01*
X-214504Y343399D01*
X-214574Y343131D01*
X-214659Y342891D01*
X-214729Y342694D01*
X-214814Y342525D01*
X-214927Y342285D01*
X-214983Y342201D01*
X-215096Y342045D01*
X-215195Y341904D01*
X-215406Y341707D01*
X-215618Y341552D01*
X-215885Y341453D01*
X-216111Y341397D01*
X-216351Y341369D01*
X-216647Y341383D01*
X-216900Y341439D01*
X-217112Y341496D01*
X-217225Y341552D01*
X-217337Y341623D01*
X-217507Y341749D01*
X-217662Y341890D01*
X-217803Y342088D01*
X-217915Y342285D01*
X-217972Y342440D01*
X-218000Y342482D01*
Y342496D01*
X-218085Y343004D01*
X-218099Y343187D01*
Y343244D01*
Y343258D01*
X-218071Y343709D01*
X-218042Y343850D01*
Y343878D01*
Y343892D01*
X-218000Y344104D01*
X-217944Y344273D01*
X-217901Y344400D01*
X-217887Y344428D01*
Y344442D01*
X-217789Y344625D01*
X-217704Y344780D01*
X-217633Y344879D01*
X-217605Y344907D01*
Y344921D01*
X-217478Y345104D01*
X-217337Y345260D01*
X-217253Y345372D01*
X-217225Y345401D01*
X-217211Y345415D01*
X-217676Y345556D01*
X-217803Y345612D01*
X-217887Y345668D01*
X-217929Y345725D01*
X-217944Y345739D01*
X-217986Y345950D01*
X-218000Y346049D01*
Y346063D01*
Y346077D01*
Y346796D01*
X-213898D01*
X-213503Y346768D01*
D02*
G37*
G36*
X-234914Y344173D02*
X-234788Y344131D01*
X-234717Y344075D01*
X-234689Y344060D01*
Y344046D01*
X-234604Y343919D01*
X-234562Y343793D01*
X-234548Y343652D01*
Y341297D01*
X-234576Y340917D01*
X-234604Y340733D01*
X-234689Y340325D01*
X-234731Y340141D01*
X-232617Y342214D01*
X-232095Y342707D01*
X-231926Y342862D01*
X-231884Y342904D01*
X-231870Y342919D01*
X-231348Y343341D01*
X-231179Y343454D01*
X-231122Y343482D01*
X-231108Y343497D01*
X-230544Y343793D01*
X-230361Y343863D01*
X-230305Y343891D01*
X-230291D01*
X-229952Y343976D01*
X-229656Y344032D01*
X-229431Y344046D01*
X-229346D01*
X-229135Y344032D01*
X-228923Y344018D01*
X-228585Y343948D01*
X-228359Y343863D01*
X-228289Y343849D01*
X-228275Y343835D01*
X-228106Y343750D01*
X-227951Y343666D01*
X-227810Y343567D01*
X-227683Y343468D01*
X-227514Y343313D01*
X-227457Y343257D01*
X-227218Y342961D01*
X-227062Y342665D01*
X-226950Y342439D01*
X-226922Y342355D01*
X-226809Y341960D01*
X-226766Y341579D01*
X-226738Y341199D01*
Y340973D01*
X-226766Y340762D01*
X-226823Y340395D01*
X-226907Y340057D01*
X-226978Y339860D01*
X-227048Y339690D01*
X-227133Y339521D01*
X-227218Y339380D01*
X-227344Y339183D01*
X-227401Y339112D01*
X-227528Y338971D01*
X-227669Y338830D01*
X-227936Y338619D01*
X-228233Y338436D01*
X-228994Y338154D01*
X-229389Y338069D01*
X-229529Y338887D01*
X-229544Y339098D01*
X-229529Y339253D01*
X-229515Y339352D01*
X-229501Y339380D01*
X-229459Y339451D01*
X-229403Y339507D01*
X-229262Y339592D01*
X-229149Y339648D01*
X-229121Y339662D01*
X-229107D01*
X-228951Y339719D01*
X-228811Y339789D01*
X-228726Y339845D01*
X-228712Y339860D01*
X-228698D01*
X-228557Y339958D01*
X-228458Y340057D01*
X-228388Y340141D01*
X-228359Y340170D01*
X-228190Y340452D01*
X-228148Y340550D01*
X-228134Y340578D01*
Y340592D01*
X-228063Y340945D01*
X-228049Y341072D01*
Y341100D01*
Y341114D01*
X-228063Y341326D01*
X-228092Y341495D01*
X-228120Y341608D01*
X-228134Y341636D01*
Y341650D01*
X-228204Y341819D01*
X-228303Y341960D01*
X-228374Y342044D01*
X-228388Y342073D01*
X-228402D01*
X-228543Y342200D01*
X-228670Y342270D01*
X-228825Y342341D01*
X-229205Y342425D01*
X-229403Y342439D01*
X-229529D01*
X-229656Y342425D01*
X-229882Y342397D01*
X-230093Y342341D01*
X-230333Y342256D01*
X-230544Y342157D01*
X-230742Y342059D01*
X-230967Y341904D01*
X-231179Y341763D01*
X-231376Y341593D01*
X-231616Y341382D01*
X-231827Y341185D01*
X-232053Y340973D01*
X-234844Y338196D01*
X-235056Y338027D01*
X-235154Y337971D01*
X-235380Y337928D01*
X-235492Y337914D01*
X-236000D01*
Y344201D01*
X-235070D01*
X-234914Y344173D01*
D02*
G37*
G36*
X-232997Y330908D02*
X-232729Y330866D01*
X-232504Y330795D01*
X-232321Y330725D01*
X-232053Y330584D01*
X-231982Y330527D01*
X-231954Y330513D01*
X-231771Y330344D01*
X-231602Y330161D01*
X-231348Y329752D01*
X-231151Y329287D01*
X-231052Y329526D01*
X-230967Y329724D01*
X-230897Y329851D01*
X-230869Y329879D01*
Y329893D01*
X-230728Y330090D01*
X-230601Y330231D01*
X-230502Y330330D01*
X-230474Y330344D01*
X-230460Y330358D01*
X-230263Y330485D01*
X-230065Y330570D01*
X-229924Y330626D01*
X-229882Y330640D01*
X-229868D01*
X-229346Y330725D01*
X-229163Y330739D01*
X-229093D01*
X-228909Y330725D01*
X-228740Y330710D01*
X-228585Y330682D01*
X-228444Y330640D01*
X-228247Y330570D01*
X-228190Y330555D01*
X-228176Y330541D01*
X-228021Y330471D01*
X-227866Y330372D01*
X-227626Y330203D01*
X-227471Y330048D01*
X-227415Y329992D01*
X-227204Y329696D01*
X-227048Y329414D01*
X-226922Y329118D01*
X-226809Y328723D01*
X-226766Y328356D01*
X-226738Y327976D01*
Y327750D01*
X-226766Y327539D01*
X-226823Y327172D01*
X-226907Y326834D01*
X-227048Y326467D01*
X-227133Y326312D01*
X-227218Y326171D01*
X-227344Y325974D01*
X-227401Y325904D01*
X-227528Y325762D01*
X-227669Y325621D01*
X-227936Y325410D01*
X-228233Y325213D01*
X-228994Y324931D01*
X-229389Y324846D01*
X-229529Y325678D01*
X-229544Y325889D01*
X-229529Y326030D01*
X-229515Y326129D01*
X-229501Y326157D01*
X-229403Y326284D01*
X-229262Y326369D01*
X-229149Y326439D01*
X-229121Y326453D01*
X-229107D01*
X-228951Y326510D01*
X-228811Y326566D01*
X-228726Y326622D01*
X-228712Y326637D01*
X-228698D01*
X-228557Y326735D01*
X-228458Y326834D01*
X-228388Y326918D01*
X-228359Y326947D01*
X-228190Y327229D01*
X-228148Y327327D01*
X-228134Y327355D01*
Y327370D01*
X-228063Y327722D01*
X-228049Y327849D01*
Y327877D01*
Y327891D01*
X-228063Y328103D01*
X-228106Y328286D01*
X-228162Y328455D01*
X-228218Y328596D01*
X-228331Y328779D01*
X-228374Y328836D01*
X-228388Y328850D01*
X-228529Y328977D01*
X-228684Y329061D01*
X-229008Y329174D01*
X-229262Y329216D01*
X-229374D01*
X-229586Y329202D01*
X-229755Y329174D01*
X-229924Y329118D01*
X-230093Y329033D01*
X-230234Y328934D01*
X-230361Y328807D01*
X-230488Y328624D01*
X-230573Y328427D01*
X-230643Y328201D01*
X-230742Y327581D01*
X-230756Y327243D01*
X-231870D01*
Y327496D01*
X-231884Y327708D01*
X-231898Y327905D01*
X-231926Y328060D01*
X-231968Y328286D01*
X-231982Y328342D01*
Y328356D01*
X-232025Y328511D01*
X-232067Y328638D01*
X-232123Y328751D01*
X-232166Y328836D01*
X-232250Y328948D01*
X-232264Y328977D01*
X-232278Y328991D01*
X-232433Y329132D01*
X-232574Y329230D01*
X-232744Y329287D01*
X-233138Y329343D01*
X-233336Y329357D01*
X-233519Y329343D01*
X-233688Y329315D01*
X-233857Y329258D01*
X-234041Y329174D01*
X-234181Y329075D01*
X-234322Y328963D01*
X-234463Y328807D01*
X-234576Y328638D01*
X-234661Y328455D01*
X-234774Y328004D01*
X-234788Y327764D01*
X-234774Y327525D01*
X-234731Y327327D01*
X-234689Y327144D01*
X-234590Y326961D01*
X-234506Y326820D01*
X-234407Y326693D01*
X-234153Y326467D01*
X-234055Y326397D01*
X-234041Y326383D01*
X-234026Y326369D01*
X-233730Y326199D01*
X-233632Y326143D01*
X-233603Y326129D01*
X-233589D01*
X-233519Y326087D01*
X-233463Y326030D01*
X-233392Y325918D01*
X-233336Y325777D01*
X-233322Y325607D01*
X-233336Y325438D01*
X-233392Y325269D01*
X-233674Y324578D01*
X-234083Y324733D01*
X-234421Y324888D01*
X-234717Y325043D01*
X-235027Y325255D01*
X-235267Y325466D01*
X-235422Y325636D01*
X-235464Y325678D01*
X-235478Y325692D01*
X-235676Y325988D01*
X-235831Y326284D01*
X-235915Y326496D01*
X-235930Y326552D01*
X-235944Y326580D01*
X-236070Y327370D01*
X-236099Y327666D01*
Y327750D01*
Y327778D01*
X-236070Y328229D01*
X-236014Y328610D01*
X-235958Y328878D01*
X-235930Y328948D01*
Y328977D01*
X-235859Y329188D01*
X-235774Y329371D01*
X-235591Y329696D01*
X-235507Y329808D01*
X-235450Y329907D01*
X-235408Y329963D01*
X-235394Y329977D01*
X-235098Y330274D01*
X-234816Y330485D01*
X-234590Y330626D01*
X-234534Y330654D01*
X-234506Y330668D01*
X-234083Y330809D01*
X-233688Y330894D01*
X-233392Y330922D01*
X-233124D01*
X-232997Y330908D01*
D02*
G37*
G36*
X-213503Y380065D02*
X-213334Y380037D01*
X-213179Y380009D01*
X-212967Y379952D01*
X-212897Y379938D01*
X-212883Y379924D01*
X-212714Y379868D01*
X-212559Y379783D01*
X-212432Y379713D01*
X-212319Y379628D01*
X-212150Y379515D01*
X-212107Y379473D01*
X-212093Y379459D01*
X-211868Y379205D01*
X-211699Y378965D01*
X-211572Y378698D01*
X-211459Y378345D01*
X-211403Y378021D01*
X-211374Y377668D01*
X-211388Y377387D01*
X-211417Y377105D01*
X-211473Y376837D01*
X-211530Y376583D01*
X-211614Y376343D01*
X-211699Y376118D01*
X-211797Y375920D01*
X-211882Y375737D01*
X-212079Y375413D01*
X-212248Y375173D01*
X-212404Y374976D01*
X-212911Y375244D01*
X-213052Y375357D01*
X-213094Y375413D01*
X-213108Y375427D01*
X-213151Y375526D01*
X-213179Y375610D01*
X-213193Y375681D01*
Y375709D01*
X-213179Y375850D01*
X-213151Y375963D01*
X-213122Y376033D01*
X-213108Y376062D01*
X-212967Y376287D01*
X-212925Y376372D01*
X-212911Y376386D01*
Y376400D01*
X-212770Y376696D01*
X-212728Y376795D01*
X-212714Y376823D01*
Y376837D01*
X-212657Y377048D01*
X-212629Y377246D01*
X-212615Y377415D01*
Y377457D01*
Y377471D01*
X-212629Y377654D01*
X-212671Y377824D01*
X-212770Y378077D01*
X-212883Y378218D01*
X-212939Y378275D01*
X-213066Y378373D01*
X-213221Y378444D01*
X-213531Y378529D01*
X-213898Y378557D01*
X-214278D01*
X-214293Y378162D01*
X-214321Y377795D01*
X-214405Y377203D01*
X-214433Y376992D01*
X-214476Y376837D01*
X-214504Y376696D01*
X-214574Y376428D01*
X-214659Y376188D01*
X-214729Y375991D01*
X-214814Y375822D01*
X-214927Y375582D01*
X-214983Y375498D01*
X-215096Y375342D01*
X-215195Y375202D01*
X-215406Y375004D01*
X-215618Y374849D01*
X-215885Y374751D01*
X-216111Y374694D01*
X-216351Y374666D01*
X-216647Y374680D01*
X-216900Y374736D01*
X-217112Y374793D01*
X-217225Y374849D01*
X-217337Y374920D01*
X-217507Y375047D01*
X-217662Y375187D01*
X-217803Y375385D01*
X-217915Y375582D01*
X-217972Y375737D01*
X-218000Y375779D01*
Y375794D01*
X-218085Y376301D01*
X-218099Y376484D01*
Y376541D01*
Y376555D01*
X-218071Y377006D01*
X-218042Y377147D01*
Y377175D01*
Y377189D01*
X-218000Y377401D01*
X-217944Y377570D01*
X-217901Y377697D01*
X-217887Y377725D01*
Y377739D01*
X-217789Y377922D01*
X-217704Y378077D01*
X-217633Y378176D01*
X-217605Y378204D01*
Y378218D01*
X-217478Y378402D01*
X-217337Y378557D01*
X-217253Y378669D01*
X-217225Y378698D01*
X-217211Y378712D01*
X-217676Y378853D01*
X-217803Y378909D01*
X-217887Y378965D01*
X-217929Y379022D01*
X-217944Y379036D01*
X-217986Y379247D01*
X-218000Y379346D01*
Y379360D01*
Y379374D01*
Y380093D01*
X-213898D01*
X-213503Y380065D01*
D02*
G37*
G36*
X-214194Y373890D02*
X-213954Y373848D01*
X-213757Y373806D01*
X-213461Y373736D01*
X-213376Y373707D01*
X-213348Y373693D01*
X-213122Y373609D01*
X-212925Y373496D01*
X-212742Y373383D01*
X-212587Y373284D01*
X-212375Y373115D01*
X-212319Y373059D01*
X-212305Y373045D01*
X-212023Y372706D01*
X-211811Y372382D01*
X-211642Y372030D01*
X-211501Y371579D01*
X-211431Y371156D01*
X-211403Y370719D01*
X-211417Y370451D01*
X-211445Y370197D01*
X-211515Y369774D01*
X-211600Y369492D01*
X-211642Y369380D01*
X-211741Y369168D01*
X-211840Y368971D01*
X-211952Y368801D01*
X-212051Y368647D01*
X-212305Y368364D01*
X-212643Y368097D01*
X-212981Y367885D01*
X-213348Y367716D01*
X-213827Y367589D01*
X-214278Y367519D01*
X-214744Y367491D01*
X-215293Y367533D01*
X-215519Y367561D01*
X-215730Y367603D01*
X-216026Y367688D01*
X-216139Y367716D01*
X-216365Y367815D01*
X-216562Y367913D01*
X-216900Y368125D01*
X-217112Y368294D01*
X-217197Y368364D01*
X-217478Y368703D01*
X-217690Y369027D01*
X-217817Y369281D01*
X-217845Y369351D01*
X-217859Y369380D01*
X-217986Y369845D01*
X-218056Y370282D01*
X-218085Y370592D01*
Y370690D01*
Y370705D01*
Y370719D01*
X-218071Y370987D01*
X-218042Y371226D01*
X-218014Y371452D01*
X-217972Y371649D01*
X-217887Y371931D01*
X-217873Y372001D01*
X-217859Y372030D01*
X-217760Y372241D01*
X-217662Y372439D01*
X-217549Y372608D01*
X-217436Y372763D01*
X-217267Y372974D01*
X-217211Y373031D01*
X-217197Y373045D01*
X-216844Y373327D01*
X-216506Y373524D01*
X-216238Y373651D01*
X-216167Y373679D01*
X-216139Y373693D01*
X-215660Y373820D01*
X-215209Y373890D01*
X-214870Y373919D01*
X-214744D01*
X-214194Y373890D01*
D02*
G37*
G36*
X-214067Y366588D02*
X-213644Y366532D01*
X-213362Y366475D01*
X-213292Y366461D01*
X-213263Y366447D01*
X-213052Y366377D01*
X-212855Y366306D01*
X-212544Y366137D01*
X-212418Y366067D01*
X-212333Y366010D01*
X-212277Y365968D01*
X-212262Y365954D01*
X-212107Y365827D01*
X-211981Y365700D01*
X-211783Y365446D01*
X-211628Y365179D01*
X-211501Y364826D01*
X-211431Y364502D01*
X-211403Y364164D01*
X-211417Y363938D01*
X-211445Y363727D01*
X-211473Y363543D01*
X-211515Y363388D01*
X-211600Y363149D01*
X-211642Y363064D01*
X-211741Y362895D01*
X-211840Y362726D01*
X-211952Y362585D01*
X-212065Y362458D01*
X-212305Y362204D01*
X-208583D01*
Y360625D01*
X-218000D01*
Y361668D01*
X-217986Y361767D01*
X-217972Y361852D01*
X-217958Y361894D01*
X-217944Y361908D01*
X-217873Y361979D01*
X-217803Y362021D01*
X-217732Y362035D01*
X-217704Y362049D01*
X-217267Y362119D01*
X-217394Y362232D01*
X-217507Y362345D01*
X-217577Y362416D01*
X-217591Y362444D01*
X-217605D01*
X-217803Y362697D01*
X-217859Y362796D01*
X-217873Y362810D01*
Y362824D01*
X-217944Y362994D01*
X-217986Y363134D01*
X-218014Y363247D01*
X-218028Y363275D01*
Y363290D01*
X-218071Y363656D01*
X-218085Y363783D01*
Y363825D01*
Y363839D01*
X-218071Y364065D01*
X-218042Y364291D01*
X-218000Y364488D01*
X-217958Y364643D01*
X-217887Y364897D01*
X-217859Y364953D01*
X-217845Y364981D01*
X-217746Y365164D01*
X-217633Y365334D01*
X-217507Y365489D01*
X-217394Y365616D01*
X-217211Y365799D01*
X-217154Y365841D01*
X-217140Y365855D01*
X-216774Y366095D01*
X-216407Y366278D01*
X-216139Y366377D01*
X-216055Y366405D01*
X-216026Y366419D01*
X-215068Y366588D01*
X-214715Y366617D01*
X-214321D01*
X-214067Y366588D01*
D02*
G37*
G36*
X-226583Y336392D02*
X-226611Y336194D01*
X-226654Y336039D01*
X-226724Y335898D01*
X-226851Y335771D01*
X-226978Y335673D01*
X-227133Y335588D01*
X-236592Y331895D01*
Y332557D01*
X-236564Y332741D01*
X-236522Y332882D01*
X-236465Y332994D01*
X-236451Y333022D01*
Y333036D01*
X-236324Y333192D01*
X-236183Y333304D01*
X-236056Y333375D01*
X-236028Y333389D01*
X-236014D01*
X-226583Y337068D01*
Y336392D01*
D02*
G37*
G36*
X-215011Y340495D02*
X-214758Y340424D01*
X-214518Y340340D01*
X-214307Y340213D01*
X-214109Y340072D01*
X-213954Y339917D01*
X-213672Y339564D01*
X-213475Y339212D01*
X-213348Y338916D01*
X-213263Y338620D01*
X-213151Y338916D01*
X-213038Y339141D01*
X-212939Y339296D01*
X-212925Y339339D01*
X-212911Y339353D01*
X-212742Y339564D01*
X-212601Y339719D01*
X-212488Y339832D01*
X-212460Y339846D01*
X-212446Y339860D01*
X-212079Y340086D01*
X-211952Y340142D01*
X-211910Y340156D01*
X-211896D01*
X-211473Y340241D01*
X-211332Y340255D01*
X-211276D01*
X-211064Y340241D01*
X-210881Y340227D01*
X-210557Y340156D01*
X-210345Y340086D01*
X-210275Y340072D01*
X-210261Y340058D01*
X-210092Y339987D01*
X-209951Y339889D01*
X-209824Y339790D01*
X-209711Y339691D01*
X-209556Y339536D01*
X-209499Y339466D01*
X-209387Y339311D01*
X-209288Y339127D01*
X-209133Y338789D01*
X-209006Y338408D01*
X-208907Y337901D01*
X-208851Y337407D01*
X-208837Y336872D01*
Y333714D01*
X-218000D01*
Y337182D01*
X-217986Y337464D01*
X-217972Y337732D01*
X-217901Y338183D01*
X-217831Y338479D01*
X-217817Y338563D01*
X-217803Y338592D01*
X-217718Y338817D01*
X-217633Y339029D01*
X-217535Y339212D01*
X-217450Y339353D01*
X-217309Y339578D01*
X-217267Y339635D01*
X-217253Y339649D01*
X-216957Y339931D01*
X-216689Y340128D01*
X-216478Y340241D01*
X-216407Y340269D01*
X-216393Y340283D01*
X-216012Y340410D01*
X-215660Y340481D01*
X-215406Y340509D01*
X-215308D01*
X-215011Y340495D01*
D02*
G37*
G36*
X-214194Y288237D02*
X-213954Y288195D01*
X-213757Y288153D01*
X-213461Y288082D01*
X-213376Y288054D01*
X-213348Y288040D01*
X-213122Y287955D01*
X-212925Y287843D01*
X-212742Y287730D01*
X-212587Y287631D01*
X-212375Y287462D01*
X-212319Y287405D01*
X-212305Y287391D01*
X-212023Y287053D01*
X-211811Y286729D01*
X-211642Y286376D01*
X-211501Y285925D01*
X-211431Y285502D01*
X-211403Y285065D01*
X-211417Y284797D01*
X-211445Y284544D01*
X-211515Y284121D01*
X-211600Y283839D01*
X-211642Y283726D01*
X-211741Y283515D01*
X-211840Y283317D01*
X-211952Y283148D01*
X-212051Y282993D01*
X-212305Y282711D01*
X-212643Y282443D01*
X-212981Y282232D01*
X-213348Y282063D01*
X-213827Y281936D01*
X-214278Y281865D01*
X-214744Y281837D01*
X-215293Y281879D01*
X-215519Y281908D01*
X-215730Y281950D01*
X-216026Y282034D01*
X-216139Y282063D01*
X-216365Y282161D01*
X-216562Y282260D01*
X-216900Y282472D01*
X-217112Y282641D01*
X-217197Y282711D01*
X-217478Y283050D01*
X-217690Y283374D01*
X-217817Y283627D01*
X-217845Y283698D01*
X-217859Y283726D01*
X-217986Y284191D01*
X-218056Y284628D01*
X-218085Y284939D01*
Y285037D01*
Y285051D01*
Y285065D01*
X-218071Y285333D01*
X-218042Y285573D01*
X-218014Y285798D01*
X-217972Y285996D01*
X-217887Y286278D01*
X-217873Y286348D01*
X-217859Y286376D01*
X-217760Y286588D01*
X-217662Y286785D01*
X-217549Y286954D01*
X-217436Y287109D01*
X-217267Y287321D01*
X-217211Y287377D01*
X-217197Y287391D01*
X-216844Y287673D01*
X-216506Y287871D01*
X-216238Y287997D01*
X-216167Y288026D01*
X-216139Y288040D01*
X-215660Y288167D01*
X-215209Y288237D01*
X-214870Y288265D01*
X-214744D01*
X-214194Y288237D01*
D02*
G37*
G36*
X-208837Y261678D02*
X-214969D01*
X-215138Y261664D01*
X-215420Y261636D01*
X-215674Y261580D01*
X-215914Y261495D01*
X-216111Y261397D01*
X-216266Y261298D01*
X-216407Y261143D01*
X-216520Y261002D01*
X-216604Y260833D01*
X-216661Y260621D01*
X-216689Y260410D01*
X-216703Y260198D01*
X-216675Y259874D01*
X-216661Y259747D01*
X-216604Y259550D01*
Y259465D01*
X-216618Y259352D01*
X-216647Y259268D01*
X-216703Y259197D01*
X-216774Y259141D01*
X-216844Y259113D01*
X-216929Y259099D01*
X-217436Y259042D01*
X-217944Y259000D01*
X-218028Y259479D01*
X-218042Y259634D01*
X-218056Y259677D01*
Y259691D01*
X-218085Y260156D01*
X-218099Y260311D01*
Y260353D01*
Y260367D01*
X-218085Y260635D01*
X-218056Y260889D01*
X-218028Y261115D01*
X-217986Y261298D01*
X-217901Y261580D01*
X-217887Y261650D01*
X-217873Y261678D01*
X-217774Y261876D01*
X-217662Y262059D01*
X-217549Y262228D01*
X-217450Y262369D01*
X-217267Y262552D01*
X-217211Y262609D01*
X-217197Y262623D01*
X-216844Y262877D01*
X-216506Y263046D01*
X-216238Y263159D01*
X-216167Y263173D01*
X-216139Y263187D01*
X-215209Y263356D01*
X-214870Y263384D01*
X-208837D01*
Y261678D01*
D02*
G37*
G36*
X-215674Y280963D02*
X-215462Y280921D01*
X-215322Y280879D01*
X-215293Y280864D01*
X-215279Y280850D01*
X-215082Y280738D01*
X-214927Y280625D01*
X-214828Y280540D01*
X-214800Y280498D01*
X-214659Y280329D01*
X-214546Y280160D01*
X-214462Y279976D01*
X-214236Y279398D01*
X-214053Y278820D01*
X-213855Y278313D01*
X-213771Y278158D01*
X-213686Y278045D01*
X-213602Y277946D01*
X-213489Y277876D01*
X-213376Y277834D01*
X-213277Y277819D01*
X-213249D01*
X-213038Y277862D01*
X-212869Y277946D01*
X-212770Y278031D01*
X-212756Y278059D01*
X-212742Y278073D01*
X-212629Y278299D01*
X-212573Y278538D01*
X-212544Y278736D01*
Y278792D01*
Y278806D01*
X-212559Y279018D01*
X-212573Y279173D01*
X-212601Y279272D01*
X-212615Y279300D01*
Y279314D01*
X-212700Y279596D01*
X-212742Y279680D01*
X-212756Y279708D01*
X-212855Y279934D01*
X-212883Y279990D01*
X-212897Y280019D01*
X-212939Y280188D01*
X-212953Y280244D01*
Y280258D01*
X-212925Y280399D01*
X-212911Y280427D01*
Y280441D01*
X-212826Y280526D01*
X-212784Y280554D01*
X-212770Y280568D01*
X-212206Y280921D01*
X-212079Y280780D01*
X-211966Y280625D01*
X-211783Y280329D01*
X-211628Y280005D01*
X-211501Y279582D01*
X-211431Y279187D01*
X-211403Y278778D01*
X-211431Y278355D01*
X-211459Y278172D01*
X-211487Y278017D01*
X-211572Y277707D01*
X-211628Y277552D01*
X-211699Y277397D01*
X-211840Y277157D01*
X-211995Y276945D01*
X-212206Y276748D01*
X-212418Y276607D01*
X-212629Y276480D01*
X-212897Y276396D01*
X-213137Y276339D01*
X-213376Y276325D01*
X-213672Y276339D01*
X-213912Y276396D01*
X-214123Y276452D01*
X-214321Y276565D01*
X-214490Y276692D01*
X-214631Y276819D01*
X-214772Y276988D01*
X-214885Y277157D01*
X-214955Y277284D01*
X-214969Y277312D01*
X-214983Y277326D01*
X-215152Y277735D01*
X-215209Y277862D01*
X-215223Y277904D01*
Y277918D01*
X-215350Y278327D01*
X-215392Y278468D01*
X-215406Y278496D01*
Y278510D01*
X-215477Y278722D01*
X-215533Y278877D01*
X-215589Y278990D01*
X-215604Y279018D01*
Y279032D01*
X-215688Y279187D01*
X-215773Y279300D01*
X-215829Y279356D01*
X-215857Y279384D01*
X-215970Y279469D01*
X-216097Y279511D01*
X-216224Y279525D01*
X-216435Y279497D01*
X-216520Y279469D01*
X-216618Y279412D01*
X-216703Y279356D01*
X-216774Y279272D01*
X-216900Y279060D01*
X-216943Y278947D01*
X-216999Y278637D01*
X-217013Y278468D01*
X-216999Y278228D01*
X-216971Y278045D01*
X-216929Y277876D01*
X-216816Y277594D01*
X-216759Y277481D01*
X-216576Y277171D01*
X-216506Y276988D01*
X-216492Y276903D01*
X-216506Y276805D01*
X-216520Y276734D01*
X-216548Y276663D01*
X-216604Y276593D01*
X-216647Y276537D01*
X-216717Y276494D01*
X-217309Y276142D01*
X-217535Y276424D01*
X-217605Y276537D01*
X-217619Y276565D01*
X-217633Y276579D01*
X-217817Y276945D01*
X-217873Y277072D01*
X-217887Y277101D01*
Y277115D01*
X-218000Y277537D01*
X-218028Y277679D01*
X-218042Y277721D01*
Y277735D01*
X-218085Y278186D01*
X-218099Y278341D01*
Y278383D01*
Y278398D01*
X-218071Y278834D01*
X-218014Y279187D01*
X-217972Y279426D01*
X-217944Y279497D01*
Y279511D01*
X-217873Y279694D01*
X-217803Y279849D01*
X-217662Y280103D01*
X-217549Y280272D01*
X-217521Y280315D01*
X-217507Y280329D01*
X-217267Y280540D01*
X-217055Y280695D01*
X-216886Y280794D01*
X-216830Y280822D01*
X-216816D01*
X-216506Y280921D01*
X-216224Y280977D01*
X-216026Y280991D01*
X-215942D01*
X-215674Y280963D01*
D02*
G37*
G36*
X-213855Y270672D02*
X-213644Y270630D01*
X-213461Y270602D01*
X-213193Y270517D01*
X-213122Y270503D01*
X-213094Y270489D01*
X-212897Y270404D01*
X-212714Y270306D01*
X-212418Y270108D01*
X-212234Y269967D01*
X-212178Y269911D01*
X-212164Y269897D01*
X-211910Y269601D01*
X-211741Y269319D01*
X-211600Y269009D01*
X-211487Y268614D01*
X-211431Y268248D01*
X-211403Y267867D01*
X-211417Y267599D01*
X-211445Y267360D01*
X-211487Y267134D01*
X-211530Y266937D01*
X-211572Y266782D01*
X-211614Y266655D01*
X-211656Y266556D01*
X-211755Y266345D01*
X-211868Y266161D01*
X-212093Y265851D01*
X-212277Y265640D01*
X-212347Y265569D01*
X-212685Y265301D01*
X-213010Y265118D01*
X-213362Y264949D01*
X-213799Y264822D01*
X-214208Y264766D01*
X-214617Y264737D01*
X-215209Y264780D01*
X-215462Y264808D01*
X-215688Y264864D01*
X-216012Y264935D01*
X-216125Y264977D01*
X-216351Y265076D01*
X-216562Y265189D01*
X-216759Y265301D01*
X-216915Y265414D01*
X-217126Y265597D01*
X-217211Y265668D01*
X-217366Y265837D01*
X-217493Y266006D01*
X-217704Y266345D01*
X-217831Y266584D01*
X-217859Y266655D01*
X-217873Y266683D01*
X-218000Y267120D01*
X-218056Y267529D01*
X-218085Y267825D01*
Y267909D01*
Y267938D01*
X-218071Y268205D01*
X-218056Y268431D01*
X-218042Y268600D01*
Y268642D01*
Y268656D01*
X-218000Y268924D01*
X-217944Y269150D01*
X-217887Y269305D01*
X-217873Y269347D01*
Y269361D01*
X-217774Y269615D01*
X-217662Y269827D01*
X-217577Y269982D01*
X-217563Y270024D01*
X-217549Y270038D01*
X-217380Y270264D01*
X-217211Y270461D01*
X-217084Y270588D01*
X-217055Y270616D01*
X-217041Y270630D01*
X-216463Y270179D01*
X-216379Y270094D01*
X-216336Y269996D01*
X-216322Y269883D01*
X-216336Y269784D01*
X-216365Y269685D01*
X-216407Y269587D01*
X-216604Y269220D01*
X-216745Y268910D01*
X-216802Y268741D01*
X-216872Y268304D01*
X-216886Y268078D01*
X-216872Y267811D01*
X-216830Y267585D01*
X-216774Y267388D01*
X-216675Y267176D01*
X-216548Y266993D01*
X-216421Y266838D01*
X-216224Y266683D01*
X-216026Y266570D01*
X-215871Y266500D01*
X-215829Y266486D01*
X-215815Y266471D01*
X-215251Y266345D01*
X-215040Y266316D01*
X-214969Y266302D01*
X-214955D01*
Y270334D01*
X-214941Y270475D01*
X-214885Y270560D01*
X-214842Y270602D01*
X-214828Y270616D01*
X-214701Y270672D01*
X-214546Y270686D01*
X-214405Y270700D01*
X-214349D01*
X-213855Y270672D01*
D02*
G37*
G36*
X-216774Y275282D02*
X-216675Y275183D01*
X-216633Y275113D01*
Y275071D01*
X-216647Y275000D01*
X-216675Y274958D01*
X-216745Y274831D01*
X-216816Y274662D01*
X-216844Y274408D01*
X-216816Y274239D01*
X-216759Y274112D01*
X-216675Y273999D01*
X-216534Y273915D01*
X-216365Y273872D01*
X-216252Y273858D01*
X-212671D01*
Y275592D01*
X-211558D01*
Y273858D01*
X-209499D01*
Y273041D01*
X-209514Y272942D01*
X-209528Y272871D01*
X-209570Y272815D01*
X-209697Y272716D01*
X-209767Y272688D01*
X-211544Y272364D01*
X-211727Y271321D01*
X-212347D01*
X-212446Y271335D01*
X-212530Y271363D01*
X-212587Y271405D01*
X-212629Y271476D01*
X-212657Y271546D01*
X-212671Y271603D01*
Y271617D01*
Y272293D01*
X-216308D01*
X-216604Y272308D01*
X-216872Y272364D01*
X-217098Y272434D01*
X-217281Y272519D01*
X-217436Y272604D01*
X-217549Y272674D01*
X-217633Y272745D01*
X-217789Y272928D01*
X-217901Y273139D01*
X-217986Y273351D01*
X-218042Y273562D01*
X-218085Y273901D01*
X-218099Y273999D01*
Y274027D01*
Y274042D01*
X-218071Y274394D01*
X-218028Y274676D01*
X-217972Y274887D01*
X-217958Y274944D01*
Y274958D01*
X-217901Y275127D01*
X-217831Y275268D01*
X-217760Y275409D01*
X-217690Y275522D01*
X-217577Y275691D01*
X-217549Y275733D01*
X-217535Y275747D01*
X-216774Y275282D01*
D02*
G37*
G36*
X-213475Y295117D02*
X-213165Y295074D01*
X-212953Y295018D01*
X-212883Y295004D01*
X-212869Y294990D01*
X-212700Y294933D01*
X-212559Y294863D01*
X-212305Y294722D01*
X-212150Y294609D01*
X-212107Y294581D01*
X-212093Y294567D01*
X-211981Y294468D01*
X-211868Y294355D01*
X-211713Y294130D01*
X-211586Y293890D01*
X-211473Y293566D01*
X-211431Y293270D01*
X-211403Y292946D01*
X-211417Y292720D01*
X-211431Y292523D01*
X-211473Y292339D01*
X-211530Y292142D01*
X-211586Y291973D01*
X-211656Y291804D01*
X-211741Y291635D01*
X-211840Y291479D01*
X-211938Y291339D01*
X-212178Y291057D01*
X-212291Y290930D01*
X-211783Y290831D01*
X-211684Y290789D01*
X-211614Y290732D01*
X-211530Y290591D01*
X-211501Y290479D01*
Y290422D01*
Y289464D01*
X-218000D01*
Y291042D01*
X-213306D01*
X-213094Y291282D01*
X-212925Y291494D01*
X-212826Y291649D01*
X-212812Y291691D01*
X-212798Y291705D01*
X-212685Y291973D01*
X-212643Y292213D01*
X-212615Y292396D01*
Y292452D01*
Y292466D01*
X-212629Y292664D01*
X-212671Y292833D01*
X-212770Y293101D01*
X-212883Y293242D01*
X-212939Y293298D01*
X-213066Y293397D01*
X-213221Y293467D01*
X-213531Y293552D01*
X-213870Y293580D01*
X-218000D01*
Y295145D01*
X-213672D01*
X-213475Y295117D01*
D02*
G37*
G36*
X-214194Y329147D02*
X-213954Y329104D01*
X-213757Y329062D01*
X-213461Y328992D01*
X-213376Y328963D01*
X-213348Y328949D01*
X-213122Y328865D01*
X-212925Y328752D01*
X-212742Y328639D01*
X-212587Y328540D01*
X-212375Y328371D01*
X-212319Y328315D01*
X-212305Y328301D01*
X-212023Y327962D01*
X-211811Y327638D01*
X-211642Y327286D01*
X-211501Y326835D01*
X-211431Y326412D01*
X-211403Y325975D01*
X-211417Y325707D01*
X-211445Y325453D01*
X-211515Y325030D01*
X-211600Y324748D01*
X-211642Y324636D01*
X-211741Y324424D01*
X-211840Y324227D01*
X-211952Y324058D01*
X-212051Y323903D01*
X-212305Y323621D01*
X-212643Y323353D01*
X-212981Y323141D01*
X-213348Y322972D01*
X-213827Y322845D01*
X-214278Y322775D01*
X-214744Y322747D01*
X-215293Y322789D01*
X-215519Y322817D01*
X-215730Y322859D01*
X-216026Y322944D01*
X-216139Y322972D01*
X-216365Y323071D01*
X-216562Y323170D01*
X-216900Y323381D01*
X-217112Y323550D01*
X-217197Y323621D01*
X-217478Y323959D01*
X-217690Y324283D01*
X-217817Y324537D01*
X-217845Y324607D01*
X-217859Y324636D01*
X-217986Y325101D01*
X-218056Y325538D01*
X-218085Y325848D01*
Y325947D01*
Y325961D01*
Y325975D01*
X-218071Y326243D01*
X-218042Y326482D01*
X-218014Y326708D01*
X-217972Y326905D01*
X-217887Y327187D01*
X-217873Y327258D01*
X-217859Y327286D01*
X-217760Y327497D01*
X-217662Y327695D01*
X-217549Y327864D01*
X-217436Y328019D01*
X-217267Y328230D01*
X-217211Y328287D01*
X-217197Y328301D01*
X-216844Y328583D01*
X-216506Y328780D01*
X-216238Y328907D01*
X-216167Y328935D01*
X-216139Y328949D01*
X-215660Y329076D01*
X-215209Y329147D01*
X-214870Y329175D01*
X-214744D01*
X-214194Y329147D01*
D02*
G37*
G36*
X-229290Y366179D02*
X-228895Y366108D01*
X-228641Y366023D01*
X-228571Y366009D01*
X-228543Y365995D01*
X-228345Y365911D01*
X-228148Y365812D01*
X-227993Y365713D01*
X-227852Y365615D01*
X-227655Y365460D01*
X-227598Y365403D01*
X-227584Y365389D01*
X-227316Y365079D01*
X-227119Y364769D01*
X-226964Y364431D01*
X-226837Y363994D01*
X-226766Y363585D01*
X-226738Y363162D01*
X-226752Y362908D01*
X-226781Y362668D01*
X-226851Y362274D01*
X-226936Y361992D01*
X-226978Y361893D01*
X-227062Y361682D01*
X-227175Y361498D01*
X-227373Y361174D01*
X-227612Y360892D01*
X-227767Y360751D01*
X-227922Y360624D01*
X-228233Y360427D01*
X-228557Y360258D01*
X-228966Y360131D01*
X-229332Y360061D01*
X-229713Y360032D01*
X-229952Y360046D01*
X-230164Y360061D01*
X-230530Y360145D01*
X-230855Y360244D01*
X-231038Y360328D01*
X-231193Y360427D01*
X-231461Y360624D01*
X-231686Y360822D01*
X-231898Y361104D01*
X-232053Y361357D01*
X-232152Y361555D01*
X-232166Y361611D01*
X-232180Y361625D01*
X-232321Y362274D01*
X-232349Y362485D01*
Y362556D01*
Y362570D01*
Y362725D01*
X-232335Y362880D01*
X-232292Y363134D01*
X-232264Y363303D01*
X-232250Y363359D01*
Y363373D01*
X-232208Y363514D01*
X-232152Y363641D01*
X-232053Y363867D01*
X-231968Y364008D01*
X-231954Y364050D01*
X-231940Y364064D01*
X-232194Y363881D01*
X-232448Y363683D01*
X-236000Y360836D01*
Y362274D01*
X-235986Y362457D01*
X-235944Y362612D01*
X-235915Y362711D01*
X-235901Y362739D01*
Y362753D01*
X-235817Y362894D01*
X-235732Y363007D01*
X-235676Y363063D01*
X-235648Y363077D01*
X-232645Y365178D01*
X-232194Y365474D01*
X-232039Y365572D01*
X-231996Y365587D01*
X-231982Y365601D01*
X-231503Y365840D01*
X-231348Y365897D01*
X-231306Y365925D01*
X-231292D01*
X-230798Y366080D01*
X-230629Y366122D01*
X-230573Y366136D01*
X-230559D01*
X-230009Y366193D01*
X-229825Y366207D01*
X-229755D01*
X-229290Y366179D01*
D02*
G37*
G36*
X-213475Y321577D02*
X-213165Y321534D01*
X-212953Y321478D01*
X-212883Y321464D01*
X-212869Y321450D01*
X-212700Y321393D01*
X-212559Y321323D01*
X-212305Y321182D01*
X-212150Y321069D01*
X-212107Y321041D01*
X-212093Y321027D01*
X-211981Y320928D01*
X-211868Y320815D01*
X-211713Y320590D01*
X-211586Y320350D01*
X-211473Y320026D01*
X-211431Y319730D01*
X-211403Y319406D01*
X-211417Y319180D01*
X-211431Y318983D01*
X-211473Y318799D01*
X-211530Y318602D01*
X-211586Y318433D01*
X-211656Y318264D01*
X-211741Y318095D01*
X-211840Y317939D01*
X-211938Y317799D01*
X-212178Y317517D01*
X-212291Y317390D01*
X-211783Y317291D01*
X-211684Y317249D01*
X-211614Y317192D01*
X-211530Y317051D01*
X-211501Y316939D01*
Y316882D01*
Y315924D01*
X-218000D01*
Y317502D01*
X-213306D01*
X-213094Y317742D01*
X-212925Y317954D01*
X-212826Y318109D01*
X-212812Y318151D01*
X-212798Y318165D01*
X-212685Y318433D01*
X-212643Y318673D01*
X-212615Y318856D01*
Y318912D01*
Y318926D01*
X-212629Y319124D01*
X-212671Y319293D01*
X-212770Y319561D01*
X-212883Y319702D01*
X-212939Y319758D01*
X-213066Y319857D01*
X-213221Y319927D01*
X-213531Y320012D01*
X-213870Y320040D01*
X-218000D01*
Y321605D01*
X-213672D01*
X-213475Y321577D01*
D02*
G37*
G36*
X-208837Y306197D02*
X-214405D01*
X-214814Y306211D01*
X-215251Y306239D01*
X-209105Y301432D01*
X-209006Y301347D01*
X-208978Y301319D01*
X-208964Y301305D01*
X-208893Y301220D01*
X-208879Y301178D01*
X-208851Y301094D01*
Y301037D01*
X-208837Y300854D01*
Y299966D01*
X-218000D01*
Y301474D01*
X-212122D01*
X-212037Y301460D01*
X-212009D01*
X-211727Y301446D01*
X-211642Y301432D01*
X-211600D01*
X-217718Y306225D01*
X-217817Y306324D01*
X-217887Y306394D01*
X-217929Y306465D01*
X-217944Y306479D01*
X-217986Y306704D01*
X-218000Y306789D01*
Y306803D01*
Y306817D01*
Y307705D01*
X-208837D01*
Y306197D01*
D02*
G37*
G36*
X-213503Y314429D02*
X-213334Y314401D01*
X-213179Y314373D01*
X-212967Y314317D01*
X-212897Y314303D01*
X-212883Y314288D01*
X-212714Y314232D01*
X-212559Y314147D01*
X-212432Y314077D01*
X-212319Y313992D01*
X-212150Y313880D01*
X-212107Y313837D01*
X-212093Y313823D01*
X-211868Y313570D01*
X-211699Y313330D01*
X-211572Y313062D01*
X-211459Y312710D01*
X-211403Y312385D01*
X-211374Y312033D01*
X-211388Y311751D01*
X-211417Y311469D01*
X-211473Y311201D01*
X-211530Y310947D01*
X-211614Y310708D01*
X-211699Y310482D01*
X-211797Y310285D01*
X-211882Y310102D01*
X-212079Y309777D01*
X-212248Y309538D01*
X-212404Y309340D01*
X-212911Y309608D01*
X-213052Y309721D01*
X-213094Y309777D01*
X-213108Y309792D01*
X-213151Y309890D01*
X-213179Y309975D01*
X-213193Y310045D01*
Y310073D01*
X-213179Y310214D01*
X-213151Y310327D01*
X-213122Y310398D01*
X-213108Y310426D01*
X-212967Y310651D01*
X-212925Y310736D01*
X-212911Y310750D01*
Y310764D01*
X-212770Y311060D01*
X-212728Y311159D01*
X-212714Y311187D01*
Y311201D01*
X-212657Y311413D01*
X-212629Y311610D01*
X-212615Y311779D01*
Y311821D01*
Y311835D01*
X-212629Y312019D01*
X-212671Y312188D01*
X-212770Y312442D01*
X-212883Y312583D01*
X-212939Y312639D01*
X-213066Y312738D01*
X-213221Y312808D01*
X-213531Y312893D01*
X-213898Y312921D01*
X-214278D01*
X-214293Y312526D01*
X-214321Y312160D01*
X-214405Y311568D01*
X-214433Y311356D01*
X-214476Y311201D01*
X-214504Y311060D01*
X-214574Y310792D01*
X-214659Y310553D01*
X-214729Y310355D01*
X-214814Y310186D01*
X-214927Y309946D01*
X-214983Y309862D01*
X-215096Y309707D01*
X-215195Y309566D01*
X-215406Y309369D01*
X-215618Y309214D01*
X-215885Y309115D01*
X-216111Y309058D01*
X-216351Y309030D01*
X-216647Y309044D01*
X-216900Y309101D01*
X-217112Y309157D01*
X-217225Y309214D01*
X-217337Y309284D01*
X-217507Y309411D01*
X-217662Y309552D01*
X-217803Y309749D01*
X-217915Y309946D01*
X-217972Y310102D01*
X-218000Y310144D01*
Y310158D01*
X-218085Y310665D01*
X-218099Y310849D01*
Y310905D01*
Y310919D01*
X-218071Y311370D01*
X-218042Y311511D01*
Y311539D01*
Y311554D01*
X-218000Y311765D01*
X-217944Y311934D01*
X-217901Y312061D01*
X-217887Y312089D01*
Y312103D01*
X-217789Y312287D01*
X-217704Y312442D01*
X-217633Y312540D01*
X-217605Y312569D01*
Y312583D01*
X-217478Y312766D01*
X-217337Y312921D01*
X-217253Y313034D01*
X-217225Y313062D01*
X-217211Y313076D01*
X-217676Y313217D01*
X-217803Y313273D01*
X-217887Y313330D01*
X-217929Y313386D01*
X-217944Y313400D01*
X-217986Y313612D01*
X-218000Y313710D01*
Y313724D01*
Y313739D01*
Y314458D01*
X-213898D01*
X-213503Y314429D01*
D02*
G37*
G36*
X-182183Y271455D02*
X-179847Y269846D01*
X-178475Y267298D01*
X-178028Y263919D01*
X-178493Y260197D01*
X-179643Y257049D01*
X-179854Y256954D01*
X-182011Y257793D01*
X-180962Y260523D01*
X-180555Y263576D01*
X-180622Y264710D01*
X-180823Y265700D01*
X-181167Y266546D01*
X-181655Y267242D01*
X-182292Y267788D01*
X-183082Y268183D01*
X-184028Y268421D01*
X-185135Y268501D01*
X-186551D01*
X-186892Y265805D01*
X-187392Y263336D01*
X-188069Y261133D01*
X-188951Y259239D01*
X-190060Y257695D01*
X-191420Y256539D01*
X-193054Y255817D01*
X-194987Y255567D01*
X-198011Y256161D01*
X-200197Y257885D01*
X-201522Y260644D01*
X-201970Y264348D01*
X-201525Y268647D01*
X-200341Y272015D01*
X-185522D01*
X-182183Y271455D01*
D02*
G37*
G36*
X-182362Y293345D02*
X-179986Y291723D01*
X-178525Y288936D01*
X-178028Y284918D01*
X-178472Y280725D01*
X-179653Y277081D01*
X-201537D01*
Y280847D01*
X-181196D01*
X-180616Y282739D01*
X-180422Y284918D01*
X-180744Y287318D01*
X-181713Y288923D01*
X-183333Y289821D01*
X-185606Y290102D01*
X-201537D01*
Y293871D01*
X-185606D01*
X-182362Y293345D01*
D02*
G37*
G36*
X-178455Y302824D02*
X-172181D01*
X-172044Y302638D01*
X-173146Y299055D01*
X-178455D01*
Y296400D01*
X-180810D01*
Y299055D01*
X-195929D01*
X-198447Y299454D01*
X-200272Y300580D01*
X-201380Y302325D01*
X-201754Y304579D01*
X-201658Y305827D01*
X-201370Y306850D01*
X-199146D01*
X-198996Y306675D01*
X-199141Y305693D01*
X-198922Y304449D01*
X-198288Y303551D01*
X-197278Y303006D01*
X-195929Y302824D01*
X-180810D01*
Y306850D01*
X-178455D01*
Y302824D01*
D02*
G37*
G36*
X-189345Y229914D02*
X-188882Y229722D01*
X-188484Y229417D01*
X-188179Y229020D01*
X-187987Y228557D01*
X-187922Y228060D01*
X-187987Y227564D01*
X-188179Y227101D01*
X-188484Y226703D01*
X-188882Y226398D01*
X-189323Y226216D01*
X-189326Y223061D01*
X-189326D01*
X-189324Y223058D01*
X-189328Y219909D01*
X-186665D01*
Y222840D01*
D01*
D01*
D01*
D01*
D01*
X-186665D01*
D01*
Y222840D01*
D01*
X-186665Y222840D01*
Y222840D01*
D01*
X-186665Y222841D01*
Y222841D01*
D01*
Y222841D01*
D01*
D01*
D01*
X-186663Y222981D01*
Y222981D01*
X-186571Y223247D01*
D01*
D01*
D01*
D01*
D01*
D01*
D01*
X-186571D01*
Y223247D01*
Y223247D01*
D01*
D01*
D01*
D01*
D01*
D01*
X-186571D01*
Y223247D01*
D01*
D01*
X-186341Y223518D01*
X-186341Y223518D01*
D01*
D01*
D01*
D01*
D01*
X-186340D01*
D01*
D01*
D01*
D01*
D01*
X-186340D01*
D01*
D01*
D01*
X-186340Y223518D01*
D01*
D01*
X-186340Y223518D01*
X-186340Y223519D01*
X-186340Y223519D01*
Y223519D01*
Y223519D01*
Y223519D01*
Y223519D01*
Y223519D01*
D01*
D01*
D01*
D01*
D01*
D01*
D01*
D01*
D01*
D01*
D01*
D01*
D01*
D01*
Y223519D01*
D01*
D01*
D01*
D01*
D01*
D01*
D01*
D01*
D01*
D01*
D01*
D01*
X-186341Y223520D01*
X-186341Y223521D01*
D01*
X-186051Y223833D01*
X-186051D01*
D01*
X-186051D01*
X-186051Y223832D01*
X-186051Y223833D01*
X-186051D01*
X-186052Y223835D01*
X-185802Y224097D01*
D01*
X-185696Y224207D01*
X-185696Y224207D01*
X-185696D01*
Y224207D01*
X-185696D01*
X-185696Y224207D01*
X-185695Y224208D01*
D01*
Y224208D01*
X-185695Y224208D01*
X-183857Y226047D01*
D01*
X-183843Y226060D01*
X-183843Y226060D01*
X-183850Y226063D01*
X-184001Y226427D01*
X-184066Y226923D01*
X-184001Y227420D01*
X-183809Y227883D01*
X-183504Y228280D01*
X-183107Y228585D01*
X-182644Y228777D01*
X-182147Y228843D01*
X-181650Y228777D01*
X-181187Y228585D01*
X-180790Y228280D01*
X-180485Y227883D01*
X-180293Y227420D01*
X-180228Y226923D01*
X-180293Y226427D01*
X-180485Y225964D01*
X-180790Y225566D01*
X-181187Y225261D01*
X-181650Y225069D01*
X-182147Y225004D01*
X-182644Y225069D01*
X-183107Y225261D01*
X-183147Y225292D01*
X-185310Y223131D01*
X-185444Y222985D01*
X-185606Y222763D01*
X-185630Y222550D01*
Y219909D01*
X-181527D01*
X-181533Y219910D01*
X-181509Y220088D01*
X-181241Y220737D01*
X-180813Y221294D01*
X-180255Y221722D01*
X-179606Y221991D01*
X-178909Y222083D01*
X-178213Y221991D01*
X-177563Y221722D01*
X-177006Y221294D01*
X-176578Y220737D01*
X-176309Y220088D01*
X-176217Y219391D01*
X-176309Y218694D01*
X-176578Y218045D01*
X-177006Y217487D01*
X-177563Y217059D01*
X-178213Y216791D01*
X-178909Y216699D01*
X-179606Y216791D01*
X-180255Y217059D01*
X-180813Y217487D01*
X-181241Y218045D01*
X-181509Y218694D01*
X-181533Y218873D01*
X-185630Y218874D01*
Y216233D01*
X-185606Y216018D01*
X-185444Y215797D01*
X-185310Y215651D01*
X-183144Y213483D01*
X-183148Y213490D01*
X-183098Y213529D01*
X-182635Y213721D01*
X-182138Y213787D01*
X-181641Y213721D01*
X-181178Y213529D01*
X-180781Y213224D01*
X-180476Y212827D01*
X-180284Y212364D01*
X-180219Y211867D01*
X-180284Y211370D01*
X-180476Y210908D01*
X-180781Y210510D01*
X-181178Y210205D01*
X-181641Y210013D01*
X-182138Y209948D01*
X-182635Y210013D01*
X-183098Y210205D01*
X-183495Y210510D01*
X-183800Y210908D01*
X-183992Y211370D01*
X-184057Y211867D01*
X-183992Y212364D01*
X-183844Y212720D01*
X-183844D01*
X-183844Y212720D01*
Y212720D01*
D01*
D01*
X-183844Y212720D01*
X-183844D01*
X-183844Y212721D01*
Y212720D01*
X-183844Y212721D01*
X-185695Y214575D01*
X-185695Y214575D01*
X-185695Y214575D01*
D01*
X-185695D01*
X-185695Y214575D01*
D01*
D01*
Y214575D01*
X-185695Y214575D01*
D01*
X-185696Y214575D01*
X-185801Y214685D01*
D01*
Y214685D01*
D01*
Y214685D01*
D01*
Y214685D01*
D01*
X-185801D01*
D01*
D01*
D01*
D01*
D01*
X-185801D01*
D01*
D01*
D01*
X-185801Y214685D01*
X-185803Y214683D01*
X-185803Y214683D01*
X-186050Y214949D01*
X-186050Y214949D01*
X-186053Y214948D01*
X-186339Y215260D01*
D01*
X-186339D01*
D01*
D01*
D01*
D01*
D01*
D01*
D01*
Y215260D01*
D01*
D01*
D01*
D01*
D01*
D01*
D01*
Y215260D01*
D01*
D01*
D01*
D01*
D01*
D01*
D01*
D01*
D01*
D01*
D01*
D01*
D01*
D01*
D01*
D01*
Y215260D01*
X-186339Y215261D01*
X-186340Y215261D01*
X-186340Y215262D01*
D01*
D01*
D01*
D01*
D01*
D01*
Y215262D01*
D01*
D01*
D01*
X-186340D01*
D01*
D01*
D01*
X-186340Y215262D01*
Y215262D01*
D01*
D01*
D01*
D01*
D01*
D01*
D01*
D01*
D01*
D01*
D01*
D01*
D01*
D01*
D01*
X-186340D01*
D01*
D01*
D01*
D01*
D01*
D01*
D01*
D01*
D01*
D01*
D01*
D01*
D01*
X-186340D01*
D01*
D01*
D01*
X-186340D01*
D01*
D01*
D01*
D01*
D01*
D01*
D01*
D01*
D01*
D01*
D01*
D01*
D01*
D01*
D01*
X-186340D01*
D01*
D01*
Y215262D01*
X-186342Y215261D01*
X-186342Y215261D01*
X-186564Y215523D01*
Y215523D01*
D01*
X-186564D01*
D01*
D01*
D01*
D01*
D01*
D01*
D01*
D01*
D01*
D01*
Y215523D01*
D01*
D01*
D01*
D01*
D01*
D01*
D01*
D01*
D01*
D01*
D01*
Y215523D01*
D01*
D01*
D01*
D01*
D01*
D01*
D01*
D01*
D01*
D01*
D01*
D01*
D01*
D01*
D01*
D01*
Y215523D01*
X-186568Y215530D01*
X-186571Y215534D01*
D01*
D01*
D01*
D01*
D01*
D01*
D01*
D01*
D01*
D01*
D01*
D01*
X-186571D01*
X-186571Y215534D01*
X-186571Y215534D01*
Y215534D01*
D01*
D01*
D01*
D01*
Y215534D01*
D01*
Y215534D01*
D01*
D01*
X-186571D01*
D01*
D01*
D01*
D01*
D01*
D01*
X-186571D01*
X-186661Y215788D01*
X-186661D01*
D01*
Y215788D01*
X-186661Y215788D01*
Y215788D01*
D01*
D01*
D01*
D01*
D01*
X-186665Y215941D01*
X-186665Y215942D01*
Y215942D01*
Y215942D01*
X-186668Y216081D01*
X-186665Y218875D01*
X-189328D01*
X-189326Y215878D01*
X-189326D01*
X-189324Y215875D01*
X-189326Y212639D01*
X-189326D01*
D01*
D01*
D01*
D01*
D01*
D01*
D01*
X-189326D01*
Y212617D01*
X-189326Y212534D01*
D01*
D01*
Y212534D01*
D01*
D01*
X-189326D01*
D01*
D01*
D01*
X-189326D01*
D01*
D01*
D01*
D01*
D01*
X-189326D01*
D01*
D01*
D01*
X-189326D01*
D01*
D01*
D01*
D01*
D01*
X-189235Y212534D01*
X-189226D01*
X-188819Y212381D01*
X-188421Y212076D01*
X-188116Y211678D01*
X-187925Y211215D01*
X-187859Y210719D01*
X-187925Y210222D01*
X-188116Y209759D01*
X-188421Y209362D01*
X-188819Y209057D01*
X-189282Y208865D01*
X-189778Y208800D01*
X-190275Y208865D01*
X-190738Y209057D01*
X-191135Y209362D01*
X-191440Y209759D01*
X-191632Y210222D01*
X-191697Y210719D01*
X-191632Y211215D01*
X-191440Y211678D01*
X-191135Y212076D01*
X-190738Y212381D01*
X-190363Y212536D01*
X-190362Y215908D01*
X-190362D01*
X-190365Y215911D01*
X-190362Y218875D01*
X-192957D01*
Y215942D01*
X-192957D01*
X-192958Y215801D01*
X-192958Y215800D01*
X-192958D01*
X-192958D01*
X-192958Y215800D01*
X-192958Y215800D01*
X-192957Y215798D01*
X-192960Y215789D01*
X-192960Y215789D01*
X-193050Y215535D01*
X-193050Y215535D01*
X-193050Y215535D01*
X-193055Y215523D01*
X-193279Y215263D01*
X-193279Y215263D01*
X-193279Y215260D01*
X-193570Y214949D01*
D01*
X-193661Y214851D01*
X-193819Y214687D01*
D01*
X-193819Y214687D01*
D01*
D01*
D01*
D01*
D01*
D01*
Y214687D01*
D01*
D01*
X-193819Y214686D01*
D01*
D01*
D01*
D01*
X-193871Y214633D01*
X-193927Y214576D01*
D01*
D01*
D01*
X-193927D01*
X-195765Y212736D01*
D01*
X-195778Y212722D01*
Y212722D01*
D01*
X-195778Y212722D01*
X-195778Y212722D01*
X-195778Y212722D01*
X-195778Y212722D01*
X-195767Y212711D01*
X-195620Y212355D01*
X-195555Y211858D01*
X-195620Y211361D01*
X-195812Y210898D01*
X-196117Y210501D01*
X-196514Y210196D01*
X-196977Y210004D01*
X-197474Y209939D01*
X-197971Y210004D01*
X-198433Y210196D01*
X-198831Y210501D01*
X-199136Y210898D01*
X-199328Y211361D01*
X-199393Y211858D01*
X-199328Y212355D01*
X-199136Y212818D01*
X-198831Y213215D01*
X-198433Y213520D01*
X-197971Y213712D01*
X-197474Y213777D01*
X-196977Y213712D01*
X-196514Y213520D01*
X-196475Y213490D01*
X-194311Y215651D01*
X-194176Y215798D01*
X-194015Y216020D01*
X-193991Y216233D01*
Y218875D01*
X-198093D01*
X-198088Y218874D01*
X-198112Y218694D01*
X-198381Y218045D01*
X-198808Y217487D01*
X-199366Y217059D01*
X-200015Y216791D01*
X-200712Y216699D01*
X-201409Y216791D01*
X-202058Y217059D01*
X-202615Y217487D01*
X-203043Y218045D01*
X-203312Y218694D01*
X-203404Y219391D01*
X-203312Y220088D01*
X-203043Y220737D01*
X-202615Y221294D01*
X-202058Y221722D01*
X-201409Y221991D01*
X-200712Y222083D01*
X-200015Y221991D01*
X-199366Y221722D01*
X-198808Y221294D01*
X-198381Y220737D01*
X-198112Y220088D01*
X-198088Y219911D01*
X-193991Y219910D01*
Y222550D01*
X-194015Y222764D01*
X-194176Y222986D01*
X-194311Y223133D01*
X-196476Y225299D01*
X-196472Y225292D01*
X-196523Y225252D01*
X-196986Y225060D01*
X-197483Y224995D01*
X-197980Y225060D01*
X-198442Y225252D01*
X-198840Y225557D01*
X-199145Y225954D01*
X-199337Y226417D01*
X-199402Y226914D01*
X-199337Y227411D01*
X-199145Y227874D01*
X-198840Y228271D01*
X-198442Y228576D01*
X-197980Y228768D01*
X-197483Y228834D01*
X-196986Y228768D01*
X-196523Y228576D01*
X-196126Y228271D01*
X-195821Y227874D01*
X-195629Y227411D01*
X-195564Y226914D01*
X-195629Y226417D01*
X-195776Y226062D01*
X-193927Y224208D01*
Y224208D01*
X-193819Y224097D01*
Y224097D01*
X-193819D01*
X-193819Y224097D01*
X-193819Y224097D01*
X-193819D01*
D01*
X-193819Y224097D01*
X-193819Y224097D01*
X-193817Y224098D01*
X-193817D01*
D01*
D01*
D01*
X-193571Y223834D01*
Y223834D01*
D01*
D01*
X-193571D01*
X-193570Y223834D01*
Y223834D01*
X-193570Y223834D01*
D01*
D01*
D01*
D01*
D01*
D01*
D01*
X-193570Y223834D01*
X-193570Y223834D01*
D01*
Y223834D01*
X-193570D01*
X-193570D01*
X-193570D01*
X-193570D01*
Y223834D01*
D01*
D01*
Y223834D01*
Y223834D01*
D01*
D01*
D01*
D01*
D01*
D01*
D01*
D01*
X-193570D01*
D01*
D01*
D01*
D01*
D01*
D01*
D01*
D01*
D01*
D01*
Y223834D01*
X-193570D01*
D01*
D01*
X-193281Y223521D01*
D01*
D01*
D01*
X-193281D01*
Y223521D01*
D01*
D01*
X-193281D01*
Y223521D01*
D01*
D01*
D01*
X-193280Y223521D01*
D01*
D01*
D01*
D01*
D01*
D01*
D01*
D01*
D01*
D01*
X-193279Y223519D01*
D01*
D01*
X-193279Y223519D01*
D01*
D01*
X-193279D01*
D01*
D01*
Y223519D01*
D01*
X-193057Y223260D01*
D01*
D01*
D01*
D01*
X-193057D01*
D01*
D01*
Y223260D01*
D01*
D01*
D01*
Y223260D01*
D01*
X-193056Y223258D01*
Y223258D01*
X-193052Y223251D01*
X-193052D01*
D01*
D01*
D01*
D01*
D01*
D01*
D01*
D01*
D01*
D01*
X-193052Y223251D01*
X-193050Y223249D01*
X-193050Y223249D01*
D01*
D01*
D01*
D01*
D01*
D01*
D01*
D01*
D01*
D01*
D01*
Y223249D01*
X-193050Y223249D01*
D01*
D01*
D01*
D01*
D01*
D01*
D01*
D01*
D01*
Y223249D01*
X-193050Y223249D01*
X-193050Y223249D01*
D01*
D01*
X-193050Y223248D01*
X-193050Y223248D01*
D01*
D01*
D01*
D01*
D01*
X-193050Y223248D01*
X-193050D01*
D01*
D01*
D01*
D01*
D01*
D01*
D01*
D01*
Y223248D01*
X-193050D01*
D01*
D01*
D01*
D01*
D01*
D01*
D01*
X-193050D01*
X-193050D01*
X-193050D01*
X-192960Y222994D01*
X-192960Y222994D01*
X-192960D01*
X-192955Y222983D01*
X-192957Y222842D01*
X-192957D01*
X-192955Y222559D01*
X-192957Y219910D01*
X-190362D01*
X-190361Y223858D01*
Y226191D01*
D01*
X-190361Y226230D01*
X-190361Y226230D01*
X-190376Y226223D01*
D01*
X-190801Y226398D01*
X-191198Y226703D01*
X-191503Y227101D01*
X-191695Y227564D01*
X-191760Y228060D01*
X-191695Y228557D01*
X-191503Y229020D01*
X-191198Y229417D01*
X-190801Y229722D01*
X-190338Y229914D01*
X-189841Y229979D01*
X-189345Y229914D01*
D02*
G37*
G36*
X-231856Y273491D02*
X-231644Y273449D01*
X-231461Y273420D01*
X-231193Y273336D01*
X-231122Y273322D01*
X-231094Y273308D01*
X-230897Y273223D01*
X-230714Y273124D01*
X-230418Y272927D01*
X-230234Y272786D01*
X-230178Y272730D01*
X-230164Y272715D01*
X-229910Y272419D01*
X-229741Y272138D01*
X-229600Y271827D01*
X-229487Y271433D01*
X-229431Y271066D01*
X-229403Y270686D01*
X-229417Y270418D01*
X-229445Y270178D01*
X-229487Y269953D01*
X-229529Y269755D01*
X-229572Y269600D01*
X-229614Y269473D01*
X-229656Y269375D01*
X-229755Y269163D01*
X-229868Y268980D01*
X-230093Y268670D01*
X-230277Y268458D01*
X-230347Y268388D01*
X-230685Y268120D01*
X-231010Y267937D01*
X-231362Y267767D01*
X-231799Y267641D01*
X-232208Y267584D01*
X-232617Y267556D01*
X-233209Y267598D01*
X-233463Y267626D01*
X-233688Y267683D01*
X-234012Y267753D01*
X-234125Y267796D01*
X-234351Y267894D01*
X-234562Y268007D01*
X-234760Y268120D01*
X-234914Y268233D01*
X-235126Y268416D01*
X-235211Y268486D01*
X-235366Y268655D01*
X-235492Y268825D01*
X-235704Y269163D01*
X-235831Y269403D01*
X-235859Y269473D01*
X-235873Y269501D01*
X-236000Y269938D01*
X-236056Y270347D01*
X-236085Y270643D01*
Y270728D01*
Y270756D01*
X-236070Y271024D01*
X-236056Y271249D01*
X-236042Y271419D01*
Y271461D01*
Y271475D01*
X-236000Y271743D01*
X-235944Y271968D01*
X-235887Y272123D01*
X-235873Y272166D01*
Y272180D01*
X-235774Y272433D01*
X-235662Y272645D01*
X-235577Y272800D01*
X-235563Y272842D01*
X-235549Y272857D01*
X-235380Y273082D01*
X-235211Y273279D01*
X-235084Y273406D01*
X-235056Y273434D01*
X-235041Y273449D01*
X-234463Y272997D01*
X-234379Y272913D01*
X-234337Y272814D01*
X-234322Y272701D01*
X-234337Y272603D01*
X-234365Y272504D01*
X-234407Y272405D01*
X-234604Y272039D01*
X-234745Y271729D01*
X-234802Y271560D01*
X-234872Y271122D01*
X-234886Y270897D01*
X-234872Y270629D01*
X-234830Y270404D01*
X-234774Y270206D01*
X-234675Y269995D01*
X-234548Y269811D01*
X-234421Y269656D01*
X-234224Y269501D01*
X-234026Y269389D01*
X-233871Y269318D01*
X-233829Y269304D01*
X-233815Y269290D01*
X-233251Y269163D01*
X-233040Y269135D01*
X-232969Y269121D01*
X-232955D01*
Y273153D01*
X-232941Y273293D01*
X-232885Y273378D01*
X-232842Y273420D01*
X-232828Y273434D01*
X-232701Y273491D01*
X-232546Y273505D01*
X-232405Y273519D01*
X-232349D01*
X-231856Y273491D01*
D02*
G37*
G36*
X-173927Y248186D02*
X-173076Y247823D01*
X-172356Y247263D01*
X-171802Y246539D01*
X-171782Y246503D01*
X-171741Y246434D01*
D01*
X-171741Y246434D01*
X-171741D01*
D01*
Y246434D01*
D01*
D01*
D01*
D01*
Y246434D01*
Y246434D01*
Y246434D01*
D01*
Y246434D01*
X-171741D01*
D01*
D01*
D01*
X-171741Y246434D01*
X-164405Y233731D01*
X-164405Y233731D01*
D01*
Y233731D01*
D01*
D01*
Y233731D01*
X-164406Y233731D01*
D01*
D01*
D01*
Y233731D01*
D01*
D01*
Y233731D01*
D01*
X-164404Y233728D01*
D01*
D01*
D01*
X-164404D01*
D01*
D01*
D01*
X-164404Y233728D01*
X-164404Y233728D01*
X-157267Y221364D01*
X-156835Y220448D01*
X-156709Y219601D01*
X-156860Y219426D01*
X-168113Y219424D01*
X-168211Y220092D01*
X-168210Y220092D01*
D01*
D01*
D01*
D01*
D01*
D01*
D01*
D01*
D01*
D01*
D01*
D01*
D01*
D01*
D01*
X-168210D01*
D01*
D01*
D01*
D01*
D01*
D01*
D01*
D01*
X-168210D01*
D01*
D01*
D01*
D01*
D01*
X-168210D01*
D01*
D01*
Y220092D01*
D01*
D01*
D01*
D01*
D01*
D01*
D01*
D01*
D01*
Y220092D01*
D01*
D01*
D01*
D01*
D01*
D01*
D01*
D01*
D01*
D01*
D01*
D01*
D01*
D01*
D01*
D01*
D01*
X-168211Y220094D01*
X-168211Y220095D01*
X-168212Y220096D01*
D01*
D01*
D01*
D01*
D01*
X-168212D01*
D01*
D01*
D01*
D01*
D01*
D01*
D01*
D01*
D01*
D01*
D01*
X-168212D01*
D01*
D01*
D01*
D01*
D01*
D01*
D01*
D01*
D01*
D01*
D01*
D01*
X-168212D01*
Y220096D01*
D01*
D01*
D01*
D01*
D01*
D01*
D01*
D01*
D01*
X-168212D01*
D01*
D01*
D01*
X-168419Y220537D01*
X-168431Y220562D01*
X-168494Y220697D01*
X-168494Y220697D01*
X-168494Y220698D01*
X-168494Y220698D01*
X-177968Y237105D01*
X-177993Y237150D01*
X-177993Y237150D01*
D01*
D01*
D01*
D01*
D01*
D01*
D01*
X-177993D01*
D01*
D01*
D01*
D01*
D01*
D01*
D01*
X-177993Y237150D01*
D01*
D01*
D01*
D01*
D01*
D01*
D01*
D01*
D01*
D01*
D01*
D01*
Y237150D01*
D01*
D01*
D01*
D01*
D01*
D01*
D01*
D01*
D01*
D01*
D01*
D01*
D01*
D01*
D01*
D01*
X-177993Y237150D01*
D01*
D01*
D01*
D01*
D01*
D01*
D01*
D01*
D01*
D01*
D01*
D01*
D01*
D01*
X-177993Y237150D01*
X-177993Y237150D01*
X-177993Y237151D01*
Y237151D01*
D01*
Y237151D01*
D01*
D01*
D01*
D01*
D01*
X-177993D01*
D01*
D01*
D01*
D01*
D01*
D01*
D01*
D01*
D01*
D01*
D01*
D01*
D01*
D01*
D01*
D01*
D01*
X-177993D01*
D01*
D01*
D01*
D01*
D01*
D01*
D01*
D01*
D01*
D01*
D01*
D01*
D01*
D01*
D01*
X-178008Y237174D01*
D01*
D01*
D01*
D01*
D01*
X-178009Y237175D01*
D01*
D01*
X-178009Y237175D01*
D01*
D01*
D01*
D01*
D01*
D01*
D01*
D01*
D01*
X-178009D01*
Y237175D01*
D01*
D01*
D01*
X-178009Y237175D01*
X-178502Y237764D01*
D01*
X-178501Y237764D01*
D01*
D01*
D01*
D01*
D01*
X-178501D01*
X-178501D01*
X-178501D01*
Y237764D01*
D01*
D01*
D01*
D01*
D01*
D01*
D01*
D01*
D01*
Y237764D01*
D01*
D01*
D01*
D01*
D01*
D01*
D01*
D01*
D01*
D01*
D01*
D01*
D01*
D01*
Y237764D01*
D01*
X-178501Y237764D01*
X-178502Y237765D01*
X-178502Y237765D01*
D01*
D01*
D01*
D01*
D01*
D01*
Y237765D01*
D01*
D01*
D01*
D01*
D01*
D01*
X-178502Y237765D01*
X-178503Y237766D01*
X-179180Y238176D01*
X-179201Y238188D01*
X-179201Y238188D01*
D01*
D01*
D01*
D01*
D01*
D01*
Y238188D01*
X-179201D01*
D01*
D01*
X-179201Y238188D01*
D01*
D01*
D01*
D01*
X-179201D01*
X-179205Y238190D01*
D01*
D01*
D01*
X-179205Y238190D01*
D01*
D01*
X-179205Y238189D01*
X-179205D01*
D01*
D01*
D01*
D01*
X-180034Y238344D01*
D01*
D01*
X-180034Y238345D01*
D01*
D01*
D01*
D01*
D01*
D01*
D01*
D01*
D01*
D01*
D01*
D01*
Y238345D01*
D01*
D01*
D01*
D01*
D01*
D01*
D01*
D01*
D01*
D01*
D01*
D01*
D01*
D01*
D01*
D01*
D01*
D01*
D01*
D01*
D01*
D01*
D01*
X-180034D01*
X-180034D01*
Y238345D01*
D01*
D01*
D01*
D01*
D01*
D01*
D01*
D01*
X-180034D01*
D01*
D01*
D01*
X-180035Y238345D01*
X-180036Y238346D01*
D01*
X-180036D01*
D01*
D01*
D01*
D01*
D01*
D01*
D01*
D01*
D01*
D01*
X-180036D01*
D01*
D01*
D01*
X-180037Y238346D01*
X-180089Y238366D01*
X-180091Y238367D01*
X-180091D01*
X-180091Y238367D01*
D01*
Y238367D01*
D01*
Y238367D01*
D01*
D01*
D01*
D01*
D01*
D01*
D01*
D01*
D01*
D01*
X-180091D01*
X-180091D01*
D01*
X-180091D01*
D01*
D01*
D01*
X-180130Y238366D01*
X-180162Y238366D01*
D01*
D01*
D01*
D01*
D01*
D01*
D01*
D01*
D01*
X-180162D01*
D01*
D01*
D01*
X-180162D01*
D01*
D01*
D01*
D01*
D01*
D01*
X-180162D01*
Y238366D01*
D01*
X-180162D01*
X-180162D01*
D01*
D01*
D01*
D01*
D01*
D01*
D01*
D01*
Y238366D01*
D01*
D01*
D01*
D01*
D01*
Y238365D01*
D01*
X-180512Y238362D01*
D01*
Y238362D01*
D01*
Y238362D01*
X-180512D01*
D01*
D01*
D01*
D01*
X-180512D01*
D01*
D01*
X-180512D01*
D01*
D01*
D01*
X-180512D01*
D01*
D01*
X-180512Y238362D01*
X-180512Y238361D01*
Y238361D01*
D01*
Y238361D01*
D01*
X-181336Y238361D01*
Y238361D01*
X-181336Y238361D01*
X-181336Y238361D01*
D01*
D01*
D01*
D01*
D01*
D01*
Y238361D01*
Y238361D01*
D01*
D01*
Y238361D01*
D01*
D01*
D01*
D01*
D01*
D01*
D01*
Y238362D01*
Y238362D01*
D01*
D01*
D01*
D01*
D01*
Y238362D01*
D01*
X-181336D01*
D01*
D01*
D01*
D01*
D01*
D01*
D01*
D01*
D01*
D01*
D01*
Y238362D01*
X-181336D01*
D01*
D01*
D01*
D01*
D01*
D01*
D01*
D01*
D01*
D01*
D01*
D01*
Y238362D01*
D01*
D01*
D01*
D01*
D01*
X-181336D01*
D01*
D01*
D01*
D01*
D01*
D01*
D01*
X-181336D01*
D01*
D01*
D01*
D01*
D01*
D01*
D01*
D01*
D01*
D01*
X-181336D01*
Y238362D01*
D01*
D01*
D01*
D01*
Y238362D01*
D01*
D01*
D01*
D01*
D01*
D01*
D01*
D01*
Y238362D01*
X-181336Y238362D01*
X-181336Y238361D01*
Y238361D01*
D01*
D01*
D01*
D01*
D01*
Y238361D01*
Y238361D01*
X-181336Y238361D01*
X-181336Y238361D01*
D01*
D01*
D01*
D01*
D01*
D01*
D01*
D01*
D01*
X-182832Y238358D01*
X-182832Y238358D01*
X-182832Y238358D01*
X-182832Y238358D01*
X-185196Y238357D01*
X-188628D01*
X-193323Y238360D01*
X-199839Y238366D01*
X-199839Y238367D01*
D01*
D01*
Y238367D01*
X-199840Y238367D01*
X-199840Y238367D01*
X-199840D01*
D01*
X-199840Y238367D01*
X-199841Y238367D01*
X-199842Y238366D01*
X-200001Y238326D01*
Y238326D01*
D01*
D01*
D01*
D01*
Y238326D01*
D01*
D01*
D01*
D01*
D01*
D01*
D01*
D01*
D01*
D01*
D01*
D01*
D01*
D01*
X-200001D01*
X-200001Y238326D01*
X-200001Y238326D01*
X-200003Y238325D01*
X-200003Y238325D01*
X-200003Y238325D01*
X-200003D01*
X-200003D01*
X-200003Y238325D01*
D01*
D01*
D01*
Y238325D01*
D01*
D01*
D01*
Y238325D01*
D01*
D01*
D01*
D01*
D01*
D01*
D01*
D01*
D01*
D01*
D01*
D01*
D01*
D01*
D01*
D01*
X-200003Y238325D01*
X-200003D01*
X-200954Y237900D01*
D01*
Y237900D01*
Y237900D01*
Y237900D01*
X-200954D01*
D01*
D01*
X-200954Y237900D01*
D01*
D01*
X-200955D01*
Y237900D01*
X-200955Y237900D01*
X-200959Y237898D01*
X-200959Y237898D01*
Y237898D01*
Y237898D01*
Y237898D01*
D01*
X-200959Y237898D01*
Y237898D01*
Y237898D01*
Y237898D01*
X-200959Y237898D01*
D01*
D01*
Y237898D01*
D01*
D01*
D01*
X-200959Y237898D01*
X-200958Y237896D01*
X-201595Y237208D01*
Y237208D01*
X-201596Y237208D01*
X-201596Y237208D01*
X-201596Y237208D01*
D01*
D01*
X-201596Y237208D01*
X-201981Y236537D01*
X-201982Y236537D01*
X-202993Y234786D01*
X-202993D01*
D01*
D01*
X-202993D01*
X-202993Y234786D01*
X-204423Y232311D01*
Y232311D01*
X-204423Y232310D01*
X-206061Y229473D01*
X-206061D01*
Y229474D01*
X-206061D01*
D01*
D01*
X-206061D01*
X-206061Y229473D01*
D01*
X-207699Y226637D01*
X-207699Y226637D01*
X-209127Y224164D01*
X-209127Y224163D01*
X-209127Y224163D01*
X-210137Y222413D01*
X-210137Y222413D01*
D01*
D01*
D01*
D01*
D01*
D01*
D01*
Y222413D01*
X-210137D01*
D01*
D01*
D01*
D01*
X-210137Y222413D01*
D01*
Y222413D01*
D01*
D01*
D01*
D01*
D01*
D01*
D01*
D01*
D01*
X-210137Y222413D01*
X-210137D01*
X-210137D01*
D01*
D01*
Y222413D01*
D01*
D01*
X-210137D01*
X-210519Y221755D01*
X-210520Y221755D01*
D01*
X-210520D01*
D01*
D01*
D01*
D01*
Y221755D01*
X-210520D01*
D01*
X-210520Y221754D01*
X-210521Y221752D01*
X-210522Y221752D01*
X-210522Y221752D01*
X-210522Y221752D01*
Y221751D01*
X-210522D01*
X-211130Y220699D01*
D01*
D01*
D01*
D01*
D01*
Y220699D01*
X-211130Y220699D01*
X-211130Y220699D01*
X-211130Y220699D01*
Y220699D01*
X-211130Y220699D01*
X-211131Y220698D01*
Y220698D01*
D01*
X-211131Y220698D01*
Y220698D01*
D01*
D01*
D01*
D01*
D01*
D01*
D01*
D01*
X-211131D01*
D01*
X-211206Y220538D01*
X-211413Y220097D01*
Y220097D01*
X-211413Y220097D01*
X-211413Y220097D01*
X-211414Y220094D01*
D01*
D01*
D01*
X-211413Y220093D01*
X-211441Y219912D01*
X-211515Y219416D01*
X-211515Y219416D01*
D01*
D01*
D01*
D01*
D01*
D01*
D01*
D01*
D01*
D01*
D01*
D01*
D01*
D01*
D01*
X-211515D01*
D01*
D01*
D01*
D01*
D01*
D01*
D01*
X-211516Y219415D01*
X-211516Y219414D01*
D01*
Y219414D01*
D01*
D01*
D01*
X-211516Y219414D01*
X-211516Y219414D01*
X-211515Y219413D01*
Y219413D01*
D01*
D01*
D01*
D01*
D01*
D01*
X-211515D01*
D01*
D01*
D01*
D01*
X-211515D01*
D01*
D01*
X-211515Y219413D01*
X-211515D01*
X-211515Y219413D01*
D01*
D01*
X-211470Y219021D01*
X-211466Y218985D01*
X-211461Y218941D01*
X-211461Y218941D01*
X-211461Y218941D01*
D01*
D01*
D01*
D01*
D01*
X-211461D01*
D01*
D01*
X-211461D01*
D01*
X-211461D01*
Y218941D01*
D01*
D01*
X-211461D01*
X-211461Y218941D01*
D01*
D01*
X-211461Y218941D01*
D01*
D01*
D01*
X-211461D01*
D01*
Y218941D01*
D01*
D01*
D01*
D01*
D01*
D01*
D01*
X-211461Y218939D01*
X-211461Y218939D01*
X-211460Y218939D01*
D01*
X-211460D01*
D01*
Y218939D01*
D01*
D01*
D01*
D01*
D01*
D01*
D01*
X-211138Y218144D01*
D01*
D01*
D01*
D01*
D01*
D01*
D01*
D01*
D01*
D01*
D01*
D01*
D01*
D01*
D01*
D01*
D01*
D01*
X-211138D01*
Y218144D01*
D01*
D01*
D01*
D01*
D01*
D01*
D01*
D01*
D01*
D01*
D01*
D01*
X-211138Y218144D01*
X-211138Y218144D01*
X-211138Y218143D01*
D01*
D01*
D01*
X-211138D01*
D01*
X-211138Y218143D01*
D01*
X-211138Y218143D01*
D01*
D01*
D01*
X-211138D01*
D01*
D01*
D01*
D01*
D01*
X-211138D01*
D01*
D01*
D01*
D01*
X-211138Y218143D01*
X-211138D01*
X-211138D01*
X-211138D01*
X-201672Y201749D01*
X-201486Y201396D01*
D01*
D01*
D01*
D01*
D01*
D01*
D01*
D01*
D01*
D01*
D01*
D01*
D01*
D01*
D01*
D01*
D01*
D01*
D01*
D01*
D01*
D01*
D01*
D01*
D01*
D01*
X-201486D01*
Y201395D01*
Y201396D01*
Y201395D01*
D01*
D01*
D01*
D01*
D01*
D01*
D01*
D01*
D01*
D01*
D01*
D01*
D01*
D01*
D01*
D01*
D01*
X-201486D01*
Y201395D01*
D01*
D01*
D01*
D01*
D01*
D01*
X-201485Y201395D01*
X-201485Y201395D01*
Y201395D01*
D01*
D01*
X-201485D01*
D01*
D01*
D01*
X-201485D01*
X-201484Y201391D01*
D01*
D01*
D01*
X-201484D01*
D01*
D01*
D01*
X-201484D01*
D01*
D01*
X-201484D01*
X-201484D01*
Y201391D01*
D01*
D01*
D01*
X-201484D01*
D01*
D01*
D01*
D01*
X-201484D01*
D01*
D01*
D01*
D01*
D01*
X-201484Y201391D01*
X-201315Y201228D01*
X-201315Y201227D01*
D01*
Y201227D01*
D01*
D01*
D01*
D01*
D01*
D01*
D01*
X-201315D01*
D01*
D01*
Y201227D01*
D01*
D01*
D01*
D01*
D01*
D01*
D01*
Y201227D01*
D01*
D01*
D01*
D01*
D01*
D01*
D01*
D01*
X-201315Y201227D01*
D01*
D01*
D01*
D01*
D01*
D01*
Y201227D01*
D01*
D01*
D01*
D01*
Y201227D01*
D01*
D01*
X-201315D01*
D01*
D01*
D01*
D01*
D01*
X-201315D01*
Y201226D01*
D01*
X-201315D01*
D01*
D01*
D01*
D01*
D01*
X-201315D01*
D01*
D01*
D01*
D01*
D01*
D01*
D01*
D01*
D01*
D01*
D01*
D01*
D01*
X-201315Y201227D01*
X-201315D01*
D01*
X-201315Y201227D01*
X-201315Y201227D01*
X-201314Y201227D01*
D01*
X-201314Y201227D01*
X-201314Y201227D01*
X-201113Y201030D01*
Y201029D01*
D01*
D01*
D01*
D01*
D01*
D01*
X-201113Y201029D01*
X-201113D01*
X-201113D01*
Y201029D01*
D01*
Y201029D01*
D01*
D01*
D01*
D01*
X-201113D01*
D01*
D01*
D01*
D01*
Y201029D01*
D01*
D01*
D01*
D01*
D01*
X-201113D01*
D01*
Y201029D01*
D01*
D01*
D01*
D01*
D01*
D01*
D01*
X-201113D01*
D01*
D01*
D01*
D01*
D01*
D01*
D01*
D01*
D01*
X-201113D01*
X-201111Y201029D01*
X-201110Y201028D01*
X-200540Y200659D01*
D01*
D01*
Y200659D01*
X-200540D01*
X-200540Y200659D01*
X-200540D01*
D01*
D01*
D01*
D01*
D01*
D01*
X-200540Y200659D01*
D01*
X-200540D01*
D01*
D01*
D01*
D01*
D01*
D01*
D01*
D01*
D01*
D01*
D01*
D01*
D01*
D01*
Y200659D01*
D01*
D01*
D01*
D01*
D01*
D01*
D01*
D01*
D01*
D01*
D01*
D01*
D01*
D01*
D01*
D01*
D01*
D01*
D01*
D01*
D01*
D01*
D01*
D01*
D01*
D01*
D01*
Y200659D01*
D01*
D01*
D01*
Y200659D01*
X-200540D01*
X-200540D01*
Y200659D01*
D01*
D01*
D01*
X-200540Y200659D01*
X-200540Y200659D01*
D01*
D01*
D01*
X-200540Y200659D01*
D01*
X-200540Y200659D01*
X-200540D01*
D01*
D01*
X-200540D01*
D01*
D01*
X-200540Y200659D01*
D01*
D01*
D01*
X-200540Y200659D01*
X-200540Y200659D01*
X-200540D01*
X-200539Y200659D01*
X-200538Y200658D01*
X-200536Y200657D01*
D01*
D01*
D01*
D01*
D01*
D01*
D01*
D01*
D01*
D01*
D01*
X-200536Y200657D01*
Y200657D01*
X-200536D01*
D01*
D01*
D01*
D01*
D01*
D01*
D01*
D01*
D01*
D01*
D01*
D01*
D01*
D01*
Y200657D01*
D01*
D01*
D01*
Y200657D01*
D01*
D01*
D01*
D01*
D01*
D01*
Y200658D01*
D01*
X-200536Y200658D01*
X-199869Y200467D01*
X-199869Y200467D01*
X-199869D01*
D01*
D01*
D01*
Y200467D01*
D01*
D01*
D01*
D01*
D01*
D01*
D01*
D01*
D01*
X-199869D01*
D01*
D01*
Y200467D01*
D01*
D01*
X-199869D01*
D01*
X-199869D01*
X-199869D01*
X-199869Y200467D01*
D01*
D01*
X-199869Y200467D01*
X-199869Y200467D01*
X-199869Y200467D01*
X-199869Y200466D01*
X-199868Y200466D01*
X-199867Y200466D01*
D01*
X-199867D01*
X-199866Y200465D01*
X-199866D01*
D01*
D01*
X-199866D01*
Y200465D01*
X-199866D01*
X-199866Y200465D01*
X-199866Y200465D01*
D01*
D01*
D01*
X-199866D01*
D01*
D01*
D01*
D01*
D01*
D01*
D01*
D01*
D01*
X-199866D01*
D01*
X-199866Y200465D01*
X-199866D01*
D01*
D01*
D01*
D01*
D01*
D01*
D01*
D01*
D01*
D01*
D01*
D01*
D01*
D01*
Y200465D01*
D01*
D01*
D01*
D01*
D01*
D01*
D01*
D01*
D01*
D01*
Y200465D01*
X-199606Y200455D01*
X-199606D01*
X-199606Y200455D01*
X-199606Y200455D01*
D01*
D01*
D01*
D01*
D01*
D01*
D01*
D01*
Y200455D01*
D01*
D01*
D01*
D01*
D01*
Y200455D01*
Y200455D01*
X-199606D01*
D01*
X-199606Y200454D01*
X-199606Y200454D01*
D01*
D01*
D01*
X-199606D01*
X-199606Y200454D01*
D01*
D01*
D01*
D01*
D01*
D01*
D01*
D01*
D01*
D01*
D01*
D01*
D01*
D01*
D01*
D01*
X-199606Y200454D01*
X-199605Y200454D01*
D01*
D01*
X-199605D01*
D01*
D01*
D01*
D01*
D01*
D01*
D01*
D01*
D01*
D01*
D01*
D01*
D01*
D01*
D01*
D01*
Y200454D01*
D01*
D01*
D01*
D01*
D01*
D01*
D01*
D01*
D01*
D01*
D01*
D01*
Y200454D01*
D01*
D01*
D01*
D01*
D01*
Y200454D01*
X-199366Y200459D01*
X-180257D01*
X-180051Y200448D01*
D01*
X-180051Y200447D01*
D01*
Y200447D01*
D01*
D01*
D01*
D01*
Y200447D01*
D01*
D01*
D01*
D01*
Y200447D01*
D01*
D01*
D01*
D01*
D01*
Y200447D01*
D01*
D01*
X-180051D01*
D01*
D01*
X-180051D01*
X-180050Y200447D01*
D01*
D01*
D01*
D01*
D01*
D01*
D01*
D01*
D01*
D01*
D01*
X-180050Y200447D01*
X-180048Y200447D01*
X-180048D01*
D01*
D01*
D01*
D01*
D01*
D01*
D01*
D01*
D01*
D01*
X-180048Y200447D01*
D01*
D01*
D01*
X-180048D01*
D01*
X-180048D01*
D01*
X-180048Y200447D01*
D01*
D01*
D01*
D01*
D01*
X-179350Y200556D01*
X-179349Y200556D01*
X-179349Y200556D01*
D01*
D01*
D01*
X-179349Y200556D01*
X-179349Y200556D01*
D01*
X-179342Y200559D01*
X-179341Y200560D01*
X-179341Y200560D01*
Y200560D01*
X-178529Y201011D01*
Y201011D01*
X-178529D01*
D01*
D01*
D01*
D01*
X-178529Y201011D01*
D01*
D01*
D01*
D01*
D01*
D01*
D01*
D01*
D01*
D01*
D01*
D01*
D01*
D01*
D01*
X-178529Y201011D01*
D01*
D01*
X-178528Y201011D01*
X-178525Y201012D01*
D01*
D01*
D01*
D01*
D01*
X-178525D01*
D01*
D01*
D01*
X-178525Y201012D01*
D01*
D01*
D01*
X-178525D01*
D01*
D01*
D01*
D01*
D01*
Y201012D01*
D01*
X-178524Y201014D01*
D01*
D01*
D01*
D01*
D01*
X-178524Y201014D01*
D01*
D01*
D01*
D01*
D01*
D01*
D01*
D01*
D01*
D01*
D01*
D01*
D01*
D01*
D01*
Y201014D01*
D01*
D01*
D01*
D01*
D01*
D01*
D01*
D01*
D01*
D01*
D01*
D01*
D01*
D01*
D01*
X-178524Y201014D01*
X-178524Y201014D01*
X-178525Y201015D01*
X-177953Y201745D01*
X-177952Y201745D01*
X-177952Y201745D01*
D01*
D01*
D01*
D01*
D01*
D01*
D01*
D01*
D01*
D01*
D01*
D01*
D01*
D01*
Y201745D01*
D01*
D01*
X-177952Y201745D01*
Y201745D01*
D01*
D01*
D01*
D01*
D01*
D01*
D01*
D01*
X-177952D01*
D01*
D01*
D01*
D01*
D01*
D01*
D01*
D01*
D01*
D01*
D01*
D01*
D01*
X-177952D01*
D01*
D01*
D01*
D01*
X-177952D01*
D01*
D01*
D01*
D01*
D01*
D01*
D01*
D01*
D01*
D01*
Y201745D01*
D01*
X-177952Y201746D01*
D01*
D01*
D01*
D01*
D01*
D01*
D01*
D01*
D01*
D01*
D01*
X-177951Y201747D01*
D01*
D01*
D01*
D01*
D01*
D01*
D01*
D01*
D01*
D01*
D01*
D01*
D01*
D01*
D01*
D01*
D01*
Y201747D01*
X-177951Y201747D01*
D01*
D01*
D01*
D01*
D01*
D01*
D01*
D01*
D01*
D01*
D01*
D01*
D01*
D01*
D01*
D01*
Y201747D01*
D01*
D01*
D01*
D01*
D01*
D01*
D01*
D01*
D01*
D01*
D01*
D01*
D01*
D01*
D01*
D01*
D01*
D01*
D01*
D01*
D01*
D01*
Y201748D01*
D01*
D01*
D01*
D01*
D01*
D01*
D01*
D01*
D01*
D01*
D01*
D01*
D01*
D01*
X-177951D01*
D01*
D01*
D01*
D01*
D01*
D01*
D01*
D01*
D01*
D01*
D01*
D01*
D01*
D01*
D01*
D01*
D01*
D01*
D01*
D01*
X-177951D01*
D01*
D01*
D01*
D01*
D01*
D01*
D01*
D01*
D01*
D01*
D01*
D01*
D01*
D01*
D01*
D01*
D01*
D01*
X-177951Y201748D01*
D01*
D01*
X-168486Y218141D01*
X-168486Y218141D01*
X-168486Y218141D01*
X-168486D01*
D01*
D01*
X-168486Y218141D01*
D01*
D01*
D01*
D01*
D01*
D01*
D01*
D01*
D01*
X-168486D01*
D01*
D01*
D01*
X-168486D01*
X-168485Y218141D01*
X-168485D01*
D01*
D01*
D01*
D01*
D01*
D01*
D01*
D01*
Y218141D01*
D01*
D01*
X-168485Y218142D01*
D01*
D01*
D01*
D01*
D01*
D01*
D01*
D01*
D01*
D01*
D01*
D01*
D01*
D01*
X-168485Y218142D01*
D01*
D01*
D01*
D01*
D01*
D01*
D01*
D01*
D01*
D01*
D01*
D01*
D01*
D01*
D01*
Y218142D01*
D01*
D01*
D01*
D01*
D01*
D01*
D01*
D01*
D01*
D01*
D01*
D01*
D01*
X-168485Y218142D01*
D01*
D01*
D01*
D01*
D01*
D01*
D01*
D01*
X-168485Y218142D01*
D01*
Y218142D01*
D01*
D01*
D01*
D01*
D01*
D01*
D01*
D01*
D01*
D01*
D01*
X-168485D01*
D01*
D01*
X-168315Y218462D01*
Y218462D01*
X-168315D01*
Y218462D01*
D01*
X-168315D01*
X-168315Y218462D01*
D01*
D01*
D01*
D01*
D01*
D01*
D01*
Y218462D01*
D01*
D01*
D01*
D01*
D01*
X-168315D01*
D01*
D01*
D01*
D01*
D01*
D01*
D01*
D01*
D01*
D01*
D01*
D01*
D01*
X-168315D01*
D01*
D01*
D01*
D01*
D01*
D01*
D01*
D01*
D01*
X-168315D01*
D01*
D01*
D01*
D01*
D01*
D01*
D01*
Y218462D01*
D01*
X-168314Y218465D01*
D01*
D01*
D01*
D01*
D01*
D01*
D01*
D01*
D01*
D01*
D01*
D01*
D01*
X-168314Y218466D01*
D01*
D01*
D01*
D01*
D01*
D01*
D01*
D01*
D01*
D01*
D01*
D01*
D01*
D01*
D01*
D01*
D01*
Y218466D01*
D01*
Y218466D01*
D01*
D01*
D01*
D01*
D01*
D01*
D01*
D01*
D01*
D01*
D01*
D01*
D01*
D01*
X-168314D01*
D01*
D01*
D01*
D01*
D01*
D01*
D01*
D01*
D01*
D01*
D01*
D01*
D01*
D01*
D01*
D01*
D01*
D01*
X-168314D01*
X-168314D01*
X-168314D01*
X-168314Y218466D01*
X-168251Y218749D01*
X-168223Y218878D01*
X-168221Y218889D01*
X-168211Y218934D01*
X-168209Y218941D01*
X-168113Y219376D01*
X-156862D01*
X-156712Y219202D01*
X-156833Y218393D01*
X-157254Y217488D01*
X-164746Y204512D01*
X-164746Y204512D01*
X-164746Y204512D01*
X-165981Y202374D01*
X-165982Y202374D01*
D01*
Y202374D01*
D01*
D01*
X-165982D01*
D01*
D01*
D01*
D01*
D01*
D01*
D01*
D01*
D01*
D01*
D01*
D01*
D01*
D01*
D01*
D01*
D01*
D01*
D01*
D01*
X-165982D01*
D01*
D01*
D01*
Y202374D01*
Y202374D01*
D01*
D01*
Y202374D01*
D01*
X-165982D01*
X-165982D01*
X-165982Y202374D01*
X-165982Y202373D01*
D01*
D01*
D01*
Y202373D01*
D01*
D01*
D01*
D01*
D01*
Y202373D01*
D01*
D01*
D01*
X-165982Y202373D01*
X-165982Y202373D01*
Y202373D01*
D01*
D01*
D01*
X-165982Y202373D01*
Y202373D01*
D01*
D01*
Y202373D01*
X-165982D01*
D01*
D01*
X-171716Y192440D01*
X-172263Y191639D01*
X-173002Y191016D01*
X-173892Y190612D01*
X-174896Y190470D01*
X-175212Y190484D01*
D01*
X-175212Y190484D01*
X-175212Y190485D01*
D01*
Y190485D01*
D01*
D01*
D01*
D01*
Y190485D01*
D01*
D01*
D01*
D01*
D01*
D01*
D01*
X-175212D01*
X-175213Y190485D01*
D01*
D01*
X-175213D01*
D01*
D01*
D01*
X-175213Y190485D01*
X-175213Y190485D01*
D01*
D01*
D01*
X-175213D01*
D01*
D01*
D01*
D01*
D01*
D01*
Y190485D01*
D01*
D01*
X-175213D01*
D01*
D01*
D01*
Y190485D01*
X-204410Y190484D01*
X-204411Y190485D01*
D01*
Y190485D01*
D01*
D01*
D01*
D01*
Y190485D01*
D01*
D01*
D01*
D01*
D01*
D01*
D01*
D01*
X-204411D01*
X-204412Y190485D01*
D01*
D01*
D01*
X-204412Y190485D01*
X-204412Y190485D01*
D01*
D01*
X-204412D01*
D01*
D01*
D01*
D01*
D01*
D01*
Y190485D01*
D01*
D01*
D01*
D01*
X-204412D01*
D01*
D01*
D01*
Y190485D01*
X-204729Y190470D01*
X-205731Y190612D01*
X-206622Y191016D01*
X-207360Y191639D01*
X-207909Y192440D01*
X-215459Y205518D01*
X-215459Y205518D01*
X-215459D01*
D01*
D01*
Y205518D01*
X-215459D01*
D01*
D01*
D01*
X-215460Y205522D01*
X-215461Y205522D01*
X-215461Y205522D01*
X-215461Y205522D01*
X-222369Y217487D01*
X-222788Y218391D01*
X-222939Y219414D01*
X-222786Y220448D01*
X-222357Y221364D01*
X-215600Y233069D01*
X-215600Y233069D01*
Y233069D01*
D01*
X-215599Y233069D01*
D01*
D01*
X-215599Y233069D01*
D01*
D01*
D01*
D01*
X-215599D01*
X-215599Y233069D01*
X-215599Y233069D01*
X-215599Y233069D01*
D01*
D01*
X-215599D01*
D01*
D01*
Y233069D01*
D01*
X-215138Y233868D01*
X-215138Y233868D01*
D01*
D01*
D01*
Y233868D01*
D01*
D01*
D01*
D01*
D01*
D01*
D01*
D01*
D01*
D01*
D01*
D01*
D01*
X-215138D01*
Y233868D01*
Y233868D01*
D01*
D01*
D01*
D01*
Y233868D01*
X-215138D01*
X-215138Y233868D01*
D01*
D01*
D01*
D01*
X-215137D01*
D01*
D01*
D01*
D01*
D01*
D01*
X-215137D01*
D01*
X-215137Y233868D01*
Y233868D01*
D01*
X-215137Y233868D01*
D01*
D01*
D01*
D01*
D01*
Y233868D01*
D01*
D01*
D01*
D01*
D01*
D01*
D01*
D01*
D01*
D01*
D01*
D01*
D01*
D01*
D01*
D01*
D01*
Y233868D01*
D01*
D01*
D01*
D01*
D01*
D01*
D01*
D01*
D01*
D01*
D01*
D01*
D01*
D01*
D01*
D01*
Y233868D01*
D01*
D01*
D01*
D01*
D01*
D01*
D01*
D01*
D01*
D01*
D01*
D01*
D01*
D01*
D01*
Y233868D01*
D01*
D01*
D01*
D01*
X-215137D01*
D01*
D01*
D01*
D01*
D01*
D01*
D01*
D01*
D01*
D01*
D01*
D01*
X-215137D01*
D01*
X-215137Y233868D01*
X-215137Y233868D01*
D01*
D01*
D01*
X-215138D01*
X-215138Y233868D01*
D01*
D01*
Y233868D01*
D01*
D01*
X-215138D01*
D01*
D01*
X-214203Y235487D01*
X-214202Y235487D01*
Y235487D01*
X-214202Y235487D01*
Y235487D01*
Y235487D01*
X-212958Y237640D01*
D01*
X-212958Y237640D01*
D01*
D01*
X-212958D01*
Y237640D01*
D01*
D01*
D01*
D01*
D01*
X-212958Y237640D01*
D01*
D01*
D01*
D01*
D01*
D01*
D01*
D01*
D01*
X-212958Y237640D01*
D01*
D01*
D01*
D01*
X-212958Y237641D01*
X-211571Y240044D01*
X-211571D01*
D01*
D01*
X-211571Y240044D01*
D01*
D01*
D01*
D01*
X-211571Y240044D01*
Y240044D01*
X-211571Y240044D01*
Y240044D01*
X-211571Y240044D01*
X-211571Y240044D01*
D01*
D01*
X-211571D01*
D01*
X-210205Y242411D01*
X-210205Y242411D01*
X-210205Y242411D01*
X-210205D01*
X-210205D01*
X-210205Y242411D01*
X-210205D01*
D01*
D01*
D01*
D01*
D01*
D01*
D01*
D01*
Y242411D01*
D01*
X-210205Y242411D01*
D01*
D01*
D01*
D01*
D01*
D01*
D01*
D01*
D01*
D01*
D01*
D01*
D01*
D01*
D01*
D01*
D01*
Y242411D01*
D01*
D01*
D01*
D01*
D01*
D01*
D01*
D01*
D01*
D01*
D01*
D01*
D01*
D01*
D01*
D01*
D01*
Y242411D01*
D01*
D01*
X-210205D01*
D01*
D01*
D01*
D01*
D01*
D01*
D01*
D01*
D01*
D01*
D01*
D01*
D01*
D01*
X-210205D01*
X-210205Y242411D01*
D01*
X-209025Y244456D01*
X-209025Y244456D01*
D01*
D01*
D01*
X-209024Y244456D01*
X-208197Y245891D01*
X-207884Y246434D01*
X-207884Y246434D01*
X-207884Y246434D01*
Y246434D01*
Y246434D01*
D01*
X-207843Y246502D01*
D01*
Y246502D01*
X-207843Y246502D01*
D01*
Y246502D01*
Y246502D01*
Y246502D01*
D01*
D01*
D01*
D01*
X-207843D01*
D01*
D01*
D01*
D01*
D01*
D01*
D01*
D01*
X-207843D01*
D01*
D01*
D01*
D01*
D01*
X-207843D01*
Y246502D01*
D01*
D01*
Y246502D01*
D01*
D01*
X-207843Y246502D01*
D01*
D01*
D01*
D01*
Y246502D01*
D01*
D01*
D01*
D01*
D01*
Y246502D01*
D01*
D01*
D01*
X-207843Y246502D01*
Y246502D01*
D01*
X-207843Y246502D01*
X-207843D01*
X-207843Y246502D01*
X-207824Y246537D01*
X-207823Y246537D01*
D01*
D01*
D01*
D01*
D01*
Y246537D01*
D01*
D01*
X-207823Y246537D01*
X-207822Y246539D01*
Y246539D01*
D01*
D01*
D01*
D01*
D01*
D01*
D01*
D01*
D01*
D01*
X-207822Y246539D01*
D01*
D01*
D01*
D01*
D01*
D01*
D01*
Y246539D01*
D01*
D01*
D01*
D01*
D01*
D01*
D01*
D01*
D01*
Y246539D01*
D01*
D01*
D01*
D01*
D01*
D01*
X-207822D01*
D01*
D01*
D01*
D01*
D01*
D01*
D01*
D01*
X-207823Y246539D01*
X-207823Y246539D01*
X-207267Y247263D01*
X-207267Y247263D01*
X-206546Y247823D01*
X-205697Y248184D01*
X-204748Y248313D01*
X-175212D01*
X-175212Y248313D01*
X-175212Y248312D01*
X-175212Y248312D01*
X-175212Y248312D01*
D01*
D01*
Y248312D01*
D01*
D01*
D01*
D01*
Y248312D01*
D01*
D01*
D01*
Y248312D01*
X-175212D01*
D01*
D01*
D01*
D01*
D01*
D01*
Y248312D01*
X-175212Y248312D01*
X-175212Y248312D01*
X-175212D01*
D01*
D01*
D01*
D01*
D01*
D01*
D01*
D01*
D01*
D01*
X-175212D01*
D01*
X-175212Y248312D01*
D01*
D01*
D01*
D01*
D01*
D01*
X-175212D01*
D01*
D01*
D01*
D01*
D01*
D01*
D01*
D01*
Y248312D01*
D01*
D01*
D01*
D01*
D01*
D01*
D01*
D01*
D01*
D01*
D01*
D01*
D01*
D01*
Y248312D01*
D01*
D01*
D01*
D01*
X-174876Y248314D01*
X-173927Y248186D01*
D02*
G37*
G36*
X-178134Y379860D02*
X-178074Y379275D01*
X-178028Y378026D01*
X-178472Y373588D01*
X-179653Y370146D01*
X-201537D01*
Y373916D01*
X-181196D01*
X-180734Y375292D01*
X-180595Y376830D01*
X-180690Y378072D01*
X-180981Y379184D01*
X-178326Y379988D01*
X-178134Y379860D01*
D02*
G37*
G36*
X-187481Y398690D02*
X-185200Y398279D01*
X-183166Y397588D01*
X-181416Y396608D01*
X-179990Y395337D01*
X-178925Y393766D01*
X-178259Y391888D01*
X-178028Y389702D01*
X-178259Y387514D01*
X-178925Y385637D01*
X-179990Y384065D01*
X-181416Y382794D01*
X-183166Y381816D01*
X-185200Y381124D01*
X-187481Y380713D01*
X-189975Y380579D01*
X-192482Y380713D01*
X-194777Y381124D01*
X-196820Y381816D01*
X-198574Y382794D01*
X-200003Y384065D01*
X-201071Y385637D01*
X-201738Y387514D01*
X-201970Y389702D01*
X-201738Y391888D01*
X-201071Y393765D01*
X-200003Y395336D01*
X-198574Y396608D01*
X-196820Y397588D01*
X-194777Y398279D01*
X-192482Y398689D01*
X-189975Y398825D01*
X-187481Y398690D01*
D02*
G37*
G36*
X-232617Y264863D02*
X-232391Y264680D01*
X-232222Y264497D01*
X-232095Y264314D01*
X-231968Y264652D01*
X-231827Y264920D01*
X-231729Y265089D01*
X-231700Y265145D01*
X-231686Y265159D01*
X-231588Y265301D01*
X-231489Y265413D01*
X-231292Y265625D01*
X-231151Y265752D01*
X-231108Y265780D01*
X-231094Y265794D01*
X-230840Y265963D01*
X-230587Y266090D01*
X-230418Y266160D01*
X-230361Y266189D01*
X-230347D01*
X-230037Y266273D01*
X-229755Y266315D01*
X-229558Y266329D01*
X-229473D01*
X-229262Y266315D01*
X-229064Y266301D01*
X-228726Y266231D01*
X-228500Y266146D01*
X-228430Y266132D01*
X-228416Y266118D01*
X-228233Y266033D01*
X-228078Y265935D01*
X-227810Y265737D01*
X-227626Y265568D01*
X-227570Y265498D01*
X-227330Y265145D01*
X-227175Y264793D01*
X-227034Y264398D01*
X-226922Y263863D01*
X-226865Y263341D01*
X-226837Y262791D01*
Y260000D01*
X-236000D01*
Y261706D01*
X-232419D01*
Y262439D01*
X-232433Y262608D01*
X-232448Y262721D01*
X-232476Y262791D01*
X-232490Y262819D01*
X-232560Y262918D01*
X-232631Y262989D01*
X-232729Y263059D01*
X-235662Y264990D01*
X-235774Y265075D01*
X-235859Y265174D01*
X-235958Y265385D01*
X-236000Y265554D01*
Y265611D01*
Y265625D01*
Y267161D01*
X-232617Y264863D01*
D02*
G37*
G36*
X-185475Y340031D02*
X-182436Y339550D01*
Y339550D01*
X-182436Y339550D01*
Y339550D01*
D01*
X-182436D01*
D01*
X-182436Y339550D01*
X-182435Y339549D01*
Y339549D01*
X-182435D01*
D01*
D01*
D01*
D01*
D01*
D01*
D01*
D01*
D01*
D01*
D01*
D01*
D01*
X-182435D01*
X-182435Y339549D01*
D01*
X-180081Y338079D01*
X-180081Y338079D01*
D01*
D01*
D01*
D01*
D01*
D01*
X-180081Y338079D01*
D01*
D01*
X-180081D01*
Y338079D01*
D01*
Y338079D01*
X-180081Y338079D01*
X-180080Y338078D01*
X-180080D01*
D01*
Y338078D01*
X-180080Y338078D01*
D01*
X-180080D01*
X-180075Y338073D01*
X-180073Y338072D01*
D01*
X-180069Y338067D01*
Y338067D01*
X-180069D01*
X-180069Y338067D01*
D01*
D01*
Y338067D01*
X-180069D01*
X-180069D01*
X-178542Y335536D01*
D01*
D01*
D01*
D01*
X-178542D01*
X-178542D01*
X-178542D01*
D01*
D01*
D01*
Y335536D01*
X-178542Y335536D01*
D01*
X-178542Y335536D01*
X-178540Y335532D01*
X-178540Y335532D01*
Y335532D01*
X-178540Y335532D01*
X-178537Y335522D01*
X-177993Y331864D01*
X-177993Y331864D01*
X-177993Y331860D01*
X-177993Y331859D01*
X-177994Y331857D01*
D01*
D01*
X-177994D01*
D01*
D01*
Y331857D01*
D01*
D01*
D01*
D01*
Y331857D01*
D01*
X-177994Y331857D01*
Y331857D01*
D01*
X-177994D01*
Y331857D01*
Y331857D01*
X-177994Y331857D01*
X-178179Y329879D01*
D01*
D01*
X-178179D01*
D01*
Y329879D01*
D01*
D01*
D01*
X-178179D01*
X-178179Y329879D01*
X-178181Y329872D01*
D01*
D01*
D01*
X-178181Y329872D01*
X-178181Y329872D01*
X-178717Y328074D01*
X-178717Y328074D01*
D01*
D01*
Y328074D01*
D01*
X-178717Y328074D01*
X-178718Y328074D01*
X-178718Y328073D01*
X-178718Y328073D01*
X-179566Y326505D01*
X-179567Y326506D01*
D01*
X-179567Y326506D01*
D01*
D01*
D01*
D01*
D01*
D01*
D01*
D01*
D01*
D01*
D01*
D01*
D01*
D01*
D01*
D01*
D01*
X-179570Y326502D01*
X-179572Y326499D01*
D01*
Y326499D01*
D01*
D01*
D01*
D01*
D01*
D01*
D01*
D01*
Y326499D01*
D01*
D01*
D01*
D01*
Y326499D01*
D01*
D01*
X-179572D01*
D01*
X-180676Y325223D01*
X-179537Y324015D01*
D01*
D01*
D01*
X-179537D01*
D01*
D01*
D01*
D01*
D01*
D01*
D01*
D01*
D01*
D01*
D01*
D01*
D01*
D01*
Y324015D01*
D01*
D01*
Y324015D01*
D01*
D01*
X-179537D01*
Y324015D01*
X-179537Y324015D01*
D01*
D01*
X-179537Y324015D01*
X-179536Y324014D01*
X-179536Y324014D01*
X-179535Y324013D01*
X-179532Y324008D01*
X-179531Y324008D01*
D01*
X-179531Y324008D01*
D01*
D01*
D01*
D01*
D01*
D01*
X-179531Y324008D01*
Y324008D01*
X-179531Y324008D01*
X-179531Y324008D01*
Y324008D01*
D01*
D01*
D01*
X-179531Y324008D01*
X-179531D01*
Y324008D01*
D01*
D01*
X-179531D01*
D01*
D01*
D01*
D01*
D01*
D01*
X-179531D01*
D01*
X-178688Y322506D01*
X-178688Y322506D01*
D01*
D01*
D01*
D01*
D01*
D01*
X-178688Y322506D01*
X-178688Y322506D01*
X-178688D01*
X-178688D01*
D01*
D01*
X-178688Y322506D01*
X-178688D01*
Y322506D01*
X-178688D01*
D01*
X-178688Y322506D01*
X-178686Y322503D01*
X-178686Y322502D01*
X-178686D01*
X-178686Y322501D01*
X-178685Y322498D01*
X-178167Y320629D01*
X-178168Y320628D01*
Y320628D01*
X-178168D01*
D01*
D01*
D01*
D01*
D01*
D01*
X-178168Y320628D01*
D01*
D01*
X-178168Y320628D01*
X-178168Y320628D01*
X-178167Y320621D01*
Y320621D01*
D01*
D01*
X-178167D01*
X-178167Y320621D01*
D01*
Y320621D01*
D01*
Y320621D01*
D01*
D01*
X-178167D01*
X-178167D01*
D01*
X-177993Y318285D01*
D01*
D01*
D01*
D01*
D01*
D01*
X-177993D01*
D01*
D01*
D01*
D01*
D01*
D01*
D01*
D01*
D01*
D01*
Y318285D01*
D01*
D01*
D01*
D01*
D01*
D01*
X-177993D01*
D01*
D01*
D01*
Y318285D01*
D01*
D01*
D01*
D01*
D01*
D01*
D01*
X-177993Y318285D01*
D01*
X-177994Y318278D01*
X-177994Y318278D01*
D01*
D01*
X-177994D01*
D01*
X-178438Y313973D01*
Y313973D01*
D01*
Y313973D01*
X-178438Y313973D01*
X-178438Y313973D01*
X-178438Y313972D01*
X-179620Y310348D01*
X-179653Y310324D01*
X-179653D01*
Y310324D01*
X-201537Y310321D01*
X-201572Y310359D01*
Y310359D01*
X-201572D01*
X-201575Y313958D01*
X-201412Y314121D01*
X-181222D01*
X-180634Y316078D01*
X-180457Y318413D01*
X-180537Y319600D01*
X-180771Y320607D01*
X-181149Y321442D01*
X-181659Y322112D01*
X-182291Y322620D01*
X-183039Y322978D01*
X-183890Y323187D01*
X-184838Y323257D01*
Y323257D01*
D01*
D01*
Y323257D01*
X-184838Y323257D01*
X-184840Y323257D01*
X-184840Y323257D01*
Y323257D01*
D01*
D01*
Y323257D01*
X-201537Y323254D01*
X-201572Y323292D01*
Y323292D01*
X-201572D01*
X-201575Y326892D01*
X-201412Y327056D01*
X-182624D01*
X-181733Y327949D01*
X-181049Y328994D01*
X-180610Y330184D01*
X-180457Y331517D01*
X-180547Y332687D01*
X-180810Y333674D01*
X-181236Y334487D01*
X-181812Y335136D01*
X-182529Y335628D01*
X-183381Y335970D01*
X-184353Y336170D01*
X-185437Y336236D01*
Y336236D01*
D01*
D01*
Y336236D01*
X-185438Y336236D01*
X-185439Y336236D01*
X-185439Y336236D01*
Y336236D01*
D01*
D01*
Y336236D01*
X-201538Y336233D01*
X-201574Y336272D01*
Y336272D01*
X-201574D01*
X-201576Y339869D01*
X-201413Y340032D01*
X-185477Y340032D01*
X-185475Y340031D01*
D02*
G37*
G36*
X-178455Y345101D02*
X-201537D01*
Y348868D01*
X-178455D01*
Y345101D01*
D02*
G37*
G36*
X-198283Y365633D02*
X-198211Y365414D01*
X-198578Y364818D01*
X-198928Y363946D01*
X-199150Y362984D01*
X-199228Y361969D01*
X-198504Y359536D01*
X-196519Y357735D01*
X-193554Y356616D01*
X-189892Y356233D01*
X-186199Y356612D01*
X-183251Y357720D01*
X-181299Y359519D01*
X-180595Y361969D01*
X-180678Y362990D01*
X-180917Y363968D01*
X-181283Y364855D01*
X-181659Y365459D01*
X-181588Y365678D01*
X-179523Y366511D01*
X-178424Y364256D01*
X-178028Y361329D01*
X-178251Y359358D01*
X-178901Y357598D01*
X-179945Y356067D01*
X-181352Y354780D01*
X-183089Y353751D01*
X-185127Y352997D01*
X-187433Y352533D01*
X-189975Y352376D01*
X-192519Y352531D01*
X-194830Y352990D01*
X-196875Y353740D01*
X-198622Y354763D01*
X-200037Y356049D01*
X-201089Y357580D01*
X-201743Y359345D01*
X-201970Y361329D01*
X-201573Y364256D01*
X-200469Y366512D01*
X-198283Y365633D01*
D02*
G37*
G36*
X-230982Y304124D02*
X-230587Y304095D01*
X-229938Y304011D01*
X-229501Y303926D01*
X-229389Y303898D01*
X-229360Y303884D01*
X-229346D01*
X-229022Y303785D01*
X-228740Y303658D01*
X-228486Y303546D01*
X-228275Y303433D01*
X-227979Y303235D01*
X-227908Y303193D01*
X-227880Y303165D01*
X-227683Y302996D01*
X-227500Y302813D01*
X-227232Y302460D01*
X-227077Y302192D01*
X-227020Y302094D01*
X-226851Y301628D01*
X-226766Y301206D01*
X-226738Y300769D01*
X-226752Y300501D01*
X-226781Y300261D01*
X-226823Y300035D01*
X-226879Y299824D01*
X-226978Y299542D01*
X-227020Y299429D01*
X-227133Y299218D01*
X-227274Y299006D01*
X-227415Y298823D01*
X-227556Y298668D01*
X-227880Y298372D01*
X-228106Y298217D01*
X-228345Y298076D01*
X-228825Y297850D01*
X-229346Y297667D01*
X-230037Y297526D01*
X-230714Y297442D01*
X-231418Y297413D01*
X-231856Y297428D01*
X-232250Y297456D01*
X-232913Y297540D01*
X-233350Y297625D01*
X-233505Y297667D01*
X-233815Y297766D01*
X-234111Y297879D01*
X-234351Y298006D01*
X-234576Y298118D01*
X-234745Y298217D01*
X-234872Y298302D01*
X-234971Y298372D01*
X-235168Y298541D01*
X-235352Y298724D01*
X-235619Y299077D01*
X-235774Y299331D01*
X-235817Y299401D01*
X-235831Y299429D01*
X-235986Y299895D01*
X-236056Y300331D01*
X-236085Y300642D01*
X-236099Y300740D01*
Y300769D01*
X-236085Y301022D01*
X-236056Y301276D01*
X-236014Y301502D01*
X-235958Y301699D01*
X-235915Y301868D01*
X-235873Y301981D01*
X-235845Y302065D01*
X-235831Y302094D01*
X-235718Y302319D01*
X-235577Y302516D01*
X-235436Y302700D01*
X-235295Y302869D01*
X-235070Y303080D01*
X-234999Y303151D01*
X-234971Y303165D01*
X-234745Y303334D01*
X-234492Y303475D01*
X-234026Y303701D01*
X-233646Y303842D01*
X-233547Y303870D01*
X-233519Y303884D01*
X-233505D01*
X-232800Y304025D01*
X-232123Y304109D01*
X-231616Y304138D01*
X-231418D01*
X-230982Y304124D01*
D02*
G37*
G36*
X-234999Y296539D02*
X-234886Y296511D01*
X-234802Y296483D01*
X-234774Y296469D01*
X-234647Y296413D01*
X-234548Y296342D01*
X-234492Y296286D01*
X-234463Y296257D01*
X-234322Y296060D01*
X-234266Y295961D01*
X-234196Y295708D01*
X-234181Y295581D01*
X-234196Y295440D01*
X-234224Y295313D01*
X-234266Y295200D01*
X-234322Y295087D01*
X-234393Y294989D01*
X-234463Y294904D01*
X-234562Y294820D01*
X-234661Y294749D01*
X-234774Y294693D01*
X-235013Y294636D01*
X-235140Y294622D01*
X-235408Y294664D01*
X-235521Y294693D01*
X-235634Y294763D01*
X-235732Y294834D01*
X-235817Y294904D01*
X-235958Y295102D01*
X-236000Y295172D01*
Y295200D01*
X-236014D01*
X-236070Y295454D01*
X-236085Y295553D01*
Y295567D01*
Y295581D01*
X-236070Y295736D01*
X-236042Y295849D01*
X-236028Y295933D01*
X-236014Y295961D01*
X-235958Y296074D01*
X-235887Y296173D01*
X-235831Y296229D01*
X-235817Y296257D01*
X-235619Y296413D01*
X-235549Y296455D01*
X-235521Y296469D01*
X-235267Y296539D01*
X-235168Y296553D01*
X-235140D01*
X-234999Y296539D01*
D02*
G37*
G36*
X-234830Y291634D02*
X-226823D01*
Y290351D01*
X-229205Y287546D01*
X-229882Y288053D01*
X-229952Y288109D01*
X-229981Y288138D01*
X-229995Y288152D01*
X-230037Y288279D01*
X-230051Y288321D01*
Y288335D01*
Y288476D01*
Y288532D01*
Y288546D01*
X-230023Y288631D01*
X-229981Y288701D01*
X-229952Y288758D01*
X-229938Y288772D01*
X-228839Y290083D01*
X-229487Y290069D01*
X-234830D01*
Y288208D01*
X-236000D01*
Y293283D01*
X-234830D01*
Y291634D01*
D02*
G37*
G36*
X-211459Y385253D02*
X-211403Y385013D01*
X-211374Y384759D01*
X-211388Y384548D01*
X-211431Y384365D01*
X-211487Y384195D01*
X-211544Y384040D01*
X-211600Y383928D01*
X-211656Y383829D01*
X-211713Y383758D01*
X-211840Y383618D01*
X-211995Y383476D01*
X-212291Y383251D01*
X-212629Y383040D01*
X-211896Y382955D01*
X-211755Y382913D01*
X-211656Y382870D01*
X-211600Y382828D01*
X-211586Y382814D01*
X-211530Y382729D01*
X-211515Y382617D01*
X-211501Y382490D01*
Y381559D01*
X-218000D01*
Y383138D01*
X-213996D01*
X-213672Y383293D01*
X-213573Y383350D01*
X-213559Y383364D01*
X-213545D01*
X-213404Y383462D01*
X-213292Y383547D01*
X-213221Y383618D01*
X-213193Y383646D01*
X-213038Y383899D01*
X-212996Y383984D01*
X-212981Y383998D01*
Y384012D01*
X-212911Y384322D01*
X-212897Y384435D01*
Y384463D01*
Y384477D01*
X-212911Y384731D01*
X-212925Y384816D01*
Y384830D01*
Y384844D01*
X-212953Y385055D01*
Y385112D01*
Y385126D01*
X-212925Y385239D01*
X-212911Y385267D01*
Y385281D01*
X-212869Y385323D01*
X-212812Y385351D01*
X-212756Y385380D01*
X-212742D01*
X-211572Y385478D01*
X-211459Y385253D01*
D02*
G37*
G36*
X-208583Y390384D02*
X-212023D01*
X-211826Y390159D01*
X-211684Y389933D01*
X-211558Y389693D01*
X-211445Y389383D01*
X-211403Y389087D01*
X-211374Y388763D01*
X-211388Y388537D01*
X-211417Y388312D01*
X-211501Y387945D01*
X-211600Y387706D01*
X-211642Y387607D01*
X-211741Y387424D01*
X-211854Y387254D01*
X-211981Y387099D01*
X-212093Y386973D01*
X-212277Y386789D01*
X-212347Y386719D01*
X-212700Y386479D01*
X-213052Y386296D01*
X-213433Y386155D01*
X-214335Y386000D01*
X-214772Y385972D01*
X-215068Y385986D01*
X-215336Y386000D01*
X-215787Y386056D01*
X-216196Y386141D01*
X-216421Y386211D01*
X-216618Y386296D01*
X-216802Y386366D01*
X-216943Y386451D01*
X-217168Y386578D01*
X-217239Y386634D01*
X-217380Y386761D01*
X-217521Y386888D01*
X-217718Y387142D01*
X-217831Y387325D01*
X-217859Y387381D01*
X-217873Y387396D01*
X-218000Y387734D01*
X-218056Y388058D01*
X-218085Y388298D01*
Y388354D01*
Y388382D01*
X-218071Y388622D01*
X-218042Y388833D01*
X-218028Y388960D01*
X-218014Y389002D01*
Y389017D01*
X-217958Y389228D01*
X-217901Y389397D01*
X-217845Y389524D01*
X-217831Y389552D01*
Y389566D01*
X-217619Y389905D01*
X-217535Y390003D01*
X-217521Y390032D01*
X-217507Y390046D01*
X-217366Y390201D01*
X-217239Y390342D01*
X-217140Y390440D01*
X-217112Y390454D01*
X-217098Y390469D01*
X-217718Y390610D01*
X-217817Y390652D01*
X-217887Y390694D01*
X-217958Y390821D01*
X-218000Y390948D01*
Y390976D01*
Y390990D01*
Y391949D01*
X-208583D01*
Y390384D01*
D02*
G37*
G36*
X-230982Y323831D02*
X-230587Y323803D01*
X-229938Y323718D01*
X-229501Y323634D01*
X-229389Y323606D01*
X-229360Y323592D01*
X-229346D01*
X-229022Y323493D01*
X-228740Y323366D01*
X-228486Y323253D01*
X-228275Y323140D01*
X-227979Y322943D01*
X-227908Y322901D01*
X-227880Y322873D01*
X-227683Y322703D01*
X-227500Y322520D01*
X-227232Y322168D01*
X-227077Y321900D01*
X-227020Y321801D01*
X-226851Y321336D01*
X-226766Y320913D01*
X-226738Y320476D01*
X-226752Y320208D01*
X-226781Y319969D01*
X-226823Y319743D01*
X-226879Y319532D01*
X-226978Y319250D01*
X-227020Y319137D01*
X-227133Y318925D01*
X-227274Y318714D01*
X-227415Y318531D01*
X-227556Y318376D01*
X-227880Y318080D01*
X-228106Y317925D01*
X-228345Y317784D01*
X-228825Y317558D01*
X-229346Y317375D01*
X-230037Y317234D01*
X-230714Y317149D01*
X-231418Y317121D01*
X-231856Y317135D01*
X-232250Y317163D01*
X-232913Y317248D01*
X-233350Y317332D01*
X-233505Y317375D01*
X-233815Y317474D01*
X-234111Y317586D01*
X-234351Y317713D01*
X-234576Y317826D01*
X-234745Y317925D01*
X-234872Y318009D01*
X-234971Y318080D01*
X-235168Y318249D01*
X-235352Y318432D01*
X-235619Y318785D01*
X-235774Y319038D01*
X-235817Y319109D01*
X-235831Y319137D01*
X-235986Y319602D01*
X-236056Y320039D01*
X-236085Y320349D01*
X-236099Y320448D01*
Y320476D01*
X-236085Y320730D01*
X-236056Y320984D01*
X-236014Y321209D01*
X-235958Y321407D01*
X-235915Y321576D01*
X-235873Y321688D01*
X-235845Y321773D01*
X-235831Y321801D01*
X-235718Y322027D01*
X-235577Y322224D01*
X-235436Y322407D01*
X-235295Y322577D01*
X-235070Y322788D01*
X-234999Y322859D01*
X-234971Y322873D01*
X-234745Y323042D01*
X-234492Y323183D01*
X-234026Y323408D01*
X-233646Y323549D01*
X-233547Y323577D01*
X-233519Y323592D01*
X-233505D01*
X-232800Y323732D01*
X-232123Y323817D01*
X-231616Y323845D01*
X-231418D01*
X-230982Y323831D01*
D02*
G37*
G36*
X-234999Y283077D02*
X-234886Y283049D01*
X-234802Y283020D01*
X-234774Y283006D01*
X-234647Y282950D01*
X-234548Y282879D01*
X-234492Y282823D01*
X-234463Y282795D01*
X-234322Y282598D01*
X-234266Y282499D01*
X-234196Y282245D01*
X-234181Y282118D01*
X-234196Y281977D01*
X-234224Y281850D01*
X-234266Y281738D01*
X-234322Y281625D01*
X-234393Y281526D01*
X-234463Y281441D01*
X-234562Y281357D01*
X-234661Y281287D01*
X-234774Y281230D01*
X-235013Y281174D01*
X-235140Y281160D01*
X-235408Y281202D01*
X-235521Y281230D01*
X-235634Y281301D01*
X-235732Y281371D01*
X-235817Y281441D01*
X-235958Y281639D01*
X-236000Y281709D01*
Y281738D01*
X-236014D01*
X-236070Y281991D01*
X-236085Y282090D01*
Y282104D01*
Y282118D01*
X-236070Y282273D01*
X-236042Y282386D01*
X-236028Y282471D01*
X-236014Y282499D01*
X-235958Y282612D01*
X-235887Y282710D01*
X-235831Y282767D01*
X-235817Y282795D01*
X-235619Y282950D01*
X-235549Y282992D01*
X-235521Y283006D01*
X-235267Y283077D01*
X-235168Y283091D01*
X-235140D01*
X-234999Y283077D01*
D02*
G37*
G36*
X-229501Y279327D02*
X-229515Y279214D01*
X-229544Y279130D01*
X-229586Y279045D01*
X-229642Y278974D01*
X-229713Y278932D01*
X-229783Y278890D01*
X-233265Y277607D01*
X-233871Y277424D01*
X-234266Y277325D01*
X-234449Y277283D01*
X-234055Y277198D01*
X-233914Y277170D01*
X-233885Y277156D01*
X-233871D01*
X-233646Y277100D01*
X-233463Y277043D01*
X-233322Y276987D01*
X-233279Y276973D01*
X-233265D01*
X-229783Y275718D01*
X-229699Y275676D01*
X-229642Y275634D01*
X-229586Y275563D01*
X-229529Y275464D01*
X-229515Y275380D01*
X-229501Y275267D01*
Y273984D01*
X-236000Y276564D01*
Y277988D01*
X-229501Y280567D01*
Y279327D01*
D02*
G37*
%LPC*%
G36*
X-231418Y322224D02*
X-231771D01*
X-232095Y322196D01*
X-232377Y322182D01*
X-232617Y322154D01*
X-233068Y322083D01*
X-233293Y322027D01*
X-233505Y321956D01*
X-233829Y321829D01*
X-234111Y321688D01*
X-234351Y321505D01*
X-234520Y321322D01*
X-234647Y321125D01*
X-234788Y320688D01*
X-234802Y320476D01*
X-234788Y320349D01*
X-234774Y320237D01*
X-234717Y320025D01*
X-234647Y319814D01*
X-234492Y319602D01*
X-234322Y319419D01*
X-234167Y319306D01*
X-234125Y319278D01*
X-234111Y319264D01*
X-233434Y318982D01*
X-233181Y318911D01*
X-233096Y318897D01*
X-233068Y318883D01*
X-231996Y318756D01*
X-231588Y318742D01*
X-231418D01*
X-231066Y318756D01*
X-230742Y318770D01*
X-230460Y318785D01*
X-230220Y318813D01*
X-229882Y318855D01*
X-229797Y318883D01*
X-229769D01*
X-229544Y318939D01*
X-229332Y318996D01*
X-229008Y319123D01*
X-228811Y319221D01*
X-228754Y319250D01*
X-228740Y319264D01*
X-228599Y319363D01*
X-228486Y319447D01*
X-228317Y319630D01*
X-228218Y319757D01*
X-228190Y319799D01*
Y319814D01*
X-228106Y320053D01*
X-228049Y320265D01*
X-228035Y320420D01*
Y320462D01*
Y320476D01*
X-228063Y320716D01*
X-228106Y320927D01*
X-228162Y321068D01*
X-228176Y321110D01*
X-228190Y321125D01*
X-228261Y321237D01*
X-228345Y321350D01*
X-228529Y321533D01*
X-228740Y321688D01*
X-229064Y321858D01*
X-229403Y321984D01*
X-229769Y322083D01*
X-230840Y322210D01*
X-231418Y322224D01*
D02*
G37*
G36*
X-232011Y272109D02*
Y269149D01*
X-231757Y269205D01*
X-231531Y269276D01*
X-231348Y269360D01*
X-231193Y269445D01*
X-231066Y269515D01*
X-230982Y269586D01*
X-230925Y269628D01*
X-230911Y269642D01*
X-230784Y269797D01*
X-230685Y269981D01*
X-230559Y270333D01*
X-230516Y270601D01*
Y270686D01*
Y270714D01*
X-230530Y270953D01*
X-230573Y271151D01*
X-230629Y271278D01*
X-230643Y271306D01*
Y271320D01*
X-230742Y271503D01*
X-230840Y271644D01*
X-230967Y271757D01*
X-231122Y271884D01*
X-231278Y271954D01*
X-231433Y272025D01*
X-231630Y272081D01*
X-231827Y272095D01*
X-232011Y272109D01*
D02*
G37*
G36*
X-231418Y350207D02*
X-231771D01*
X-232095Y350178D01*
X-232377Y350164D01*
X-232617Y350136D01*
X-233068Y350066D01*
X-233293Y350009D01*
X-233505Y349939D01*
X-233829Y349812D01*
X-234111Y349671D01*
X-234351Y349488D01*
X-234520Y349305D01*
X-234647Y349107D01*
X-234788Y348670D01*
X-234802Y348459D01*
X-234788Y348332D01*
X-234774Y348219D01*
X-234717Y348008D01*
X-234647Y347796D01*
X-234492Y347585D01*
X-234322Y347401D01*
X-234167Y347289D01*
X-234125Y347260D01*
X-234111Y347246D01*
X-233434Y346964D01*
X-233181Y346894D01*
X-233096Y346880D01*
X-233068Y346866D01*
X-231996Y346739D01*
X-231588Y346725D01*
X-231418D01*
X-231066Y346739D01*
X-230742Y346753D01*
X-230460Y346767D01*
X-230220Y346795D01*
X-229882Y346838D01*
X-229797Y346866D01*
X-229769D01*
X-229544Y346922D01*
X-229332Y346978D01*
X-229008Y347105D01*
X-228811Y347204D01*
X-228754Y347232D01*
X-228740Y347246D01*
X-228599Y347345D01*
X-228486Y347430D01*
X-228317Y347613D01*
X-228218Y347740D01*
X-228190Y347782D01*
Y347796D01*
X-228106Y348036D01*
X-228049Y348247D01*
X-228035Y348402D01*
Y348445D01*
Y348459D01*
X-228063Y348698D01*
X-228106Y348910D01*
X-228162Y349051D01*
X-228176Y349093D01*
X-228190Y349107D01*
X-228261Y349220D01*
X-228345Y349333D01*
X-228529Y349516D01*
X-228740Y349671D01*
X-229064Y349840D01*
X-229403Y349967D01*
X-229769Y350066D01*
X-230840Y350193D01*
X-231418Y350207D01*
D02*
G37*
G36*
X-229600Y364712D02*
X-229840Y364698D01*
X-230037Y364656D01*
X-230220Y364600D01*
X-230418Y364515D01*
X-230573Y364402D01*
X-230714Y364290D01*
X-230855Y364134D01*
X-230967Y363965D01*
X-231052Y363796D01*
X-231151Y363345D01*
X-231165Y363120D01*
X-231151Y362866D01*
X-231108Y362640D01*
X-231038Y362443D01*
X-230967Y362288D01*
X-230826Y362062D01*
X-230770Y361992D01*
X-230601Y361865D01*
X-230418Y361766D01*
X-230023Y361654D01*
X-229713Y361597D01*
X-229586D01*
X-229346Y361611D01*
X-229149Y361654D01*
X-229008Y361682D01*
X-228980Y361696D01*
X-228966D01*
X-228754Y361794D01*
X-228599Y361893D01*
X-228500Y361978D01*
X-228472Y361992D01*
X-228458Y362006D01*
X-228317Y362175D01*
X-228218Y362330D01*
X-228148Y362457D01*
X-228134Y362485D01*
Y362499D01*
X-228063Y362725D01*
X-228021Y362936D01*
X-228007Y363091D01*
Y363134D01*
Y363148D01*
X-228021Y363387D01*
X-228063Y363585D01*
X-228106Y363726D01*
X-228120Y363754D01*
Y363768D01*
X-228218Y363979D01*
X-228317Y364134D01*
X-228402Y364233D01*
X-228430Y364261D01*
X-228444Y364276D01*
X-228599Y364417D01*
X-228768Y364515D01*
X-228937Y364600D01*
X-229374Y364698D01*
X-229600Y364712D01*
D02*
G37*
G36*
X-229487Y264666D02*
X-229600D01*
X-229854Y264652D01*
X-230051Y264610D01*
X-230248Y264553D01*
X-230446Y264455D01*
X-230601Y264342D01*
X-230742Y264201D01*
X-230883Y264018D01*
X-230996Y263820D01*
X-231080Y263609D01*
X-231179Y263059D01*
X-231193Y262777D01*
Y261706D01*
X-228148D01*
Y262791D01*
Y262960D01*
X-228162Y263130D01*
X-228204Y263412D01*
X-228261Y263651D01*
X-228331Y263848D01*
X-228402Y264004D01*
X-228472Y264116D01*
X-228514Y264187D01*
X-228529Y264201D01*
X-228684Y264356D01*
X-228853Y264469D01*
X-229022Y264553D01*
X-229205Y264610D01*
X-229487Y264666D01*
D02*
G37*
G36*
X-231418Y302516D02*
X-231771D01*
X-232095Y302488D01*
X-232377Y302474D01*
X-232617Y302446D01*
X-233068Y302376D01*
X-233293Y302319D01*
X-233505Y302249D01*
X-233829Y302122D01*
X-234111Y301981D01*
X-234351Y301798D01*
X-234520Y301614D01*
X-234647Y301417D01*
X-234788Y300980D01*
X-234802Y300769D01*
X-234788Y300642D01*
X-234774Y300529D01*
X-234717Y300317D01*
X-234647Y300106D01*
X-234492Y299895D01*
X-234322Y299711D01*
X-234167Y299599D01*
X-234125Y299570D01*
X-234111Y299556D01*
X-233434Y299274D01*
X-233181Y299204D01*
X-233096Y299190D01*
X-233068Y299176D01*
X-231996Y299049D01*
X-231588Y299035D01*
X-231418D01*
X-231066Y299049D01*
X-230742Y299063D01*
X-230460Y299077D01*
X-230220Y299105D01*
X-229882Y299147D01*
X-229797Y299176D01*
X-229769D01*
X-229544Y299232D01*
X-229332Y299288D01*
X-229008Y299415D01*
X-228811Y299514D01*
X-228754Y299542D01*
X-228740Y299556D01*
X-228599Y299655D01*
X-228486Y299739D01*
X-228317Y299923D01*
X-228218Y300050D01*
X-228190Y300092D01*
Y300106D01*
X-228106Y300346D01*
X-228049Y300557D01*
X-228035Y300712D01*
Y300754D01*
Y300769D01*
X-228063Y301008D01*
X-228106Y301220D01*
X-228162Y301361D01*
X-228176Y301403D01*
X-228190Y301417D01*
X-228261Y301530D01*
X-228345Y301642D01*
X-228529Y301826D01*
X-228740Y301981D01*
X-229064Y302150D01*
X-229403Y302277D01*
X-229769Y302376D01*
X-230840Y302502D01*
X-231418Y302516D01*
D02*
G37*
G36*
X-182144Y212855D02*
X-182845Y212565D01*
X-183135Y211864D01*
X-182845Y211164D01*
X-182144Y210874D01*
X-181444Y211164D01*
X-181154Y211864D01*
X-181444Y212565D01*
X-182144Y212855D01*
D02*
G37*
G36*
X-200712Y221220D02*
X-201412Y221080D01*
X-202005Y220684D01*
X-202401Y220091D01*
X-202541Y219391D01*
X-202401Y218691D01*
X-202005Y218097D01*
X-201412Y217701D01*
X-200712Y217562D01*
X-200012Y217701D01*
X-199419Y218097D01*
X-199022Y218691D01*
X-198883Y219391D01*
X-199022Y220091D01*
X-199419Y220684D01*
X-200012Y221080D01*
X-200712Y221220D01*
D02*
G37*
G36*
X-197477Y212855D02*
X-198177Y212565D01*
X-198467Y211864D01*
X-198177Y211164D01*
X-197477Y210874D01*
X-196776Y211164D01*
X-196486Y211864D01*
X-196776Y212565D01*
X-197477Y212855D01*
D02*
G37*
G36*
X-213165Y390384D02*
X-216083D01*
X-216322Y390159D01*
X-216506Y389947D01*
X-216661Y389736D01*
X-216774Y389468D01*
X-216830Y389200D01*
X-216858Y388904D01*
X-216844Y388692D01*
X-216802Y388523D01*
X-216745Y388354D01*
X-216647Y388185D01*
X-216520Y388058D01*
X-216435Y387959D01*
X-216407Y387945D01*
X-216393Y387931D01*
X-216182Y387818D01*
X-215970Y387734D01*
X-215815Y387677D01*
X-215759Y387663D01*
X-215744D01*
X-215110Y387593D01*
X-214870Y387579D01*
X-214560D01*
X-214377Y387593D01*
X-214067Y387635D01*
X-213870Y387677D01*
X-213813Y387691D01*
X-213799D01*
X-213517Y387790D01*
X-213292Y387889D01*
X-213151Y387973D01*
X-213122Y387988D01*
X-213108Y388002D01*
X-212939Y388157D01*
X-212812Y388312D01*
X-212742Y388439D01*
X-212714Y388467D01*
Y388481D01*
X-212629Y388707D01*
X-212587Y388918D01*
X-212573Y389073D01*
Y389115D01*
Y389129D01*
X-212601Y389397D01*
X-212643Y389609D01*
X-212685Y389750D01*
X-212700Y389792D01*
X-212714Y389806D01*
X-212770Y389919D01*
X-212840Y390032D01*
X-212981Y390215D01*
X-213165Y390384D01*
D02*
G37*
G36*
X-189810Y211716D02*
X-190511Y211425D01*
X-190802Y210724D01*
X-190511Y210022D01*
X-189810Y209732D01*
X-189108Y210022D01*
X-188818Y210724D01*
X-189108Y211425D01*
X-189810Y211716D01*
D02*
G37*
G36*
X-178909Y221220D02*
X-179609Y221080D01*
X-180202Y220684D01*
X-180599Y220091D01*
X-180738Y219391D01*
X-180599Y218691D01*
X-180202Y218097D01*
X-179609Y217701D01*
X-178909Y217562D01*
X-178209Y217701D01*
X-177616Y218097D01*
X-177220Y218691D01*
X-177080Y219391D01*
X-177220Y220091D01*
X-177616Y220684D01*
X-178209Y221080D01*
X-178909Y221220D01*
D02*
G37*
G36*
X-188517Y268501D02*
X-199010D01*
X-199329Y267730D01*
X-199572Y266804D01*
X-199727Y265773D01*
X-199783Y264690D01*
X-199459Y262307D01*
X-198515Y260578D01*
X-196983Y259522D01*
X-194900Y259166D01*
X-192284Y259799D01*
X-190440Y261632D01*
X-189232Y264567D01*
X-188517Y268501D01*
D02*
G37*
G36*
X-189891Y395056D02*
X-191776Y394991D01*
X-193551Y394785D01*
X-195170Y394424D01*
X-196593Y393889D01*
X-197773Y393166D01*
X-198670Y392237D01*
X-199241Y391087D01*
X-199440Y389702D01*
X-199241Y388316D01*
X-198670Y387166D01*
X-197773Y386238D01*
X-196593Y385514D01*
X-195170Y384979D01*
X-193551Y384616D01*
X-191776Y384410D01*
X-189891Y384346D01*
X-188007Y384410D01*
X-186243Y384616D01*
X-184635Y384979D01*
X-183228Y385514D01*
X-182062Y386238D01*
X-181178Y387166D01*
X-180618Y388316D01*
X-180422Y389702D01*
X-180618Y391087D01*
X-181178Y392237D01*
X-182062Y393166D01*
X-183228Y393889D01*
X-184635Y394424D01*
X-186243Y394785D01*
X-188007Y394991D01*
X-189891Y395056D01*
D02*
G37*
G36*
X-189810Y229048D02*
X-190511Y228757D01*
X-190802Y228055D01*
X-190511Y227354D01*
X-189810Y227063D01*
X-189108Y227354D01*
X-188818Y228055D01*
X-189108Y228757D01*
X-189810Y229048D01*
D02*
G37*
G36*
X-197477Y227908D02*
X-198177Y227617D01*
X-198467Y226917D01*
X-198177Y226216D01*
X-197477Y225926D01*
X-196776Y226216D01*
X-196486Y226917D01*
X-196776Y227617D01*
X-197477Y227908D01*
D02*
G37*
G36*
X-182144D02*
X-182845Y227617D01*
X-183135Y226917D01*
X-182845Y226216D01*
X-182144Y225926D01*
X-181444Y226216D01*
X-181154Y226917D01*
X-181444Y227617D01*
X-182144Y227908D01*
D02*
G37*
G36*
X-214589Y327568D02*
X-214941D01*
X-215124Y327554D01*
X-215448Y327511D01*
X-215716Y327441D01*
X-215942Y327370D01*
X-216252Y327229D01*
X-216351Y327173D01*
X-216449Y327103D01*
X-216534Y327004D01*
X-216661Y326821D01*
X-216830Y326426D01*
X-216886Y326102D01*
X-216900Y325975D01*
X-216872Y325679D01*
X-216844Y325552D01*
X-216816Y325439D01*
X-216731Y325228D01*
X-216618Y325044D01*
X-216520Y324918D01*
X-216435Y324819D01*
X-216379Y324762D01*
X-216351Y324748D01*
X-216125Y324622D01*
X-215871Y324523D01*
X-215350Y324410D01*
X-214927Y324354D01*
X-214560D01*
X-214391Y324368D01*
X-214053Y324410D01*
X-213785Y324481D01*
X-213559Y324551D01*
X-213249Y324692D01*
X-213179Y324734D01*
X-213151Y324748D01*
X-213052Y324833D01*
X-212967Y324918D01*
X-212826Y325101D01*
X-212728Y325312D01*
X-212671Y325510D01*
X-212615Y325834D01*
X-212601Y325947D01*
Y325961D01*
Y325975D01*
X-212629Y326257D01*
X-212685Y326496D01*
X-212728Y326609D01*
X-212770Y326708D01*
X-212869Y326877D01*
X-212981Y327004D01*
X-213066Y327103D01*
X-213151Y327173D01*
X-213376Y327300D01*
X-213630Y327399D01*
X-214166Y327525D01*
X-214589Y327568D01*
D02*
G37*
G36*
X-215279Y338831D02*
X-215477Y338817D01*
X-215646Y338789D01*
X-215815Y338747D01*
X-215900Y338704D01*
X-215998Y338662D01*
X-216139Y338578D01*
X-216266Y338465D01*
X-216393Y338296D01*
X-216478Y338126D01*
X-216562Y337943D01*
X-216633Y337675D01*
X-216661Y337422D01*
X-216675Y337140D01*
Y335420D01*
X-213982D01*
Y337140D01*
Y337309D01*
X-213996Y337450D01*
X-214025Y337689D01*
X-214067Y337845D01*
X-214081Y337887D01*
Y337901D01*
X-214151Y338126D01*
X-214236Y338282D01*
X-214307Y338394D01*
X-214321Y338408D01*
X-214335Y338423D01*
X-214476Y338563D01*
X-214603Y338662D01*
X-214744Y338733D01*
X-215096Y338817D01*
X-215279Y338831D01*
D02*
G37*
G36*
X-215223Y312921D02*
X-216322D01*
X-216548Y312667D01*
X-216717Y312456D01*
X-216858Y312230D01*
X-216957Y311962D01*
X-216999Y311695D01*
X-217027Y311399D01*
X-217013Y311258D01*
X-216999Y311131D01*
X-216943Y310933D01*
X-216858Y310764D01*
X-216816Y310722D01*
X-216774Y310680D01*
X-216689Y310623D01*
X-216492Y310553D01*
X-216336Y310525D01*
X-216266D01*
X-216111Y310539D01*
X-215998Y310581D01*
X-215914Y310623D01*
X-215885Y310637D01*
X-215759Y310750D01*
X-215660Y310877D01*
X-215604Y310990D01*
X-215575Y311018D01*
Y311032D01*
X-215406Y311511D01*
X-215364Y311709D01*
X-215350Y311765D01*
Y311779D01*
X-215251Y312526D01*
X-215237Y312808D01*
X-215223Y312893D01*
Y312921D01*
D02*
G37*
G36*
X-214011Y269291D02*
Y266330D01*
X-213757Y266387D01*
X-213531Y266457D01*
X-213348Y266542D01*
X-213193Y266626D01*
X-213066Y266697D01*
X-212981Y266767D01*
X-212925Y266810D01*
X-212911Y266824D01*
X-212784Y266979D01*
X-212685Y267162D01*
X-212559Y267515D01*
X-212516Y267782D01*
Y267867D01*
Y267895D01*
X-212530Y268135D01*
X-212573Y268332D01*
X-212629Y268459D01*
X-212643Y268487D01*
Y268501D01*
X-212742Y268685D01*
X-212840Y268826D01*
X-212967Y268938D01*
X-213122Y269065D01*
X-213277Y269136D01*
X-213433Y269206D01*
X-213630Y269263D01*
X-213827Y269277D01*
X-214011Y269291D01*
D02*
G37*
G36*
X-214589Y286658D02*
X-214941D01*
X-215124Y286644D01*
X-215448Y286602D01*
X-215716Y286531D01*
X-215942Y286461D01*
X-216252Y286320D01*
X-216351Y286264D01*
X-216449Y286193D01*
X-216534Y286094D01*
X-216661Y285911D01*
X-216830Y285516D01*
X-216886Y285192D01*
X-216900Y285065D01*
X-216872Y284769D01*
X-216844Y284642D01*
X-216816Y284530D01*
X-216731Y284318D01*
X-216618Y284135D01*
X-216520Y284008D01*
X-216435Y283909D01*
X-216379Y283853D01*
X-216351Y283839D01*
X-216125Y283712D01*
X-215871Y283613D01*
X-215350Y283501D01*
X-214927Y283444D01*
X-214560D01*
X-214391Y283458D01*
X-214053Y283501D01*
X-213785Y283571D01*
X-213559Y283641D01*
X-213249Y283783D01*
X-213179Y283825D01*
X-213151Y283839D01*
X-213052Y283923D01*
X-212967Y284008D01*
X-212826Y284191D01*
X-212728Y284403D01*
X-212671Y284600D01*
X-212615Y284924D01*
X-212601Y285037D01*
Y285051D01*
Y285065D01*
X-212629Y285347D01*
X-212685Y285587D01*
X-212728Y285700D01*
X-212770Y285798D01*
X-212869Y285968D01*
X-212981Y286094D01*
X-213066Y286193D01*
X-213151Y286264D01*
X-213376Y286390D01*
X-213630Y286489D01*
X-214166Y286616D01*
X-214589Y286658D01*
D02*
G37*
G36*
X-211360Y338549D02*
X-211473D01*
X-211713Y338535D01*
X-211826Y338507D01*
X-211924Y338479D01*
X-212093Y338408D01*
X-212234Y338324D01*
X-212347Y338239D01*
X-212432Y338169D01*
X-212488Y338098D01*
X-212587Y337915D01*
X-212671Y337704D01*
X-212756Y337267D01*
X-212798Y336773D01*
Y335420D01*
X-210148D01*
Y336872D01*
X-210162Y337168D01*
X-210190Y337436D01*
X-210247Y337647D01*
X-210303Y337830D01*
X-210416Y338070D01*
X-210444Y338126D01*
X-210458Y338140D01*
X-210585Y338282D01*
X-210740Y338380D01*
X-211078Y338493D01*
X-211360Y338549D01*
D02*
G37*
G36*
X-214589Y372312D02*
X-214941D01*
X-215124Y372298D01*
X-215448Y372255D01*
X-215716Y372185D01*
X-215942Y372114D01*
X-216252Y371973D01*
X-216351Y371917D01*
X-216449Y371847D01*
X-216534Y371748D01*
X-216661Y371564D01*
X-216830Y371170D01*
X-216886Y370846D01*
X-216900Y370719D01*
X-216872Y370423D01*
X-216844Y370296D01*
X-216816Y370183D01*
X-216731Y369972D01*
X-216618Y369788D01*
X-216520Y369661D01*
X-216435Y369563D01*
X-216379Y369506D01*
X-216351Y369492D01*
X-216125Y369365D01*
X-215871Y369267D01*
X-215350Y369154D01*
X-214927Y369098D01*
X-214560D01*
X-214391Y369112D01*
X-214053Y369154D01*
X-213785Y369224D01*
X-213559Y369295D01*
X-213249Y369436D01*
X-213179Y369478D01*
X-213151Y369492D01*
X-213052Y369577D01*
X-212967Y369661D01*
X-212826Y369845D01*
X-212728Y370056D01*
X-212671Y370253D01*
X-212615Y370578D01*
X-212601Y370690D01*
Y370705D01*
Y370719D01*
X-212629Y371001D01*
X-212685Y371240D01*
X-212728Y371353D01*
X-212770Y371452D01*
X-212869Y371621D01*
X-212981Y371748D01*
X-213066Y371847D01*
X-213151Y371917D01*
X-213376Y372044D01*
X-213630Y372142D01*
X-214166Y372269D01*
X-214589Y372312D01*
D02*
G37*
G36*
X-215223Y378557D02*
X-216322D01*
X-216548Y378303D01*
X-216717Y378091D01*
X-216858Y377866D01*
X-216957Y377598D01*
X-216999Y377330D01*
X-217027Y377034D01*
X-217013Y376893D01*
X-216999Y376766D01*
X-216943Y376569D01*
X-216858Y376400D01*
X-216816Y376357D01*
X-216774Y376315D01*
X-216689Y376259D01*
X-216492Y376188D01*
X-216336Y376160D01*
X-216266D01*
X-216111Y376174D01*
X-215998Y376217D01*
X-215914Y376259D01*
X-215885Y376273D01*
X-215759Y376386D01*
X-215660Y376513D01*
X-215604Y376625D01*
X-215575Y376654D01*
Y376668D01*
X-215406Y377147D01*
X-215364Y377344D01*
X-215350Y377401D01*
Y377415D01*
X-215251Y378162D01*
X-215237Y378444D01*
X-215223Y378529D01*
Y378557D01*
D02*
G37*
G36*
X-214476Y364995D02*
X-214856D01*
X-215054Y364981D01*
X-215223Y364967D01*
X-215378Y364939D01*
X-215674Y364883D01*
X-215956Y364798D01*
X-216182Y364685D01*
X-216379Y364572D01*
X-216548Y364417D01*
X-216689Y364248D01*
X-216788Y364079D01*
X-216858Y363868D01*
X-216900Y363656D01*
X-216915Y363445D01*
X-216900Y363191D01*
X-216844Y362980D01*
X-216788Y362768D01*
X-216731Y362655D01*
X-216661Y362557D01*
X-216506Y362373D01*
X-216379Y362246D01*
X-216336Y362218D01*
X-216322Y362204D01*
X-213404D01*
X-213263Y362317D01*
X-213151Y362430D01*
X-212967Y362627D01*
X-212869Y362782D01*
X-212840Y362824D01*
X-212826Y362839D01*
X-212700Y363106D01*
X-212643Y363360D01*
X-212615Y363557D01*
Y363614D01*
Y363628D01*
X-212629Y363868D01*
X-212685Y364065D01*
X-212770Y364248D01*
X-212855Y364389D01*
X-213024Y364572D01*
X-213094Y364643D01*
X-213292Y364756D01*
X-213531Y364854D01*
X-214053Y364953D01*
X-214476Y364995D01*
D02*
G37*
G36*
X-215223Y345260D02*
X-216322D01*
X-216548Y345006D01*
X-216717Y344794D01*
X-216858Y344569D01*
X-216957Y344301D01*
X-216999Y344033D01*
X-217027Y343737D01*
X-217013Y343596D01*
X-216999Y343469D01*
X-216943Y343272D01*
X-216858Y343103D01*
X-216816Y343060D01*
X-216774Y343018D01*
X-216689Y342962D01*
X-216492Y342891D01*
X-216336Y342863D01*
X-216266D01*
X-216111Y342877D01*
X-215998Y342919D01*
X-215914Y342962D01*
X-215885Y342976D01*
X-215759Y343089D01*
X-215660Y343215D01*
X-215604Y343328D01*
X-215575Y343356D01*
Y343371D01*
X-215406Y343850D01*
X-215364Y344047D01*
X-215350Y344104D01*
Y344118D01*
X-215251Y344865D01*
X-215237Y345147D01*
X-215223Y345231D01*
Y345260D01*
D02*
G37*
G36*
X-214011Y358046D02*
Y355085D01*
X-213757Y355141D01*
X-213531Y355212D01*
X-213348Y355297D01*
X-213193Y355381D01*
X-213066Y355452D01*
X-212981Y355522D01*
X-212925Y355564D01*
X-212911Y355578D01*
X-212784Y355734D01*
X-212685Y355917D01*
X-212559Y356269D01*
X-212516Y356537D01*
Y356622D01*
Y356650D01*
X-212530Y356890D01*
X-212573Y357087D01*
X-212629Y357214D01*
X-212643Y357242D01*
Y357256D01*
X-212742Y357439D01*
X-212840Y357580D01*
X-212967Y357693D01*
X-213122Y357820D01*
X-213277Y357890D01*
X-213433Y357961D01*
X-213630Y358017D01*
X-213827Y358031D01*
X-214011Y358046D01*
D02*
G37*
%LPD*%
D150*
X-867756Y64750D02*
D03*
X-860756D02*
D03*
X-864256Y73250D02*
D03*
X-500856Y162320D02*
D03*
X-497356Y170820D02*
D03*
X-504356D02*
D03*
X-704339Y58512D02*
D03*
X-697339D02*
D03*
X-700839Y50012D02*
D03*
X-843256Y73250D02*
D03*
X-846756Y64750D02*
D03*
X-839756D02*
D03*
D151*
X-864256Y45630D02*
D03*
X-857756D02*
D03*
X-877256D02*
D03*
X-870756D02*
D03*
X-851256D02*
D03*
D155*
X-680337Y51047D02*
D03*
Y41447D02*
D03*
X-689615Y51047D02*
D03*
Y41447D02*
D03*
D156*
X-896000Y129750D02*
D03*
Y144250D02*
D03*
D172*
X-590905Y496190D02*
D03*
X-585906D02*
D03*
X-600905D02*
D03*
X-595906D02*
D03*
X-575906D02*
D03*
X-570905D02*
D03*
X-510905D02*
D03*
X-505906D02*
D03*
X-500905D02*
D03*
X-495906D02*
D03*
X-485906D02*
D03*
X-480905D02*
D03*
X-580905D02*
D03*
X-565906D02*
D03*
X-560905D02*
D03*
X-555906D02*
D03*
X-550905D02*
D03*
X-545906D02*
D03*
X-540905D02*
D03*
X-535906D02*
D03*
X-490905D02*
D03*
X-475906D02*
D03*
X-470905D02*
D03*
X-465906D02*
D03*
X-460905D02*
D03*
X-455906D02*
D03*
X-450905D02*
D03*
X-445906D02*
D03*
X-440905D02*
D03*
X-435906D02*
D03*
X-430905D02*
D03*
X-425906D02*
D03*
X-420905D02*
D03*
X-415906D02*
D03*
X-410905D02*
D03*
X-405906D02*
D03*
X-400905D02*
D03*
X-395906D02*
D03*
X-390905D02*
D03*
X-385906D02*
D03*
X-380905D02*
D03*
X-375906D02*
D03*
X-605906D02*
D03*
X-610905D02*
D03*
X-615906D02*
D03*
X-620905D02*
D03*
X-525906D02*
D03*
X-530905D02*
D03*
X-515906D02*
D03*
X-520905D02*
D03*
D215*
X-836316Y42030D02*
D03*
X-889656D02*
D03*
D216*
X-835156Y19030D02*
D03*
X-893356D02*
D03*
D217*
X-855881D02*
D03*
X-872631D02*
D03*
D218*
X-569941Y43810D02*
D03*
X-484541D02*
D03*
X-569941Y91110D02*
D03*
X-484541D02*
D03*
D219*
X-519241Y95610D02*
D03*
X-535241D02*
D03*
X-499241Y102610D02*
D03*
X-555241D02*
D03*
X-507241D02*
D03*
X-547241D02*
D03*
X-515241D02*
D03*
X-539241D02*
D03*
X-503241Y95610D02*
D03*
X-511241D02*
D03*
X-543241D02*
D03*
X-551241D02*
D03*
X-523241Y102610D02*
D03*
X-531241D02*
D03*
D220*
X-144240Y59760D02*
D03*
X-780256D02*
D03*
D221*
X-50000Y40000D02*
D03*
X-49760Y509760D02*
D03*
X-952256Y40000D02*
D03*
X-952256Y510000D02*
D03*
D222*
X-623990Y21260D02*
D03*
X-732490D02*
D03*
D223*
X-623990Y66260D02*
D03*
X-732490D02*
D03*
D224*
X-358240Y79510D02*
D03*
X-394240D02*
D03*
X-376160D02*
D03*
X-412240D02*
D03*
Y113010D02*
D03*
X-376160D02*
D03*
X-394240D02*
D03*
X-358240D02*
D03*
X-398740Y120760D02*
D03*
X-407740D02*
D03*
X-432740Y121010D02*
D03*
X-337740D02*
D03*
X-362740Y87260D02*
D03*
X-371740D02*
D03*
X-380740Y120760D02*
D03*
X-389740D02*
D03*
X-362740D02*
D03*
X-371740D02*
D03*
X-398740Y87260D02*
D03*
X-407740D02*
D03*
X-380740D02*
D03*
X-389740D02*
D03*
D225*
X-440240Y89510D02*
D03*
X-330240D02*
D03*
D226*
X-437240Y34510D02*
D03*
X-333240D02*
D03*
D227*
X-27597Y190672D02*
D03*
Y148172D02*
D03*
Y256321D02*
D03*
Y213821D02*
D03*
X-896874Y279654D02*
D03*
Y273215D02*
D03*
X-845820Y303022D02*
D03*
Y296515D02*
D03*
X-821690Y313690D02*
D03*
Y307215D02*
D03*
D228*
X-385000Y385000D02*
D03*
X-351000Y332000D02*
D03*
X-831000Y518000D02*
D03*
X-805000D02*
D03*
X-740000Y523000D02*
D03*
X-710000Y524000D02*
D03*
X-721000Y488000D02*
D03*
X-666256Y511000D02*
D03*
X-690956Y500000D02*
D03*
X-562000Y469000D02*
D03*
X-640000Y483000D02*
D03*
X-619000Y470000D02*
D03*
X-712000Y466000D02*
D03*
X-739070Y440000D02*
D03*
X-767000Y422000D02*
D03*
X-816000Y440000D02*
D03*
X-404000Y460000D02*
D03*
X-427000Y439000D02*
D03*
X-407000D02*
D03*
X-370000Y468000D02*
D03*
X-315000Y530000D02*
D03*
X-89000Y460000D02*
D03*
X-164000Y400000D02*
D03*
X-143220D02*
D03*
X-658000Y381000D02*
D03*
X-151000Y158000D02*
D03*
X-675000Y344000D02*
D03*
X-99256Y145000D02*
D03*
X-576000Y322000D02*
D03*
X-583320Y346000D02*
D03*
X-621320Y355000D02*
D03*
X-792320Y163000D02*
D03*
X-755320Y204000D02*
D03*
X-732320Y222000D02*
D03*
X-436320Y199000D02*
D03*
X-574320Y136000D02*
D03*
X-461320Y115000D02*
D03*
X-532320Y73000D02*
D03*
X-555320Y268000D02*
D03*
X-469799Y184005D02*
D03*
X-893000Y72000D02*
D03*
X-469861Y205516D02*
D03*
X-74300Y186000D02*
D03*
X-809320Y481000D02*
D03*
D229*
X-99700Y186000D02*
D03*
D230*
X-61256Y138760D02*
D03*
D231*
X-12256Y109260D02*
D03*
D232*
X-61256Y78760D02*
D03*
D233*
X-959406Y190300D02*
D03*
X-946706Y164900D02*
D03*
X-870506D02*
D03*
X-895906D02*
D03*
X-921306D02*
D03*
X-934006Y190300D02*
D03*
X-908606D02*
D03*
X-883206D02*
D03*
X-857806D02*
D03*
D234*
X-845106Y101400D02*
D03*
X-959406D02*
D03*
D235*
X-872966Y238600D02*
D03*
X-931466D02*
D03*
X-847566D02*
D03*
X-956866D02*
D03*
D236*
X-823474Y131900D02*
D03*
X-981038D02*
D03*
D237*
X-121320Y481000D02*
D03*
D238*
X-845106Y164900D02*
D03*
D239*
X-53810Y219352D02*
D03*
Y224350D02*
D03*
Y234350D02*
D03*
Y239351D02*
D03*
Y199352D02*
D03*
Y204350D02*
D03*
Y189352D02*
D03*
Y194350D02*
D03*
Y324350D02*
D03*
Y329351D02*
D03*
Y279351D02*
D03*
Y284350D02*
D03*
Y289351D02*
D03*
Y294350D02*
D03*
Y229351D02*
D03*
Y244350D02*
D03*
Y249351D02*
D03*
Y254350D02*
D03*
Y259351D02*
D03*
Y264350D02*
D03*
Y269351D02*
D03*
Y274350D02*
D03*
Y319351D02*
D03*
Y334350D02*
D03*
Y339351D02*
D03*
Y344350D02*
D03*
Y349351D02*
D03*
Y354350D02*
D03*
Y359351D02*
D03*
Y364350D02*
D03*
Y369351D02*
D03*
Y374350D02*
D03*
Y379351D02*
D03*
Y384350D02*
D03*
Y389351D02*
D03*
Y394350D02*
D03*
Y399351D02*
D03*
Y404350D02*
D03*
Y409351D02*
D03*
Y414350D02*
D03*
Y419351D02*
D03*
Y424350D02*
D03*
Y429351D02*
D03*
Y434350D02*
D03*
Y214350D02*
D03*
Y209352D02*
D03*
Y304350D02*
D03*
Y299351D02*
D03*
Y314350D02*
D03*
Y309351D02*
D03*
D240*
X-640206Y515989D02*
D03*
X-356605D02*
D03*
D241*
X-34011Y170050D02*
D03*
Y453651D02*
D03*
M02*
