M48
;Layer_Color=9474304
;FILE_FORMAT=2:5
INCH,LZ
;TYPE=PLATED
T1F00S00C0.00591
T2F00S00C0.00787
T3F00S00C0.00984
T4F00S00C0.01575
T7F00S00C0.03504
T8F00S00C0.03543
T10F00S00C0.03937
T12F00S00C0.04016
T13F00S00C0.06693
T14F00S00C0.14567
;TYPE=NON_PLATED
T15F00S00C0.02165
T16F00S00C0.04331
T17F00S00C0.06299
T18F00S00C0.12795
%
T01
X-0117817Y0004724
X-0117424Y0008661
X-0108369Y0026378
X-0105219Y0032677
X-0110731Y0037795
X-0112724Y0043701
X-0109449Y0051181
X-0104825Y0048031
X-0102097Y0046397
X-0101997Y004995
X-0093292Y0051669
X-0089438Y0060108
X-008432
X-0074084Y006247
X-0076382Y0066286
X-0067227Y006769
X-0065821Y0061946
X-0058661Y0066535
X-0059157Y0072835
X-0059156Y0075598
X-0052756Y0076772
X-0054724Y0087008
X-0049715Y0097638
X-0047246
X-004203Y0098032
X-003955
X-0028189Y0096092
Y0101998
Y0107903
X-0036321Y0109725
Y0112205
X-0030022Y0117605
Y0120073
Y0127447
Y0129916
X-0032286Y0133465
X-0034754
X-0027559Y0133858
X-0028346Y0142126
X-0016535Y0150394
X-0016142Y0153937
X-0006299Y0144095
X-00064Y013189
X-001063Y0129921
X-0015748Y0124016
X-0017817Y0116136
Y0113668
X-0008661Y0113779
X-0004431Y0117323
X-0016929Y0103937
X-0010458Y0092548
X-0016142Y008464
X-0016142Y008189
X-0008745Y0079527
X-0029235Y0080703
X-0029134Y0077953
X-0021654Y0069685
Y0066702
X-0015589Y0059449
X-0006757Y005567
X-0045669Y0055905
X-0056006Y0051973
Y0049504
X-0062612Y0042728
X-0078841Y003189
X-0082384Y002874
X-0085827Y0025984
X-0087897Y0033465
X-0092567Y0035433
X-0095036
X-0098526Y0036614
X-0093802Y0031102
X-0099313Y0025984
X-0099009Y0063401
X-0102522Y0062722
X-0116662Y0061811
X-0114241Y0058139
X-0112378Y0074503
X-0106794Y0074016
X-0103937Y0080709
X-0112205Y0084252
X-0121022Y0088645
X-0123581
X-0129056Y0094273
X-0130865Y0092464
X-0136051Y0084954
X-013861
X-0143925
X-0146484
X-0148198Y0072502
X-0138905Y0065394
X-014144Y0057087
X-0139614Y0055221
X-0138916Y0049674
X-0136447
X-014027Y0041426
X-0143349Y0042093
X-0145817
X-0145213Y0057443
X-0137528Y0031496
X-0123748Y0070472
X-0120992
X-0115016Y0105512
X-0112457
X-0144353Y0103937
X-0146912
X-013937Y0129528
X-0139077Y0140551
X-0116535Y0144882
X-0116535Y0147638
X-0116535Y0150393
X-0116535Y015315
X-0108762Y0154711
X-0109943Y0148425
X-0094195Y0090158
X-0053937Y0110236
X-0158361Y0111024
X-0160829
X-0169392Y0116929
X-0170336Y0124077
X-0167857Y0132561
X-0165552Y0134562
X-0165628Y0138513
X-0167705Y0140514
X-016811Y0147244
X-0161912Y0148425
X-0154724Y0148425
X-0149707Y0144882
X-0151676Y0141339
X-0157996Y0130782
X-0181335Y0129528
X-0183228Y0132688
Y0134657
X-0183723Y0136822
X-0183228Y0140562
X-0180315Y0144882
X-0174779Y0145052
X-0201969Y0149213
X-0221654Y0154331
X-0221754Y013937
X-0224511Y013937
X-022611Y0132677
X-0221006Y0131088
X-0218025Y0131443
X-0215748Y0133071
X-0220992Y0125197
X-0216142Y0116929
X-0215604Y0110175
X-0218073
X-0209333Y0110294
X-0206703Y0110456
X-0205204Y0112598
X-0205219Y011811
X-0205118Y0122835
X-0201181
X-019685Y012874
X-0192913
X-0190677Y0112992
X-0193511Y0110186
X-019497Y010637
X-0198628Y0106392
X-019107Y0106299
X-0187921Y0106693
X-0184451Y0104429
X-0179997Y0103711
X-0173354Y0104331
X-016863Y0099606
X-0169392Y0093465
Y0090996
X-0175717Y0087402
X-0174929Y0083071
X-0175717Y0075197
X-0167449Y0077953
X-0170079Y0069685
X-0174361Y0065157
X-0174413Y0058619
X-0178361Y0052621
X-0176793Y004682
X-0178068Y0038758
X-0185784Y0037556
X-0186574Y0043057
X-0192396Y0049473
X-0194864
X-0202763Y0048819
X-0203275Y0051304
X-0205743
X-0206504Y0048819
X-0208972Y0048992
X-0219955Y0050002
X-0222423
X-0226971Y0044028
X-0227178Y0039885
X-0233118Y0036378
X-0236936
X-0243039Y003937
X-0243039Y0043872
X-025052Y0048819
X-0257916Y004989
X-0263821
X-0260975Y0065365
X-0266847Y0065264
X-0272821Y0065214
X-0280136Y0060913
X-0296189Y0063386
X-0301307Y0071653
X-0289496Y0074803
X-0276836Y0077559
X-0274277
X-0276479Y008086
Y0083419
X-0280416Y0082284
X-0280047Y0092913
X-0285559Y0096457
X-0283071Y0099606
X-0282283Y0105905
X-0281203Y011063
X-0294094Y0106299
X-0293967Y010265
X-0291465Y0093701
X-0301701
X-0302857Y0090551
X-0303338Y0086855
X-0291858Y0051181
X-0293433Y0045276
X-0286099Y0045329
X-028674Y0038583
X-0281253Y0035552
X-0279606Y0027033
X-0277152Y0024827
X-0274545
X-0271458Y0022955
X-02717Y0027205
X-0266938Y0026972
X-0262213
X-0257489
X-0252765
X-0250495Y003622
X-0246495Y0033311
X-0242252Y0019685
X-0242646Y0015354
X-0238631Y0010953
X-023225
X-0227685Y0007874
X-0222961
X-023674Y0006299
X-0227031Y0025376
X-0219811Y0022441
X-021863Y0029134
X-0216518Y0059273
X-0214049
X-0213747Y0063912
X-0211278
X-0207299Y006385
X-020077Y0058997
X-0198301
X-0197048Y0062072
X-0182604Y0062608
Y0056186
X-0187134Y0055118
X-0189576Y007437
X-0188354Y0079134
X-0191998Y0085487
X-0193358Y0089771
X-0199636Y0094096
X-019831Y0097577
X-0188189Y0097244
X-0183952Y0099753
X-0180135Y0090432
X-0181016Y0086534
X-0183567Y0115193
X-0175197Y0113779
X-0208511Y009311
X-021664Y0086614
X-0223147Y0084195
X-0228866Y0087402
X-0232803Y0085433
X-0233591Y0082677
Y0079528
X-0246063Y007874
X-0251667Y0077559
X-0254226
X-0259204
X-0261763
X-0255002Y0065264
X-0247346Y005781
X-0243288Y0069302
X-0240712Y0069342
X-0237819Y0069302
X-0233197Y009252
X-0230834Y0099212
X-023114Y0102971
X-0235077
X-0239014
X-0242951
X-0249606Y0097638
X-0257187Y0103543
X-0264567Y0105905
X-0257087Y0116929
X-0247558Y0118328
X-0243526Y0119871
X-0247291Y0125679
Y0135408
X-0255214Y0132071
Y0128837
X-0238798Y0132639
X-0227128Y010288
X-0223578Y0102962
X-0222961Y0100394
X-0216268Y0077953
X-0163487Y0065354
X-0157048Y0057487
X-0151189Y005752
X-0154103Y0072502
X-0158787Y0044488
X-0166169Y0040053
X-016733Y0037677
X-0167449Y0031496
X-0152903Y0038249
X-0150435
X-029737Y0035039
X-0301307Y0038583
X-0294431Y0016243
X-0300913Y0006299
X-0294488Y0128347
X-029262Y0138976
X-0285433Y0136221
X-0310236Y0132283
X-0319392Y0128347
X-0316929Y0124803
X-03235Y01235
Y0120951
X-0333Y01193
Y0116738
X-0340314Y0114771
X-0342059Y0113025
X-03531Y01101
Y0107565
X-0320573Y0095669
X-0314756Y0086881
X-0314923Y0070477
X-0310504Y0068111
X-0307401Y0071096
X-0307606Y0064173
X-0305638Y005315
X-0310362Y0048819
X-0311124Y0042126
X-0312598Y0037008
Y0055905
X-0322542Y0076772
X-0312205Y0102756
X-0307086Y0106299
X-037441Y0131102
X-0348425Y0051181
X-0342621Y0028347
X-0340258Y0030709
X-0337896Y0027953
X-0331991Y0030709
X-0324803Y0016535
X-0311417Y0008661
X-0314961Y0004331
X-0356693Y0023228
X-0362205Y0166142
Y0172441
X-037126Y0175591
X-0370472Y0185039
X-037441
X-0333071Y017874
Y0175591
X-0316929Y0207874
X-0293701Y0198819
X-0290551
X-0287402
X-0279921Y0200393
X-0279527Y0197637
X-0280315Y0194882
X-0285534Y0186221
X-0284645Y0181102
X-0282677Y0179134
X-0279921Y0178346
X-0280315Y016811
X-0282283Y0166142
X-0280315Y0158661
X-0288684Y0182677
X-0292913Y0179921
X-0290551Y0187795
X-0286221Y0211417
X-0274016Y0211811
X-0260337Y0194095
Y0191339
X-0254724Y0195276
X-0247638Y0193307
X-024252Y0189764
X-0236827Y0186221
X-0234358
X-023289Y0190945
X-0230421
X-0228346Y0185827
X-0222441Y0186221
X-0208762Y0187409
Y0184941
X-0203644Y0184252
X-0200888Y0184252
X-0197457Y018937
X-0194988
X-0191551Y0184252
X-0189083
X-0187502Y0199213
X-0189649Y0200965
X-0193407Y0199213
X-0183743Y0200965
X-0177838
X-0172128Y0200394
X-0169659
X-0166223
X-0163754
X-0160317
X-0157849
X-0155219Y0200394
X-0149707Y0199213
X-0151263Y0168682
X-0162305Y0167323
X-0167817
X-0170574
X-0173329Y0164173
X-0177266
X-0180809
X-0184747
X-0188976Y0166535
X-0192601Y0168682
X-0197244Y0167323
X-0202444Y0168682
X-0208349
X-0214255
X-0221259Y016811
X-0225984Y0168504
X-023189
X-0243802Y0167717
X-0249707
X-0255613Y0168504
X-0257213Y0179528
X-0259772
X-0253866
X-0251307
X-0247961
X-0245402
X-0242055
X-0239496
X-0255613Y0183071
Y0186221
X-0232956Y0200965
X-0227165Y0200393
X-0224409
X-0219372Y0199779
X-0216904
X-0211124Y0199213
X-0209334Y0200965
X-0203428
X-018079Y0168682
X-0167817Y0164173
X-0167818Y0161417
Y0158661
X-0163779Y0157087
X-0237008Y0158268
X-0144983Y015748
X-0147995Y0162461
X-0145598Y0165748
X-0143039
X-0138217Y0164716
X-0137109Y0167088
X-0134353Y0164961
X-0110126Y0165748
X-0107646
X-010422
X-010174
X-0098315Y0166142
X-0095835
X-0092409
X-0089929
X-0086504Y0167717
X-0084024
X-0080598Y0165354
X-0078118
X-0074693Y0165748
X-0072212
X-0068787Y0166929
X-0066307
X-0062992
X-0062205Y0162205
X-0058661Y0161811
X-0056976Y0167323
X-0054496
X-0048819Y0161024
X-0043307Y0166535
X-0043701Y0173228
X-004685Y0181496
X-0053512Y0181496
X-0055992
X-0061111Y0179921
X-0063591
X-0061898Y0190551
X-0059417
X-0057759Y0200965
X-0051853
X-0063487Y0200787
X-0071228Y0200787
X-0073709
X-0081381Y0200965
X-0087286
X-0088906Y0198031
X-0091465
X-0094811
X-009737
X-0100717
X-0103276
X-0106622
X-0109181
X-0112528
X-0115087
X-0118433
X-0120992
X-0124339
X-0126898
X-0130244
X-0132803
X-0128625Y0200965
X-012272
X-0116814
X-0110908
X-0105003
X-0099097
X-0093192
X-008552Y0213386
X-0083039
X-0079614Y0213779
X-0077134
X-0037795Y0209842
X-0025591Y0181102
X-0016929Y0167067
X-0016535Y0161024
X-0016142Y0157874
X-0030709Y0155512
X-0033858Y0161811
X-0108762Y0157191
T02
X-0234973Y0040918
X-0208787Y0085827
X-0204457
X-0200126
T03
X-0293307Y0153937
X-0291339Y0151969
X-0322047Y0152756
Y0148819
X-0325984
X-0329921
X-0334252
Y0143307
X-0339764
X-0337008Y0138976
X-0331496
X-0325984
X-032874Y0135039
X-0334252
X-0339764
X-0323228
X-0322835Y0143307
X-032874
X-0362205Y0101575
X-0368701
X-0375197
X-0381693
X-0388189
Y0106693
X-0390158Y0190945
Y0194488
X-0386221
Y0190945
X-0358268Y0189685
Y0193937
Y0198189
Y0202441
Y0206693
Y0185433
X-0354528Y0175394
X-0348622
X-0351575Y0172441
X-0354528Y0169488
X-0348622
X-0334646Y0188976
X-0327953
X-0331102Y0192815
X-0327953Y0196653
X-0334646
X-0331299Y0200492
X-0334646Y0204331
X-0327953
X-0301772Y0197146
X-0298425Y0193307
X-0301772Y0189469
X-0298228Y018563
X-0301772Y0181791
T04
X-0217024Y0037642
X-0213874
X-0210725
X-0212299Y0040398
X-0215449
X-0218599
X-020915
X-0206
X-0202851
X-0199701
X-0196552
X-0198126Y0037642
X-0201276
X-0204426
T07
X-0372719Y0064921
X-0362719
X-0352719
X-0342719
X-0332719
X-0337719Y0074921
X-0347719
X-0357719
X-0367719
X-0377719
T08
X-0010865Y0058336
Y0075068
Y0084181
Y0100914
T10
X-0132968Y0047642
X-017037
T12
X-0039252Y0073228
X-0029252
X-0333687Y0093937
X-0343687
X-0366719
X-0376719
T13
X-0386235Y0051929
X-0324202
T14
X-0056787Y0023528
X-0019685Y0015748
X-0307187Y0023528
X-0374904Y0015748
X-0374904Y0200787
X-0019591Y0200693
T15
X-0148094Y0031303
X-0146354Y0034354
X-0142811
X-0141039Y0031303
Y0044492
X-0142811Y0047543
X-0146354
X-0148094Y0044492
X-0149898Y0047543
X-0153441
X-0156984
X-0160528
X-0162299Y0044492
X-0155213
X-0153441Y0034354
X-0156984
X-0160528
X-0162299Y0031303
X-0155213
X-0149898Y0034354
T16
X-031863Y018937
T17
X-0047764Y018937
T18
X-0377719Y0039921
X-0332719
M30
