%FSLAX44Y44*%
%MOMM*%
G71*
G01*
G75*
G04 Layer_Physical_Order=3*
G04 Layer_Color=36540*
%ADD10C,0.2500*%
%ADD11R,0.3000X0.3000*%
%ADD12R,0.4500X1.3800*%
%ADD13R,0.7620X0.7620*%
%ADD14R,0.6000X0.5500*%
%ADD15R,0.7620X0.7620*%
%ADD16R,0.6200X0.5700*%
%ADD17R,0.9500X0.9500*%
%ADD18R,0.9600X0.9700*%
%ADD19R,0.5500X1.5000*%
%ADD20R,0.9500X0.9500*%
%ADD21R,1.0000X0.6000*%
%ADD22R,0.5500X0.6000*%
%ADD23R,1.2000X3.0000*%
%ADD24R,0.6000X1.0000*%
%ADD25R,1.5500X1.5500*%
%ADD26O,0.6000X0.3000*%
%ADD27R,0.5000X0.4000*%
%ADD28R,0.5700X0.6200*%
%ADD29R,2.4000X1.5000*%
%ADD30R,0.5900X0.4500*%
%ADD31R,0.3500X0.8500*%
%ADD32R,0.2000X1.0000*%
%ADD33R,0.3000X1.2000*%
%ADD34R,3.2000X1.2000*%
%ADD35R,0.4500X0.2000*%
%ADD36R,0.5000X0.2000*%
%ADD37R,0.2000X0.4500*%
%ADD38R,0.2000X0.5000*%
%ADD39R,0.4500X0.5900*%
%ADD40R,0.3000X1.4500*%
%ADD41R,1.1000X1.4000*%
%ADD42R,0.2300X1.0000*%
%ADD43R,0.4000X0.5500*%
%ADD44R,0.3000X0.5500*%
%ADD45R,1.2500X1.7500*%
%ADD46R,0.9700X0.9600*%
%ADD47R,2.1000X2.1000*%
%ADD48R,0.2500X0.6000*%
%ADD49R,0.6000X0.2500*%
%ADD50O,0.5000X1.6000*%
%ADD51R,0.3000X0.3000*%
%ADD52R,1.0160X1.7000*%
%ADD53R,1.0160X1.7000*%
%ADD54R,1.0000X1.5000*%
%ADD55O,0.3000X0.8000*%
%ADD56O,0.8000X0.3000*%
G04:AMPARAMS|DCode=57|XSize=0.75mm|YSize=1.6mm|CornerRadius=0.075mm|HoleSize=0mm|Usage=FLASHONLY|Rotation=270.000|XOffset=0mm|YOffset=0mm|HoleType=Round|Shape=RoundedRectangle|*
%AMROUNDEDRECTD57*
21,1,0.7500,1.4500,0,0,270.0*
21,1,0.6000,1.6000,0,0,270.0*
1,1,0.1500,-0.7250,-0.3000*
1,1,0.1500,-0.7250,0.3000*
1,1,0.1500,0.7250,0.3000*
1,1,0.1500,0.7250,-0.3000*
%
%ADD57ROUNDEDRECTD57*%
G04:AMPARAMS|DCode=58|XSize=0.6mm|YSize=1.8mm|CornerRadius=0.06mm|HoleSize=0mm|Usage=FLASHONLY|Rotation=270.000|XOffset=0mm|YOffset=0mm|HoleType=Round|Shape=RoundedRectangle|*
%AMROUNDEDRECTD58*
21,1,0.6000,1.6800,0,0,270.0*
21,1,0.4800,1.8000,0,0,270.0*
1,1,0.1200,-0.8400,-0.2400*
1,1,0.1200,-0.8400,0.2400*
1,1,0.1200,0.8400,0.2400*
1,1,0.1200,0.8400,-0.2400*
%
%ADD58ROUNDEDRECTD58*%
G04:AMPARAMS|DCode=59|XSize=1.3mm|YSize=0.7mm|CornerRadius=0.07mm|HoleSize=0mm|Usage=FLASHONLY|Rotation=270.000|XOffset=0mm|YOffset=0mm|HoleType=Round|Shape=RoundedRectangle|*
%AMROUNDEDRECTD59*
21,1,1.3000,0.5600,0,0,270.0*
21,1,1.1600,0.7000,0,0,270.0*
1,1,0.1400,-0.2800,-0.5800*
1,1,0.1400,-0.2800,0.5800*
1,1,0.1400,0.2800,0.5800*
1,1,0.1400,0.2800,-0.5800*
%
%ADD59ROUNDEDRECTD59*%
%ADD60R,3.2000X3.2000*%
%ADD61R,0.7500X0.3000*%
%ADD62R,0.3000X0.7500*%
%ADD63R,1.0160X1.2700*%
%ADD64R,0.4000X0.9000*%
%ADD65R,0.4000X0.5000*%
%ADD66R,1.3900X1.4000*%
%ADD67R,3.3600X4.8600*%
%ADD68R,1.4000X1.1000*%
%ADD69R,0.8500X0.3560*%
%ADD70R,2.6000X3.0000*%
%ADD71R,0.3000X1.7500*%
%ADD72R,2.0000X3.5000*%
%ADD73R,3.4000X2.4000*%
%ADD74R,1.7000X1.0160*%
%ADD75R,1.7000X1.0160*%
%ADD76R,1.4000X2.1000*%
%ADD77R,2.3700X1.9000*%
%ADD78R,1.1750X1.9000*%
%ADD79C,0.2000*%
%ADD80C,0.3000*%
%ADD81C,0.1500*%
%ADD82C,0.4000*%
%ADD83C,0.1800*%
%ADD84C,0.2200*%
%ADD85C,0.3500*%
%ADD86R,2.1000X10.0000*%
%ADD87R,2.6000X6.8000*%
%ADD88R,4.4000X3.2000*%
%ADD89R,2.2000X13.7000*%
%ADD90O,1.0000X1.6000*%
%ADD91C,0.6500*%
%ADD92C,6.0000*%
%ADD93O,1.2000X1.7000*%
%ADD94O,1.2000X1.9000*%
%ADD95C,0.7500*%
%ADD96O,1.4000X2.8500*%
%ADD97O,1.2000X2.2500*%
%ADD98C,0.5000*%
%ADD99C,1.5000*%
%ADD100R,1.5000X1.5000*%
%ADD101O,4.5000X2.0000*%
%ADD102O,2.0000X4.0000*%
%ADD103O,4.0000X2.0000*%
%ADD104C,1.7000*%
%ADD105C,3.2500*%
%ADD106C,1.6500*%
%ADD107C,2.6000*%
%ADD108C,1.9000*%
%ADD109R,1.7000X1.7000*%
%ADD110C,0.6000*%
%ADD111C,1.0160*%
%ADD112R,3.4000X0.8000*%
%ADD113R,6.2000X1.5000*%
%ADD114O,1.6160X2.2160*%
%ADD115C,1.4160*%
%ADD116C,4.7160*%
%ADD117O,1.6160X2.1160*%
%ADD118O,1.6160X2.3160*%
%ADD119C,1.5660*%
%ADD120C,2.0160*%
%ADD121O,1.9160X3.3660*%
%ADD122O,1.7160X2.7560*%
%ADD123C,1.9160*%
%ADD124C,2.0360*%
%ADD125O,2.0160X4.0160*%
%ADD126O,4.0160X2.0160*%
%ADD127C,1.9060*%
%ADD128C,4.2660*%
%ADD129C,2.0360*%
%ADD130C,2.7160*%
%ADD131C,2.6160*%
%ADD132C,2.1160*%
%ADD133C,1.1660*%
%ADD134C,1.2660*%
%ADD135C,1.2160*%
%ADD136C,0.0000*%
D10*
X-279256Y146000D02*
Y377000D01*
X-814256Y243000D02*
X-753320D01*
X-286320Y138936D02*
X-279256Y146000D01*
X-753320Y243000D02*
X-747320Y249000D01*
Y200000D02*
Y249000D01*
X-628119Y319225D02*
Y343937D01*
X-715320Y281000D02*
X-714256D01*
X-747320Y249000D02*
X-715320Y281000D01*
X-765320Y182000D02*
X-747320Y200000D01*
X-286320Y111000D02*
Y138936D01*
X-341256Y419000D02*
Y478000D01*
X-369256Y506000D02*
X-341256Y478000D01*
X-380256Y506000D02*
X-369256D01*
D79*
X-99895Y314562D02*
G03*
X-105878Y314562I-2991J-2991D01*
G01*
X-109083Y314557D02*
G03*
X-105878Y314562I1600J1610D01*
G01*
X-109088Y317773D02*
G03*
X-109095Y314569I1605J-1605D01*
G01*
X-105439Y321421D02*
G03*
X-103808Y325360I-3938J3938D01*
G01*
D02*
G03*
X-105439Y329299I-5570J0D01*
G01*
X-105439Y329299D02*
G03*
X-113316Y329299I-3938J-3938D01*
G01*
X-120170Y325645D02*
G03*
X-116965Y325650I1600J1610D01*
G01*
X-120175Y328860D02*
G03*
X-120180Y325655I1605J-1605D01*
G01*
X-116527Y332509D02*
G03*
X-114895Y336447I-3938J3938D01*
G01*
D02*
G03*
X-116527Y340386I-5570J0D01*
G01*
D02*
G03*
X-124404Y340386I-3938J-3938D01*
G01*
X-125719Y340386D02*
G03*
X-124404Y340386I658J658D01*
G01*
X-102229Y312229D02*
G03*
X-103544Y312229I-658J-658D01*
G01*
X-111421Y312229D02*
G03*
X-103544Y312229I3938J3938D01*
G01*
X-111421Y320106D02*
G03*
X-111421Y312229I3938J-3938D01*
G01*
X-107773Y323755D02*
G03*
X-107108Y325360I-1605J1605D01*
G01*
D02*
G03*
X-107773Y326965I-2270J0D01*
G01*
X-107773Y326965D02*
G03*
X-110983Y326965I-1605J-1605D01*
G01*
X-122509Y323316D02*
G03*
X-114632Y323316I3938J3938D01*
G01*
X-122509Y331194D02*
G03*
X-122509Y323316I3938J-3938D01*
G01*
X-118860Y334842D02*
G03*
X-118195Y336447I-1605J1605D01*
G01*
D02*
G03*
X-118860Y338052I-2270J0D01*
G01*
X-118865Y338057D02*
G03*
X-122070Y338052I-1600J-1610D01*
G01*
X-128053D02*
G03*
X-122070Y338052I2991J2991D01*
G01*
X-128352Y312334D02*
G03*
X-128352Y306352I2991J-2991D01*
G01*
X-128352Y312334D02*
G03*
X-127687Y313939I-1605J1605D01*
G01*
D02*
G03*
X-128345Y315537I-2270J0D01*
G01*
X-128352Y315544D02*
G03*
X-131562Y315544I-1605J-1605D01*
G01*
X-143088Y311896D02*
G03*
X-135211Y311896I3938J3938D01*
G01*
X-143088Y319773D02*
G03*
X-143088Y311896I3938J-3938D01*
G01*
X-139439Y323421D02*
G03*
X-138774Y325027I-1605J1605D01*
G01*
D02*
G03*
X-139439Y326632I-2270J0D01*
G01*
X-139439Y326632D02*
G03*
X-142649Y326632I-1605J-1605D01*
G01*
X-154175Y322983D02*
G03*
X-146298Y322983I3938J3938D01*
G01*
X-154175Y330860D02*
G03*
X-154175Y322983I3938J-3938D01*
G01*
X-150527Y334509D02*
G03*
X-149862Y336114I-1605J1605D01*
G01*
D02*
G03*
X-150527Y337719I-2270J0D01*
G01*
X-150532Y337724D02*
G03*
X-153737Y337719I-1600J-1610D01*
G01*
X-159719D02*
G03*
X-153737Y337719I2991J2991D01*
G01*
X-126018Y310000D02*
G03*
X-126018Y308685I658J-658D01*
G01*
Y310000D02*
G03*
X-124387Y313939I-3938J3938D01*
G01*
D02*
G03*
X-126018Y317878I-5570J0D01*
G01*
X-126018D02*
G03*
X-133896Y317878I-3938J-3938D01*
G01*
X-140750Y314224D02*
G03*
X-137544Y314229I1600J1610D01*
G01*
X-140754Y317439D02*
G03*
X-140761Y314236I1605J-1605D01*
G01*
X-137106Y321088D02*
G03*
X-135474Y325027I-3938J3938D01*
G01*
D02*
G03*
X-137106Y328965I-5570J0D01*
G01*
X-137106Y328965D02*
G03*
X-144983Y328965I-3938J-3938D01*
G01*
X-151835Y325309D02*
G03*
X-148632Y325316I1598J1612D01*
G01*
X-151842Y328527D02*
G03*
X-151842Y325316I1605J-1605D01*
G01*
X-148193Y332175D02*
G03*
X-146562Y336114I-3938J3938D01*
G01*
D02*
G03*
X-148193Y340052I-5570J0D01*
G01*
D02*
G03*
X-156070Y340052I-3938J-3938D01*
G01*
X-157386Y340052D02*
G03*
X-156070Y340052I658J658D01*
G01*
X-140812Y248479D02*
G03*
X-146087Y248479I-2637J-2637D01*
G01*
X-149297D02*
G03*
X-146087Y248479I1605J1605D01*
G01*
X-149297Y251689D02*
G03*
X-149302Y248484I1605J-1605D01*
G01*
X-146356Y254631D02*
G03*
X-144724Y258569I-3938J3938D01*
G01*
D02*
G03*
X-146356Y262508I-5570J0D01*
G01*
X-146356Y262508D02*
G03*
X-154233Y262508I-3938J-3938D01*
G01*
X-160380Y259561D02*
G03*
X-157175Y259566I1600J1610D01*
G01*
X-160385Y262777D02*
G03*
X-160385Y259566I1605J-1605D01*
G01*
X-157443Y265718D02*
G03*
X-155812Y269657I-3938J3938D01*
G01*
D02*
G03*
X-157443Y273595I-5570J0D01*
G01*
X-157443Y273595D02*
G03*
X-165320Y273595I-3938J-3938D01*
G01*
X-171472Y270654D02*
G03*
X-168262Y270654I1605J1605D01*
G01*
X-171472Y273864D02*
G03*
X-171472Y270654I1605J-1605D01*
G01*
X-168531Y276806D02*
G03*
X-166899Y280744I-3938J3938D01*
G01*
D02*
G03*
X-168531Y284683I-5570J0D01*
G01*
X-168531Y284683D02*
G03*
X-176408Y284683I-3938J-3938D01*
G01*
X-182560Y281741D02*
G03*
X-179349Y281741I1605J1605D01*
G01*
X-182560Y284951D02*
G03*
X-182565Y281746I1605J-1605D01*
G01*
X-179618Y287893D02*
G03*
X-177987Y291831I-3938J3938D01*
G01*
D02*
G03*
X-179618Y295770I-5570J0D01*
G01*
X-179618Y295770D02*
G03*
X-187495Y295770I-3938J-3938D01*
G01*
X-193647Y292829D02*
G03*
X-190437Y292829I1605J1605D01*
G01*
X-193647Y296039D02*
G03*
X-193652Y292833I1605J-1605D01*
G01*
X-190705Y298980D02*
G03*
X-189074Y302919I-3938J3938D01*
G01*
D02*
G03*
X-190705Y306857I-5570J0D01*
G01*
X-190705Y306858D02*
G03*
X-198582Y306857I-3938J-3939D01*
G01*
X-204734Y303916D02*
G03*
X-201524Y303916I1605J1605D01*
G01*
X-204734Y307126D02*
G03*
X-204739Y303921I1605J-1605D01*
G01*
X-201793Y310068D02*
G03*
X-200161Y314006I-3938J3938D01*
G01*
D02*
G03*
X-201793Y317945I-5570J0D01*
G01*
X-201793Y317945D02*
G03*
X-209670Y317945I-3938J-3938D01*
G01*
X-215822Y315003D02*
G03*
X-212612Y315003I1605J1605D01*
G01*
X-215822Y318214D02*
G03*
X-215827Y315008I1605J-1605D01*
G01*
X-212880Y321155D02*
G03*
X-211249Y325094I-3938J3938D01*
G01*
D02*
G03*
X-212880Y329032I-5570J0D01*
G01*
X-212880Y329032D02*
G03*
X-220757Y329032I-3938J-3939D01*
G01*
X-221366Y329032D02*
G03*
X-220757Y329032I304J304D01*
G01*
X-143146Y246145D02*
G03*
X-143754Y246145I-304J-304D01*
G01*
X-151631Y246145D02*
G03*
X-143754Y246145I3938J3938D01*
G01*
X-151631Y254023D02*
G03*
X-151631Y246145I3938J-3938D01*
G01*
X-148689Y256964D02*
G03*
X-148024Y258569I-1605J1605D01*
G01*
D02*
G03*
X-148689Y260174I-2270J0D01*
G01*
X-148694Y260179D02*
G03*
X-151899Y260174I-1600J-1610D01*
G01*
X-162718Y257233D02*
G03*
X-154841Y257233I3938J3939D01*
G01*
X-162718Y265110D02*
G03*
X-162718Y257233I3938J-3938D01*
G01*
X-159777Y268052D02*
G03*
X-159112Y269657I-1605J1605D01*
G01*
D02*
G03*
X-159772Y271257I-2270J0D01*
G01*
X-159777Y271262D02*
G03*
X-162987Y271262I-1605J-1605D01*
G01*
X-173806Y268320D02*
G03*
X-165928Y268320I3938J3938D01*
G01*
X-173806Y276197D02*
G03*
X-173806Y268320I3938J-3938D01*
G01*
X-170864Y279139D02*
G03*
X-170199Y280744I-1605J1605D01*
G01*
D02*
G03*
X-170864Y282349I-2270J0D01*
G01*
X-170869Y282354D02*
G03*
X-174074Y282349I-1600J-1610D01*
G01*
X-184893Y279408D02*
G03*
X-177016Y279408I3938J3939D01*
G01*
X-184893Y287285D02*
G03*
X-184893Y279408I3938J-3938D01*
G01*
X-181951Y290226D02*
G03*
X-181287Y291831I-1605J1605D01*
G01*
D02*
G03*
X-181951Y293437I-2270J0D01*
G01*
X-181956Y293442D02*
G03*
X-185162Y293437I-1600J-1610D01*
G01*
X-195980Y290495D02*
G03*
X-188103Y290495I3938J3938D01*
G01*
X-195980Y298372D02*
G03*
X-195980Y290495I3938J-3938D01*
G01*
X-193039Y301314D02*
G03*
X-192374Y302919I-1605J1605D01*
G01*
D02*
G03*
X-193034Y304519I-2270J0D01*
G01*
X-193039Y304524D02*
G03*
X-196249Y304524I-1605J-1605D01*
G01*
X-207068Y301583D02*
G03*
X-199191Y301583I3938J3938D01*
G01*
X-207068Y309460D02*
G03*
X-207068Y301583I3938J-3938D01*
G01*
X-204126Y312401D02*
G03*
X-203461Y314006I-1605J1605D01*
G01*
D02*
G03*
X-204126Y315611I-2270J0D01*
G01*
X-204126Y315611D02*
G03*
X-207337Y315611I-1605J-1605D01*
G01*
X-218155Y312670D02*
G03*
X-210278Y312670I3938J3938D01*
G01*
X-218155Y320547D02*
G03*
X-218155Y312670I3938J-3938D01*
G01*
X-215214Y323489D02*
G03*
X-214549Y325094I-1605J1605D01*
G01*
D02*
G03*
X-215209Y326694I-2270J0D01*
G01*
X-215214Y326699D02*
G03*
X-218424Y326699I-1605J-1605D01*
G01*
X-223699D02*
G03*
X-218424Y326699I2637J2637D01*
G01*
X-169366Y243718D02*
G03*
X-169366Y243110I304J-304D01*
G01*
X-169366Y243718D02*
G03*
X-167735Y247657I-3938J3938D01*
G01*
D02*
G03*
X-169366Y251595I-5570J0D01*
G01*
X-169366Y251595D02*
G03*
X-177243Y251595I-3938J-3938D01*
G01*
X-183395Y248654D02*
G03*
X-180185Y248654I1605J1605D01*
G01*
X-183395Y251864D02*
G03*
X-183395Y248654I1605J-1605D01*
G01*
X-180453Y254806D02*
G03*
X-178822Y258744I-3938J3938D01*
G01*
D02*
G03*
X-180453Y262683I-5570J0D01*
G01*
X-180453Y262683D02*
G03*
X-188330Y262683I-3938J-3938D01*
G01*
X-194482Y259741D02*
G03*
X-191272Y259741I1605J1605D01*
G01*
X-194482Y262951D02*
G03*
X-194487Y259746I1605J-1605D01*
G01*
X-191541Y265893D02*
G03*
X-189909Y269832I-3938J3938D01*
G01*
D02*
G03*
X-191541Y273770I-5570J0D01*
G01*
X-191541Y273770D02*
G03*
X-199418Y273770I-3938J-3938D01*
G01*
X-205565Y270824D02*
G03*
X-202360Y270828I1600J1610D01*
G01*
X-205570Y274039D02*
G03*
X-205570Y270829I1605J-1605D01*
G01*
X-202628Y276980D02*
G03*
X-200997Y280919I-3938J3938D01*
G01*
D02*
G03*
X-202628Y284858I-5570J0D01*
G01*
X-202628Y284858D02*
G03*
X-210505Y284858I-3938J-3939D01*
G01*
X-216652Y281911D02*
G03*
X-213447Y281916I1600J1610D01*
G01*
X-216657Y285126D02*
G03*
X-216657Y281916I1605J-1605D01*
G01*
X-213716Y288068D02*
G03*
X-212084Y292006I-3938J3938D01*
G01*
D02*
G03*
X-213716Y295945I-5570J0D01*
G01*
X-213716Y295945D02*
G03*
X-221593Y295945I-3938J-3938D01*
G01*
X-227745Y293003D02*
G03*
X-224534Y293003I1605J1605D01*
G01*
X-227745Y296214D02*
G03*
X-227750Y293008I1605J-1605D01*
G01*
X-224803Y299155D02*
G03*
X-223172Y303094I-3938J3938D01*
G01*
D02*
G03*
X-224803Y307032I-5570J0D01*
G01*
X-224803Y307032D02*
G03*
X-232680Y307032I-3938J-3939D01*
G01*
X-233288Y307032D02*
G03*
X-232680Y307032I304J304D01*
G01*
X-171699Y246052D02*
G03*
X-171699Y240777I2637J-2637D01*
G01*
Y246052D02*
G03*
X-171035Y247657I-1605J1605D01*
G01*
D02*
G03*
X-171699Y249262I-2270J0D01*
G01*
X-171704Y249267D02*
G03*
X-174910Y249262I-1600J-1610D01*
G01*
X-185728Y246320D02*
G03*
X-177851Y246320I3938J3938D01*
G01*
X-185728Y254197D02*
G03*
X-185728Y246320I3938J-3938D01*
G01*
X-182787Y257139D02*
G03*
X-182122Y258744I-1605J1605D01*
G01*
D02*
G03*
X-182782Y260344I-2270J0D01*
G01*
X-182787Y260349D02*
G03*
X-185997Y260349I-1605J-1605D01*
G01*
X-196816Y257408D02*
G03*
X-188939Y257408I3938J3939D01*
G01*
X-196816Y265285D02*
G03*
X-196816Y257408I3938J-3938D01*
G01*
X-193874Y268226D02*
G03*
X-193209Y269832I-1605J1605D01*
G01*
D02*
G03*
X-193869Y271432I-2270J0D01*
G01*
X-193874Y271437D02*
G03*
X-197085Y271437I-1605J-1605D01*
G01*
X-207903Y268495D02*
G03*
X-200026Y268495I3938J3938D01*
G01*
X-207903Y276372D02*
G03*
X-207903Y268495I3938J-3938D01*
G01*
X-204962Y279314D02*
G03*
X-204297Y280919I-1605J1605D01*
G01*
D02*
G03*
X-204962Y282524I-2270J0D01*
G01*
X-204967Y282529D02*
G03*
X-208172Y282524I-1600J-1610D01*
G01*
X-218991Y279583D02*
G03*
X-211113Y279583I3938J3938D01*
G01*
X-218991Y287460D02*
G03*
X-218991Y279583I3938J-3938D01*
G01*
X-216049Y290401D02*
G03*
X-215384Y292006I-1605J1605D01*
G01*
D02*
G03*
X-216049Y293612I-2270J0D01*
G01*
X-216049Y293612D02*
G03*
X-219259Y293612I-1605J-1605D01*
G01*
X-230078Y290670D02*
G03*
X-222201Y290670I3938J3938D01*
G01*
X-230078Y298547D02*
G03*
X-230078Y290670I3938J-3938D01*
G01*
X-227136Y301489D02*
G03*
X-226472Y303094I-1605J1605D01*
G01*
D02*
G03*
X-227136Y304699I-2270J0D01*
G01*
X-227141Y304704D02*
G03*
X-230347Y304699I-1600J-1610D01*
G01*
X-235622D02*
G03*
X-230347Y304699I2637J2637D01*
G01*
X-39256Y283000D02*
X-36256Y286000D01*
X-37889Y279700D02*
X-32956Y284633D01*
X-68333Y283000D02*
X-39256D01*
X-69700Y279700D02*
X-37889D01*
X-99895Y314562D02*
X-68333Y283000D01*
X-109088Y317773D02*
X-105439Y321421D01*
X-116965Y325650D02*
X-113316Y329299D01*
X-120175Y328860D02*
X-116527Y332509D01*
X-139920Y354587D02*
X-125719Y340386D01*
X-102229Y312229D02*
X-69700Y279700D01*
X-111421Y320106D02*
X-107773Y323755D01*
X-114632Y323316D02*
X-110983Y326965D01*
X-122509Y331194D02*
X-118860Y334842D01*
X-143220Y353220D02*
X-128053Y338052D01*
X-139920Y354587D02*
Y423500D01*
X-143220Y353220D02*
Y423500D01*
X-43771Y293501D02*
X-37889D01*
X-32956Y288568D01*
Y284633D02*
Y288568D01*
X-102201Y280201D02*
X-93756D01*
X-100834Y283501D02*
X-93756D01*
X-128352Y306352D02*
X-102201Y280201D01*
X-135211Y311896D02*
X-131562Y315544D01*
X-143088Y319773D02*
X-139439Y323421D01*
X-146298Y322983D02*
X-142649Y326632D01*
X-154175Y330860D02*
X-150527Y334509D01*
X-173220Y351220D02*
X-159719Y337719D01*
X-126018Y308685D02*
X-100834Y283501D01*
X-137544Y314229D02*
X-133896Y317878D01*
X-140754Y317439D02*
X-137106Y321088D01*
X-148632Y325316D02*
X-144983Y328965D01*
X-151842Y328527D02*
X-148193Y332175D01*
X-169920Y352587D02*
X-157386Y340052D01*
X-173220Y351220D02*
Y422500D01*
X-169920Y352587D02*
Y422500D01*
X-124791Y244000D02*
Y246515D01*
X-121491Y242633D02*
Y246515D01*
X-126691Y242100D02*
X-124791Y244000D01*
X-125324Y238800D02*
X-121491Y242633D01*
X-134433Y242100D02*
X-126691D01*
X-135800Y238800D02*
X-125324D01*
X-140812Y248479D02*
X-134433Y242100D01*
X-149297Y251689D02*
X-146356Y254631D01*
X-157175Y259566D02*
X-154233Y262508D01*
X-160385Y262777D02*
X-157443Y265718D01*
X-168262Y270654D02*
X-165320Y273595D01*
X-171472Y273864D02*
X-168531Y276806D01*
X-179349Y281741D02*
X-176408Y284683D01*
X-182560Y284951D02*
X-179618Y287893D01*
X-190437Y292829D02*
X-187495Y295770D01*
X-193647Y296039D02*
X-190705Y298980D01*
X-201524Y303916D02*
X-198583Y306858D01*
X-204734Y307126D02*
X-201793Y310068D01*
X-212612Y315003D02*
X-209670Y317945D01*
X-215822Y318214D02*
X-212880Y321155D01*
X-229920Y337587D02*
X-221363Y329030D01*
X-143148Y246148D02*
X-135800Y238800D01*
X-151631Y254023D02*
X-148689Y256964D01*
X-154841Y257233D02*
X-151899Y260174D01*
X-162718Y265110D02*
X-159777Y268052D01*
X-165928Y268320D02*
X-162987Y271262D01*
X-173806Y276197D02*
X-170864Y279139D01*
X-177016Y279408D02*
X-174074Y282349D01*
X-184893Y287285D02*
X-181951Y290226D01*
X-188103Y290495D02*
X-185162Y293437D01*
X-195980Y298372D02*
X-193039Y301314D01*
X-199191Y301583D02*
X-196249Y304524D01*
X-207068Y309460D02*
X-204126Y312401D01*
X-210278Y312670D02*
X-207337Y315611D01*
X-218155Y320547D02*
X-215214Y323489D01*
X-233220Y336220D02*
X-223699Y326699D01*
X-229920Y337587D02*
Y420500D01*
X-233220Y336220D02*
Y420500D01*
X-105256Y240000D02*
Y247500D01*
X-101956Y238633D02*
Y247500D01*
X-109706Y235550D02*
X-105256Y240000D01*
X-108339Y232250D02*
X-101956Y238633D01*
X-161806Y235550D02*
X-109706D01*
X-163173Y232250D02*
X-108339D01*
X-169368Y243112D02*
X-161806Y235550D01*
X-180185Y248654D02*
X-177243Y251595D01*
X-183395Y251864D02*
X-180453Y254806D01*
X-191272Y259741D02*
X-188331Y262683D01*
X-194482Y262951D02*
X-191541Y265893D01*
X-202360Y270829D02*
X-199418Y273770D01*
X-205570Y274039D02*
X-202628Y276980D01*
X-213447Y281916D02*
X-210505Y284858D01*
X-216657Y285126D02*
X-213716Y288068D01*
X-224534Y293003D02*
X-221593Y295945D01*
X-227745Y296214D02*
X-224803Y299155D01*
X-244920Y318664D02*
X-233286Y307030D01*
X-171699Y240777D02*
X-163173Y232250D01*
X-177851Y246320D02*
X-174910Y249262D01*
X-185728Y254197D02*
X-182787Y257139D01*
X-188939Y257408D02*
X-185997Y260349D01*
X-196816Y265285D02*
X-193874Y268226D01*
X-200026Y268495D02*
X-197085Y271437D01*
X-207903Y276372D02*
X-204962Y279314D01*
X-211113Y279583D02*
X-208172Y282524D01*
X-218991Y287460D02*
X-216049Y290401D01*
X-222201Y290670D02*
X-219259Y293612D01*
X-230078Y298547D02*
X-227136Y301489D01*
X-248220Y317297D02*
X-235622Y304699D01*
X-244920Y318664D02*
Y420500D01*
X-248220Y317297D02*
Y420500D01*
X-126276Y248000D02*
X-124791Y246515D01*
X-229920Y420500D02*
X-228420Y422000D01*
X-121491Y246515D02*
X-120006Y248000D01*
X-234720Y422000D02*
X-233220Y420500D01*
X-101956Y247500D02*
X-100456Y249000D01*
X-249720Y422000D02*
X-248220Y420500D01*
X-106756Y249000D02*
X-105256Y247500D01*
X-244920Y420500D02*
X-243420Y422000D01*
X-733256Y378744D02*
Y464000D01*
X-727749Y470507D02*
X-725256Y473000D01*
X-420705Y419449D02*
X-374626Y373370D01*
X-420705Y419449D02*
Y507500D01*
X-432000Y379000D02*
X-427000Y374000D01*
X-432000Y379000D02*
Y403000D01*
X-435506Y406506D02*
Y418968D01*
Y406506D02*
X-432000Y403000D01*
X-449740Y433201D02*
X-435506Y418968D01*
X-492799Y433201D02*
X-449740D01*
X-501000Y425000D02*
X-492799Y433201D01*
X-738000Y477000D02*
X-730000Y485000D01*
Y505000D01*
X-741320Y130000D02*
X-740320Y131000D01*
Y238000D01*
X-480524Y247845D02*
X-478840Y246160D01*
X-478679Y246321D02*
X-478000Y247000D01*
X-478679Y246000D02*
Y246321D01*
X-595256Y447000D02*
Y456000D01*
X-616256Y426000D02*
X-595256Y447000D01*
X-600256D02*
Y454653D01*
X-611256Y436000D02*
X-600256Y447000D01*
X-645256Y469000D02*
X-608256D01*
X-595256Y456000D01*
X-649256Y465000D02*
X-610602D01*
X-600256Y454653D01*
X-624256Y436000D02*
X-611256D01*
X-634256Y426000D02*
X-624256Y436000D01*
X-420695Y341981D02*
X-420502Y341788D01*
X-420695Y341981D02*
Y351823D01*
X-11256Y288000D02*
Y298000D01*
X-70256Y229000D02*
X-11256Y288000D01*
X-239256Y229000D02*
X-70256D01*
X-649256Y473000D02*
X-645256Y469000D01*
X-619256Y426000D02*
X-616256D01*
X-944266Y226000D02*
X-911256D01*
X-956866Y238600D02*
X-944266Y226000D01*
X-458874Y198000D02*
X-425320D01*
X-470570Y209696D02*
X-458874Y198000D01*
X-587320Y77000D02*
Y213000D01*
X-470570Y138033D02*
Y209696D01*
X-296320Y157000D02*
Y182064D01*
X-306256Y192000D02*
X-296320Y182064D01*
X-369561Y192000D02*
X-306256D01*
X-388561Y211000D02*
X-369561Y192000D01*
X-444320Y211000D02*
X-388561D01*
X-471011Y290624D02*
Y318581D01*
X-412591Y377000D02*
X-411256D01*
X-468505Y265250D02*
Y288119D01*
X-471011Y290624D02*
X-468505Y288119D01*
X-426356Y336706D02*
X-425970Y337092D01*
Y356904D01*
X-548320Y255000D02*
X-529320Y236000D01*
X-374626Y311000D02*
Y373370D01*
X-422205Y509000D02*
X-420705Y507500D01*
X-392626Y293000D02*
X-374626Y311000D01*
X-401652Y293000D02*
X-392626D01*
X-408506Y286146D02*
X-401652Y293000D01*
X-408506Y282000D02*
Y286146D01*
X-45256Y294986D02*
X-43771Y293501D01*
X-43771Y290201D02*
X-39256D01*
X-45256Y288716D02*
X-43771Y290201D01*
X-144720Y425000D02*
X-143220Y423500D01*
X-139920D02*
X-138420Y425000D01*
X-36256Y286000D02*
Y287201D01*
X-39256Y290201D02*
X-36256Y287201D01*
X-621320Y34000D02*
X-616320Y39000D01*
X-601320Y23134D02*
X-592320Y32134D01*
X-601320Y16000D02*
Y23134D01*
X-592320Y32134D02*
Y72000D01*
X-746320Y34000D02*
X-621320D01*
X-764320Y16000D02*
X-746320Y34000D01*
X-591320Y217000D02*
X-591320D01*
X-587320Y213000D01*
X-592320Y72000D02*
X-587320Y77000D01*
X-478024Y217150D02*
X-470570Y209696D01*
X-566320Y255000D02*
X-548320D01*
X-530494Y109863D02*
Y123667D01*
X-493330Y64455D02*
X-467142Y90643D01*
X-576658Y64455D02*
X-493330D01*
X-467142Y90643D02*
Y109325D01*
X-470832Y137770D02*
X-470570Y138033D01*
X-470832Y113016D02*
Y137770D01*
X-503708Y247845D02*
X-480524D01*
X-470832Y113016D02*
X-467142Y109325D01*
X-487660Y217150D02*
X-478024D01*
X-487674Y217136D02*
X-487660Y217150D01*
X-530844Y124017D02*
X-530494Y123667D01*
X-530844Y124017D02*
X-530789Y124073D01*
Y124439D01*
X-530494Y109863D02*
X-523241Y102610D01*
X-872966Y235966D02*
Y238600D01*
Y239034D01*
X-911256Y226000D02*
X-876256Y261000D01*
X-808000D01*
X-798000Y271000D01*
X-872966Y239034D02*
X-855000Y257000D01*
X-806000D01*
X-793256Y269744D01*
X-920000Y422000D02*
X-835000D01*
X-811256Y326000D02*
Y398256D01*
X-835000Y422000D02*
X-811256Y398256D01*
X-471011Y318581D02*
X-460591Y329000D01*
X-412591Y377000D01*
X-798000Y271000D02*
Y314000D01*
X-733256Y378744D01*
X-793256Y269744D02*
Y314148D01*
X-174720Y424000D02*
X-173220Y422500D01*
X-93756Y280201D02*
X-92256Y278701D01*
X-169920Y422500D02*
X-168420Y424000D01*
X-93756Y283501D02*
X-92256Y285001D01*
X-727749Y379749D02*
Y470507D01*
Y379749D02*
X-727702Y379702D01*
X-793256Y314148D02*
X-727702Y379702D01*
D80*
X-733320Y127000D02*
X-655320D01*
X-745320Y115000D02*
X-733320Y127000D01*
X-766320Y119000D02*
X-730320Y83000D01*
X-766320Y119000D02*
Y181000D01*
X-730320Y83000D02*
X-673089D01*
X-803000Y151000D02*
X-794000Y142000D01*
X-864000Y151000D02*
X-803000D01*
X-885000Y130000D02*
X-864000Y151000D01*
X-864256Y78000D02*
X-843256D01*
X-877712D02*
X-864256D01*
X-810000D02*
X-794000Y94000D01*
X-843256Y78000D02*
X-810000D01*
X-896712Y59000D02*
X-877712Y78000D01*
X-906000Y59000D02*
X-896712D01*
X-544207Y428451D02*
X-543756Y428000D01*
X-529207Y428451D02*
X-528756Y428000D01*
X-514207Y428451D02*
X-513756Y428000D01*
X-489207Y428451D02*
X-488756Y428000D01*
X-459207Y428451D02*
X-458756Y428000D01*
X-384207Y428451D02*
X-383756Y428000D01*
X-591707Y510451D02*
X-591256Y510000D01*
X-531707Y510451D02*
X-531256Y510000D01*
X-516707Y510451D02*
X-516256Y510000D01*
X-206258Y510002D02*
X-206256Y510000D01*
X-206258Y510000D02*
Y510002D01*
X-451707Y510451D02*
X-451256Y510000D01*
X-466707Y510451D02*
X-466256Y510000D01*
X-481707Y510451D02*
X-481256Y510000D01*
X-326707Y510451D02*
X-326256Y510000D01*
X-311707Y510451D02*
X-311256Y510000D01*
X-296707Y510451D02*
X-296256Y510000D01*
X-281707Y510451D02*
X-281256Y510000D01*
X-266707Y510451D02*
X-266256Y510000D01*
X-251707Y510451D02*
X-251256Y510000D01*
X-236707Y510451D02*
X-236256Y510000D01*
X-221707Y510451D02*
X-221256Y510000D01*
X-604320Y62000D02*
Y85000D01*
X-614320Y52000D02*
X-604320Y62000D01*
X-617319Y97999D02*
X-604320Y85000D01*
X-617319Y97999D02*
Y100000D01*
X-673089Y83000D02*
X-660772Y70683D01*
Y67834D02*
Y70683D01*
Y67834D02*
X-642938Y50000D01*
X-615320D01*
X-654320Y127000D02*
X-651320Y124000D01*
X-636320D01*
D81*
X-637000Y359000D02*
X-624000Y372000D01*
X-637000Y319000D02*
Y359000D01*
X-653000Y303000D02*
X-637000Y319000D01*
X-653000Y297000D02*
Y303000D01*
X-788000Y419364D02*
X-746000Y461364D01*
X-788000Y336000D02*
Y419364D01*
X-746000Y461364D02*
Y505000D01*
X-182500Y202500D02*
X-149000Y169000D01*
X-261500Y202500D02*
X-182500D01*
X-264000Y205000D02*
X-261500Y202500D01*
X-565000Y459822D02*
Y473000D01*
X-624000Y400822D02*
X-565000Y459822D01*
X-624000Y372000D02*
Y400822D01*
X-567070Y348955D02*
X-563256Y352769D01*
X-250256Y81000D02*
Y93000D01*
Y81000D02*
X-242256Y73000D01*
X-209256D01*
X-266256Y122000D02*
X-265908Y122348D01*
X-568256Y354000D02*
X-568256Y354000D01*
X-570257Y354000D02*
X-568256D01*
X-576906Y266266D02*
X-569820Y273352D01*
X-576906Y261316D02*
Y266266D01*
X-563256Y352769D02*
Y354000D01*
X-567889Y261524D02*
X-567070Y262343D01*
X-532184Y222500D02*
X-471188D01*
X-534684Y220000D02*
X-532184Y222500D01*
X-483169Y229697D02*
X-457543D01*
X-492740Y239268D02*
X-483169Y229697D01*
X-461928Y219796D02*
X-461813Y219681D01*
X-462300D02*
X-461813D01*
X-471188Y222500D02*
X-468486Y219798D01*
X-461930D02*
X-461928Y219796D01*
X-462415D02*
X-462300Y219681D01*
X-461928Y219796D02*
X-459781D01*
X-462415D02*
X-461928D01*
X-550265Y220000D02*
X-534684D01*
X-462417Y219798D02*
X-461930D01*
X-462417D02*
X-462415Y219796D01*
X-468486Y219798D02*
X-462417D01*
X-507076Y239004D02*
X-506813Y239268D01*
X-492740D01*
X-569820Y273352D02*
Y352436D01*
X-567070Y262343D02*
Y348955D01*
X-569820Y352436D02*
X-568256Y354000D01*
X-149000Y169000D02*
X-63000D01*
X-55000Y177000D01*
D82*
X-480000Y390000D02*
Y423000D01*
Y390000D02*
X-458000Y368000D01*
X-951000Y333000D02*
Y470000D01*
D83*
X-302420Y352360D02*
G03*
X-300890Y350830I1530J0D01*
G01*
X-295420Y345360D02*
G03*
X-300890Y350830I-5470J-0D01*
G01*
Y339890D02*
G03*
X-295420Y345360I0J5470D01*
G01*
X-307250Y339890D02*
G03*
X-309420Y337720I0J-2170D01*
G01*
Y337720D02*
G03*
X-307250Y335550I2170J0D01*
G01*
X-295420Y330080D02*
G03*
X-300890Y335550I-5470J-0D01*
G01*
Y324610D02*
G03*
X-295420Y330080I0J5470D01*
G01*
X-307250Y324610D02*
G03*
X-309420Y322440I0J-2170D01*
G01*
Y322440D02*
G03*
X-307250Y320270I2170J0D01*
G01*
X-295420Y314800D02*
G03*
X-300890Y320270I-5470J-0D01*
G01*
Y309330D02*
G03*
X-295420Y314800I0J5470D01*
G01*
X-307250Y309330D02*
G03*
X-309420Y307160I0J-2170D01*
G01*
Y307160D02*
G03*
X-307250Y304990I2170J0D01*
G01*
X-295420Y299520D02*
G03*
X-300890Y304990I-5470J-0D01*
G01*
Y294050D02*
G03*
X-295420Y299520I0J5470D01*
G01*
X-307250Y294050D02*
G03*
X-309420Y291880I0J-2170D01*
G01*
Y291880D02*
G03*
X-307250Y289710I2170J0D01*
G01*
X-295420Y284240D02*
G03*
X-300890Y289710I-5470J-0D01*
G01*
Y278770D02*
G03*
X-295420Y284240I0J5470D01*
G01*
X-307250Y278770D02*
G03*
X-309420Y276600I0J-2170D01*
G01*
Y276600D02*
G03*
X-307250Y274430I2170J0D01*
G01*
X-302420Y269600D02*
G03*
X-307250Y274430I-4830J0D01*
G01*
Y263490D02*
G03*
X-302420Y268320I0J4830D01*
G01*
X-307250Y263490D02*
G03*
X-309420Y261320I0J-2170D01*
G01*
Y261320D02*
G03*
X-307250Y259150I2170J0D01*
G01*
X-302420Y255000D02*
G03*
X-306570Y259150I-4150J0D01*
G01*
X-305720Y352360D02*
G03*
X-300890Y347530I4830J0D01*
G01*
X-298720Y345360D02*
G03*
X-300890Y347530I-2170J-0D01*
G01*
Y343190D02*
G03*
X-298720Y345360I0J2170D01*
G01*
X-307250Y343190D02*
G03*
X-312720Y337720I0J-5470D01*
G01*
Y337720D02*
G03*
X-307250Y332250I5470J0D01*
G01*
X-298720Y330080D02*
G03*
X-300890Y332250I-2170J-0D01*
G01*
Y327910D02*
G03*
X-298720Y330080I0J2170D01*
G01*
X-307250Y327910D02*
G03*
X-312720Y322440I0J-5470D01*
G01*
Y322440D02*
G03*
X-307250Y316970I5470J0D01*
G01*
X-298720Y314800D02*
G03*
X-300890Y316970I-2170J-0D01*
G01*
Y312630D02*
G03*
X-298720Y314800I0J2170D01*
G01*
X-307250Y312630D02*
G03*
X-312720Y307160I0J-5470D01*
G01*
Y307160D02*
G03*
X-307250Y301690I5470J0D01*
G01*
X-298720Y299520D02*
G03*
X-300890Y301690I-2170J-0D01*
G01*
Y297350D02*
G03*
X-298720Y299520I0J2170D01*
G01*
X-307250Y297350D02*
G03*
X-312720Y291880I0J-5470D01*
G01*
Y291880D02*
G03*
X-307250Y286410I5470J0D01*
G01*
X-298720Y284240D02*
G03*
X-300890Y286410I-2170J-0D01*
G01*
Y282070D02*
G03*
X-298720Y284240I0J2170D01*
G01*
X-307250Y282070D02*
G03*
X-312720Y276600I0J-5470D01*
G01*
Y276600D02*
G03*
X-307250Y271130I5470J0D01*
G01*
X-305720Y269600D02*
G03*
X-307250Y271130I-1530J0D01*
G01*
Y266790D02*
G03*
X-305720Y268320I0J1530D01*
G01*
X-307250Y266790D02*
G03*
X-312720Y261320I0J-5470D01*
G01*
Y261320D02*
G03*
X-307250Y255850I5470J0D01*
G01*
X-305720Y255000D02*
G03*
X-306570Y255850I-850J0D01*
G01*
X-335720Y395360D02*
G03*
X-332890Y392530I2830J0D01*
G01*
X-330720Y390360D02*
G03*
X-332890Y392530I-2170J-0D01*
G01*
Y388190D02*
G03*
X-330720Y390360I0J2170D01*
G01*
X-335250Y388190D02*
G03*
X-340720Y382720I0J-5470D01*
G01*
Y382720D02*
G03*
X-335250Y377250I5470J0D01*
G01*
X-330720Y375080D02*
G03*
X-332890Y377250I-2170J-0D01*
G01*
Y372910D02*
G03*
X-330720Y375080I0J2170D01*
G01*
X-335250Y372910D02*
G03*
X-340720Y367440I0J-5470D01*
G01*
Y367440D02*
G03*
X-335250Y361970I5470J0D01*
G01*
X-330720Y359800D02*
G03*
X-332890Y361970I-2170J-0D01*
G01*
Y357630D02*
G03*
X-330720Y359800I0J2170D01*
G01*
X-335250Y357630D02*
G03*
X-340720Y352160I0J-5470D01*
G01*
Y352160D02*
G03*
X-335250Y346690I5470J0D01*
G01*
X-330720Y344520D02*
G03*
X-332890Y346690I-2170J-0D01*
G01*
Y342350D02*
G03*
X-330720Y344520I0J2170D01*
G01*
X-335250Y342350D02*
G03*
X-340720Y336880I0J-5470D01*
G01*
Y336880D02*
G03*
X-335250Y331410I5470J0D01*
G01*
X-330720Y329240D02*
G03*
X-332890Y331410I-2170J-0D01*
G01*
Y327070D02*
G03*
X-330720Y329240I0J2170D01*
G01*
X-335250Y327070D02*
G03*
X-340720Y321600I0J-5470D01*
G01*
Y321600D02*
G03*
X-335250Y316130I5470J0D01*
G01*
X-330720Y313960D02*
G03*
X-332890Y316130I-2170J-0D01*
G01*
Y311790D02*
G03*
X-330720Y313960I0J2170D01*
G01*
X-332890Y311790D02*
G03*
X-335720Y308960I0J-2830D01*
G01*
X-327420Y390360D02*
G03*
X-332420Y395810I-5470J-0D01*
G01*
X-332890Y384890D02*
G03*
X-327420Y390360I0J5470D01*
G01*
X-335250Y384890D02*
G03*
X-337420Y382720I0J-2170D01*
G01*
Y382720D02*
G03*
X-335250Y380550I2170J0D01*
G01*
X-327420Y375080D02*
G03*
X-332890Y380550I-5470J-0D01*
G01*
Y369610D02*
G03*
X-327420Y375080I0J5470D01*
G01*
X-335250Y369610D02*
G03*
X-337420Y367440I0J-2170D01*
G01*
Y367440D02*
G03*
X-335250Y365270I2170J0D01*
G01*
X-327420Y359800D02*
G03*
X-332890Y365270I-5470J-0D01*
G01*
Y354330D02*
G03*
X-327420Y359800I0J5470D01*
G01*
X-335250Y354330D02*
G03*
X-337420Y352160I0J-2170D01*
G01*
Y352160D02*
G03*
X-335250Y349990I2170J0D01*
G01*
X-327420Y344520D02*
G03*
X-332890Y349990I-5470J-0D01*
G01*
Y339050D02*
G03*
X-327420Y344520I0J5470D01*
G01*
X-335250Y339050D02*
G03*
X-337420Y336880I0J-2170D01*
G01*
Y336880D02*
G03*
X-335250Y334710I2170J0D01*
G01*
X-327420Y329240D02*
G03*
X-332890Y334710I-5470J-0D01*
G01*
Y323770D02*
G03*
X-327420Y329240I0J5470D01*
G01*
X-335250Y323770D02*
G03*
X-337420Y321600I0J-2170D01*
G01*
Y321600D02*
G03*
X-335250Y319430I2170J0D01*
G01*
X-327420Y313960D02*
G03*
X-332890Y319430I-5470J-0D01*
G01*
X-332420Y308510D02*
G03*
X-327420Y313960I-470J5450D01*
G01*
X-690956Y384860D02*
G03*
X-689926Y383830I1030J0D01*
G01*
X-684456Y378360D02*
G03*
X-689926Y383830I-5470J-0D01*
G01*
Y372890D02*
G03*
X-684456Y378360I0J5470D01*
G01*
X-689926Y372890D02*
G03*
X-690956Y371860I0J-1030D01*
G01*
Y369580D02*
G03*
X-689926Y368550I1030J0D01*
G01*
X-684456Y363080D02*
G03*
X-689926Y368550I-5470J-0D01*
G01*
Y357610D02*
G03*
X-684456Y363080I0J5470D01*
G01*
X-689926Y357610D02*
G03*
X-690956Y356580I0J-1030D01*
G01*
Y354300D02*
G03*
X-689926Y353270I1030J0D01*
G01*
X-684456Y347800D02*
G03*
X-689926Y353270I-5470J-0D01*
G01*
Y342330D02*
G03*
X-684456Y347800I0J5470D01*
G01*
X-689926Y342330D02*
G03*
X-690956Y341300I0J-1030D01*
G01*
X-694256Y384860D02*
G03*
X-689926Y380530I4330J0D01*
G01*
X-687756Y378360D02*
G03*
X-689926Y380530I-2170J-0D01*
G01*
Y376190D02*
G03*
X-687756Y378360I0J2170D01*
G01*
X-689926Y376190D02*
G03*
X-694256Y371860I0J-4330D01*
G01*
Y369580D02*
G03*
X-689926Y365250I4330J0D01*
G01*
X-687756Y363080D02*
G03*
X-689926Y365250I-2170J-0D01*
G01*
Y360910D02*
G03*
X-687756Y363080I0J2170D01*
G01*
X-689926Y360910D02*
G03*
X-694256Y356580I0J-4330D01*
G01*
Y354300D02*
G03*
X-689926Y349970I4330J0D01*
G01*
X-687756Y347800D02*
G03*
X-689926Y349970I-2170J-0D01*
G01*
Y345630D02*
G03*
X-687756Y347800I0J2170D01*
G01*
X-689926Y345630D02*
G03*
X-694256Y341300I0J-4330D01*
G01*
X-682030Y321090D02*
G03*
X-677700Y325420I0J4330D01*
G01*
X-682030Y321090D02*
G03*
X-684200Y318920I0J-2170D01*
G01*
Y318920D02*
G03*
X-682030Y316750I2170J0D01*
G01*
X-677700Y312420D02*
G03*
X-682030Y316750I-4330J0D01*
G01*
Y305810D02*
G03*
X-677700Y310140I0J4330D01*
G01*
X-682030Y305810D02*
G03*
X-684200Y303640I0J-2170D01*
G01*
Y303640D02*
G03*
X-682030Y301470I2170J0D01*
G01*
X-677700Y297140D02*
G03*
X-682030Y301470I-4330J0D01*
G01*
Y324390D02*
G03*
X-681000Y325420I0J1030D01*
G01*
X-682030Y324390D02*
G03*
X-687500Y318920I0J-5470D01*
G01*
Y318920D02*
G03*
X-682030Y313450I5470J0D01*
G01*
X-681000Y312420D02*
G03*
X-682030Y313450I-1030J0D01*
G01*
Y309110D02*
G03*
X-681000Y310140I0J1030D01*
G01*
X-682030Y309110D02*
G03*
X-687500Y303640I0J-5470D01*
G01*
Y303640D02*
G03*
X-682030Y298170I5470J0D01*
G01*
X-681000Y297140D02*
G03*
X-682030Y298170I-1030J0D01*
G01*
X-619357Y233527D02*
G03*
X-619357Y227404I3062J-3062D01*
G01*
X-618722Y225869D02*
G03*
X-619357Y227404I-2170J0D01*
G01*
X-619352Y224340D02*
G03*
X-618722Y225869I-1539J1530D01*
G01*
X-622426Y224335D02*
G03*
X-619362Y224330I1534J1534D01*
G01*
X-626216Y228125D02*
G03*
X-633952Y228125I-3868J-3868D01*
G01*
X-633952Y228125D02*
G03*
X-633952Y220389I3868J-3868D01*
G01*
X-633650Y219661D02*
G03*
X-633952Y220389I-1030J0D01*
G01*
Y218933D02*
G03*
X-633650Y219661I-728J728D01*
G01*
X-617024Y231194D02*
G03*
X-617024Y229737I728J-728D01*
G01*
X-615422Y225869D02*
G03*
X-617024Y229737I-5470J0D01*
G01*
Y222001D02*
G03*
X-615422Y225869I-3868J3868D01*
G01*
X-624759Y222001D02*
G03*
X-617024Y222001I3868J3868D01*
G01*
X-628549Y225792D02*
G03*
X-631618Y225792I-1534J-1534D01*
G01*
X-631618Y225792D02*
G03*
X-631618Y222723I1534J-1534D01*
G01*
X-630350Y219661D02*
G03*
X-631618Y222723I-4330J0D01*
G01*
Y216599D02*
G03*
X-630350Y219661I-3062J3062D01*
G01*
X-669000Y442580D02*
G03*
X-664670Y438250I4330J0D01*
G01*
X-662500Y436080D02*
G03*
X-664670Y438250I-2170J-0D01*
G01*
Y433910D02*
G03*
X-662500Y436080I0J2170D01*
G01*
X-664670Y433910D02*
G03*
X-669000Y429580I0J-4330D01*
G01*
Y427300D02*
G03*
X-664670Y422970I4330J0D01*
G01*
X-662500Y420800D02*
G03*
X-664670Y422970I-2170J-0D01*
G01*
Y418630D02*
G03*
X-662500Y420800I0J2170D01*
G01*
X-664670Y418630D02*
G03*
X-669000Y414300I0J-4330D01*
G01*
Y412020D02*
G03*
X-664670Y407690I4330J0D01*
G01*
X-662500Y405520D02*
G03*
X-664670Y407690I-2170J-0D01*
G01*
Y403350D02*
G03*
X-662500Y405520I0J2170D01*
G01*
X-664670Y403350D02*
G03*
X-669000Y399020I0J-4330D01*
G01*
Y396740D02*
G03*
X-664670Y392410I4330J0D01*
G01*
X-662500Y390240D02*
G03*
X-664670Y392410I-2170J-0D01*
G01*
Y388070D02*
G03*
X-662500Y390240I0J2170D01*
G01*
X-664670Y388070D02*
G03*
X-669000Y383740I0J-4330D01*
G01*
Y381460D02*
G03*
X-664670Y377130I4330J0D01*
G01*
X-662500Y374960D02*
G03*
X-664670Y377130I-2170J-0D01*
G01*
Y372790D02*
G03*
X-662500Y374960I0J2170D01*
G01*
X-664670Y372790D02*
G03*
X-669000Y368460I0J-4330D01*
G01*
Y366180D02*
G03*
X-664670Y361850I4330J0D01*
G01*
X-662500Y359680D02*
G03*
X-664670Y361850I-2170J-0D01*
G01*
Y357510D02*
G03*
X-662500Y359680I0J2170D01*
G01*
X-664670Y357510D02*
G03*
X-669000Y353180I0J-4330D01*
G01*
Y350900D02*
G03*
X-664670Y346570I4330J0D01*
G01*
X-662500Y344400D02*
G03*
X-664670Y346570I-2170J-0D01*
G01*
Y342230D02*
G03*
X-662500Y344400I0J2170D01*
G01*
X-664670Y342230D02*
G03*
X-669000Y337900I0J-4330D01*
G01*
Y335620D02*
G03*
X-664670Y331290I4330J0D01*
G01*
X-662500Y329120D02*
G03*
X-664670Y331290I-2170J-0D01*
G01*
Y326950D02*
G03*
X-662500Y329120I0J2170D01*
G01*
X-664670Y326950D02*
G03*
X-669000Y322620I0J-4330D01*
G01*
Y320340D02*
G03*
X-664670Y316010I4330J0D01*
G01*
X-662500Y313840D02*
G03*
X-664670Y316010I-2170J-0D01*
G01*
Y311670D02*
G03*
X-662500Y313840I0J2170D01*
G01*
X-664670Y311670D02*
G03*
X-669000Y307340I0J-4330D01*
G01*
X-659200Y420800D02*
G03*
X-664670Y426270I-5470J-0D01*
G01*
Y384770D02*
G03*
X-659200Y390240I0J5470D01*
G01*
Y390240D02*
G03*
X-664670Y395710I-5470J-0D01*
G01*
X-659200Y374960D02*
G03*
X-664670Y380430I-5470J-0D01*
G01*
Y415330D02*
G03*
X-659200Y420800I0J5470D01*
G01*
X-664670Y400050D02*
G03*
X-659200Y405520I0J5470D01*
G01*
Y344400D02*
G03*
X-664670Y349870I-5470J-0D01*
G01*
Y354210D02*
G03*
X-659200Y359680I0J5470D01*
G01*
X-664670Y338930D02*
G03*
X-659200Y344400I0J5470D01*
G01*
X-664670Y369490D02*
G03*
X-659200Y374960I0J5470D01*
G01*
Y359680D02*
G03*
X-664670Y365150I-5470J-0D01*
G01*
Y308370D02*
G03*
X-659200Y313840I0J5470D01*
G01*
Y313840D02*
G03*
X-664670Y319310I-5470J-0D01*
G01*
X-659200Y329120D02*
G03*
X-664670Y334590I-5470J-0D01*
G01*
Y323650D02*
G03*
X-659200Y329120I0J5470D01*
G01*
Y436080D02*
G03*
X-664670Y441550I-5470J-0D01*
G01*
Y430610D02*
G03*
X-659200Y436080I0J5470D01*
G01*
X-665700Y442580D02*
G03*
X-664670Y441550I1030J0D01*
G01*
Y430610D02*
G03*
X-665700Y429580I0J-1030D01*
G01*
X-664670Y415330D02*
G03*
X-665700Y414300I0J-1030D01*
G01*
Y427300D02*
G03*
X-664670Y426270I1030J0D01*
G01*
X-659200Y405520D02*
G03*
X-664670Y410990I-5470J-0D01*
G01*
X-665700Y412020D02*
G03*
X-664670Y410990I1030J0D01*
G01*
Y400050D02*
G03*
X-665700Y399020I0J-1030D01*
G01*
Y366180D02*
G03*
X-664670Y365150I1030J0D01*
G01*
Y369490D02*
G03*
X-665700Y368460I0J-1030D01*
G01*
X-664670Y354210D02*
G03*
X-665700Y353180I0J-1030D01*
G01*
X-664670Y384770D02*
G03*
X-665700Y383740I0J-1030D01*
G01*
Y381460D02*
G03*
X-664670Y380430I1030J0D01*
G01*
Y308370D02*
G03*
X-665700Y307340I0J-1030D01*
G01*
Y320340D02*
G03*
X-664670Y319310I1030J0D01*
G01*
X-665700Y350900D02*
G03*
X-664670Y349870I1030J0D01*
G01*
Y338930D02*
G03*
X-665700Y337900I0J-1030D01*
G01*
Y396740D02*
G03*
X-664670Y395710I1030J0D01*
G01*
Y323650D02*
G03*
X-665700Y322620I0J-1030D01*
G01*
Y335620D02*
G03*
X-664670Y334590I1030J0D01*
G01*
X-346776Y94777D02*
X-308793Y132761D01*
X-348300Y265956D02*
Y394713D01*
X-368220Y414633D02*
X-348300Y394713D01*
X-359256Y255000D02*
X-348300Y265956D01*
X-367000Y255000D02*
X-359256D01*
X-368220Y414633D02*
Y419400D01*
X-368256Y262400D02*
X-366656Y264000D01*
X-368256Y256256D02*
Y262400D01*
X-369820Y421000D02*
X-368220Y419400D01*
X-368256Y256256D02*
X-367000Y255000D01*
X-364920Y416000D02*
X-345000Y396080D01*
X-364920Y416000D02*
Y419400D01*
X-345000Y264589D02*
Y396080D01*
X-357889Y251700D02*
X-345000Y264589D01*
X-364920Y419400D02*
X-363320Y421000D01*
X-373156Y264000D02*
X-371556Y262400D01*
Y254889D02*
X-368367Y251700D01*
X-357889D01*
X-371556Y254889D02*
Y262400D01*
X-302420Y352360D02*
X-302420Y501400D01*
X-307250Y339890D02*
X-300890D01*
X-307250Y335550D02*
X-300890D01*
X-307250Y324610D02*
X-300890D01*
X-307250Y320270D02*
X-300890D01*
X-307250Y309330D02*
X-300890D01*
X-307250Y304990D02*
X-300890D01*
X-307250Y294050D02*
X-300890D01*
X-307250Y289710D02*
X-300890D01*
X-307250Y278770D02*
X-300890D01*
X-302420Y268320D02*
Y269600D01*
X-307250Y259150D02*
X-306570D01*
X-302420Y255000D02*
X-302420Y249169D01*
X-305720Y352360D02*
Y501400D01*
X-307250Y343190D02*
X-300890D01*
X-307250Y332250D02*
X-300890D01*
X-307250Y327910D02*
X-300890D01*
X-307250Y316970D02*
X-300890D01*
X-307250Y312630D02*
X-300890D01*
X-307250Y301690D02*
X-300890D01*
X-307250Y297350D02*
X-300890D01*
X-307250Y286410D02*
X-300890D01*
X-307250Y282070D02*
X-300890D01*
X-305720Y268320D02*
Y269600D01*
X-307250Y255850D02*
X-306570D01*
X-305720Y250536D02*
Y255000D01*
X-325889Y225700D02*
X-302420Y249169D01*
X-327256Y229000D02*
X-305720Y250536D01*
X-344556Y225700D02*
X-325889D01*
X-345923Y229000D02*
X-327256D01*
X-347170Y223086D02*
X-344556Y225700D01*
X-350470Y224453D02*
X-345923Y229000D01*
X-347170Y217383D02*
Y223086D01*
X-350470Y217383D02*
Y224453D01*
X-287420Y269779D02*
Y501400D01*
X-290720Y269421D02*
Y501400D01*
X-335720Y395360D02*
Y501400D01*
X-335250Y388190D02*
X-332890D01*
X-335250Y377250D02*
X-332890D01*
X-335250Y372910D02*
X-332890D01*
X-335250Y361970D02*
X-332890D01*
X-335250Y357630D02*
X-332890D01*
X-335250Y346690D02*
X-332890D01*
X-335250Y342350D02*
X-332890D01*
X-335250Y331410D02*
X-332890D01*
X-335250Y327070D02*
X-332890D01*
X-335250Y316130D02*
X-332890D01*
X-335720Y260536D02*
Y308960D01*
X-332420Y395810D02*
X-332420Y501400D01*
X-335250Y384890D02*
X-332890D01*
X-335250Y380550D02*
X-332890D01*
X-335250Y369610D02*
X-332890D01*
X-335250Y365270D02*
X-332890D01*
X-335250Y354330D02*
X-332890D01*
X-335250Y349990D02*
X-332890D01*
X-335250Y339050D02*
X-332890D01*
X-335250Y334710D02*
X-332890D01*
X-335250Y323770D02*
X-332890D01*
X-335250Y319430D02*
X-332890D01*
X-332420Y308510D02*
X-332420Y259169D01*
X-360556Y235700D02*
X-335720Y260536D01*
X-357256Y234333D02*
X-332420Y259169D01*
X-360556Y207000D02*
Y235700D01*
X-357256Y205333D02*
Y234333D01*
X-364170Y207000D02*
X-360556D01*
X-367170Y210000D02*
X-364170Y207000D01*
X-367170Y210000D02*
Y214183D01*
X-358889Y203700D02*
X-357256Y205333D01*
X-365537Y203700D02*
X-358889D01*
X-370470Y208633D02*
X-365537Y203700D01*
X-370470Y208633D02*
Y214183D01*
X-337320Y503000D02*
X-335720Y501400D01*
X-245720Y504600D02*
Y524464D01*
X-242420Y504600D02*
Y525831D01*
X-254256Y533000D02*
X-245720Y524464D01*
X-252889Y536300D02*
X-242420Y525831D01*
X-671256Y533000D02*
X-254256D01*
X-672623Y536300D02*
X-252889D01*
X-690956Y513300D02*
X-671256Y533000D01*
X-694256Y514667D02*
X-672623Y536300D01*
X-690956Y384860D02*
X-690956Y513300D01*
X-690956Y369580D02*
Y371860D01*
Y354300D02*
Y356580D01*
Y341300D02*
X-690956Y278956D01*
X-694256Y384860D02*
Y514667D01*
Y369580D02*
Y371860D01*
Y354300D02*
Y356580D01*
Y277589D02*
Y341300D01*
X-690956Y278956D02*
X-679034Y267034D01*
X-694256Y277589D02*
X-682334Y265667D01*
X-679034Y253300D02*
Y267034D01*
X-682334Y254667D02*
Y265667D01*
X-689000Y243333D02*
X-679034Y253300D01*
X-692300Y244700D02*
X-682334Y254667D01*
X-689000Y237000D02*
Y243333D01*
X-692300Y235633D02*
Y244700D01*
X-689000Y237000D02*
X-682000Y230000D01*
X-692300Y235633D02*
X-683367Y226700D01*
X-682000Y230000D02*
X-677633D01*
X-683367Y226700D02*
X-679000D01*
X-677633Y230000D02*
X-671700Y224067D01*
X-679000Y226700D02*
X-675000Y222700D01*
X-671700Y207660D02*
Y224067D01*
X-675000Y209027D02*
Y222700D01*
X-684693Y194667D02*
X-671700Y207660D01*
X-687027Y197000D02*
X-675000Y209027D01*
X-696664Y197000D02*
X-687027D01*
X-687260Y192100D02*
X-684693Y194667D01*
X-699156Y192100D02*
X-687260D01*
X-260720Y504600D02*
Y520464D01*
X-257420Y504600D02*
Y521831D01*
X-266256Y526000D02*
X-260720Y520464D01*
X-264889Y529300D02*
X-257420Y521831D01*
X-664589Y526000D02*
X-266256D01*
X-665956Y529300D02*
X-264889D01*
X-677700Y512889D02*
X-664589Y526000D01*
X-681000Y514256D02*
X-665956Y529300D01*
X-677700Y325420D02*
X-677700Y512889D01*
X-677700Y310140D02*
Y312420D01*
Y297140D02*
X-677700Y288700D01*
X-681000Y325420D02*
Y514256D01*
Y310140D02*
Y312420D01*
Y287333D02*
Y297140D01*
X-677700Y288700D02*
X-666000Y277000D01*
X-681000Y287333D02*
X-667367Y273700D01*
X-666000Y277000D02*
X-640333D01*
X-667367Y273700D02*
X-641700D01*
X-640333Y277000D02*
X-632700Y269367D01*
X-641700Y273700D02*
X-636000Y268000D01*
X-632700Y258633D02*
Y269367D01*
X-636000Y260000D02*
Y268000D01*
X-641633Y249700D02*
X-632700Y258633D01*
X-643000Y253000D02*
X-636000Y260000D01*
X-661300Y249700D02*
X-641633D01*
X-662667Y253000D02*
X-643000D01*
X-666000Y245000D02*
X-661300Y249700D01*
X-669300Y246367D02*
X-662667Y253000D01*
X-666000Y238000D02*
Y245000D01*
X-669300Y236633D02*
Y246367D01*
X-666000Y238000D02*
X-661000Y233000D01*
X-669300Y236633D02*
X-662367Y229700D01*
X-661000Y233000D02*
X-649333D01*
X-662367Y229700D02*
X-650700D01*
X-649333Y233000D02*
X-642700Y226367D01*
X-650700Y229700D02*
X-646000Y225000D01*
X-642700Y218633D02*
Y226367D01*
X-646000Y220000D02*
Y225000D01*
X-651000Y210333D02*
X-642700Y218633D01*
X-654300Y211700D02*
X-646000Y220000D01*
X-651000Y197449D02*
Y210333D01*
X-656348Y192100D02*
X-651000Y197449D01*
X-660408Y192100D02*
X-656348D01*
X-664878Y196570D02*
X-660408Y192100D01*
X-659000Y284000D02*
X-634667D01*
X-659000Y287300D02*
X-633300D01*
X-634667Y284000D02*
X-627000Y276333D01*
X-633300Y287300D02*
X-623700Y277700D01*
X-627000Y258333D02*
Y276333D01*
X-623700Y259700D02*
Y277700D01*
X-627000Y258333D02*
X-614646Y245979D01*
X-623700Y259700D02*
X-611346Y247346D01*
X-614646Y238238D02*
Y245979D01*
X-611346Y236871D02*
Y247346D01*
X-619357Y233527D02*
X-614646Y238238D01*
X-626216Y228125D02*
X-622426Y224335D01*
X-644120Y208764D02*
X-633952Y218933D01*
X-617024Y231194D02*
X-611346Y236871D01*
X-628549Y225792D02*
X-624759Y222001D01*
X-640820Y207397D02*
X-631618Y216599D01*
X-644120Y199045D02*
Y208764D01*
X-640820Y198585D02*
Y207397D01*
X-272420Y504600D02*
Y515831D01*
X-277889Y521300D02*
X-272420Y515831D01*
X-660623Y521300D02*
X-277889D01*
X-669000Y512923D02*
X-660623Y521300D01*
X-669000Y442580D02*
Y512923D01*
Y427300D02*
Y429580D01*
Y412020D02*
Y414300D01*
Y396740D02*
Y399020D01*
Y381460D02*
Y383740D01*
Y366180D02*
Y368460D01*
Y350900D02*
Y353180D01*
Y335620D02*
Y337900D01*
Y320340D02*
Y322620D01*
Y290000D02*
Y307340D01*
Y290000D02*
X-663000Y284000D01*
X-659000D01*
Y287300D02*
X-656860D01*
X-661633Y287300D02*
X-659000Y287300D01*
X-665700Y442580D02*
X-665700Y483868D01*
X-665700Y427300D02*
Y429580D01*
Y412020D02*
Y414300D01*
Y366180D02*
Y368460D01*
Y381460D02*
Y383740D01*
Y350900D02*
Y353180D01*
Y396740D02*
Y399020D01*
Y320340D02*
Y322620D01*
Y335620D02*
Y337900D01*
X-275720Y504600D02*
Y514464D01*
X-279256Y518000D02*
X-275720Y514464D01*
X-659256Y518000D02*
X-279256D01*
X-277320Y503000D02*
X-275720Y504600D01*
X-665700Y488132D02*
Y490868D01*
Y511556D02*
X-659256Y518000D01*
X-665906Y494926D02*
X-665700Y495132D01*
Y511556D01*
X-665906Y491074D02*
Y494926D01*
Y491074D02*
X-665700Y490868D01*
X-665906Y487926D02*
X-665700Y488132D01*
X-665906Y484074D02*
Y487926D01*
Y484074D02*
X-665700Y483868D01*
Y291367D02*
X-661633Y287300D01*
X-665700Y291367D02*
Y307340D01*
X-640820Y198585D02*
X-639235Y197000D01*
X-272420Y504600D02*
X-270820Y503000D01*
X-644135Y199030D02*
X-644120Y199045D01*
X-644135Y198600D02*
Y199030D01*
X-645735Y197000D02*
X-644135Y198600D01*
X-664878Y196570D02*
Y197000D01*
X-262320Y503000D02*
X-260720Y504600D01*
X-654300Y199956D02*
Y211700D01*
X-657256Y197000D02*
X-654300Y199956D01*
X-658378Y197000D02*
X-657256D01*
X-257420Y504600D02*
X-255820Y503000D01*
X-654300Y211700D02*
X-654300D01*
X-703164Y195908D02*
Y197000D01*
Y195908D02*
X-699256Y192000D01*
X-699156Y192100D01*
X-247320Y503000D02*
X-245720Y504600D01*
X-242420D02*
X-240820Y503000D01*
X-702686Y205385D02*
X-702256D01*
X-707156Y209855D02*
X-702686Y205385D01*
X-705556Y215515D02*
Y498868D01*
X-702256Y211885D02*
Y516000D01*
X-705349Y500073D02*
Y503925D01*
X-705350Y500071D02*
X-705349Y500073D01*
X-705350Y499074D02*
Y500071D01*
X-705556Y498868D02*
X-705350Y499074D01*
X-705556Y504132D02*
Y517367D01*
Y504132D02*
X-705349Y503925D01*
X-702256Y516000D02*
X-677256Y541000D01*
X-287420Y269779D02*
X-285641Y268000D01*
X-292141D02*
X-290720Y269421D01*
X-707156Y209855D02*
Y213915D01*
X-705556Y215515D01*
X-501837Y262084D02*
X-489036D01*
X-504516Y264763D02*
Y270237D01*
Y264763D02*
X-501837Y262084D01*
X-489036D02*
X-486320Y264800D01*
X-486614Y265094D02*
Y270180D01*
Y265094D02*
X-486320Y264800D01*
X-236256Y541000D02*
X-230720Y535464D01*
Y504600D02*
Y535464D01*
X-677256Y541000D02*
X-236256D01*
X-232320Y503000D02*
X-230720Y504600D01*
X-234889Y544300D02*
X-227420Y536831D01*
X-678623Y544300D02*
X-234889D01*
X-227420Y504600D02*
Y536831D01*
Y504600D02*
X-225820Y503000D01*
X-705556Y517367D02*
X-678623Y544300D01*
X-317420Y501400D02*
X-315820Y503000D01*
X-317420Y258836D02*
Y501400D01*
X-307320Y503000D02*
X-305720Y501400D01*
X-302420D02*
X-300820Y503000D01*
X-352070Y215783D02*
X-350470Y217383D01*
X-347170D02*
X-345570Y215783D01*
X-287420Y501400D02*
X-285820Y503000D01*
X-292320D02*
X-290720Y501400D01*
X-333556Y247367D02*
X-320720Y260203D01*
X-330256Y241908D02*
X-327802Y239454D01*
X-330256Y241908D02*
Y246000D01*
X-322320Y503000D02*
X-320720Y501400D01*
Y260203D02*
Y501400D01*
X-333556Y236016D02*
Y247367D01*
Y236016D02*
X-332398Y234858D01*
X-330256Y246000D02*
X-317420Y258836D01*
X-332420Y501400D02*
X-330820Y503000D01*
X-372070Y215783D02*
X-370470Y214183D01*
X-367170D02*
X-365570Y215783D01*
X-348143Y98077D02*
X-312093Y134128D01*
X-567765Y102749D02*
Y107485D01*
Y102749D02*
X-561808Y96792D01*
X-564695Y104020D02*
X-558338Y97664D01*
X-564695Y104020D02*
Y107485D01*
X-561808Y92448D02*
Y96792D01*
X-558338Y92448D02*
Y97664D01*
X-486434Y270000D02*
X-485319D01*
X-486614Y270180D02*
X-486434Y270000D01*
X-365590Y105431D02*
X-364105Y106916D01*
X-365590Y103351D02*
Y105431D01*
X-308793Y132761D02*
Y177878D01*
X-368890Y101984D02*
X-361684Y94777D01*
X-346776D01*
X-370375Y106916D02*
X-368890Y105431D01*
Y101984D02*
Y105431D01*
X-360317Y98077D02*
X-348143D01*
X-365590Y103351D02*
X-360317Y98077D01*
X-312639Y177057D02*
X-312093Y176511D01*
Y134128D02*
Y176511D01*
X-499182Y90796D02*
X-495361Y94618D01*
Y98853D01*
X-492008Y93064D02*
Y97865D01*
X-495361Y98853D02*
X-493841Y100373D01*
Y102352D01*
X-492008Y97865D02*
X-490771Y99102D01*
X-493841Y102352D02*
X-489625Y106568D01*
X-497188Y87884D02*
X-492008Y93064D01*
X-490771Y99102D02*
Y100515D01*
X-488071Y103215D01*
D84*
X-541726Y310300D02*
G03*
X-544096Y312670I-2370J0D01*
G01*
X-547378Y315040D02*
G03*
X-545008Y312670I2370J0D01*
G01*
Y317410D02*
G03*
X-547378Y315040I0J-2370D01*
G01*
X-544096Y317410D02*
G03*
X-541726Y319780I0J2370D01*
G01*
D02*
G03*
X-544096Y322150I-2370J0D01*
G01*
X-547378Y324520D02*
G03*
X-545008Y322150I2370J0D01*
G01*
Y326890D02*
G03*
X-547378Y324520I0J-2370D01*
G01*
X-544096Y326890D02*
G03*
X-541726Y329260I0J2370D01*
G01*
X-524260Y322410D02*
G03*
X-526630Y320040I0J-2370D01*
G01*
X-523309Y322410D02*
G03*
X-520939Y324780I0J2370D01*
G01*
D02*
G03*
X-523309Y327150I-2370J0D01*
G01*
X-526630Y329520D02*
G03*
X-524260Y327150I2370J0D01*
G01*
Y331890D02*
G03*
X-526630Y329520I0J-2370D01*
G01*
X-523309Y331890D02*
G03*
X-520939Y334260I0J2370D01*
G01*
D02*
G03*
X-523309Y336630I-2370J0D01*
G01*
X-526630Y339000D02*
G03*
X-524260Y336630I2370J0D01*
G01*
X-541726Y334000D02*
Y340563D01*
Y275437D02*
Y306000D01*
Y310300D01*
X-545008Y312670D02*
X-544096D01*
X-545008Y317410D02*
X-544096D01*
X-545008Y322150D02*
X-544096D01*
X-545008Y326890D02*
X-544096D01*
X-541726Y329260D02*
Y331630D01*
Y334000D01*
X-526630Y339000D02*
Y367281D01*
Y282162D02*
Y318750D01*
Y320040D01*
X-524260Y322410D02*
X-523309D01*
X-524260Y327150D02*
X-523309D01*
X-524260Y331890D02*
X-523309D01*
X-524260Y336630D02*
X-523309D01*
X-417335Y421079D02*
X-371256Y375000D01*
X-417335Y421079D02*
Y507600D01*
X-530100Y281752D02*
Y365844D01*
X-538256Y274000D02*
Y342000D01*
X-531705Y280147D02*
X-530100Y281752D01*
X-533068Y157335D02*
X-525736Y150003D01*
X-537497Y157335D02*
X-533068D01*
X-534506Y153865D02*
X-529206Y148565D01*
X-538934Y153865D02*
X-534506D01*
X-541516Y156447D02*
X-538934Y153865D01*
X-525736Y138949D02*
Y150003D01*
X-516828Y140396D02*
X-509627D01*
X-521188Y136037D02*
X-516828Y140396D01*
X-521188Y131712D02*
Y136037D01*
X-515390Y136926D02*
X-508189D01*
X-517718Y134599D02*
X-515390Y136926D01*
X-517718Y131712D02*
Y134599D01*
X-530419Y134267D02*
X-525736Y138949D01*
X-553905Y271649D02*
X-551256Y269000D01*
X-543256D01*
X-538256Y274000D01*
X-544693Y272470D02*
X-541726Y275437D01*
X-546726Y272470D02*
X-544693D01*
X-547635Y273379D02*
X-546726Y272470D01*
X-547635Y273379D02*
Y279845D01*
X-231521Y98000D02*
X-140349D01*
X-232958Y101470D02*
X-141786D01*
X-133786Y104563D02*
Y111437D01*
X-140349Y98000D02*
X-133786Y104563D01*
X-143656Y130610D02*
X-142256Y132010D01*
X-152693Y130610D02*
X-143656D01*
X-139786Y112530D02*
X-137256Y110000D01*
X-150693Y112530D02*
X-139786D01*
X-156726Y126577D02*
X-152693Y130610D01*
X-156726Y118563D02*
X-150693Y112530D01*
X-156726Y118563D02*
Y126577D01*
X-239991Y94437D02*
X-232958Y101470D01*
X-239991Y91400D02*
Y94437D01*
X-241391Y90000D02*
X-239991Y91400D01*
X-143656Y127140D02*
X-142256Y125740D01*
X-151256Y127140D02*
X-143656D01*
X-153256Y125140D02*
X-151256Y127140D01*
X-153256Y120000D02*
Y125140D01*
X-134786Y112437D02*
Y112437D01*
Y112437D02*
X-133786Y111437D01*
X-138349Y116000D02*
X-134786Y112437D01*
X-153256Y120000D02*
X-149256Y116000D01*
X-138349D01*
X-236521Y93000D02*
X-231521Y98000D01*
X-236521Y91400D02*
Y93000D01*
Y91400D02*
X-235121Y90000D01*
X-137256Y106000D02*
Y110000D01*
X-141786Y101470D02*
X-137256Y106000D01*
X-555805Y354642D02*
Y506038D01*
X-553905Y271649D02*
Y279845D01*
X-371256Y309604D02*
Y375000D01*
X-391230Y289630D02*
X-371256Y309604D01*
X-417335Y507600D02*
X-415935Y509000D01*
X-400256Y289630D02*
X-391230D01*
X-402236Y287650D02*
X-400256Y289630D01*
X-402236Y282000D02*
Y287650D01*
X-402938Y282702D02*
X-402236Y282000D01*
X-538726Y468987D02*
X-531693Y476020D01*
X-535256Y464750D02*
X-530256Y469750D01*
X-531693Y476020D02*
X-530256D01*
X-526630Y282162D02*
X-525025Y280557D01*
X-557205Y507438D02*
X-555805Y506038D01*
X-552335D02*
X-550935Y507438D01*
X-560087Y125602D02*
X-558685Y127004D01*
X-560087Y117107D02*
Y125602D01*
X-563557Y118544D02*
Y125605D01*
X-567965Y114136D02*
X-563557Y118544D01*
X-567965Y107685D02*
Y114136D01*
X-564495Y107685D02*
Y112699D01*
X-560087Y117107D01*
X-561808Y89566D02*
Y92448D01*
Y89566D02*
X-556886Y84644D01*
X-558338Y91003D02*
X-555449Y88114D01*
X-558338Y91003D02*
Y92448D01*
X-538046Y157885D02*
X-537497Y157335D01*
X-545085Y149154D02*
X-543685Y150554D01*
X-542916Y162336D02*
X-542686D01*
X-541516Y156447D02*
Y161166D01*
X-542686Y162336D02*
X-541516Y161166D01*
X-549955Y150554D02*
X-548555Y149154D01*
X-538046Y157885D02*
Y161166D01*
X-536876Y162336D01*
X-536646D01*
X-556886Y84644D02*
X-548622D01*
X-545506Y87760D01*
Y93345D01*
X-543241Y95610D01*
X-555449Y88114D02*
X-550059D01*
X-548976Y89197D01*
Y93345D01*
X-551241Y95610D02*
X-548976Y93345D01*
X-517718Y131712D02*
X-516318Y130312D01*
X-522588D02*
X-521188Y131712D01*
X-509955Y149852D02*
X-508555Y148452D01*
X-505085D02*
X-503685Y149852D01*
X-564955Y127004D02*
X-563557Y125605D01*
X-548555Y143178D02*
Y149154D01*
X-545085Y144615D02*
Y149154D01*
X-539644Y134267D02*
X-538628Y133250D01*
X-539644Y134267D02*
X-539644D01*
X-548555Y143178D02*
X-539644Y134267D01*
X-505085Y140031D02*
Y148452D01*
X-509627Y140396D02*
X-508555Y141468D01*
Y148452D01*
X-508189Y136926D02*
X-505085Y140031D01*
X-529206Y140387D02*
Y148565D01*
X-530419Y134267D02*
X-530419D01*
X-545085Y144615D02*
X-537191Y136720D01*
X-532872D01*
X-529206Y140387D01*
X-538628Y133250D02*
X-531435D01*
X-530419Y134267D01*
X-535256Y375907D02*
Y464750D01*
Y375907D02*
X-526630Y367281D01*
X-537710Y373454D02*
X-530100Y365844D01*
X-537710Y373454D02*
Y373454D01*
X-538726Y374470D02*
X-537710Y373454D01*
X-538726Y374470D02*
Y468987D01*
X-552335Y356079D02*
Y506038D01*
Y356079D02*
X-538256Y342000D01*
X-555805Y354642D02*
X-541726Y340563D01*
X-505506Y90995D02*
X-503467Y88956D01*
X-501023D01*
X-505506Y93345D02*
X-503241Y95610D01*
X-505506Y90995D02*
Y93345D01*
X-501023Y88956D02*
X-499182Y90796D01*
X-490085Y127061D02*
X-488685Y125661D01*
X-490085Y128953D02*
X-488384Y130655D01*
X-490085Y127061D02*
Y128953D01*
X-488384Y130655D02*
X-486673D01*
X-483987Y112206D02*
Y127968D01*
X-486673Y130655D02*
X-483987Y127968D01*
X-508976Y89558D02*
Y93345D01*
X-511241Y95610D02*
X-508976Y93345D01*
X-504904Y85486D02*
X-499585D01*
X-508976Y89558D02*
X-504904Y85486D01*
X-494955Y125661D02*
X-493555Y127061D01*
X-488071Y103215D02*
X-480517Y110769D01*
Y129405D01*
X-493555Y127061D02*
Y130391D01*
X-489821Y134125D02*
X-485236D01*
X-480517Y129405D01*
X-493555Y130391D02*
X-489821Y134125D01*
X-489625Y106568D02*
X-483987Y112206D01*
X-499585Y85486D02*
X-497188Y87884D01*
X-423726Y232530D02*
X-359256Y297000D01*
Y379921D01*
X-402335Y423000D02*
X-359256Y379921D01*
X-402335Y507600D02*
X-400935Y509000D01*
X-402335Y423000D02*
Y507600D01*
X-428856Y232530D02*
X-423726D01*
X-430256Y231130D02*
X-428856Y232530D01*
X-425163Y236000D02*
X-362726Y298437D01*
X-407205Y509000D02*
X-405805Y507600D01*
X-362726Y298437D02*
Y378484D01*
X-405805Y421563D02*
X-362726Y378484D01*
X-405805Y421563D02*
Y507600D01*
X-428856Y236000D02*
X-425163D01*
X-430256Y237400D02*
X-428856Y236000D01*
D91*
X-503241Y95610D02*
D03*
X-511241D02*
D03*
X-543241D02*
D03*
X-551241D02*
D03*
X-523241Y102610D02*
D03*
D98*
X-369820Y421000D02*
D03*
X-366656Y264000D02*
D03*
X-363320Y421000D02*
D03*
X-373156Y264000D02*
D03*
X-653000Y297000D02*
D03*
X-277320Y503000D02*
D03*
X-639235Y197000D02*
D03*
X-270820Y503000D02*
D03*
X-645735Y197000D02*
D03*
X-664878D02*
D03*
X-262320Y503000D02*
D03*
X-658378Y197000D02*
D03*
X-255820Y503000D02*
D03*
X-703164Y197000D02*
D03*
X-247320Y503000D02*
D03*
X-696664Y197000D02*
D03*
X-240820Y503000D02*
D03*
X-565000Y473000D02*
D03*
X-126276Y248000D02*
D03*
X-228420Y422000D02*
D03*
X-120006Y248000D02*
D03*
X-234720Y422000D02*
D03*
X-100456Y249000D02*
D03*
X-249720Y422000D02*
D03*
X-106756Y249000D02*
D03*
X-243420Y422000D02*
D03*
X-733256Y464000D02*
D03*
X-149000Y169000D02*
D03*
X-285641Y268000D02*
D03*
X-553905Y279845D02*
D03*
X-480000Y423000D02*
D03*
X-292141Y268000D02*
D03*
X-279256Y377000D02*
D03*
X-427000Y374000D02*
D03*
X-501000Y425000D02*
D03*
X-738000Y477000D02*
D03*
X-730000Y505000D02*
D03*
X-794000Y142000D02*
D03*
X-885000Y130000D02*
D03*
X-794000Y94000D02*
D03*
X-478000Y247000D02*
D03*
X-507076Y239004D02*
D03*
X-746000Y505000D02*
D03*
X-788000Y336000D02*
D03*
X-264000Y205000D02*
D03*
X-530256Y476020D02*
D03*
X-11256Y298000D02*
D03*
X-239256Y229000D02*
D03*
X-725256Y473000D02*
D03*
X-649256Y465000D02*
D03*
Y473000D02*
D03*
X-619256Y426000D02*
D03*
X-634256D02*
D03*
X-814256Y243000D02*
D03*
X-702256Y211885D02*
D03*
X-714256Y281000D02*
D03*
X-628119Y319225D02*
D03*
X-525025Y280557D02*
D03*
X-536646Y162336D02*
D03*
X-542916D02*
D03*
X-468505Y265250D02*
D03*
X-566320Y255000D02*
D03*
X-567889Y261524D02*
D03*
X-411256Y377000D02*
D03*
X-250256Y93000D02*
D03*
X-209256Y73000D02*
D03*
X-142256Y132010D02*
D03*
X-241391Y90000D02*
D03*
X-142256Y125740D02*
D03*
X-235121Y90000D02*
D03*
X-266256Y122000D02*
D03*
X-420695Y351823D02*
D03*
X-811256Y326000D02*
D03*
X-570257Y354000D02*
D03*
X-576906Y261316D02*
D03*
X-563256Y354000D02*
D03*
X-843256Y78000D02*
D03*
X-529619Y236500D02*
D03*
X-503708Y247845D02*
D03*
X-487674Y217136D02*
D03*
X-457543Y229697D02*
D03*
X-459781Y219796D02*
D03*
X-504516Y270237D02*
D03*
X-415935Y509000D02*
D03*
X-422205D02*
D03*
X-408506Y282000D02*
D03*
X-402236D02*
D03*
X-45256Y294986D02*
D03*
Y288716D02*
D03*
X-144720Y425000D02*
D03*
X-138420D02*
D03*
X-516707Y510451D02*
D03*
X-550935Y507438D02*
D03*
X-557205D02*
D03*
X-232320Y503000D02*
D03*
X-225820D02*
D03*
X-702256Y205385D02*
D03*
X-531705Y280147D02*
D03*
X-341256Y419000D02*
D03*
X-380256Y506000D02*
D03*
X-296707Y510451D02*
D03*
X-281707D02*
D03*
X-530256Y469750D02*
D03*
X-547635Y279845D02*
D03*
X-544207Y428451D02*
D03*
X-529207D02*
D03*
X-514207D02*
D03*
X-489207D02*
D03*
X-459207D02*
D03*
X-384207D02*
D03*
X-591707Y510451D02*
D03*
X-531707D02*
D03*
X-206707D02*
D03*
X-221707D02*
D03*
X-451707D02*
D03*
X-466707D02*
D03*
X-481707D02*
D03*
X-330820Y503000D02*
D03*
X-337320D02*
D03*
X-322320D02*
D03*
X-326707Y510451D02*
D03*
X-311707D02*
D03*
X-315820Y503000D02*
D03*
X-251707Y510451D02*
D03*
X-307320Y503000D02*
D03*
X-292320D02*
D03*
X-300820D02*
D03*
X-285820D02*
D03*
X-236707Y510451D02*
D03*
X-266707D02*
D03*
X-352070Y215783D02*
D03*
X-345570D02*
D03*
X-327802Y239454D02*
D03*
X-332398Y234858D02*
D03*
X-372070Y215783D02*
D03*
X-365570D02*
D03*
X-425320Y198000D02*
D03*
X-616320Y39000D02*
D03*
X-764320Y16000D02*
D03*
X-591320Y217000D02*
D03*
X-564955Y127004D02*
D03*
X-601320Y16000D02*
D03*
X-558685Y127004D02*
D03*
X-286320Y111000D02*
D03*
X-296320Y157000D02*
D03*
X-444320Y211000D02*
D03*
X-617319Y100000D02*
D03*
X-615320Y50000D02*
D03*
X-765320Y182000D02*
D03*
X-636320Y124000D02*
D03*
X-740320Y238000D02*
D03*
X-485319Y270000D02*
D03*
X-741320Y130000D02*
D03*
X-364105Y106916D02*
D03*
X-745320Y115000D02*
D03*
X-370375Y106916D02*
D03*
X-307319Y179000D02*
D03*
X-314319D02*
D03*
X-543685Y150554D02*
D03*
X-465400Y337028D02*
D03*
Y342028D02*
D03*
X-425970Y356904D02*
D03*
X-426356Y336706D02*
D03*
X-420502Y341788D02*
D03*
X-628119Y343937D02*
D03*
X-549955Y150554D02*
D03*
X-670106Y126721D02*
D03*
X-655106D02*
D03*
X-550265Y220000D02*
D03*
X-509955Y149852D02*
D03*
X-576658Y64455D02*
D03*
X-503685Y149852D02*
D03*
X-516318Y130312D02*
D03*
X-530789Y124439D02*
D03*
X-522588Y130312D02*
D03*
X-951000Y470000D02*
D03*
Y333000D02*
D03*
X-920000Y422000D02*
D03*
X-864256Y78000D02*
D03*
X-906000Y59000D02*
D03*
X-458000Y368000D02*
D03*
X-460591Y329000D02*
D03*
X-55000Y177000D02*
D03*
X-174720Y424000D02*
D03*
X-92256Y278701D02*
D03*
X-168420Y424000D02*
D03*
X-92256Y285001D02*
D03*
X-488685Y125661D02*
D03*
X-494955D02*
D03*
X-400935Y509000D02*
D03*
X-430256Y231130D02*
D03*
X-407205Y509000D02*
D03*
X-430256Y237400D02*
D03*
D103*
X-61256Y78760D02*
D03*
D106*
X-872966Y238600D02*
D03*
X-956866D02*
D03*
D110*
X-981000Y494000D02*
D03*
D136*
X-567965Y107685D02*
X-567765Y107485D01*
X-564695D02*
X-564495Y107685D01*
M02*
