%FSLAX44Y44*%
%MOMM*%
G71*
G01*
G75*
G04 Layer_Color=255*
%ADD10C,0.2500*%
%ADD11R,0.3000X0.3000*%
%ADD12R,0.4500X1.3800*%
%ADD13R,0.7620X0.7620*%
%ADD14R,0.6000X0.5500*%
%ADD15R,0.7620X0.7620*%
%ADD16R,0.6200X0.5700*%
%ADD17R,0.9500X0.9500*%
%ADD18R,0.9600X0.9700*%
%ADD19R,0.5500X1.5000*%
%ADD20R,0.9500X0.9500*%
%ADD21R,1.0000X0.6000*%
%ADD22R,0.5500X0.6000*%
%ADD23R,1.2000X3.0000*%
%ADD24R,0.6000X1.0000*%
%ADD25R,1.5500X1.5500*%
%ADD26O,0.6000X0.3000*%
%ADD27R,0.5000X0.4000*%
%ADD28R,0.5700X0.6200*%
%ADD29R,2.4000X1.5000*%
%ADD30R,0.5900X0.4500*%
%ADD31R,0.3500X0.8500*%
%ADD32R,0.2000X1.0000*%
%ADD33R,0.3000X1.2000*%
%ADD34R,3.2000X1.2000*%
%ADD35R,0.4500X0.2000*%
%ADD36R,0.5000X0.2000*%
%ADD37R,0.2000X0.4500*%
%ADD38R,0.2000X0.5000*%
%ADD39R,0.4500X0.5900*%
%ADD40R,0.3000X1.4500*%
%ADD41R,1.1000X1.4000*%
%ADD42R,0.2300X1.0000*%
%ADD43R,0.4000X0.5500*%
%ADD44R,0.3000X0.5500*%
%ADD45R,1.2500X1.7500*%
%ADD46R,0.9700X0.9600*%
%ADD47R,2.1000X2.1000*%
%ADD48R,0.2500X0.6000*%
%ADD49R,0.6000X0.2500*%
%ADD50O,0.5000X1.6000*%
%ADD51R,0.3000X0.3000*%
%ADD52R,1.0160X1.7000*%
%ADD53R,1.0160X1.7000*%
%ADD54R,1.0000X1.5000*%
%ADD55O,0.3000X0.8000*%
%ADD56O,0.8000X0.3000*%
G04:AMPARAMS|DCode=57|XSize=0.75mm|YSize=1.6mm|CornerRadius=0.075mm|HoleSize=0mm|Usage=FLASHONLY|Rotation=270.000|XOffset=0mm|YOffset=0mm|HoleType=Round|Shape=RoundedRectangle|*
%AMROUNDEDRECTD57*
21,1,0.7500,1.4500,0,0,270.0*
21,1,0.6000,1.6000,0,0,270.0*
1,1,0.1500,-0.7250,-0.3000*
1,1,0.1500,-0.7250,0.3000*
1,1,0.1500,0.7250,0.3000*
1,1,0.1500,0.7250,-0.3000*
%
%ADD57ROUNDEDRECTD57*%
G04:AMPARAMS|DCode=58|XSize=0.6mm|YSize=1.8mm|CornerRadius=0.06mm|HoleSize=0mm|Usage=FLASHONLY|Rotation=270.000|XOffset=0mm|YOffset=0mm|HoleType=Round|Shape=RoundedRectangle|*
%AMROUNDEDRECTD58*
21,1,0.6000,1.6800,0,0,270.0*
21,1,0.4800,1.8000,0,0,270.0*
1,1,0.1200,-0.8400,-0.2400*
1,1,0.1200,-0.8400,0.2400*
1,1,0.1200,0.8400,0.2400*
1,1,0.1200,0.8400,-0.2400*
%
%ADD58ROUNDEDRECTD58*%
G04:AMPARAMS|DCode=59|XSize=1.3mm|YSize=0.7mm|CornerRadius=0.07mm|HoleSize=0mm|Usage=FLASHONLY|Rotation=270.000|XOffset=0mm|YOffset=0mm|HoleType=Round|Shape=RoundedRectangle|*
%AMROUNDEDRECTD59*
21,1,1.3000,0.5600,0,0,270.0*
21,1,1.1600,0.7000,0,0,270.0*
1,1,0.1400,-0.2800,-0.5800*
1,1,0.1400,-0.2800,0.5800*
1,1,0.1400,0.2800,0.5800*
1,1,0.1400,0.2800,-0.5800*
%
%ADD59ROUNDEDRECTD59*%
%ADD60R,3.2000X3.2000*%
%ADD61R,0.7500X0.3000*%
%ADD62R,0.3000X0.7500*%
%ADD63R,1.0160X1.2700*%
%ADD64R,0.4000X0.9000*%
%ADD65R,0.4000X0.5000*%
%ADD66R,1.3900X1.4000*%
%ADD67R,3.3600X4.8600*%
%ADD68R,1.4000X1.1000*%
%ADD69R,0.8500X0.3560*%
%ADD70R,2.6000X3.0000*%
%ADD71R,0.3000X1.7500*%
%ADD72R,2.0000X3.5000*%
%ADD73R,3.4000X2.4000*%
%ADD74R,1.7000X1.0160*%
%ADD75R,1.7000X1.0160*%
%ADD76R,1.4000X2.1000*%
%ADD77R,2.3700X1.9000*%
%ADD78R,1.1750X1.9000*%
%ADD79C,0.2000*%
%ADD80C,0.3000*%
%ADD81C,0.1500*%
%ADD82C,0.4000*%
%ADD83C,0.1800*%
%ADD84C,0.2200*%
%ADD85C,0.3500*%
%ADD86R,2.1000X10.0000*%
%ADD87R,2.6000X6.8000*%
%ADD88R,4.4000X3.2000*%
%ADD89R,2.2000X13.7000*%
%ADD90O,1.0000X1.6000*%
%ADD91C,0.6500*%
%ADD92C,6.0000*%
%ADD93O,1.2000X1.7000*%
%ADD94O,1.2000X1.9000*%
%ADD95C,0.7500*%
%ADD96O,1.4000X2.8500*%
%ADD97O,1.2000X2.2500*%
%ADD98C,0.5000*%
%ADD99C,1.5000*%
%ADD100R,1.5000X1.5000*%
%ADD101O,4.5000X2.0000*%
%ADD102O,2.0000X4.0000*%
%ADD103O,4.0000X2.0000*%
%ADD104C,1.7000*%
%ADD105C,3.2500*%
%ADD106C,1.6500*%
%ADD107C,2.6000*%
%ADD108C,1.9000*%
%ADD109R,1.7000X1.7000*%
%ADD110C,0.6000*%
%ADD111C,1.0160*%
%ADD112R,3.4000X0.8000*%
%ADD113R,6.2000X1.5000*%
%ADD114O,1.6160X2.2160*%
%ADD115C,1.4160*%
%ADD116C,4.7160*%
%ADD117O,1.6160X2.1160*%
%ADD118O,1.6160X2.3160*%
%ADD119C,1.5660*%
%ADD120C,2.0160*%
%ADD121O,1.9160X3.3660*%
%ADD122O,1.7160X2.7560*%
%ADD123C,1.9160*%
%ADD124C,2.0360*%
%ADD125O,2.0160X4.0160*%
%ADD126O,4.0160X2.0160*%
%ADD127C,1.9060*%
%ADD128C,4.2660*%
%ADD129C,2.0360*%
%ADD130C,2.7160*%
%ADD131C,2.6160*%
%ADD132C,2.1160*%
%ADD133C,1.1660*%
%ADD134C,1.2660*%
%ADD135C,1.2160*%
%ADD136C,0.0000*%
%ADD137C,0.0051*%
%ADD138O,4.5160X2.0160*%
%ADD139R,1.2000X0.3000*%
%ADD140R,2.7000X3.0000*%
%ADD141R,3.0000X2.7000*%
D11*
X-867756Y64750D02*
D03*
X-860756D02*
D03*
X-864256Y73250D02*
D03*
X-500856Y162320D02*
D03*
X-497356Y170820D02*
D03*
X-504356D02*
D03*
X-704339Y58512D02*
D03*
X-697339D02*
D03*
X-700839Y50012D02*
D03*
X-843256Y73250D02*
D03*
X-846756Y64750D02*
D03*
X-839756D02*
D03*
D12*
X-864256Y45630D02*
D03*
X-857756D02*
D03*
X-877256D02*
D03*
X-870756D02*
D03*
X-851256D02*
D03*
D16*
X-680337Y51047D02*
D03*
Y41447D02*
D03*
X-689615Y51047D02*
D03*
Y41447D02*
D03*
D17*
X-896000Y129750D02*
D03*
Y144250D02*
D03*
D33*
X-590905Y496190D02*
D03*
X-585906D02*
D03*
X-600905D02*
D03*
X-595906D02*
D03*
X-575906D02*
D03*
X-570905D02*
D03*
X-510905D02*
D03*
X-505906D02*
D03*
X-500905D02*
D03*
X-495906D02*
D03*
X-485906D02*
D03*
X-480905D02*
D03*
X-580905D02*
D03*
X-565906D02*
D03*
X-560905D02*
D03*
X-555906D02*
D03*
X-550905D02*
D03*
X-545906D02*
D03*
X-540905D02*
D03*
X-535906D02*
D03*
X-490905D02*
D03*
X-475906D02*
D03*
X-470905D02*
D03*
X-465906D02*
D03*
X-460905D02*
D03*
X-455906D02*
D03*
X-450905D02*
D03*
X-445906D02*
D03*
X-440905D02*
D03*
X-435906D02*
D03*
X-430905D02*
D03*
X-425906D02*
D03*
X-420905D02*
D03*
X-415906D02*
D03*
X-410905D02*
D03*
X-405906D02*
D03*
X-400905D02*
D03*
X-395906D02*
D03*
X-390905D02*
D03*
X-385906D02*
D03*
X-380905D02*
D03*
X-375906D02*
D03*
X-605906D02*
D03*
X-610905D02*
D03*
X-615906D02*
D03*
X-620905D02*
D03*
X-525906D02*
D03*
X-530905D02*
D03*
X-515906D02*
D03*
X-520905D02*
D03*
D76*
X-836316Y42030D02*
D03*
X-889656D02*
D03*
D77*
X-835156Y19030D02*
D03*
X-893356D02*
D03*
D78*
X-855881D02*
D03*
X-872631D02*
D03*
D90*
X-569941Y43810D02*
D03*
X-484541D02*
D03*
X-569941Y91110D02*
D03*
X-484541D02*
D03*
D91*
X-519241Y95610D02*
D03*
X-535241D02*
D03*
X-499241Y102610D02*
D03*
X-555241D02*
D03*
X-507241D02*
D03*
X-547241D02*
D03*
X-515241D02*
D03*
X-539241D02*
D03*
X-503241Y95610D02*
D03*
X-511241D02*
D03*
X-543241D02*
D03*
X-551241D02*
D03*
X-523241Y102610D02*
D03*
X-531241D02*
D03*
D92*
X-50000Y40000D02*
D03*
X-49760Y509760D02*
D03*
X-952256Y40000D02*
D03*
X-952256Y510000D02*
D03*
D93*
X-623990Y21260D02*
D03*
X-732490D02*
D03*
D94*
X-623990Y66260D02*
D03*
X-732490D02*
D03*
D95*
X-358240Y79510D02*
D03*
X-394240D02*
D03*
X-376160D02*
D03*
X-412240D02*
D03*
Y113010D02*
D03*
X-376160D02*
D03*
X-394240D02*
D03*
X-358240D02*
D03*
X-398740Y120760D02*
D03*
X-407740D02*
D03*
X-432740Y121010D02*
D03*
X-337740D02*
D03*
X-362740Y87260D02*
D03*
X-371740D02*
D03*
X-380740Y120760D02*
D03*
X-389740D02*
D03*
X-362740D02*
D03*
X-371740D02*
D03*
X-398740Y87260D02*
D03*
X-407740D02*
D03*
X-380740D02*
D03*
X-389740D02*
D03*
D96*
X-440240Y89510D02*
D03*
X-330240D02*
D03*
D97*
X-437240Y34510D02*
D03*
X-333240D02*
D03*
D98*
X-27597Y190672D02*
D03*
Y148172D02*
D03*
Y256321D02*
D03*
Y213821D02*
D03*
D99*
X-385000Y385000D02*
D03*
X-351000Y332000D02*
D03*
X-831000Y518000D02*
D03*
X-805000D02*
D03*
X-740000Y523000D02*
D03*
X-710000Y524000D02*
D03*
X-721000Y488000D02*
D03*
X-666256Y511000D02*
D03*
X-690956Y500000D02*
D03*
X-562000Y469000D02*
D03*
X-640000Y483000D02*
D03*
X-619000Y470000D02*
D03*
X-712000Y466000D02*
D03*
X-739070Y440000D02*
D03*
X-767000Y422000D02*
D03*
X-816000Y440000D02*
D03*
X-404000Y460000D02*
D03*
X-427000Y439000D02*
D03*
X-407000D02*
D03*
X-370000Y468000D02*
D03*
X-315000Y530000D02*
D03*
X-89000Y460000D02*
D03*
X-164000Y400000D02*
D03*
X-143220D02*
D03*
X-658000Y381000D02*
D03*
X-151000Y158000D02*
D03*
X-675000Y344000D02*
D03*
X-99256Y145000D02*
D03*
X-576000Y322000D02*
D03*
X-583320Y346000D02*
D03*
X-621320Y355000D02*
D03*
X-792320Y163000D02*
D03*
X-755320Y204000D02*
D03*
X-732320Y222000D02*
D03*
X-436320Y199000D02*
D03*
X-574320Y136000D02*
D03*
X-461320Y115000D02*
D03*
X-532320Y73000D02*
D03*
X-555320Y268000D02*
D03*
X-469799Y184005D02*
D03*
X-893000Y72000D02*
D03*
X-469861Y205516D02*
D03*
X-74300Y186000D02*
D03*
X-809320Y481000D02*
D03*
D100*
X-99700Y186000D02*
D03*
D101*
X-61256Y138760D02*
D03*
D102*
X-12256Y109260D02*
D03*
D103*
X-61256Y78760D02*
D03*
D104*
X-959406Y190300D02*
D03*
X-946706Y164900D02*
D03*
X-870506D02*
D03*
X-895906D02*
D03*
X-921306D02*
D03*
X-934006Y190300D02*
D03*
X-908606D02*
D03*
X-883206D02*
D03*
X-857806D02*
D03*
D105*
X-845106Y101400D02*
D03*
X-959406D02*
D03*
D106*
X-872966Y238600D02*
D03*
X-931466D02*
D03*
X-847566D02*
D03*
X-956866D02*
D03*
D107*
X-823474Y131900D02*
D03*
X-981038D02*
D03*
D108*
X-121320Y481000D02*
D03*
D109*
X-845106Y164900D02*
D03*
D139*
X-53810Y219352D02*
D03*
Y224350D02*
D03*
Y234350D02*
D03*
Y239351D02*
D03*
Y199352D02*
D03*
Y204350D02*
D03*
Y189352D02*
D03*
Y194350D02*
D03*
Y324350D02*
D03*
Y329351D02*
D03*
Y279351D02*
D03*
Y284350D02*
D03*
Y289351D02*
D03*
Y294350D02*
D03*
Y229351D02*
D03*
Y244350D02*
D03*
Y249351D02*
D03*
Y254350D02*
D03*
Y259351D02*
D03*
Y264350D02*
D03*
Y269351D02*
D03*
Y274350D02*
D03*
Y319351D02*
D03*
Y334350D02*
D03*
Y339351D02*
D03*
Y344350D02*
D03*
Y349351D02*
D03*
Y354350D02*
D03*
Y359351D02*
D03*
Y364350D02*
D03*
Y369351D02*
D03*
Y374350D02*
D03*
Y379351D02*
D03*
Y384350D02*
D03*
Y389351D02*
D03*
Y394350D02*
D03*
Y399351D02*
D03*
Y404350D02*
D03*
Y409351D02*
D03*
Y414350D02*
D03*
Y419351D02*
D03*
Y424350D02*
D03*
Y429351D02*
D03*
Y434350D02*
D03*
Y214350D02*
D03*
Y209352D02*
D03*
Y304350D02*
D03*
Y299351D02*
D03*
Y314350D02*
D03*
Y309351D02*
D03*
D140*
X-640206Y515989D02*
D03*
X-356605D02*
D03*
D141*
X-34011Y170050D02*
D03*
Y453651D02*
D03*
M02*
