%FSLAX44Y44*%
%MOMM*%
G71*
G01*
G75*
%ADD10C,0.2500*%
%ADD11R,0.3000X0.3000*%
%ADD12R,0.4500X1.3800*%
%ADD13R,0.7620X0.7620*%
%ADD14R,0.6000X0.5500*%
%ADD15R,0.7620X0.7620*%
%ADD16R,0.6200X0.5700*%
%ADD17R,0.9500X0.9500*%
%ADD18R,0.9600X0.9700*%
%ADD19R,0.5500X1.5000*%
%ADD20R,0.9500X0.9500*%
%ADD21R,1.0000X0.6000*%
%ADD22R,0.5500X0.6000*%
%ADD23R,1.2000X3.0000*%
%ADD24R,0.6000X1.0000*%
%ADD25R,1.5500X1.5500*%
%ADD26O,0.6000X0.3000*%
%ADD27R,0.5000X0.4000*%
%ADD28R,0.5700X0.6200*%
%ADD29R,2.4000X1.5000*%
%ADD30R,0.5900X0.4500*%
%ADD31R,0.3500X0.8500*%
%ADD32R,0.2000X1.0000*%
%ADD33R,0.3000X1.2000*%
%ADD34R,3.2000X1.2000*%
%ADD35R,0.4500X0.2000*%
%ADD36R,0.5000X0.2000*%
%ADD37R,0.2000X0.4500*%
%ADD38R,0.2000X0.5000*%
%ADD39R,0.4500X0.5900*%
%ADD40R,0.3000X1.4500*%
%ADD41R,1.1000X1.4000*%
%ADD42R,0.2300X1.0000*%
%ADD43R,0.4000X0.5500*%
%ADD44R,0.3000X0.5500*%
%ADD45R,1.2500X1.7500*%
%ADD46R,0.9700X0.9600*%
%ADD47R,2.1000X2.1000*%
%ADD48R,0.2500X0.6000*%
%ADD49R,0.6000X0.2500*%
%ADD50O,0.5000X1.6000*%
%ADD51R,0.3000X0.3000*%
%ADD52R,1.0160X1.7000*%
%ADD53R,1.0160X1.7000*%
%ADD54R,1.0000X1.5000*%
%ADD55O,0.3000X0.8000*%
%ADD56O,0.8000X0.3000*%
G04:AMPARAMS|DCode=57|XSize=0.75mm|YSize=1.6mm|CornerRadius=0.075mm|HoleSize=0mm|Usage=FLASHONLY|Rotation=270.000|XOffset=0mm|YOffset=0mm|HoleType=Round|Shape=RoundedRectangle|*
%AMROUNDEDRECTD57*
21,1,0.7500,1.4500,0,0,270.0*
21,1,0.6000,1.6000,0,0,270.0*
1,1,0.1500,-0.7250,-0.3000*
1,1,0.1500,-0.7250,0.3000*
1,1,0.1500,0.7250,0.3000*
1,1,0.1500,0.7250,-0.3000*
%
%ADD57ROUNDEDRECTD57*%
G04:AMPARAMS|DCode=58|XSize=0.6mm|YSize=1.8mm|CornerRadius=0.06mm|HoleSize=0mm|Usage=FLASHONLY|Rotation=270.000|XOffset=0mm|YOffset=0mm|HoleType=Round|Shape=RoundedRectangle|*
%AMROUNDEDRECTD58*
21,1,0.6000,1.6800,0,0,270.0*
21,1,0.4800,1.8000,0,0,270.0*
1,1,0.1200,-0.8400,-0.2400*
1,1,0.1200,-0.8400,0.2400*
1,1,0.1200,0.8400,0.2400*
1,1,0.1200,0.8400,-0.2400*
%
%ADD58ROUNDEDRECTD58*%
G04:AMPARAMS|DCode=59|XSize=1.3mm|YSize=0.7mm|CornerRadius=0.07mm|HoleSize=0mm|Usage=FLASHONLY|Rotation=270.000|XOffset=0mm|YOffset=0mm|HoleType=Round|Shape=RoundedRectangle|*
%AMROUNDEDRECTD59*
21,1,1.3000,0.5600,0,0,270.0*
21,1,1.1600,0.7000,0,0,270.0*
1,1,0.1400,-0.2800,-0.5800*
1,1,0.1400,-0.2800,0.5800*
1,1,0.1400,0.2800,0.5800*
1,1,0.1400,0.2800,-0.5800*
%
%ADD59ROUNDEDRECTD59*%
%ADD60R,3.2000X3.2000*%
%ADD61R,0.7500X0.3000*%
%ADD62R,0.3000X0.7500*%
%ADD63R,1.0160X1.2700*%
%ADD64R,0.4000X0.9000*%
%ADD65R,0.4000X0.5000*%
%ADD66R,1.3900X1.4000*%
%ADD67R,3.3600X4.8600*%
%ADD68R,1.4000X1.1000*%
%ADD69R,0.8500X0.3560*%
%ADD70R,2.6000X3.0000*%
%ADD71R,0.3000X1.7500*%
%ADD72R,2.0000X3.5000*%
%ADD73R,3.4000X2.4000*%
%ADD74R,1.7000X1.0160*%
%ADD75R,1.7000X1.0160*%
%ADD76R,1.4000X2.1000*%
%ADD77R,2.3700X1.9000*%
%ADD78R,1.1750X1.9000*%
%ADD79C,0.2000*%
%ADD80C,0.3000*%
%ADD81C,0.1500*%
%ADD82C,0.4000*%
%ADD83C,0.1800*%
%ADD84C,0.2200*%
%ADD85C,0.3500*%
%ADD86R,2.1000X10.0000*%
%ADD87R,2.6000X6.8000*%
%ADD88R,4.4000X3.2000*%
%ADD89R,2.2000X13.7000*%
%ADD90O,1.0000X1.6000*%
%ADD91C,0.6500*%
%ADD92C,6.0000*%
%ADD93O,1.2000X1.7000*%
%ADD94O,1.2000X1.9000*%
%ADD95C,0.7500*%
%ADD96O,1.4000X2.8500*%
%ADD97O,1.2000X2.2500*%
%ADD98C,0.5000*%
%ADD99C,1.5000*%
%ADD100R,1.5000X1.5000*%
%ADD101O,4.5000X2.0000*%
%ADD102O,2.0000X4.0000*%
%ADD103O,4.0000X2.0000*%
%ADD104C,1.7000*%
%ADD105C,3.2500*%
%ADD106C,1.6500*%
%ADD107C,2.6000*%
%ADD108C,1.9000*%
%ADD109R,1.7000X1.7000*%
%ADD110C,0.6000*%
%ADD111C,1.0160*%
%ADD112R,3.4000X0.8000*%
%ADD113R,6.2000X1.5000*%
%ADD114O,1.6160X2.2160*%
%ADD115C,1.4160*%
%ADD116C,4.7160*%
%ADD117O,1.6160X2.1160*%
%ADD118O,1.6160X2.3160*%
%ADD119C,1.5660*%
%ADD120C,2.0160*%
%ADD121O,1.9160X3.3660*%
%ADD122O,1.7160X2.7560*%
%ADD123C,1.9160*%
%ADD124C,2.0360*%
%ADD125O,2.0160X4.0160*%
%ADD126O,4.0160X2.0160*%
%ADD127C,1.9060*%
%ADD128C,4.2660*%
%ADD129C,2.0360*%
%ADD130C,2.7160*%
%ADD131C,2.6160*%
%ADD132C,2.1160*%
%ADD133C,1.1660*%
%ADD134C,1.2660*%
%ADD135C,1.2160*%
%ADD136C,0.0000*%
%ADD137C,0.0051*%
%ADD138O,4.5160X2.0160*%
%ADD139R,1.2000X0.3000*%
%ADD140R,2.7000X3.0000*%
%ADD141R,3.0000X2.7000*%
%ADD142C,0.2540*%
%ADD143C,0.1000*%
%ADD144C,0.5500*%
%ADD145C,0.2286*%
%ADD146C,0.1270*%
%ADD147C,0.1778*%
%ADD148C,0.1524*%
%ADD149C,0.1200*%
D10*
X-756782Y329746D02*
G03*
X-756782Y329746I-1250J0D01*
G01*
X-506750Y319500D02*
G03*
X-506750Y319500I-1250J0D01*
G01*
X-579071Y87683D02*
G03*
X-579071Y87683I-1250J0D01*
G01*
X-731576Y282409D02*
G03*
X-731576Y282409I-1250J0D01*
G01*
X-490976Y102710D02*
G03*
X-490976Y102710I-1140J0D01*
G01*
X-558976Y117710D02*
G03*
X-558976Y117710I-1140J0D01*
G01*
X-495070Y239000D02*
G03*
X-495070Y239000I-1250J0D01*
G01*
X-626971Y210663D02*
G03*
X-626971Y210663I-1250J0D01*
G01*
X-468453Y111627D02*
G03*
X-468453Y111627I-1250J0D01*
G01*
X-424155Y331331D02*
G03*
X-424155Y331331I-1250J0D01*
G01*
X-236257Y167947D02*
G03*
X-236257Y167947I-1250J0D01*
G01*
X-229361Y85964D02*
G03*
X-229361Y85964I-1250J0D01*
G01*
X-374718Y367841D02*
G03*
X-374718Y367841I-1250J0D01*
G01*
X-380506Y387134D02*
G03*
X-380506Y387134I-1250J0D01*
G01*
X-62006Y305500D02*
G03*
X-62006Y305500I-1250J0D01*
G01*
X-576320Y112000D02*
X-561320Y127000D01*
X-554320D01*
X-557320D02*
X-490320D01*
X-478320Y115000D01*
Y102000D02*
Y115000D01*
X-468320Y87000D02*
X-459320D01*
X-469320Y88000D02*
X-468320Y87000D01*
X-469320Y88000D02*
Y101000D01*
X-470320Y102000D02*
X-469320Y101000D01*
X-483320Y102000D02*
X-470320D01*
D79*
X-772943Y226904D02*
X-764694D01*
Y221904D02*
Y226904D01*
X-794694D02*
X-786443D01*
X-794694Y221904D02*
Y226904D01*
X-744032Y296746D02*
Y326746D01*
X-749032Y296746D02*
Y326746D01*
Y296746D02*
X-744032D01*
X-749032Y326746D02*
X-744032D01*
X-505000Y333500D02*
X-475000D01*
X-505000Y328500D02*
X-475000D01*
Y333500D01*
X-505000Y328500D02*
Y333500D01*
X-570941Y113410D02*
X-558241D01*
X-570941Y33910D02*
X-570940Y-190D01*
X-570941Y53810D02*
Y81210D01*
Y101010D02*
Y113410D01*
Y-190D02*
X-483541D01*
Y101010D02*
Y113410D01*
Y53810D02*
Y81210D01*
X-483541Y-190D02*
X-483541Y33910D01*
X-496241Y113410D02*
X-483541D01*
X-543820Y231000D02*
Y232500D01*
X-542320D01*
X-543820Y203500D02*
Y205000D01*
Y203500D02*
X-542320D01*
X-496320D02*
X-494820D01*
Y205000D01*
Y231000D02*
Y232500D01*
X-496320D02*
X-494820D01*
X-639240Y77260D02*
X-622240D01*
X-734240Y1260D02*
X-622240D01*
X-734240Y77260D02*
X-717240D01*
X-734240Y1260D02*
Y10960D01*
Y31560D02*
Y54960D01*
X-622240Y31560D02*
Y54960D01*
Y1260D02*
Y10960D01*
X-568070Y148750D02*
X-564320D01*
X-568070Y145000D02*
Y148750D01*
X-540570Y131250D02*
Y135000D01*
X-544320Y131250D02*
X-540570D01*
X-544320Y148750D02*
X-540570D01*
Y145000D02*
Y148750D01*
X-568070Y131250D02*
X-564320D01*
X-568070D02*
Y135000D01*
X-489320Y131250D02*
X-485570D01*
Y135000D01*
X-513070Y145000D02*
Y148750D01*
X-509320D01*
X-513070Y131250D02*
X-509320D01*
X-513070D02*
Y135000D01*
X-489320Y148750D02*
X-485570D01*
Y145000D02*
Y148750D01*
X-595221Y220663D02*
Y222663D01*
X-626221Y220663D02*
Y222663D01*
X-438405Y363831D02*
X-431905D01*
Y362331D02*
Y363831D01*
X-460905D02*
X-454405D01*
X-460905Y362331D02*
Y363831D01*
Y329831D02*
Y331331D01*
Y329831D02*
X-454405D01*
X-438405D02*
X-431905D01*
Y331331D01*
X-41097Y146922D02*
Y150322D01*
Y146922D02*
X-35097D01*
X-41097Y191972D02*
X-35097D01*
X-41097Y188572D02*
Y191972D01*
Y212571D02*
Y215971D01*
Y212571D02*
X-35097D01*
X-41097Y257621D02*
X-35097D01*
X-41097Y254221D02*
Y257621D01*
X-179111Y92464D02*
Y95964D01*
X-182611Y92464D02*
X-179111D01*
Y141964D02*
Y145464D01*
X-182611D02*
X-179111D01*
X-232111D02*
X-228611D01*
X-232111Y141964D02*
Y145464D01*
Y92464D02*
Y95964D01*
Y92464D02*
X-228611D01*
X-372968Y378341D02*
X-350968D01*
X-372968Y376341D02*
X-350968D01*
Y378341D01*
X-372968Y376341D02*
Y378341D01*
X-406756Y376634D02*
X-384756D01*
X-406756Y378634D02*
X-384756D01*
X-406756Y376634D02*
Y378634D01*
X-384756Y376634D02*
Y378634D01*
X-111650Y217000D02*
X-62350D01*
X-111650Y153500D02*
X-62350D01*
Y217000D01*
X-111650Y153500D02*
Y217000D01*
X-99700Y205050D02*
Y217000D01*
Y205050D02*
X-74300D01*
Y217000D01*
X-110256Y146760D02*
X-86256D01*
X-12256Y132760D02*
Y146760D01*
Y1760D02*
Y85760D01*
X-36256Y146760D02*
X-12256D01*
X-110256Y1760D02*
Y146760D01*
Y1760D02*
X-12256D01*
X-60256Y314500D02*
Y319500D01*
X-30256Y314500D02*
Y319500D01*
X-60256Y314500D02*
X-30256D01*
X-60256Y319500D02*
X-30256D01*
X-428000Y333000D02*
Y334000D01*
X-437000Y324000D02*
X-428000Y333000D01*
X-437000Y323000D02*
Y324000D01*
D80*
X-611504Y286573D02*
G03*
X-611504Y286573I-900J0D01*
G01*
D81*
X-713320Y121000D02*
X-702320D01*
X-703320Y93000D02*
Y98000D01*
X-711320Y85000D02*
X-703320Y93000D01*
X-739320Y85000D02*
X-711320D01*
X-518320Y271000D02*
X-517320Y272000D01*
X-471320D01*
Y249000D02*
Y272000D01*
X-517320Y249000D02*
X-471320D01*
X-518320Y250000D02*
X-517320Y249000D01*
X-518320Y250000D02*
Y270000D01*
X-460320Y242000D02*
Y244000D01*
X-461320Y245000D02*
X-460320Y244000D01*
X-484320Y245000D02*
X-461320D01*
X-484320Y205000D02*
Y245000D01*
Y205000D02*
X-483320Y204000D01*
X-461320D01*
X-460320Y205000D01*
Y243000D01*
Y222000D02*
Y243000D01*
Y222000D02*
X-459320Y221000D01*
X-443320D01*
Y183000D02*
Y225000D01*
Y183000D02*
X-416320D01*
Y225000D01*
X-442320D02*
X-416320D01*
X-913000Y416500D02*
X-873000D01*
X-913000Y459500D02*
X-873000D01*
D142*
X-725930Y122620D02*
G03*
X-725930Y122620I-1270J0D01*
G01*
X-300430Y103880D02*
G03*
X-300430Y103880I-1270J0D01*
G01*
X-571070Y133000D02*
G03*
X-571070Y133000I-1000J0D01*
G01*
X-480570Y147000D02*
G03*
X-480570Y147000I-1000J0D01*
G01*
X-140350Y182880D02*
G03*
X-140350Y182880I-1270J0D01*
G01*
X-416737Y320685D02*
G03*
X-416737Y320685I-1270J0D01*
G01*
X-47504Y149102D02*
G03*
X-47504Y149102I-412J0D01*
G01*
Y214751D02*
G03*
X-47504Y214751I-412J0D01*
G01*
X-248700Y67940D02*
G03*
X-248700Y67940I-1796J0D01*
G01*
X-298205Y80081D02*
X-295205Y82081D01*
X-292205Y80081D01*
X-298205D02*
X-292205D01*
X-505240Y347220D02*
X-474760D01*
X-505240Y382780D02*
X-474760D01*
X-596820Y149000D02*
Y157000D01*
X-625820Y149000D02*
Y157000D01*
Y149000D02*
X-596820Y149000D01*
X-597070Y189000D02*
Y197000D01*
X-625820Y197000D02*
X-597070Y197000D01*
X-625820Y189000D02*
Y197000D01*
X-595290Y9118D02*
X-593290Y6118D01*
X-595290Y9118D02*
X-593290Y12118D01*
Y6118D02*
Y12118D01*
X-314177Y80079D02*
X-308177D01*
X-311177Y82079D02*
X-308177Y80079D01*
X-314177D02*
X-311177Y82079D01*
X-775000Y370000D02*
X-767000D01*
X-767000Y348000D01*
X-775000D02*
X-767000D01*
X-815000Y370000D02*
X-815000Y348000D01*
X-815000Y370000D02*
X-807000D01*
X-815000Y348000D02*
X-807000D01*
X-981506Y-3000D02*
X-823006D01*
X-981656Y258800D02*
X-822856D01*
Y237800D02*
Y258800D01*
X-823006Y-3000D02*
Y208600D01*
X-981506Y-3000D02*
Y208600D01*
X-981656Y237800D02*
Y258800D01*
X-866000Y303000D02*
Y311000D01*
X-888000Y303000D02*
Y311000D01*
Y303000D02*
X-866000Y303000D01*
X-866000Y343000D02*
Y351000D01*
X-888000Y351000D02*
X-866000Y351000D01*
X-888000Y343000D02*
Y351000D01*
X-60496Y374780D02*
X-30016D01*
X-60496Y339220D02*
X-30016D01*
D143*
X-99539Y307129D02*
G03*
X-97539Y309129I0J2000D01*
G01*
X-100039Y337667D02*
G03*
X-98539Y336167I1500J0D01*
G01*
Y347000D02*
G03*
X-100039Y345500I0J-1500D01*
G01*
X-92320Y429130D02*
G03*
X-93018Y431679I-5000J-0D01*
G01*
X-92320Y429130D02*
G03*
X-93018Y431679I-5000J-0D01*
G01*
X-100320Y445370D02*
G03*
X-99621Y442821I5000J0D01*
G01*
X-100320Y445370D02*
G03*
X-99621Y442821I5000J0D01*
G01*
X-831019D02*
G03*
X-830320Y445370I-4302J2549D01*
G01*
X-837622Y431679D02*
G03*
X-838320Y429130I4302J-2549D01*
G01*
X-831019Y442821D02*
G03*
X-830320Y445370I-4302J2549D01*
G01*
X-837622Y431679D02*
G03*
X-838320Y429130I4302J-2549D01*
G01*
X-823222Y306946D02*
G03*
X-823620Y307000I-398J-1446D01*
G01*
X-830320Y344000D02*
G03*
X-832320Y346000I-2000J0D01*
G01*
Y336000D02*
G03*
X-830320Y338000I-0J2000D01*
G01*
X-832820Y309000D02*
G03*
X-830820Y307000I2000J0D01*
G01*
X-736570Y130000D02*
Y150000D01*
X-724070Y130000D02*
Y150000D01*
X-736570D02*
X-724070D01*
X-736570Y130000D02*
X-724070D01*
X-756826Y267677D02*
X-736826D01*
X-756826Y275297D02*
X-736826D01*
X-756826Y267677D02*
Y275297D01*
X-736826Y267677D02*
Y275297D01*
X-465703Y118739D02*
Y126359D01*
X-445703Y118739D02*
Y126359D01*
X-465703Y118739D02*
X-445703D01*
X-465703Y126359D02*
X-445703D01*
X-241507Y153215D02*
Y160835D01*
X-261507Y153215D02*
Y160835D01*
X-241507D01*
X-261507Y153215D02*
X-241507D01*
X-322256Y14750D02*
Y27250D01*
X-302256Y14750D02*
Y27250D01*
X-322256Y14750D02*
X-302256D01*
X-322256Y27250D02*
X-302256D01*
X-281256Y197750D02*
X-261256D01*
X-281256Y210250D02*
X-261256D01*
X-281256Y197750D02*
Y210250D01*
X-261256Y197750D02*
Y210250D01*
X-130820Y432500D02*
X-125820D01*
X-122320Y421500D01*
Y372660D02*
Y421500D01*
Y372660D02*
X-113605Y342281D01*
Y307097D02*
Y342281D01*
X-108605Y307097D02*
Y307129D01*
X-113605Y307097D02*
X-108605D01*
X-127820Y531000D02*
X-100320D01*
X-127820D02*
X-100320D01*
Y445370D02*
Y531000D01*
Y445370D02*
Y531000D01*
X-100039Y337667D02*
Y345500D01*
X-108605Y307129D02*
X-99539D01*
X-97780Y347000D02*
Y421000D01*
X-97539Y309129D02*
Y321279D01*
X-98539Y336167D02*
X-96050D01*
Y321279D02*
Y336167D01*
X-97539Y321279D02*
X-96050D01*
X-99621Y442821D02*
X-93018Y431679D01*
X-99621Y442821D02*
X-93018Y431679D01*
X-92320Y421500D02*
Y429130D01*
Y421500D02*
Y429130D01*
X-97780Y421000D02*
X-92320Y421500D01*
X-830320Y531000D02*
X-800320D01*
X-830320Y445370D02*
Y531000D01*
X-837622Y431679D02*
X-831019Y442821D01*
X-838320Y421500D02*
Y429130D01*
X-808320Y364182D02*
Y421500D01*
X-830320Y531000D02*
X-800320D01*
X-830320Y445370D02*
Y531000D01*
X-837622Y431679D02*
X-831019Y442821D01*
X-838320Y421500D02*
Y429130D01*
X-830820Y307000D02*
X-823620D01*
X-823222Y306946D02*
X-817120D01*
Y334182D01*
X-808320Y364182D01*
Y421500D01*
X-832772Y346000D02*
Y421000D01*
Y346000D02*
X-832320D01*
X-830320Y338000D02*
Y344000D01*
X-834680Y336000D02*
X-832320D01*
X-834680Y321000D02*
Y336000D01*
Y321000D02*
X-832820D01*
Y309000D02*
Y321000D01*
X-838320Y421500D02*
X-832772Y421000D01*
X-808320Y421500D02*
X-805820Y432500D01*
X-149750Y200000D02*
Y220000D01*
X-162250Y200000D02*
Y220000D01*
Y200000D02*
X-149750D01*
X-162250Y220000D02*
X-149750D01*
D144*
X-916300Y417000D02*
G03*
X-916300Y417000I-2700J0D01*
G01*
D145*
X-288855Y67731D02*
Y71541D01*
X-301555Y67731D02*
X-288855D01*
X-301555D02*
Y71541D01*
X-288855Y90591D02*
Y94401D01*
X-301555D02*
X-288855D01*
X-301555Y90591D02*
Y94401D01*
X-770985Y8650D02*
Y21350D01*
X-774795Y8650D02*
X-770985D01*
X-774795Y21350D02*
X-770985D01*
X-797655Y8650D02*
Y21350D01*
X-797655Y8650D02*
X-793845D01*
X-797655Y21350D02*
X-793845D01*
X-745985Y166650D02*
Y179350D01*
X-749795Y166650D02*
X-745985D01*
X-749795Y179350D02*
X-745985D01*
X-772655Y166650D02*
Y179350D01*
X-772655Y166650D02*
X-768845D01*
X-772655Y179350D02*
X-768845D01*
X-584750Y15468D02*
X-580940D01*
Y2768D02*
Y15468D01*
X-584750Y2768D02*
X-580940D01*
X-607610Y15468D02*
X-603800D01*
X-607610Y2768D02*
Y15468D01*
Y2768D02*
X-603800D01*
X-631643Y129012D02*
X-627833D01*
X-631643Y116312D02*
X-627833D01*
X-631643D02*
Y129012D01*
X-608783D02*
X-604973D01*
X-608783Y116312D02*
X-604973D01*
Y129012D01*
X-631055Y242150D02*
Y254850D01*
X-627245D01*
X-631055Y242150D02*
X-627245D01*
X-604385D02*
Y254850D01*
X-608195D02*
X-604385D01*
X-608195Y242150D02*
X-604385D01*
X-447280Y142572D02*
X-443470D01*
X-447280Y155272D02*
X-443470D01*
X-443470Y142572D02*
Y155272D01*
X-470140Y142572D02*
X-466330D01*
X-470140Y155272D02*
X-466330D01*
X-470140Y142572D02*
Y155272D01*
X-447280Y158884D02*
X-443470D01*
X-447280Y171584D02*
X-443470D01*
X-443470Y158884D02*
Y171584D01*
X-470140Y158884D02*
X-466330D01*
X-470140Y171584D02*
X-466330D01*
X-470140Y158884D02*
Y171584D01*
X-313341Y183135D02*
X-309531D01*
X-313341Y195835D02*
X-309531D01*
X-309531Y183135D02*
Y195835D01*
X-336201Y183135D02*
X-332391D01*
X-336201Y195835D02*
X-332391D01*
X-336201Y183135D02*
Y195835D01*
X-602779Y128968D02*
X-598969D01*
X-602779Y116268D02*
X-598969D01*
X-602779D02*
Y128968D01*
X-579919D02*
X-576109D01*
X-579919Y116268D02*
X-576109D01*
Y128968D01*
X-520655Y285650D02*
Y298350D01*
X-516845D01*
X-520655Y285650D02*
X-516845D01*
X-493985D02*
Y298350D01*
X-497795D02*
X-493985D01*
X-497795Y285650D02*
X-493985D01*
X-312201Y195835D02*
X-308391D01*
X-312201Y183135D02*
X-308391D01*
X-312201D02*
Y195835D01*
X-289341D02*
X-285531D01*
X-289341Y183135D02*
X-285531D01*
Y195835D01*
X-317527Y90589D02*
Y94399D01*
X-304827D01*
Y90589D02*
Y94399D01*
X-317527Y67729D02*
Y71539D01*
Y67729D02*
X-304827D01*
Y71539D01*
X-758671Y146141D02*
X-745972D01*
Y142331D02*
Y146141D01*
X-758671Y142331D02*
Y146141D01*
Y119471D02*
X-745972D01*
Y119471D02*
Y123281D01*
X-758671Y119471D02*
Y123281D01*
X-717268Y153103D02*
X-704568D01*
Y149293D02*
Y153103D01*
X-717268Y149293D02*
Y153103D01*
Y126433D02*
X-704568D01*
Y126433D02*
Y130243D01*
X-717268Y126433D02*
Y130243D01*
X-415288Y335297D02*
Y347997D01*
X-411478D01*
X-415288Y335297D02*
X-411478D01*
X-388618D02*
Y347997D01*
X-392428D02*
X-388618D01*
X-392428Y335297D02*
X-388618D01*
X-612296Y83030D02*
X-599596D01*
Y79220D02*
Y83030D01*
X-612296Y79220D02*
Y83030D01*
Y56360D02*
X-599596D01*
Y56360D02*
Y60170D01*
X-612296Y56360D02*
Y60170D01*
X-238714Y127165D02*
Y139865D01*
X-242524Y127165D02*
X-238714D01*
X-242524Y139865D02*
X-238714D01*
X-265384Y127165D02*
Y139865D01*
X-265384Y127165D02*
X-261574D01*
X-265384Y139865D02*
X-261574D01*
X-232102Y159062D02*
X-224482D01*
X-232102Y176842D02*
X-232102Y159062D01*
X-232102Y176842D02*
X-224482D01*
X-204162Y159062D02*
X-196542D01*
Y176842D01*
X-204162D02*
X-196542D01*
D146*
X-732280Y120080D02*
Y122620D01*
X-753870D02*
X-732280D01*
X-753870Y120080D02*
Y122620D01*
Y107380D02*
Y109920D01*
Y107380D02*
X-732280D01*
Y109920D01*
X-304240Y108960D02*
X-301700D01*
Y130550D01*
X-304240D02*
X-301700D01*
X-316940D02*
X-314400D01*
X-316940Y108960D02*
Y130550D01*
Y108960D02*
X-314400D01*
X-141620Y187960D02*
X-139080D01*
X-141620D02*
Y209550D01*
X-139080D01*
X-128920D02*
X-126380D01*
Y187960D02*
Y209550D01*
X-128920Y187960D02*
X-126380D01*
X-412927Y333385D02*
Y335925D01*
X-391337D01*
Y333385D02*
Y335925D01*
Y320685D02*
Y323225D01*
X-412927Y320685D02*
X-391337D01*
X-412927D02*
Y323225D01*
D147*
X-298874Y33000D02*
X-291256D01*
Y36809D01*
X-292526Y38078D01*
X-293795D01*
X-295065Y36809D01*
Y33000D01*
Y36809D01*
X-296334Y38078D01*
X-297604D01*
X-298874Y36809D01*
Y33000D01*
Y44426D02*
Y41887D01*
X-297604Y40617D01*
X-292526D01*
X-291256Y41887D01*
Y44426D01*
X-292526Y45696D01*
X-297604D01*
X-298874Y44426D01*
Y52044D02*
Y49505D01*
X-297604Y48235D01*
X-292526D01*
X-291256Y49505D01*
Y52044D01*
X-292526Y53313D01*
X-297604D01*
X-298874Y52044D01*
Y55853D02*
Y60931D01*
Y58392D01*
X-291256D01*
X-848922Y273617D02*
X-851461D01*
X-850191D01*
Y267270D01*
X-851461Y266000D01*
X-852730D01*
X-854000Y267270D01*
X-846383Y272348D02*
X-845113Y273617D01*
X-842574D01*
X-841304Y272348D01*
Y271078D01*
X-842574Y269809D01*
X-843843D01*
X-842574D01*
X-841304Y268539D01*
Y267270D01*
X-842574Y266000D01*
X-845113D01*
X-846383Y267270D01*
X-127000Y206259D02*
X-132078D01*
X-129539D01*
Y213876D01*
X-134618Y207528D02*
X-135887Y206259D01*
X-138426D01*
X-139696Y207528D01*
Y208798D01*
X-138426Y210067D01*
X-137157D01*
X-138426D01*
X-139696Y211337D01*
Y212606D01*
X-138426Y213876D01*
X-135887D01*
X-134618Y212606D01*
X-182000Y222667D02*
Y230284D01*
X-178191D01*
X-176922Y229015D01*
Y226476D01*
X-178191Y225206D01*
X-182000D01*
X-179461D02*
X-176922Y222667D01*
X-174382Y223937D02*
X-173113Y222667D01*
X-170574D01*
X-169304Y223937D01*
Y229015D01*
X-170574Y230284D01*
X-173113D01*
X-174382Y229015D01*
Y227745D01*
X-173113Y226476D01*
X-169304D01*
X-161687Y230284D02*
X-164226Y229015D01*
X-166765Y226476D01*
Y223937D01*
X-165495Y222667D01*
X-162956D01*
X-161687Y223937D01*
Y225206D01*
X-162956Y226476D01*
X-166765D01*
X-179178Y21618D02*
X-181717D01*
X-180447D01*
Y15270D01*
X-181717Y14000D01*
X-182986D01*
X-184256Y15270D01*
X-176639D02*
X-175369Y14000D01*
X-172830D01*
X-171560Y15270D01*
Y20348D01*
X-172830Y21618D01*
X-175369D01*
X-176639Y20348D01*
Y19078D01*
X-175369Y17809D01*
X-171560D01*
X-991618Y499000D02*
X-984000D01*
Y502809D01*
X-985270Y504078D01*
X-990348D01*
X-991618Y502809D01*
Y499000D01*
X-984000Y506618D02*
Y509157D01*
Y507887D01*
X-991618D01*
X-990348Y506618D01*
X-855000Y464000D02*
Y471618D01*
X-851191D01*
X-849922Y470348D01*
Y467809D01*
X-851191Y466539D01*
X-855000D01*
X-852461D02*
X-849922Y464000D01*
X-847383Y471618D02*
X-842304D01*
Y470348D01*
X-847383Y465270D01*
Y464000D01*
X-839765Y471618D02*
X-834687D01*
Y470348D01*
X-839765Y465270D01*
Y464000D01*
X-853000Y314000D02*
X-860618D01*
Y317809D01*
X-859348Y319078D01*
X-856809D01*
X-855539Y317809D01*
Y314000D01*
Y316539D02*
X-853000Y319078D01*
X-860618Y321618D02*
Y326696D01*
X-859348D01*
X-854270Y321618D01*
X-853000D01*
Y333044D02*
X-860618D01*
X-856809Y329235D01*
Y334313D01*
X-941000Y482000D02*
Y489618D01*
X-937191D01*
X-935922Y488348D01*
Y485809D01*
X-937191Y484539D01*
X-941000D01*
X-938461D02*
X-935922Y482000D01*
X-928304Y489618D02*
X-933382D01*
Y485809D01*
X-930843Y487078D01*
X-929574D01*
X-928304Y485809D01*
Y483270D01*
X-929574Y482000D01*
X-932113D01*
X-933382Y483270D01*
X-920687Y482000D02*
X-925765D01*
X-920687Y487078D01*
Y488348D01*
X-921956Y489618D01*
X-924495D01*
X-925765Y488348D01*
X-945000Y411000D02*
Y418618D01*
X-941191D01*
X-939922Y417348D01*
Y414809D01*
X-941191Y413539D01*
X-945000D01*
X-942461D02*
X-939922Y411000D01*
X-933574D02*
Y418618D01*
X-937383Y414809D01*
X-932304D01*
X-929765Y417348D02*
X-928495Y418618D01*
X-925956D01*
X-924687Y417348D01*
Y416078D01*
X-925956Y414809D01*
X-924687Y413539D01*
Y412270D01*
X-925956Y411000D01*
X-928495D01*
X-929765Y412270D01*
Y413539D01*
X-928495Y414809D01*
X-929765Y416078D01*
Y417348D01*
X-928495Y414809D02*
X-925956D01*
X-941000Y470000D02*
Y477617D01*
X-937191D01*
X-935922Y476348D01*
Y473809D01*
X-937191Y472539D01*
X-941000D01*
X-938461D02*
X-935922Y470000D01*
X-929574D02*
Y477617D01*
X-933382Y473809D01*
X-928304D01*
X-920687Y477617D02*
X-923226Y476348D01*
X-925765Y473809D01*
Y471270D01*
X-924495Y470000D01*
X-921956D01*
X-920687Y471270D01*
Y472539D01*
X-921956Y473809D01*
X-925765D01*
X-947000Y470000D02*
X-954617D01*
Y473809D01*
X-953348Y475078D01*
X-950809D01*
X-949539Y473809D01*
Y470000D01*
Y472539D02*
X-947000Y475078D01*
Y481426D02*
X-954617D01*
X-950809Y477617D01*
Y482696D01*
X-954617Y490313D02*
Y485235D01*
X-950809D01*
X-952078Y487774D01*
Y489044D01*
X-950809Y490313D01*
X-948270D01*
X-947000Y489044D01*
Y486505D01*
X-948270Y485235D01*
X-856000Y490000D02*
Y497617D01*
X-852191D01*
X-850922Y496348D01*
Y493809D01*
X-852191Y492539D01*
X-856000D01*
X-853461D02*
X-850922Y490000D01*
X-844574D02*
Y497617D01*
X-848382Y493809D01*
X-843304D01*
X-836956Y490000D02*
Y497617D01*
X-840765Y493809D01*
X-835687D01*
X-782000Y248000D02*
X-789617D01*
Y251809D01*
X-788348Y253078D01*
X-785809D01*
X-784539Y251809D01*
Y248000D01*
Y250539D02*
X-782000Y253078D01*
Y259426D02*
X-789617D01*
X-785809Y255618D01*
Y260696D01*
X-788348Y263235D02*
X-789617Y264505D01*
Y267044D01*
X-788348Y268313D01*
X-783270D01*
X-782000Y267044D01*
Y264505D01*
X-783270Y263235D01*
X-788348D01*
X-792000Y248000D02*
X-799617D01*
Y251809D01*
X-798348Y253078D01*
X-795809D01*
X-794539Y251809D01*
Y248000D01*
Y250539D02*
X-792000Y253078D01*
X-798348Y255618D02*
X-799617Y256887D01*
Y259426D01*
X-798348Y260696D01*
X-797078D01*
X-795809Y259426D01*
Y258157D01*
Y259426D01*
X-794539Y260696D01*
X-793270D01*
X-792000Y259426D01*
Y256887D01*
X-793270Y255618D01*
X-798348Y263235D02*
X-799617Y264505D01*
Y267044D01*
X-798348Y268313D01*
X-797078D01*
X-795809Y267044D01*
X-794539Y268313D01*
X-793270D01*
X-792000Y267044D01*
Y264505D01*
X-793270Y263235D01*
X-794539D01*
X-795809Y264505D01*
X-797078Y263235D01*
X-798348D01*
X-795809Y264505D02*
Y267044D01*
X-890000Y376618D02*
Y369000D01*
X-884922D01*
X-882383D02*
X-879843D01*
X-881113D01*
Y376618D01*
X-882383Y375348D01*
X-865618Y407000D02*
Y409539D01*
Y408270D01*
X-858000D01*
Y407000D01*
Y409539D01*
X-864348Y418426D02*
X-865618Y417157D01*
Y414618D01*
X-864348Y413348D01*
X-859270D01*
X-858000Y414618D01*
Y417157D01*
X-859270Y418426D01*
X-864348Y420965D02*
X-865618Y422235D01*
Y424774D01*
X-864348Y426044D01*
X-863078D01*
X-861809Y424774D01*
Y423505D01*
Y424774D01*
X-860539Y426044D01*
X-859270D01*
X-858000Y424774D01*
Y422235D01*
X-859270Y420965D01*
X-938922Y429348D02*
X-940191Y430617D01*
X-942730D01*
X-944000Y429348D01*
Y424270D01*
X-942730Y423000D01*
X-940191D01*
X-938922Y424270D01*
X-931304Y430617D02*
X-933843Y429348D01*
X-936383Y426809D01*
Y424270D01*
X-935113Y423000D01*
X-932574D01*
X-931304Y424270D01*
Y425539D01*
X-932574Y426809D01*
X-936383D01*
X-924956Y423000D02*
Y430617D01*
X-928765Y426809D01*
X-923687D01*
X-954348Y416078D02*
X-955618Y414809D01*
Y412270D01*
X-954348Y411000D01*
X-949270D01*
X-948000Y412270D01*
Y414809D01*
X-949270Y416078D01*
X-948000Y423696D02*
Y418618D01*
X-953078Y423696D01*
X-954348D01*
X-955618Y422426D01*
Y419887D01*
X-954348Y418618D01*
X-955618Y431313D02*
Y426235D01*
X-951809D01*
X-953078Y428774D01*
Y430044D01*
X-951809Y431313D01*
X-949270D01*
X-948000Y430044D01*
Y427505D01*
X-949270Y426235D01*
X-849922Y484348D02*
X-851191Y485617D01*
X-853730D01*
X-855000Y484348D01*
Y479270D01*
X-853730Y478000D01*
X-851191D01*
X-849922Y479270D01*
X-842304Y478000D02*
X-847383D01*
X-842304Y483078D01*
Y484348D01*
X-843574Y485617D01*
X-846113D01*
X-847383Y484348D01*
X-835956Y478000D02*
Y485617D01*
X-839765Y481809D01*
X-834687D01*
X-909348Y497078D02*
X-910618Y495809D01*
Y493270D01*
X-909348Y492000D01*
X-904270D01*
X-903000Y493270D01*
Y495809D01*
X-904270Y497078D01*
X-903000Y504696D02*
Y499618D01*
X-908078Y504696D01*
X-909348D01*
X-910618Y503426D01*
Y500887D01*
X-909348Y499618D01*
Y507235D02*
X-910618Y508505D01*
Y511044D01*
X-909348Y512313D01*
X-908078D01*
X-906809Y511044D01*
Y509774D01*
Y511044D01*
X-905539Y512313D01*
X-904270D01*
X-903000Y511044D01*
Y508505D01*
X-904270Y507235D01*
X-909348Y470078D02*
X-910618Y468809D01*
Y466270D01*
X-909348Y465000D01*
X-904270D01*
X-903000Y466270D01*
Y468809D01*
X-904270Y470078D01*
X-903000Y477696D02*
Y472617D01*
X-908078Y477696D01*
X-909348D01*
X-910618Y476426D01*
Y473887D01*
X-909348Y472617D01*
X-903000Y485313D02*
Y480235D01*
X-908078Y485313D01*
X-909348D01*
X-910618Y484044D01*
Y481505D01*
X-909348Y480235D01*
X-884922Y540348D02*
X-886191Y541618D01*
X-888730D01*
X-890000Y540348D01*
Y535270D01*
X-888730Y534000D01*
X-886191D01*
X-884922Y535270D01*
X-877304Y534000D02*
X-882383D01*
X-877304Y539078D01*
Y540348D01*
X-878574Y541618D01*
X-881113D01*
X-882383Y540348D01*
X-874765Y534000D02*
X-872226D01*
X-873495D01*
Y541618D01*
X-874765Y540348D01*
X-880922Y400348D02*
X-882191Y401618D01*
X-884730D01*
X-886000Y400348D01*
Y395270D01*
X-884730Y394000D01*
X-882191D01*
X-880922Y395270D01*
X-878382Y394000D02*
X-875843D01*
X-877113D01*
Y401618D01*
X-878382Y400348D01*
X-872035Y395270D02*
X-870765Y394000D01*
X-868226D01*
X-866956Y395270D01*
Y400348D01*
X-868226Y401618D01*
X-870765D01*
X-872035Y400348D01*
Y399078D01*
X-870765Y397809D01*
X-866956D01*
X-898348Y276078D02*
X-899617Y274809D01*
Y272270D01*
X-898348Y271000D01*
X-893270D01*
X-892000Y272270D01*
Y274809D01*
X-893270Y276078D01*
X-892000Y278617D02*
Y281157D01*
Y279887D01*
X-899617D01*
X-898348Y278617D01*
Y284965D02*
X-899617Y286235D01*
Y288774D01*
X-898348Y290044D01*
X-897078D01*
X-895809Y288774D01*
X-894539Y290044D01*
X-893270D01*
X-892000Y288774D01*
Y286235D01*
X-893270Y284965D01*
X-894539D01*
X-895809Y286235D01*
X-897078Y284965D01*
X-898348D01*
X-895809Y286235D02*
Y288774D01*
X-885348Y276078D02*
X-886618Y274809D01*
Y272270D01*
X-885348Y271000D01*
X-880270D01*
X-879000Y272270D01*
Y274809D01*
X-880270Y276078D01*
X-879000Y278617D02*
Y281157D01*
Y279887D01*
X-886618D01*
X-885348Y278617D01*
X-886618Y284965D02*
Y290044D01*
X-885348D01*
X-880270Y284965D01*
X-879000D01*
X-911348Y276078D02*
X-912617Y274809D01*
Y272270D01*
X-911348Y271000D01*
X-906270D01*
X-905000Y272270D01*
Y274809D01*
X-906270Y276078D01*
X-905000Y278617D02*
Y281157D01*
Y279887D01*
X-912617D01*
X-911348Y278617D01*
X-912617Y290044D02*
X-911348Y287505D01*
X-908809Y284965D01*
X-906270D01*
X-905000Y286235D01*
Y288774D01*
X-906270Y290044D01*
X-907539D01*
X-908809Y288774D01*
Y284965D01*
X-74873Y311000D02*
Y313539D01*
Y312270D01*
X-67256D01*
Y311000D01*
Y313539D01*
X-73604Y322426D02*
X-74873Y321157D01*
Y318617D01*
X-73604Y317348D01*
X-68526D01*
X-67256Y318617D01*
Y321157D01*
X-68526Y322426D01*
X-73604Y324966D02*
X-74873Y326235D01*
Y328774D01*
X-73604Y330044D01*
X-72334D01*
X-71065Y328774D01*
X-69795Y330044D01*
X-68526D01*
X-67256Y328774D01*
Y326235D01*
X-68526Y324966D01*
X-69795D01*
X-71065Y326235D01*
X-72334Y324966D01*
X-73604D01*
X-71065Y326235D02*
Y328774D01*
X-230256Y73618D02*
Y66000D01*
X-226447D01*
X-225178Y67270D01*
Y72348D01*
X-226447Y73618D01*
X-230256D01*
X-222638Y72348D02*
X-221369Y73618D01*
X-218830D01*
X-217560Y72348D01*
Y71078D01*
X-218830Y69809D01*
X-220099D01*
X-218830D01*
X-217560Y68539D01*
Y67270D01*
X-218830Y66000D01*
X-221369D01*
X-222638Y67270D01*
X-18604Y376078D02*
X-19873Y374809D01*
Y372270D01*
X-18604Y371000D01*
X-13526D01*
X-12256Y372270D01*
Y374809D01*
X-13526Y376078D01*
X-19873Y383696D02*
Y378618D01*
X-16065D01*
X-17334Y381157D01*
Y382426D01*
X-16065Y383696D01*
X-13526D01*
X-12256Y382426D01*
Y379887D01*
X-13526Y378618D01*
X-19873Y391313D02*
X-18604Y388774D01*
X-16065Y386235D01*
X-13526D01*
X-12256Y387505D01*
Y390044D01*
X-13526Y391313D01*
X-14795D01*
X-16065Y390044D01*
Y386235D01*
X-27178Y277348D02*
X-28447Y278617D01*
X-30986D01*
X-32256Y277348D01*
Y272270D01*
X-30986Y271000D01*
X-28447D01*
X-27178Y272270D01*
X-19560Y278617D02*
X-24639D01*
Y274809D01*
X-22099Y276078D01*
X-20830D01*
X-19560Y274809D01*
Y272270D01*
X-20830Y271000D01*
X-23369D01*
X-24639Y272270D01*
X-11943Y278617D02*
X-17021D01*
Y274809D01*
X-14482Y276078D01*
X-13212D01*
X-11943Y274809D01*
Y272270D01*
X-13212Y271000D01*
X-15751D01*
X-17021Y272270D01*
X-91922Y229857D02*
X-97000D01*
Y226049D01*
X-94461D01*
X-97000D01*
Y222240D01*
X-89382D02*
Y227318D01*
X-86843Y229857D01*
X-84304Y227318D01*
Y222240D01*
Y226049D01*
X-89382D01*
X-81765Y222240D02*
Y229857D01*
X-76687Y222240D01*
Y229857D01*
X-861187Y44109D02*
X-868805D01*
X-866265Y46648D01*
X-868805Y49187D01*
X-861187D01*
Y51726D02*
Y54266D01*
Y52996D01*
X-868805D01*
X-867535Y51726D01*
X-103549Y164953D02*
X-106088D01*
X-104818D01*
Y158605D01*
X-106088Y157335D01*
X-107357D01*
X-108627Y158605D01*
X-97201Y157335D02*
Y164953D01*
X-101009Y161144D01*
X-95931D01*
X-766320Y23000D02*
Y30617D01*
X-762511D01*
X-761242Y29348D01*
Y26809D01*
X-762511Y25539D01*
X-766320D01*
X-763781D02*
X-761242Y23000D01*
X-754894D02*
Y30617D01*
X-758703Y26809D01*
X-753624D01*
X-751085Y29348D02*
X-749815Y30617D01*
X-747276D01*
X-746007Y29348D01*
Y28078D01*
X-747276Y26809D01*
X-748546D01*
X-747276D01*
X-746007Y25539D01*
Y24270D01*
X-747276Y23000D01*
X-749815D01*
X-751085Y24270D01*
X-286178Y160348D02*
X-287447Y161618D01*
X-289986D01*
X-291256Y160348D01*
Y155270D01*
X-289986Y154000D01*
X-287447D01*
X-286178Y155270D01*
X-278560Y161618D02*
X-281099Y160348D01*
X-283638Y157809D01*
Y155270D01*
X-282369Y154000D01*
X-279830D01*
X-278560Y155270D01*
Y156539D01*
X-279830Y157809D01*
X-283638D01*
X-270943Y161618D02*
X-273482Y160348D01*
X-276021Y157809D01*
Y155270D01*
X-274751Y154000D01*
X-272212D01*
X-270943Y155270D01*
Y156539D01*
X-272212Y157809D01*
X-276021D01*
X-53000Y227000D02*
X-60617D01*
Y230809D01*
X-59348Y232078D01*
X-56809D01*
X-55539Y230809D01*
Y227000D01*
Y229539D02*
X-53000Y232078D01*
X-59348Y239696D02*
X-60617Y238426D01*
Y235887D01*
X-59348Y234618D01*
X-58078D01*
X-56809Y235887D01*
Y238426D01*
X-55539Y239696D01*
X-54270D01*
X-53000Y238426D01*
Y235887D01*
X-54270Y234618D01*
X-60617Y242235D02*
Y247313D01*
Y244774D01*
X-53000D01*
X-52000Y160000D02*
X-59618D01*
Y163809D01*
X-58348Y165078D01*
X-55809D01*
X-54539Y163809D01*
Y160000D01*
Y162539D02*
X-52000Y165078D01*
X-59618Y172696D02*
Y167617D01*
X-52000D01*
Y172696D01*
X-55809Y167617D02*
Y170157D01*
X-58348Y180313D02*
X-59618Y179044D01*
Y176505D01*
X-58348Y175235D01*
X-53270D01*
X-52000Y176505D01*
Y179044D01*
X-53270Y180313D01*
X-257256Y117000D02*
Y124618D01*
X-253447D01*
X-252178Y123348D01*
Y120809D01*
X-253447Y119539D01*
X-257256D01*
X-254717D02*
X-252178Y117000D01*
X-249638Y118270D02*
X-248369Y117000D01*
X-245830D01*
X-244560Y118270D01*
Y123348D01*
X-245830Y124618D01*
X-248369D01*
X-249638Y123348D01*
Y122078D01*
X-248369Y120809D01*
X-244560D01*
X-236943Y124618D02*
X-242021D01*
Y120809D01*
X-239482Y122078D01*
X-238212D01*
X-236943Y120809D01*
Y118270D01*
X-238212Y117000D01*
X-240751D01*
X-242021Y118270D01*
X-779000Y263000D02*
Y270618D01*
X-775191D01*
X-773922Y269348D01*
Y266809D01*
X-775191Y265539D01*
X-779000D01*
X-776461D02*
X-773922Y263000D01*
X-771383Y264270D02*
X-770113Y263000D01*
X-767574D01*
X-766304Y264270D01*
Y269348D01*
X-767574Y270618D01*
X-770113D01*
X-771383Y269348D01*
Y268078D01*
X-770113Y266809D01*
X-766304D01*
X-759956Y263000D02*
Y270618D01*
X-763765Y266809D01*
X-758687D01*
X-465203Y336831D02*
X-472820D01*
Y340640D01*
X-471551Y341909D01*
X-469012D01*
X-467742Y340640D01*
Y336831D01*
Y339370D02*
X-465203Y341909D01*
X-466472Y344449D02*
X-465203Y345718D01*
Y348257D01*
X-466472Y349527D01*
X-471551D01*
X-472820Y348257D01*
Y345718D01*
X-471551Y344449D01*
X-470281D01*
X-469012Y345718D01*
Y349527D01*
X-471551Y352066D02*
X-472820Y353336D01*
Y355875D01*
X-471551Y357145D01*
X-470281D01*
X-469012Y355875D01*
Y354605D01*
Y355875D01*
X-467742Y357145D01*
X-466472D01*
X-465203Y355875D01*
Y353336D01*
X-466472Y352066D01*
X-768000Y233000D02*
Y240618D01*
X-764191D01*
X-762922Y239348D01*
Y236809D01*
X-764191Y235539D01*
X-768000D01*
X-765461D02*
X-762922Y233000D01*
X-760383Y234270D02*
X-759113Y233000D01*
X-756574D01*
X-755304Y234270D01*
Y239348D01*
X-756574Y240618D01*
X-759113D01*
X-760383Y239348D01*
Y238078D01*
X-759113Y236809D01*
X-755304D01*
X-747687Y233000D02*
X-752765D01*
X-747687Y238078D01*
Y239348D01*
X-748956Y240618D01*
X-751495D01*
X-752765Y239348D01*
X-26256Y295000D02*
Y302617D01*
X-22447D01*
X-21178Y301348D01*
Y298809D01*
X-22447Y297539D01*
X-26256D01*
X-23717D02*
X-21178Y295000D01*
X-18638Y296270D02*
X-17369Y295000D01*
X-14830D01*
X-13560Y296270D01*
Y301348D01*
X-14830Y302617D01*
X-17369D01*
X-18638Y301348D01*
Y300078D01*
X-17369Y298809D01*
X-13560D01*
X-11021Y301348D02*
X-9751Y302617D01*
X-7212D01*
X-5943Y301348D01*
Y296270D01*
X-7212Y295000D01*
X-9751D01*
X-11021Y296270D01*
Y301348D01*
X-469320Y39000D02*
X-476938D01*
Y42809D01*
X-475668Y44078D01*
X-473129D01*
X-471859Y42809D01*
Y39000D01*
Y41539D02*
X-469320Y44078D01*
X-475668Y46617D02*
X-476938Y47887D01*
Y50426D01*
X-475668Y51696D01*
X-474398D01*
X-473129Y50426D01*
X-471859Y51696D01*
X-470590D01*
X-469320Y50426D01*
Y47887D01*
X-470590Y46617D01*
X-471859D01*
X-473129Y47887D01*
X-474398Y46617D01*
X-475668D01*
X-473129Y47887D02*
Y50426D01*
X-475668Y54235D02*
X-476938Y55505D01*
Y58044D01*
X-475668Y59313D01*
X-474398D01*
X-473129Y58044D01*
X-471859Y59313D01*
X-470590D01*
X-469320Y58044D01*
Y55505D01*
X-470590Y54235D01*
X-471859D01*
X-473129Y55505D01*
X-474398Y54235D01*
X-475668D01*
X-473129Y55505D02*
Y58044D01*
X-344311Y333187D02*
X-351928D01*
Y336996D01*
X-350659Y338265D01*
X-348120D01*
X-346850Y336996D01*
Y333187D01*
Y335726D02*
X-344311Y338265D01*
X-350659Y340804D02*
X-351928Y342074D01*
Y344613D01*
X-350659Y345883D01*
X-349389D01*
X-348120Y344613D01*
X-346850Y345883D01*
X-345581D01*
X-344311Y344613D01*
Y342074D01*
X-345581Y340804D01*
X-346850D01*
X-348120Y342074D01*
X-349389Y340804D01*
X-350659D01*
X-348120Y342074D02*
Y344613D01*
X-351928Y348422D02*
Y353500D01*
X-350659D01*
X-345581Y348422D01*
X-344311D01*
X-378000Y348000D02*
Y355617D01*
X-374191D01*
X-372922Y354348D01*
Y351809D01*
X-374191Y350539D01*
X-378000D01*
X-375461D02*
X-372922Y348000D01*
X-370382Y354348D02*
X-369113Y355617D01*
X-366574D01*
X-365304Y354348D01*
Y353078D01*
X-366574Y351809D01*
X-365304Y350539D01*
Y349270D01*
X-366574Y348000D01*
X-369113D01*
X-370382Y349270D01*
Y350539D01*
X-369113Y351809D01*
X-370382Y353078D01*
Y354348D01*
X-369113Y351809D02*
X-366574D01*
X-357687Y355617D02*
X-360226Y354348D01*
X-362765Y351809D01*
Y349270D01*
X-361495Y348000D01*
X-358956D01*
X-357687Y349270D01*
Y350539D01*
X-358956Y351809D01*
X-362765D01*
X-378000Y336000D02*
Y343618D01*
X-374191D01*
X-372922Y342348D01*
Y339809D01*
X-374191Y338539D01*
X-378000D01*
X-375461D02*
X-372922Y336000D01*
X-370382Y342348D02*
X-369113Y343618D01*
X-366574D01*
X-365304Y342348D01*
Y341078D01*
X-366574Y339809D01*
X-365304Y338539D01*
Y337270D01*
X-366574Y336000D01*
X-369113D01*
X-370382Y337270D01*
Y338539D01*
X-369113Y339809D01*
X-370382Y341078D01*
Y342348D01*
X-369113Y339809D02*
X-366574D01*
X-357687Y343618D02*
X-362765D01*
Y339809D01*
X-360226Y341078D01*
X-358956D01*
X-357687Y339809D01*
Y337270D01*
X-358956Y336000D01*
X-361495D01*
X-362765Y337270D01*
X-420000Y338000D02*
X-427617D01*
Y341809D01*
X-426348Y343078D01*
X-423809D01*
X-422539Y341809D01*
Y338000D01*
Y340539D02*
X-420000Y343078D01*
X-426348Y345617D02*
X-427617Y346887D01*
Y349426D01*
X-426348Y350696D01*
X-425078D01*
X-423809Y349426D01*
X-422539Y350696D01*
X-421270D01*
X-420000Y349426D01*
Y346887D01*
X-421270Y345617D01*
X-422539D01*
X-423809Y346887D01*
X-425078Y345617D01*
X-426348D01*
X-423809Y346887D02*
Y349426D01*
X-420000Y357044D02*
X-427617D01*
X-423809Y353235D01*
Y358313D01*
X-711320Y159000D02*
X-718938D01*
Y162809D01*
X-717668Y164078D01*
X-715129D01*
X-713859Y162809D01*
Y159000D01*
Y161539D02*
X-711320Y164078D01*
X-717668Y166618D02*
X-718938Y167887D01*
Y170426D01*
X-717668Y171696D01*
X-716398D01*
X-715129Y170426D01*
X-713859Y171696D01*
X-712590D01*
X-711320Y170426D01*
Y167887D01*
X-712590Y166618D01*
X-713859D01*
X-715129Y167887D01*
X-716398Y166618D01*
X-717668D01*
X-715129Y167887D02*
Y170426D01*
X-717668Y174235D02*
X-718938Y175505D01*
Y178044D01*
X-717668Y179313D01*
X-716398D01*
X-715129Y178044D01*
Y176774D01*
Y178044D01*
X-713859Y179313D01*
X-712590D01*
X-711320Y178044D01*
Y175505D01*
X-712590Y174235D01*
X-698320Y118000D02*
Y125618D01*
X-694511D01*
X-693242Y124348D01*
Y121809D01*
X-694511Y120539D01*
X-698320D01*
X-695781D02*
X-693242Y118000D01*
X-690703Y124348D02*
X-689433Y125618D01*
X-686894D01*
X-685624Y124348D01*
Y123078D01*
X-686894Y121809D01*
X-685624Y120539D01*
Y119270D01*
X-686894Y118000D01*
X-689433D01*
X-690703Y119270D01*
Y120539D01*
X-689433Y121809D01*
X-690703Y123078D01*
Y124348D01*
X-689433Y121809D02*
X-686894D01*
X-678007Y118000D02*
X-683085D01*
X-678007Y123078D01*
Y124348D01*
X-679276Y125618D01*
X-681815D01*
X-683085Y124348D01*
X-762000Y150000D02*
Y157618D01*
X-758191D01*
X-756922Y156348D01*
Y153809D01*
X-758191Y152539D01*
X-762000D01*
X-759461D02*
X-756922Y150000D01*
X-754382Y156348D02*
X-753113Y157618D01*
X-750574D01*
X-749304Y156348D01*
Y155078D01*
X-750574Y153809D01*
X-749304Y152539D01*
Y151270D01*
X-750574Y150000D01*
X-753113D01*
X-754382Y151270D01*
Y152539D01*
X-753113Y153809D01*
X-754382Y155078D01*
Y156348D01*
X-753113Y153809D02*
X-750574D01*
X-746765Y150000D02*
X-744226D01*
X-745495D01*
Y157618D01*
X-746765Y156348D01*
X-69000Y429351D02*
Y436968D01*
X-65191D01*
X-63922Y435699D01*
Y433160D01*
X-65191Y431890D01*
X-69000D01*
X-66461D02*
X-63922Y429351D01*
X-61382Y435699D02*
X-60113Y436968D01*
X-57574D01*
X-56304Y435699D01*
Y434429D01*
X-57574Y433160D01*
X-56304Y431890D01*
Y430621D01*
X-57574Y429351D01*
X-60113D01*
X-61382Y430621D01*
Y431890D01*
X-60113Y433160D01*
X-61382Y434429D01*
Y435699D01*
X-60113Y433160D02*
X-57574D01*
X-53765Y435699D02*
X-52495Y436968D01*
X-49956D01*
X-48687Y435699D01*
Y430621D01*
X-49956Y429351D01*
X-52495D01*
X-53765Y430621D01*
Y435699D01*
X-69000Y441000D02*
Y448618D01*
X-65191D01*
X-63922Y447348D01*
Y444809D01*
X-65191Y443539D01*
X-69000D01*
X-66461D02*
X-63922Y441000D01*
X-61382Y448618D02*
X-56304D01*
Y447348D01*
X-61382Y442270D01*
Y441000D01*
X-53765Y442270D02*
X-52495Y441000D01*
X-49956D01*
X-48687Y442270D01*
Y447348D01*
X-49956Y448618D01*
X-52495D01*
X-53765Y447348D01*
Y446078D01*
X-52495Y444809D01*
X-48687D01*
X-543016Y395305D02*
X-550633D01*
Y399114D01*
X-549364Y400383D01*
X-546825D01*
X-545555Y399114D01*
Y395305D01*
Y397844D02*
X-543016Y400383D01*
X-550633Y402923D02*
Y408001D01*
X-549364D01*
X-544286Y402923D01*
X-543016D01*
X-549364Y410540D02*
X-550633Y411810D01*
Y414349D01*
X-549364Y415618D01*
X-548094D01*
X-546825Y414349D01*
X-545555Y415618D01*
X-544286D01*
X-543016Y414349D01*
Y411810D01*
X-544286Y410540D01*
X-545555D01*
X-546825Y411810D01*
X-548094Y410540D01*
X-549364D01*
X-546825Y411810D02*
Y414349D01*
X-554256Y395000D02*
X-561874D01*
Y398809D01*
X-560604Y400078D01*
X-558065D01*
X-556795Y398809D01*
Y395000D01*
Y397539D02*
X-554256Y400078D01*
Y407696D02*
Y402617D01*
X-559334Y407696D01*
X-560604D01*
X-561874Y406426D01*
Y403887D01*
X-560604Y402617D01*
Y410235D02*
X-561874Y411505D01*
Y414044D01*
X-560604Y415313D01*
X-559334D01*
X-558065Y414044D01*
Y412774D01*
Y414044D01*
X-556795Y415313D01*
X-555526D01*
X-554256Y414044D01*
Y411505D01*
X-555526Y410235D01*
X-324874Y141988D02*
X-317256D01*
Y147066D01*
Y149605D02*
Y152144D01*
Y150875D01*
X-324874D01*
X-323604Y149605D01*
Y155953D02*
X-324874Y157223D01*
Y159762D01*
X-323604Y161031D01*
X-318526D01*
X-317256Y159762D01*
Y157223D01*
X-318526Y155953D01*
X-323604D01*
X-794234Y111257D02*
X-786616D01*
Y116335D01*
X-787886Y118874D02*
X-786616Y120144D01*
Y122683D01*
X-787886Y123953D01*
X-792964D01*
X-794234Y122683D01*
Y120144D01*
X-792964Y118874D01*
X-791695D01*
X-790425Y120144D01*
Y123953D01*
X-777395Y102123D02*
Y94506D01*
X-772317D01*
X-769778Y100854D02*
X-768508Y102123D01*
X-765969D01*
X-764699Y100854D01*
Y99584D01*
X-765969Y98314D01*
X-764699Y97045D01*
Y95775D01*
X-765969Y94506D01*
X-768508D01*
X-769778Y95775D01*
Y97045D01*
X-768508Y98314D01*
X-769778Y99584D01*
Y100854D01*
X-768508Y98314D02*
X-765969D01*
X-262256Y184618D02*
X-259717D01*
X-260986D01*
Y177000D01*
X-262256D01*
X-259717D01*
X-250830Y183348D02*
X-252099Y184618D01*
X-254639D01*
X-255908Y183348D01*
Y178270D01*
X-254639Y177000D01*
X-252099D01*
X-250830Y178270D01*
X-248291Y177000D02*
X-245751D01*
X-247021D01*
Y184618D01*
X-248291Y183348D01*
X-236864Y184618D02*
X-241943D01*
Y180809D01*
X-239403Y182078D01*
X-238134D01*
X-236864Y180809D01*
Y178270D01*
X-238134Y177000D01*
X-240673D01*
X-241943Y178270D01*
X-411000Y405617D02*
X-408461D01*
X-409730D01*
Y398000D01*
X-411000D01*
X-408461D01*
X-399574Y404348D02*
X-400843Y405617D01*
X-403382D01*
X-404652Y404348D01*
Y399270D01*
X-403382Y398000D01*
X-400843D01*
X-399574Y399270D01*
X-397034Y398000D02*
X-394495D01*
X-395765D01*
Y405617D01*
X-397034Y404348D01*
X-386878Y398000D02*
Y405617D01*
X-390687Y401809D01*
X-385608D01*
X-378000Y406282D02*
X-375461D01*
X-376730D01*
Y398665D01*
X-378000D01*
X-375461D01*
X-366574Y405013D02*
X-367843Y406282D01*
X-370382D01*
X-371652Y405013D01*
Y399935D01*
X-370382Y398665D01*
X-367843D01*
X-366574Y399935D01*
X-364035Y398665D02*
X-361495D01*
X-362765D01*
Y406282D01*
X-364035Y405013D01*
X-357687D02*
X-356417Y406282D01*
X-353878D01*
X-352608Y405013D01*
Y403743D01*
X-353878Y402474D01*
X-355147D01*
X-353878D01*
X-352608Y401204D01*
Y399935D01*
X-353878Y398665D01*
X-356417D01*
X-357687Y399935D01*
X-435617Y368000D02*
Y370539D01*
Y369270D01*
X-428000D01*
Y368000D01*
Y370539D01*
X-434348Y379426D02*
X-435617Y378157D01*
Y375617D01*
X-434348Y374348D01*
X-429270D01*
X-428000Y375617D01*
Y378157D01*
X-429270Y379426D01*
X-428000Y381965D02*
Y384505D01*
Y383235D01*
X-435617D01*
X-434348Y381965D01*
X-428000Y393392D02*
Y388313D01*
X-433078Y393392D01*
X-434348D01*
X-435617Y392122D01*
Y389583D01*
X-434348Y388313D01*
X-427320Y137618D02*
X-424781D01*
X-426050D01*
Y130000D01*
X-427320D01*
X-424781D01*
X-415894Y136348D02*
X-417163Y137618D01*
X-419703D01*
X-420972Y136348D01*
Y131270D01*
X-419703Y130000D01*
X-417163D01*
X-415894Y131270D01*
X-413355Y130000D02*
X-410816D01*
X-412085D01*
Y137618D01*
X-413355Y136348D01*
X-407007Y130000D02*
X-404468D01*
X-405737D01*
Y137618D01*
X-407007Y136348D01*
X-756922Y362617D02*
X-762000D01*
Y358809D01*
X-759461D01*
X-762000D01*
Y355000D01*
X-754382D02*
X-751843D01*
X-753113D01*
Y362617D01*
X-754382Y361348D01*
X-397311Y316805D02*
Y309187D01*
X-393502D01*
X-392233Y310457D01*
Y315535D01*
X-393502Y316805D01*
X-397311D01*
X-389693Y309187D02*
X-387154D01*
X-388424D01*
Y316805D01*
X-389693Y315535D01*
X-383345D02*
X-382076Y316805D01*
X-379537D01*
X-378267Y315535D01*
Y314265D01*
X-379537Y312996D01*
X-380806D01*
X-379537D01*
X-378267Y311726D01*
Y310457D01*
X-379537Y309187D01*
X-382076D01*
X-383345Y310457D01*
X-455938Y86000D02*
X-448320D01*
Y89809D01*
X-449590Y91078D01*
X-454668D01*
X-455938Y89809D01*
Y86000D01*
X-448320Y93617D02*
Y96157D01*
Y94887D01*
X-455938D01*
X-454668Y93617D01*
X-448320Y105044D02*
Y99965D01*
X-453399Y105044D01*
X-454668D01*
X-455938Y103774D01*
Y101235D01*
X-454668Y99965D01*
X-728938Y89000D02*
X-721320D01*
Y92809D01*
X-722590Y94078D01*
X-727668D01*
X-728938Y92809D01*
Y89000D01*
X-721320Y96617D02*
Y99157D01*
Y97887D01*
X-728938D01*
X-727668Y96617D01*
X-721320Y102965D02*
Y105505D01*
Y104235D01*
X-728938D01*
X-727668Y102965D01*
X-278604Y173078D02*
X-279874Y171809D01*
Y169270D01*
X-278604Y168000D01*
X-273526D01*
X-272256Y169270D01*
Y171809D01*
X-273526Y173078D01*
X-279874Y180696D02*
X-278604Y178157D01*
X-276065Y175618D01*
X-273526D01*
X-272256Y176887D01*
Y179426D01*
X-273526Y180696D01*
X-274795D01*
X-276065Y179426D01*
Y175618D01*
X-279874Y183235D02*
Y188313D01*
X-278604D01*
X-273526Y183235D01*
X-272256D01*
X-366922Y319348D02*
X-368191Y320617D01*
X-370730D01*
X-372000Y319348D01*
Y314270D01*
X-370730Y313000D01*
X-368191D01*
X-366922Y314270D01*
X-359304Y320617D02*
X-361843Y319348D01*
X-364383Y316809D01*
Y314270D01*
X-363113Y313000D01*
X-360574D01*
X-359304Y314270D01*
Y315539D01*
X-360574Y316809D01*
X-364383D01*
X-356765Y319348D02*
X-355495Y320617D01*
X-352956D01*
X-351687Y319348D01*
Y318078D01*
X-352956Y316809D01*
X-354226D01*
X-352956D01*
X-351687Y315539D01*
Y314270D01*
X-352956Y313000D01*
X-355495D01*
X-356765Y314270D01*
X-475320Y177000D02*
Y184618D01*
X-471511D01*
X-470242Y183348D01*
Y180809D01*
X-471511Y179539D01*
X-475320D01*
X-472781D02*
X-470242Y177000D01*
X-462624Y184618D02*
X-465163Y183348D01*
X-467703Y180809D01*
Y178270D01*
X-466433Y177000D01*
X-463894D01*
X-462624Y178270D01*
Y179539D01*
X-463894Y180809D01*
X-467703D01*
X-460085Y184618D02*
X-455007D01*
Y183348D01*
X-460085Y178270D01*
Y177000D01*
X-457320Y276000D02*
X-464938D01*
Y279809D01*
X-463668Y281078D01*
X-461129D01*
X-459859Y279809D01*
Y276000D01*
Y278539D02*
X-457320Y281078D01*
X-464938Y288696D02*
X-463668Y286157D01*
X-461129Y283617D01*
X-458590D01*
X-457320Y284887D01*
Y287426D01*
X-458590Y288696D01*
X-459859D01*
X-461129Y287426D01*
Y283617D01*
X-464938Y296313D02*
X-463668Y293774D01*
X-461129Y291235D01*
X-458590D01*
X-457320Y292505D01*
Y295044D01*
X-458590Y296313D01*
X-459859D01*
X-461129Y295044D01*
Y291235D01*
X-435320Y276000D02*
X-442938D01*
Y279809D01*
X-441668Y281078D01*
X-439129D01*
X-437859Y279809D01*
Y276000D01*
Y278539D02*
X-435320Y281078D01*
X-442938Y288696D02*
X-441668Y286157D01*
X-439129Y283617D01*
X-436590D01*
X-435320Y284887D01*
Y287426D01*
X-436590Y288696D01*
X-437859D01*
X-439129Y287426D01*
Y283617D01*
X-442938Y296313D02*
Y291235D01*
X-439129D01*
X-440398Y293774D01*
Y295044D01*
X-439129Y296313D01*
X-436590D01*
X-435320Y295044D01*
Y292505D01*
X-436590Y291235D01*
X-446320Y276000D02*
X-453938D01*
Y279809D01*
X-452668Y281078D01*
X-450129D01*
X-448859Y279809D01*
Y276000D01*
Y278539D02*
X-446320Y281078D01*
X-453938Y288696D02*
X-452668Y286157D01*
X-450129Y283617D01*
X-447590D01*
X-446320Y284887D01*
Y287426D01*
X-447590Y288696D01*
X-448859D01*
X-450129Y287426D01*
Y283617D01*
X-446320Y295044D02*
X-453938D01*
X-450129Y291235D01*
Y296313D01*
X-468320Y276000D02*
X-475938D01*
Y279809D01*
X-474668Y281078D01*
X-472129D01*
X-470859Y279809D01*
Y276000D01*
Y278539D02*
X-468320Y281078D01*
X-475938Y288696D02*
X-474668Y286157D01*
X-472129Y283617D01*
X-469590D01*
X-468320Y284887D01*
Y287426D01*
X-469590Y288696D01*
X-470859D01*
X-472129Y287426D01*
Y283617D01*
X-474668Y291235D02*
X-475938Y292505D01*
Y295044D01*
X-474668Y296313D01*
X-473399D01*
X-472129Y295044D01*
Y293774D01*
Y295044D01*
X-470859Y296313D01*
X-469590D01*
X-468320Y295044D01*
Y292505D01*
X-469590Y291235D01*
X-608320Y26618D02*
Y19000D01*
X-603242D01*
X-595624Y26618D02*
X-600703D01*
Y19000D01*
X-595624D01*
X-600703Y22809D02*
X-598163D01*
X-593085Y26618D02*
Y19000D01*
X-589276D01*
X-588007Y20270D01*
Y25348D01*
X-589276Y26618D01*
X-593085D01*
X-585467Y19000D02*
X-582928D01*
X-584198D01*
Y26618D01*
X-585467Y25348D01*
X-602320Y142618D02*
Y135000D01*
X-597242D01*
X-589624D02*
X-594703D01*
X-589624Y140078D01*
Y141348D01*
X-590894Y142618D01*
X-593433D01*
X-594703Y141348D01*
X-525320Y246618D02*
X-522781D01*
X-524050D01*
Y239000D01*
X-525320D01*
X-522781D01*
X-513894Y245348D02*
X-515163Y246618D01*
X-517703D01*
X-518972Y245348D01*
Y240270D01*
X-517703Y239000D01*
X-515163D01*
X-513894Y240270D01*
X-511355Y246618D02*
X-506276D01*
Y245348D01*
X-511355Y240270D01*
Y239000D01*
X-529320Y145618D02*
Y138000D01*
X-525511D01*
X-524242Y139270D01*
Y144348D01*
X-525511Y145618D01*
X-529320D01*
X-521703D02*
X-516624D01*
Y144348D01*
X-521703Y139270D01*
Y138000D01*
X-569320Y161618D02*
Y154000D01*
X-565511D01*
X-564242Y155270D01*
Y160348D01*
X-565511Y161618D01*
X-569320D01*
X-556624D02*
X-559163Y160348D01*
X-561703Y157809D01*
Y155270D01*
X-560433Y154000D01*
X-557894D01*
X-556624Y155270D01*
Y156539D01*
X-557894Y157809D01*
X-561703D01*
X-426348Y248078D02*
X-427617Y246809D01*
Y244270D01*
X-426348Y243000D01*
X-421270D01*
X-420000Y244270D01*
Y246809D01*
X-421270Y248078D01*
X-426348Y250618D02*
X-427617Y251887D01*
Y254426D01*
X-426348Y255696D01*
X-425078D01*
X-423809Y254426D01*
Y253157D01*
Y254426D01*
X-422539Y255696D01*
X-421270D01*
X-420000Y254426D01*
Y251887D01*
X-421270Y250618D01*
X-420000Y262044D02*
X-427617D01*
X-423809Y258235D01*
Y263313D01*
X-591668Y236078D02*
X-592938Y234809D01*
Y232270D01*
X-591668Y231000D01*
X-586590D01*
X-585320Y232270D01*
Y234809D01*
X-586590Y236078D01*
X-591668Y238617D02*
X-592938Y239887D01*
Y242426D01*
X-591668Y243696D01*
X-590398D01*
X-589129Y242426D01*
Y241157D01*
Y242426D01*
X-587859Y243696D01*
X-586590D01*
X-585320Y242426D01*
Y239887D01*
X-586590Y238617D01*
X-591668Y246235D02*
X-592938Y247505D01*
Y250044D01*
X-591668Y251313D01*
X-590398D01*
X-589129Y250044D01*
Y248774D01*
Y250044D01*
X-587859Y251313D01*
X-586590D01*
X-585320Y250044D01*
Y247505D01*
X-586590Y246235D01*
X-448242Y11617D02*
X-450781D01*
X-449511D01*
Y5270D01*
X-450781Y4000D01*
X-452051D01*
X-453320Y5270D01*
X-440624Y4000D02*
X-445703D01*
X-440624Y9078D01*
Y10348D01*
X-441894Y11617D01*
X-444433D01*
X-445703Y10348D01*
X-441320Y185000D02*
Y192617D01*
X-437511D01*
X-436242Y191348D01*
Y188809D01*
X-437511Y187539D01*
X-441320D01*
X-438781D02*
X-436242Y185000D01*
X-433703Y192617D02*
X-428624D01*
Y191348D01*
X-433703Y186270D01*
Y185000D01*
X-426085Y191348D02*
X-424815Y192617D01*
X-422276D01*
X-421007Y191348D01*
Y186270D01*
X-422276Y185000D01*
X-424815D01*
X-426085Y186270D01*
Y191348D01*
X-445320Y175000D02*
X-452938D01*
Y178809D01*
X-451668Y180078D01*
X-449129D01*
X-447859Y178809D01*
Y175000D01*
Y177539D02*
X-445320Y180078D01*
X-452938Y187696D02*
X-451668Y185157D01*
X-449129Y182617D01*
X-446590D01*
X-445320Y183887D01*
Y186426D01*
X-446590Y187696D01*
X-447859D01*
X-449129Y186426D01*
Y182617D01*
X-446590Y190235D02*
X-445320Y191505D01*
Y194044D01*
X-446590Y195313D01*
X-451668D01*
X-452938Y194044D01*
Y191505D01*
X-451668Y190235D01*
X-450398D01*
X-449129Y191505D01*
Y195313D01*
X-441320Y195000D02*
Y202617D01*
X-437511D01*
X-436242Y201348D01*
Y198809D01*
X-437511Y197539D01*
X-441320D01*
X-438781D02*
X-436242Y195000D01*
X-428624Y202617D02*
X-431163Y201348D01*
X-433703Y198809D01*
Y196270D01*
X-432433Y195000D01*
X-429894D01*
X-428624Y196270D01*
Y197539D01*
X-429894Y198809D01*
X-433703D01*
X-426085Y201348D02*
X-424815Y202617D01*
X-422276D01*
X-421007Y201348D01*
Y200078D01*
X-422276Y198809D01*
X-421007Y197539D01*
Y196270D01*
X-422276Y195000D01*
X-424815D01*
X-426085Y196270D01*
Y197539D01*
X-424815Y198809D01*
X-426085Y200078D01*
Y201348D01*
X-424815Y198809D02*
X-422276D01*
X-441320Y205000D02*
Y212617D01*
X-437511D01*
X-436242Y211348D01*
Y208809D01*
X-437511Y207539D01*
X-441320D01*
X-438781D02*
X-436242Y205000D01*
X-428624Y212617D02*
X-431163Y211348D01*
X-433703Y208809D01*
Y206270D01*
X-432433Y205000D01*
X-429894D01*
X-428624Y206270D01*
Y207539D01*
X-429894Y208809D01*
X-433703D01*
X-421007Y205000D02*
X-426085D01*
X-421007Y210078D01*
Y211348D01*
X-422276Y212617D01*
X-424815D01*
X-426085Y211348D01*
X-582320Y205000D02*
Y212617D01*
X-578511D01*
X-577242Y211348D01*
Y208809D01*
X-578511Y207539D01*
X-582320D01*
X-579781D02*
X-577242Y205000D01*
X-569624Y212617D02*
X-574703D01*
Y208809D01*
X-572163Y210078D01*
X-570894D01*
X-569624Y208809D01*
Y206270D01*
X-570894Y205000D01*
X-573433D01*
X-574703Y206270D01*
X-562007Y212617D02*
X-564546Y211348D01*
X-567085Y208809D01*
Y206270D01*
X-565816Y205000D01*
X-563276D01*
X-562007Y206270D01*
Y207539D01*
X-563276Y208809D01*
X-567085D01*
X-441320Y215000D02*
Y222617D01*
X-437511D01*
X-436242Y221348D01*
Y218809D01*
X-437511Y217539D01*
X-441320D01*
X-438781D02*
X-436242Y215000D01*
X-428624Y222617D02*
X-433703D01*
Y218809D01*
X-431163Y220078D01*
X-429894D01*
X-428624Y218809D01*
Y216270D01*
X-429894Y215000D01*
X-432433D01*
X-433703Y216270D01*
X-421007Y222617D02*
X-426085D01*
Y218809D01*
X-423546Y220078D01*
X-422276D01*
X-421007Y218809D01*
Y216270D01*
X-422276Y215000D01*
X-424815D01*
X-426085Y216270D01*
X-453320Y235000D02*
Y242617D01*
X-449511D01*
X-448242Y241348D01*
Y238809D01*
X-449511Y237539D01*
X-453320D01*
X-450781D02*
X-448242Y235000D01*
X-440624Y242617D02*
X-445703D01*
Y238809D01*
X-443163Y240078D01*
X-441894D01*
X-440624Y238809D01*
Y236270D01*
X-441894Y235000D01*
X-444433D01*
X-445703Y236270D01*
X-434276Y235000D02*
Y242617D01*
X-438085Y238809D01*
X-433007D01*
X-567320Y236000D02*
Y243617D01*
X-563511D01*
X-562242Y242348D01*
Y239809D01*
X-563511Y238539D01*
X-567320D01*
X-564781D02*
X-562242Y236000D01*
X-554624Y243617D02*
X-559703D01*
Y239809D01*
X-557163Y241078D01*
X-555894D01*
X-554624Y239809D01*
Y237270D01*
X-555894Y236000D01*
X-558433D01*
X-559703Y237270D01*
X-552085Y242348D02*
X-550816Y243617D01*
X-548276D01*
X-547007Y242348D01*
Y241078D01*
X-548276Y239809D01*
X-549546D01*
X-548276D01*
X-547007Y238539D01*
Y237270D01*
X-548276Y236000D01*
X-550816D01*
X-552085Y237270D01*
X-469320Y83617D02*
X-466781D01*
X-468050D01*
Y76000D01*
X-469320D01*
X-466781D01*
X-457894Y82348D02*
X-459163Y83617D01*
X-461703D01*
X-462972Y82348D01*
Y77270D01*
X-461703Y76000D01*
X-459163D01*
X-457894Y77270D01*
X-450276Y83617D02*
X-452816Y82348D01*
X-455355Y79809D01*
Y77270D01*
X-454085Y76000D01*
X-451546D01*
X-450276Y77270D01*
Y78539D01*
X-451546Y79809D01*
X-455355D01*
X-171000Y97618D02*
X-168461D01*
X-169730D01*
Y90000D01*
X-171000D01*
X-168461D01*
X-159574Y96348D02*
X-160843Y97618D01*
X-163382D01*
X-164652Y96348D01*
Y91270D01*
X-163382Y90000D01*
X-160843D01*
X-159574Y91270D01*
X-151956Y97618D02*
X-157035D01*
Y93809D01*
X-154495Y95078D01*
X-153226D01*
X-151956Y93809D01*
Y91270D01*
X-153226Y90000D01*
X-155765D01*
X-157035Y91270D01*
X-479668Y152078D02*
X-480938Y150809D01*
Y148270D01*
X-479668Y147000D01*
X-474590D01*
X-473320Y148270D01*
Y150809D01*
X-474590Y152078D01*
X-480938Y159696D02*
Y154618D01*
X-477129D01*
X-478399Y157157D01*
Y158426D01*
X-477129Y159696D01*
X-474590D01*
X-473320Y158426D01*
Y155887D01*
X-474590Y154618D01*
X-473320Y166044D02*
X-480938D01*
X-477129Y162235D01*
Y167313D01*
X-497668Y192078D02*
X-498938Y190809D01*
Y188270D01*
X-497668Y187000D01*
X-492590D01*
X-491320Y188270D01*
Y190809D01*
X-492590Y192078D01*
X-498938Y199696D02*
Y194618D01*
X-495129D01*
X-496399Y197157D01*
Y198426D01*
X-495129Y199696D01*
X-492590D01*
X-491320Y198426D01*
Y195887D01*
X-492590Y194618D01*
X-497668Y202235D02*
X-498938Y203505D01*
Y206044D01*
X-497668Y207313D01*
X-496399D01*
X-495129Y206044D01*
Y204774D01*
Y206044D01*
X-493859Y207313D01*
X-492590D01*
X-491320Y206044D01*
Y203505D01*
X-492590Y202235D01*
X-506242Y163348D02*
X-507511Y164618D01*
X-510051D01*
X-511320Y163348D01*
Y158270D01*
X-510051Y157000D01*
X-507511D01*
X-506242Y158270D01*
X-498624Y164618D02*
X-503703D01*
Y160809D01*
X-501163Y162078D01*
X-499894D01*
X-498624Y160809D01*
Y158270D01*
X-499894Y157000D01*
X-502433D01*
X-503703Y158270D01*
X-491007Y157000D02*
X-496085D01*
X-491007Y162078D01*
Y163348D01*
X-492276Y164618D01*
X-494815D01*
X-496085Y163348D01*
X-528242D02*
X-529511Y164618D01*
X-532051D01*
X-533320Y163348D01*
Y158270D01*
X-532051Y157000D01*
X-529511D01*
X-528242Y158270D01*
X-520624Y164618D02*
X-525703D01*
Y160809D01*
X-523163Y162078D01*
X-521894D01*
X-520624Y160809D01*
Y158270D01*
X-521894Y157000D01*
X-524433D01*
X-525703Y158270D01*
X-518085Y157000D02*
X-515546D01*
X-516815D01*
Y164618D01*
X-518085Y163348D01*
X-532600Y195444D02*
X-533870Y196713D01*
X-536409D01*
X-537678Y195444D01*
Y190366D01*
X-536409Y189096D01*
X-533870D01*
X-532600Y190366D01*
X-524982Y196713D02*
X-530061D01*
Y192905D01*
X-527522Y194174D01*
X-526252D01*
X-524982Y192905D01*
Y190366D01*
X-526252Y189096D01*
X-528791D01*
X-530061Y190366D01*
X-522443Y195444D02*
X-521174Y196713D01*
X-518634D01*
X-517365Y195444D01*
Y190366D01*
X-518634Y189096D01*
X-521174D01*
X-522443Y190366D01*
Y195444D01*
X-561668Y280078D02*
X-562938Y278809D01*
Y276270D01*
X-561668Y275000D01*
X-556590D01*
X-555320Y276270D01*
Y278809D01*
X-556590Y280078D01*
X-555320Y286426D02*
X-562938D01*
X-559129Y282617D01*
Y287696D01*
X-556590Y290235D02*
X-555320Y291505D01*
Y294044D01*
X-556590Y295313D01*
X-561668D01*
X-562938Y294044D01*
Y291505D01*
X-561668Y290235D01*
X-560398D01*
X-559129Y291505D01*
Y295313D01*
X-557242Y195348D02*
X-558511Y196618D01*
X-561050D01*
X-562320Y195348D01*
Y190270D01*
X-561050Y189000D01*
X-558511D01*
X-557242Y190270D01*
X-550894Y189000D02*
Y196618D01*
X-554703Y192809D01*
X-549624D01*
X-547085Y195348D02*
X-545815Y196618D01*
X-543276D01*
X-542007Y195348D01*
Y194078D01*
X-543276Y192809D01*
X-542007Y191539D01*
Y190270D01*
X-543276Y189000D01*
X-545815D01*
X-547085Y190270D01*
Y191539D01*
X-545815Y192809D01*
X-547085Y194078D01*
Y195348D01*
X-545815Y192809D02*
X-543276D01*
X-550668Y280078D02*
X-551938Y278809D01*
Y276270D01*
X-550668Y275000D01*
X-545590D01*
X-544320Y276270D01*
Y278809D01*
X-545590Y280078D01*
X-544320Y286426D02*
X-551938D01*
X-548129Y282617D01*
Y287696D01*
X-551938Y290235D02*
Y295313D01*
X-550668D01*
X-545590Y290235D01*
X-544320D01*
X-581668Y172078D02*
X-582938Y170809D01*
Y168270D01*
X-581668Y167000D01*
X-576590D01*
X-575320Y168270D01*
Y170809D01*
X-576590Y172078D01*
X-575320Y178426D02*
X-582938D01*
X-579129Y174618D01*
Y179696D01*
X-582938Y187313D02*
X-581668Y184774D01*
X-579129Y182235D01*
X-576590D01*
X-575320Y183505D01*
Y186044D01*
X-576590Y187313D01*
X-577859D01*
X-579129Y186044D01*
Y182235D01*
X-540668Y280078D02*
X-541938Y278809D01*
Y276270D01*
X-540668Y275000D01*
X-535590D01*
X-534320Y276270D01*
Y278809D01*
X-535590Y280078D01*
X-540668Y282617D02*
X-541938Y283887D01*
Y286426D01*
X-540668Y287696D01*
X-539398D01*
X-538129Y286426D01*
Y285157D01*
Y286426D01*
X-536859Y287696D01*
X-535590D01*
X-534320Y286426D01*
Y283887D01*
X-535590Y282617D01*
X-540668Y290235D02*
X-541938Y291505D01*
Y294044D01*
X-540668Y295313D01*
X-539398D01*
X-538129Y294044D01*
X-536859Y295313D01*
X-535590D01*
X-534320Y294044D01*
Y291505D01*
X-535590Y290235D01*
X-536859D01*
X-538129Y291505D01*
X-539398Y290235D01*
X-540668D01*
X-538129Y291505D02*
Y294044D01*
X-592668Y172078D02*
X-593938Y170809D01*
Y168270D01*
X-592668Y167000D01*
X-587590D01*
X-586320Y168270D01*
Y170809D01*
X-587590Y172078D01*
X-592668Y174618D02*
X-593938Y175887D01*
Y178426D01*
X-592668Y179696D01*
X-591399D01*
X-590129Y178426D01*
Y177157D01*
Y178426D01*
X-588859Y179696D01*
X-587590D01*
X-586320Y178426D01*
Y175887D01*
X-587590Y174618D01*
X-593938Y182235D02*
Y187313D01*
X-592668D01*
X-587590Y182235D01*
X-586320D01*
X-529668Y280078D02*
X-530938Y278809D01*
Y276270D01*
X-529668Y275000D01*
X-524590D01*
X-523320Y276270D01*
Y278809D01*
X-524590Y280078D01*
X-529668Y282617D02*
X-530938Y283887D01*
Y286426D01*
X-529668Y287696D01*
X-528399D01*
X-527129Y286426D01*
Y285157D01*
Y286426D01*
X-525859Y287696D01*
X-524590D01*
X-523320Y286426D01*
Y283887D01*
X-524590Y282617D01*
X-530938Y295313D02*
X-529668Y292774D01*
X-527129Y290235D01*
X-524590D01*
X-523320Y291505D01*
Y294044D01*
X-524590Y295313D01*
X-525859D01*
X-527129Y294044D01*
Y290235D01*
X-529922Y305348D02*
X-531191Y306618D01*
X-533730D01*
X-535000Y305348D01*
Y300270D01*
X-533730Y299000D01*
X-531191D01*
X-529922Y300270D01*
X-527383Y305348D02*
X-526113Y306618D01*
X-523574D01*
X-522304Y305348D01*
Y304078D01*
X-523574Y302809D01*
X-524843D01*
X-523574D01*
X-522304Y301539D01*
Y300270D01*
X-523574Y299000D01*
X-526113D01*
X-527383Y300270D01*
X-514687Y306618D02*
X-519765D01*
Y302809D01*
X-517226Y304078D01*
X-515956D01*
X-514687Y302809D01*
Y300270D01*
X-515956Y299000D01*
X-518495D01*
X-519765Y300270D01*
X-457668Y20078D02*
X-458938Y18809D01*
Y16270D01*
X-457668Y15000D01*
X-452590D01*
X-451320Y16270D01*
Y18809D01*
X-452590Y20078D01*
X-457668Y22617D02*
X-458938Y23887D01*
Y26426D01*
X-457668Y27696D01*
X-456399D01*
X-455129Y26426D01*
Y25157D01*
Y26426D01*
X-453859Y27696D01*
X-452590D01*
X-451320Y26426D01*
Y23887D01*
X-452590Y22617D01*
X-451320Y35313D02*
Y30235D01*
X-456399Y35313D01*
X-457668D01*
X-458938Y34044D01*
Y31505D01*
X-457668Y30235D01*
X-634668Y160078D02*
X-635938Y158809D01*
Y156270D01*
X-634668Y155000D01*
X-629590D01*
X-628320Y156270D01*
Y158809D01*
X-629590Y160078D01*
X-634668Y162617D02*
X-635938Y163887D01*
Y166426D01*
X-634668Y167696D01*
X-633399D01*
X-632129Y166426D01*
Y165157D01*
Y166426D01*
X-630859Y167696D01*
X-629590D01*
X-628320Y166426D01*
Y163887D01*
X-629590Y162617D01*
X-628320Y170235D02*
Y172774D01*
Y171505D01*
X-635938D01*
X-634668Y170235D01*
X-163521Y165752D02*
X-164790Y164482D01*
Y161943D01*
X-163521Y160674D01*
X-158442D01*
X-157173Y161943D01*
Y164482D01*
X-158442Y165752D01*
X-163521Y168291D02*
X-164790Y169561D01*
Y172100D01*
X-163521Y173370D01*
X-162251D01*
X-160982Y172100D01*
Y170830D01*
Y172100D01*
X-159712Y173370D01*
X-158442D01*
X-157173Y172100D01*
Y169561D01*
X-158442Y168291D01*
X-163521Y175909D02*
X-164790Y177178D01*
Y179718D01*
X-163521Y180987D01*
X-158442D01*
X-157173Y179718D01*
Y177178D01*
X-158442Y175909D01*
X-163521D01*
X-154447Y137136D02*
X-155716Y135866D01*
Y133327D01*
X-154447Y132058D01*
X-149368D01*
X-148099Y133327D01*
Y135866D01*
X-149368Y137136D01*
X-148099Y144754D02*
Y139675D01*
X-153177Y144754D01*
X-154447D01*
X-155716Y143484D01*
Y140945D01*
X-154447Y139675D01*
X-149368Y147293D02*
X-148099Y148562D01*
Y151102D01*
X-149368Y152371D01*
X-154447D01*
X-155716Y151102D01*
Y148562D01*
X-154447Y147293D01*
X-153177D01*
X-151908Y148562D01*
Y152371D01*
X-748242Y16617D02*
X-750781D01*
X-749511D01*
Y10270D01*
X-750781Y9000D01*
X-752050D01*
X-753320Y10270D01*
X-745703Y9000D02*
X-743163D01*
X-744433D01*
Y16617D01*
X-745703Y15348D01*
X-733663Y219271D02*
X-734932Y220541D01*
X-737472D01*
X-738741Y219271D01*
Y214193D01*
X-737472Y212923D01*
X-734932D01*
X-733663Y214193D01*
X-731124Y212923D02*
X-728585D01*
X-729854D01*
Y220541D01*
X-731124Y219271D01*
X-734610Y231019D02*
X-735880Y232289D01*
X-738419D01*
X-739689Y231019D01*
Y225941D01*
X-738419Y224671D01*
X-735880D01*
X-734610Y225941D01*
X-726993Y224671D02*
X-732071D01*
X-726993Y229750D01*
Y231019D01*
X-728262Y232289D01*
X-730801D01*
X-732071Y231019D01*
X-272242Y123848D02*
X-273511Y125118D01*
X-276050D01*
X-277320Y123848D01*
Y118770D01*
X-276050Y117500D01*
X-273511D01*
X-272242Y118770D01*
X-269702Y123848D02*
X-268433Y125118D01*
X-265894D01*
X-264624Y123848D01*
Y122578D01*
X-265894Y121309D01*
X-267163D01*
X-265894D01*
X-264624Y120039D01*
Y118770D01*
X-265894Y117500D01*
X-268433D01*
X-269702Y118770D01*
X-287178Y142348D02*
X-288447Y143617D01*
X-290986D01*
X-292256Y142348D01*
Y137270D01*
X-290986Y136000D01*
X-288447D01*
X-287178Y137270D01*
X-280830Y136000D02*
Y143617D01*
X-284638Y139809D01*
X-279560D01*
X-438668Y134078D02*
X-439938Y132809D01*
Y130270D01*
X-438668Y129000D01*
X-433590D01*
X-432320Y130270D01*
Y132809D01*
X-433590Y134078D01*
X-439938Y141696D02*
Y136617D01*
X-436129D01*
X-437398Y139157D01*
Y140426D01*
X-436129Y141696D01*
X-433590D01*
X-432320Y140426D01*
Y137887D01*
X-433590Y136617D01*
X-368668Y224078D02*
X-369938Y222809D01*
Y220270D01*
X-368668Y219000D01*
X-363590D01*
X-362320Y220270D01*
Y222809D01*
X-363590Y224078D01*
X-369938Y231696D02*
X-368668Y229157D01*
X-366129Y226618D01*
X-363590D01*
X-362320Y227887D01*
Y230426D01*
X-363590Y231696D01*
X-364859D01*
X-366129Y230426D01*
Y226618D01*
X-357668Y224078D02*
X-358938Y222809D01*
Y220270D01*
X-357668Y219000D01*
X-352590D01*
X-351320Y220270D01*
Y222809D01*
X-352590Y224078D01*
X-358938Y226618D02*
Y231696D01*
X-357668D01*
X-352590Y226618D01*
X-351320D01*
X-346668Y224078D02*
X-347938Y222809D01*
Y220270D01*
X-346668Y219000D01*
X-341590D01*
X-340320Y220270D01*
Y222809D01*
X-341590Y224078D01*
X-346668Y226618D02*
X-347938Y227887D01*
Y230426D01*
X-346668Y231696D01*
X-345398D01*
X-344129Y230426D01*
X-342859Y231696D01*
X-341590D01*
X-340320Y230426D01*
Y227887D01*
X-341590Y226618D01*
X-342859D01*
X-344129Y227887D01*
X-345398Y226618D01*
X-346668D01*
X-344129Y227887D02*
Y230426D01*
X-648668Y303078D02*
X-649938Y301809D01*
Y299270D01*
X-648668Y298000D01*
X-643590D01*
X-642320Y299270D01*
Y301809D01*
X-643590Y303078D01*
Y305618D02*
X-642320Y306887D01*
Y309426D01*
X-643590Y310696D01*
X-648668D01*
X-649938Y309426D01*
Y306887D01*
X-648668Y305618D01*
X-647399D01*
X-646129Y306887D01*
Y310696D01*
X-803242Y389348D02*
X-804511Y390617D01*
X-807051D01*
X-808320Y389348D01*
Y384270D01*
X-807051Y383000D01*
X-804511D01*
X-803242Y384270D01*
X-800703Y383000D02*
X-798164D01*
X-799433D01*
Y390617D01*
X-800703Y389348D01*
X-794355D02*
X-793085Y390617D01*
X-790546D01*
X-789276Y389348D01*
Y384270D01*
X-790546Y383000D01*
X-793085D01*
X-794355Y384270D01*
Y389348D01*
X-762178D02*
X-763447Y390617D01*
X-765986D01*
X-767256Y389348D01*
Y384270D01*
X-765986Y383000D01*
X-763447D01*
X-762178Y384270D01*
X-759638Y383000D02*
X-757099D01*
X-758369D01*
Y390617D01*
X-759638Y389348D01*
X-753290Y383000D02*
X-750751D01*
X-752021D01*
Y390617D01*
X-753290Y389348D01*
X-335668Y224078D02*
X-336938Y222809D01*
Y220270D01*
X-335668Y219000D01*
X-330590D01*
X-329320Y220270D01*
Y222809D01*
X-330590Y224078D01*
X-329320Y226618D02*
Y229157D01*
Y227887D01*
X-336938D01*
X-335668Y226618D01*
X-329320Y238044D02*
Y232966D01*
X-334398Y238044D01*
X-335668D01*
X-336938Y236774D01*
Y234235D01*
X-335668Y232966D01*
X-816604Y101078D02*
X-817874Y99809D01*
Y97270D01*
X-816604Y96000D01*
X-811526D01*
X-810256Y97270D01*
Y99809D01*
X-811526Y101078D01*
X-810256Y103617D02*
Y106157D01*
Y104887D01*
X-817874D01*
X-816604Y103617D01*
X-810256Y113774D02*
X-817874D01*
X-814065Y109965D01*
Y115044D01*
X-153418Y108771D02*
X-154687Y107501D01*
Y104962D01*
X-153418Y103692D01*
X-148339D01*
X-147070Y104962D01*
Y107501D01*
X-148339Y108771D01*
X-147070Y111310D02*
Y113849D01*
Y112580D01*
X-154687D01*
X-153418Y111310D01*
X-154687Y122736D02*
Y117658D01*
X-150879D01*
X-152148Y120197D01*
Y121467D01*
X-150879Y122736D01*
X-148339D01*
X-147070Y121467D01*
Y118927D01*
X-148339Y117658D01*
X-469668Y20078D02*
X-470938Y18809D01*
Y16270D01*
X-469668Y15000D01*
X-464590D01*
X-463320Y16270D01*
Y18809D01*
X-464590Y20078D01*
X-463320Y27696D02*
Y22617D01*
X-468399Y27696D01*
X-469668D01*
X-470938Y26426D01*
Y23887D01*
X-469668Y22617D01*
X-470938Y35313D02*
X-469668Y32774D01*
X-467129Y30235D01*
X-464590D01*
X-463320Y31505D01*
Y34044D01*
X-464590Y35313D01*
X-465859D01*
X-467129Y34044D01*
Y30235D01*
X-477668Y81078D02*
X-478938Y79809D01*
Y77270D01*
X-477668Y76000D01*
X-472590D01*
X-471320Y77270D01*
Y79809D01*
X-472590Y81078D01*
X-471320Y88696D02*
Y83617D01*
X-476399Y88696D01*
X-477668D01*
X-478938Y87426D01*
Y84887D01*
X-477668Y83617D01*
X-478938Y91235D02*
Y96313D01*
X-477668D01*
X-472590Y91235D01*
X-471320D01*
X-412668Y225078D02*
X-413938Y223809D01*
Y221270D01*
X-412668Y220000D01*
X-407590D01*
X-406320Y221270D01*
Y223809D01*
X-407590Y225078D01*
X-412668Y227617D02*
X-413938Y228887D01*
Y231426D01*
X-412668Y232696D01*
X-411399D01*
X-410129Y231426D01*
Y230157D01*
Y231426D01*
X-408859Y232696D01*
X-407590D01*
X-406320Y231426D01*
Y228887D01*
X-407590Y227617D01*
Y235235D02*
X-406320Y236505D01*
Y239044D01*
X-407590Y240313D01*
X-412668D01*
X-413938Y239044D01*
Y236505D01*
X-412668Y235235D01*
X-411399D01*
X-410129Y236505D01*
Y240313D01*
X-400668Y224078D02*
X-401938Y222809D01*
Y220270D01*
X-400668Y219000D01*
X-395590D01*
X-394320Y220270D01*
Y222809D01*
X-395590Y224078D01*
X-394320Y230426D02*
X-401938D01*
X-398129Y226618D01*
Y231696D01*
X-400668Y234235D02*
X-401938Y235505D01*
Y238044D01*
X-400668Y239313D01*
X-395590D01*
X-394320Y238044D01*
Y235505D01*
X-395590Y234235D01*
X-400668D01*
X-449922Y306348D02*
X-451191Y307617D01*
X-453730D01*
X-455000Y306348D01*
Y301270D01*
X-453730Y300000D01*
X-451191D01*
X-449922Y301270D01*
X-443574Y300000D02*
Y307617D01*
X-447383Y303809D01*
X-442304D01*
X-439765Y300000D02*
X-437226D01*
X-438495D01*
Y307617D01*
X-439765Y306348D01*
X-389668Y224078D02*
X-390938Y222809D01*
Y220270D01*
X-389668Y219000D01*
X-384590D01*
X-383320Y220270D01*
Y222809D01*
X-384590Y224078D01*
X-383320Y230426D02*
X-390938D01*
X-387129Y226618D01*
Y231696D01*
X-383320Y239313D02*
Y234235D01*
X-388399Y239313D01*
X-389668D01*
X-390938Y238044D01*
Y235505D01*
X-389668Y234235D01*
X-378668Y224078D02*
X-379938Y222809D01*
Y220270D01*
X-378668Y219000D01*
X-373590D01*
X-372320Y220270D01*
Y222809D01*
X-373590Y224078D01*
X-372320Y230426D02*
X-379938D01*
X-376129Y226618D01*
Y231696D01*
X-378668Y234235D02*
X-379938Y235505D01*
Y238044D01*
X-378668Y239313D01*
X-377398D01*
X-376129Y238044D01*
Y236774D01*
Y238044D01*
X-374859Y239313D01*
X-373590D01*
X-372320Y238044D01*
Y235505D01*
X-373590Y234235D01*
X-306668Y235078D02*
X-307938Y233809D01*
Y231270D01*
X-306668Y230000D01*
X-301590D01*
X-300320Y231270D01*
Y233809D01*
X-301590Y235078D01*
X-300320Y241426D02*
X-307938D01*
X-304129Y237617D01*
Y242696D01*
X-300320Y249044D02*
X-307938D01*
X-304129Y245235D01*
Y250313D01*
X-318668Y235078D02*
X-319938Y233809D01*
Y231270D01*
X-318668Y230000D01*
X-313590D01*
X-312320Y231270D01*
Y233809D01*
X-313590Y235078D01*
X-312320Y241426D02*
X-319938D01*
X-316129Y237617D01*
Y242696D01*
X-319938Y250313D02*
Y245235D01*
X-316129D01*
X-317398Y247774D01*
Y249044D01*
X-316129Y250313D01*
X-313590D01*
X-312320Y249044D01*
Y246505D01*
X-313590Y245235D01*
X-637668Y198078D02*
X-638938Y196809D01*
Y194270D01*
X-637668Y193000D01*
X-632590D01*
X-631320Y194270D01*
Y196809D01*
X-632590Y198078D01*
X-638938Y200618D02*
Y205696D01*
X-637668D01*
X-632590Y200618D01*
X-631320D01*
X-637668Y208235D02*
X-638938Y209505D01*
Y212044D01*
X-637668Y213313D01*
X-636399D01*
X-635129Y212044D01*
Y210774D01*
Y212044D01*
X-633859Y213313D01*
X-632590D01*
X-631320Y212044D01*
Y209505D01*
X-632590Y208235D01*
X-647668Y198078D02*
X-648938Y196809D01*
Y194270D01*
X-647668Y193000D01*
X-642590D01*
X-641320Y194270D01*
Y196809D01*
X-642590Y198078D01*
X-648938Y200618D02*
Y205696D01*
X-647668D01*
X-642590Y200618D01*
X-641320D01*
Y212044D02*
X-648938D01*
X-645129Y208235D01*
Y213313D01*
X-657668Y198078D02*
X-658938Y196809D01*
Y194270D01*
X-657668Y193000D01*
X-652590D01*
X-651320Y194270D01*
Y196809D01*
X-652590Y198078D01*
X-658938Y200618D02*
Y205696D01*
X-657668D01*
X-652590Y200618D01*
X-651320D01*
X-658938Y213313D02*
Y208235D01*
X-655129D01*
X-656398Y210774D01*
Y212044D01*
X-655129Y213313D01*
X-652590D01*
X-651320Y212044D01*
Y209505D01*
X-652590Y208235D01*
X-678668Y198078D02*
X-679938Y196809D01*
Y194270D01*
X-678668Y193000D01*
X-673590D01*
X-672320Y194270D01*
Y196809D01*
X-673590Y198078D01*
X-679938Y200618D02*
Y205696D01*
X-678668D01*
X-673590Y200618D01*
X-672320D01*
X-679938Y213313D02*
X-678668Y210774D01*
X-676129Y208235D01*
X-673590D01*
X-672320Y209505D01*
Y212044D01*
X-673590Y213313D01*
X-674859D01*
X-676129Y212044D01*
Y208235D01*
X-667668Y198078D02*
X-668938Y196809D01*
Y194270D01*
X-667668Y193000D01*
X-662590D01*
X-661320Y194270D01*
Y196809D01*
X-662590Y198078D01*
X-668938Y200618D02*
Y205696D01*
X-667668D01*
X-662590Y200618D01*
X-661320D01*
X-668938Y208235D02*
Y213313D01*
X-667668D01*
X-662590Y208235D01*
X-661320D01*
X-699668Y198078D02*
X-700938Y196809D01*
Y194270D01*
X-699668Y193000D01*
X-694590D01*
X-693320Y194270D01*
Y196809D01*
X-694590Y198078D01*
X-700938Y200618D02*
Y205696D01*
X-699668D01*
X-694590Y200618D01*
X-693320D01*
X-699668Y208235D02*
X-700938Y209505D01*
Y212044D01*
X-699668Y213313D01*
X-698399D01*
X-697129Y212044D01*
X-695859Y213313D01*
X-694590D01*
X-693320Y212044D01*
Y209505D01*
X-694590Y208235D01*
X-695859D01*
X-697129Y209505D01*
X-698399Y208235D01*
X-699668D01*
X-697129Y209505D02*
Y212044D01*
X-689668Y198078D02*
X-690938Y196809D01*
Y194270D01*
X-689668Y193000D01*
X-684590D01*
X-683320Y194270D01*
Y196809D01*
X-684590Y198078D01*
X-690938Y200618D02*
Y205696D01*
X-689668D01*
X-684590Y200618D01*
X-683320D01*
X-684590Y208235D02*
X-683320Y209505D01*
Y212044D01*
X-684590Y213313D01*
X-689668D01*
X-690938Y212044D01*
Y209505D01*
X-689668Y208235D01*
X-688399D01*
X-687129Y209505D01*
Y213313D01*
X-710668Y198078D02*
X-711938Y196809D01*
Y194270D01*
X-710668Y193000D01*
X-705590D01*
X-704320Y194270D01*
Y196809D01*
X-705590Y198078D01*
X-710668Y200618D02*
X-711938Y201887D01*
Y204426D01*
X-710668Y205696D01*
X-709398D01*
X-708129Y204426D01*
X-706859Y205696D01*
X-705590D01*
X-704320Y204426D01*
Y201887D01*
X-705590Y200618D01*
X-706859D01*
X-708129Y201887D01*
X-709398Y200618D01*
X-710668D01*
X-708129Y201887D02*
Y204426D01*
X-710668Y208235D02*
X-711938Y209505D01*
Y212044D01*
X-710668Y213313D01*
X-705590D01*
X-704320Y212044D01*
Y209505D01*
X-705590Y208235D01*
X-710668D01*
X-329938Y114000D02*
X-322320D01*
Y117809D01*
X-323590Y119078D01*
X-328668D01*
X-329938Y117809D01*
Y114000D01*
X-322320Y126696D02*
Y121617D01*
X-327398Y126696D01*
X-328668D01*
X-329938Y125426D01*
Y122887D01*
X-328668Y121617D01*
X-769617Y109000D02*
X-762000D01*
Y112809D01*
X-763270Y114078D01*
X-768348D01*
X-769617Y112809D01*
Y109000D01*
X-762000Y120426D02*
X-769617D01*
X-765809Y116617D01*
Y121696D01*
X-594320Y347617D02*
X-591781D01*
X-593050D01*
Y340000D01*
X-594320D01*
X-591781D01*
X-582894Y346348D02*
X-584163Y347617D01*
X-586703D01*
X-587972Y346348D01*
Y341270D01*
X-586703Y340000D01*
X-584163D01*
X-582894Y341270D01*
X-580355Y340000D02*
X-577816D01*
X-579085D01*
Y347617D01*
X-580355Y346348D01*
X-339938Y148000D02*
Y150539D01*
Y149270D01*
X-332320D01*
Y148000D01*
Y150539D01*
X-338668Y159426D02*
X-339938Y158157D01*
Y155618D01*
X-338668Y154348D01*
X-333590D01*
X-332320Y155618D01*
Y158157D01*
X-333590Y159426D01*
X-332320Y167044D02*
Y161966D01*
X-337398Y167044D01*
X-338668D01*
X-339938Y165774D01*
Y163235D01*
X-338668Y161966D01*
X-735256Y263617D02*
X-732717D01*
X-733986D01*
Y256000D01*
X-735256D01*
X-732717D01*
X-723830Y262348D02*
X-725099Y263617D01*
X-727638D01*
X-728908Y262348D01*
Y257270D01*
X-727638Y256000D01*
X-725099D01*
X-723830Y257270D01*
X-717482Y256000D02*
Y263617D01*
X-721291Y259809D01*
X-716212D01*
X-687320Y173617D02*
X-684781D01*
X-686050D01*
Y166000D01*
X-687320D01*
X-684781D01*
X-675894Y172348D02*
X-677163Y173617D01*
X-679703D01*
X-680972Y172348D01*
Y167270D01*
X-679703Y166000D01*
X-677163D01*
X-675894Y167270D01*
X-673355Y166000D02*
X-670815D01*
X-672085D01*
Y173617D01*
X-673355Y172348D01*
X-667007D02*
X-665737Y173617D01*
X-663198D01*
X-661928Y172348D01*
Y171078D01*
X-663198Y169809D01*
X-661928Y168539D01*
Y167270D01*
X-663198Y166000D01*
X-665737D01*
X-667007Y167270D01*
Y168539D01*
X-665737Y169809D01*
X-667007Y171078D01*
Y172348D01*
X-665737Y169809D02*
X-663198D01*
X-475242Y11617D02*
X-477781D01*
X-476511D01*
Y5270D01*
X-477781Y4000D01*
X-479050D01*
X-480320Y5270D01*
X-472703Y4000D02*
X-470163D01*
X-471433D01*
Y11617D01*
X-472703Y10348D01*
X-466355Y4000D02*
X-463815D01*
X-465085D01*
Y11617D01*
X-466355Y10348D01*
X-220173Y189291D02*
Y181674D01*
X-215095D01*
X-212555Y188022D02*
X-211286Y189291D01*
X-208747D01*
X-207477Y188022D01*
Y186752D01*
X-208747Y185483D01*
X-210016D01*
X-208747D01*
X-207477Y184213D01*
Y182943D01*
X-208747Y181674D01*
X-211286D01*
X-212555Y182943D01*
X-633320Y85000D02*
X-640938D01*
Y88809D01*
X-639668Y90078D01*
X-637129D01*
X-635859Y88809D01*
Y85000D01*
Y87539D02*
X-633320Y90078D01*
Y92618D02*
Y95157D01*
Y93887D01*
X-640938D01*
X-639668Y92618D01*
X-643320Y85000D02*
X-650938D01*
Y88809D01*
X-649668Y90078D01*
X-647129D01*
X-645859Y88809D01*
Y85000D01*
Y87539D02*
X-643320Y90078D01*
Y97696D02*
Y92618D01*
X-648398Y97696D01*
X-649668D01*
X-650938Y96426D01*
Y93887D01*
X-649668Y92618D01*
X-653320Y85000D02*
X-660938D01*
Y88809D01*
X-659668Y90078D01*
X-657129D01*
X-655859Y88809D01*
Y85000D01*
Y87539D02*
X-653320Y90078D01*
X-659668Y92618D02*
X-660938Y93887D01*
Y96426D01*
X-659668Y97696D01*
X-658399D01*
X-657129Y96426D01*
Y95157D01*
Y96426D01*
X-655859Y97696D01*
X-654590D01*
X-653320Y96426D01*
Y93887D01*
X-654590Y92618D01*
X-663320Y85000D02*
X-670938D01*
Y88809D01*
X-669668Y90078D01*
X-667129D01*
X-665859Y88809D01*
Y85000D01*
Y87539D02*
X-663320Y90078D01*
Y96426D02*
X-670938D01*
X-667129Y92618D01*
Y97696D01*
X-647320Y120000D02*
Y127618D01*
X-643511D01*
X-642242Y126348D01*
Y123809D01*
X-643511Y122539D01*
X-647320D01*
X-644781D02*
X-642242Y120000D01*
X-634624Y127618D02*
X-639703D01*
Y123809D01*
X-637163Y125078D01*
X-635894D01*
X-634624Y123809D01*
Y121270D01*
X-635894Y120000D01*
X-638433D01*
X-639703Y121270D01*
X-576320Y133000D02*
X-583938D01*
Y136809D01*
X-582668Y138078D01*
X-580129D01*
X-578859Y136809D01*
Y133000D01*
Y135539D02*
X-576320Y138078D01*
X-583938Y145696D02*
X-582668Y143157D01*
X-580129Y140618D01*
X-577590D01*
X-576320Y141887D01*
Y144426D01*
X-577590Y145696D01*
X-578859D01*
X-580129Y144426D01*
Y140618D01*
X-673320Y85000D02*
X-680938D01*
Y88809D01*
X-679668Y90078D01*
X-677129D01*
X-675859Y88809D01*
Y85000D01*
Y87539D02*
X-673320Y90078D01*
X-680938Y92618D02*
Y97696D01*
X-679668D01*
X-674590Y92618D01*
X-673320D01*
X-683320Y85000D02*
X-690938D01*
Y88809D01*
X-689668Y90078D01*
X-687129D01*
X-685859Y88809D01*
Y85000D01*
Y87539D02*
X-683320Y90078D01*
X-689668Y92618D02*
X-690938Y93887D01*
Y96426D01*
X-689668Y97696D01*
X-688399D01*
X-687129Y96426D01*
X-685859Y97696D01*
X-684590D01*
X-683320Y96426D01*
Y93887D01*
X-684590Y92618D01*
X-685859D01*
X-687129Y93887D01*
X-688399Y92618D01*
X-689668D01*
X-687129Y93887D02*
Y96426D01*
X-693320Y85000D02*
X-700938D01*
Y88809D01*
X-699668Y90078D01*
X-697129D01*
X-695859Y88809D01*
Y85000D01*
Y87539D02*
X-693320Y90078D01*
X-694590Y92618D02*
X-693320Y93887D01*
Y96426D01*
X-694590Y97696D01*
X-699668D01*
X-700938Y96426D01*
Y93887D01*
X-699668Y92618D01*
X-698399D01*
X-697129Y93887D01*
Y97696D01*
X-742320Y69000D02*
X-749938D01*
Y72809D01*
X-748668Y74078D01*
X-746129D01*
X-744859Y72809D01*
Y69000D01*
Y71539D02*
X-742320Y74078D01*
Y76617D02*
Y79157D01*
Y77887D01*
X-749938D01*
X-748668Y76617D01*
Y82965D02*
X-749938Y84235D01*
Y86774D01*
X-748668Y88044D01*
X-743590D01*
X-742320Y86774D01*
Y84235D01*
X-743590Y82965D01*
X-748668D01*
X-793256Y166000D02*
Y173617D01*
X-789447D01*
X-788178Y172348D01*
Y169809D01*
X-789447Y168539D01*
X-793256D01*
X-790717D02*
X-788178Y166000D01*
X-785639D02*
X-783099D01*
X-784369D01*
Y173617D01*
X-785639Y172348D01*
X-779290Y166000D02*
X-776751D01*
X-778021D01*
Y173617D01*
X-779290Y172348D01*
X-690151Y262000D02*
X-697768D01*
Y265809D01*
X-696499Y267078D01*
X-693959D01*
X-692690Y265809D01*
Y262000D01*
Y264539D02*
X-690151Y267078D01*
Y269618D02*
Y272157D01*
Y270887D01*
X-697768D01*
X-696499Y269618D01*
Y275965D02*
X-697768Y277235D01*
Y279774D01*
X-696499Y281044D01*
X-695229D01*
X-693959Y279774D01*
Y278505D01*
Y279774D01*
X-692690Y281044D01*
X-691420D01*
X-690151Y279774D01*
Y277235D01*
X-691420Y275965D01*
X-268092Y63282D02*
Y70899D01*
X-264283D01*
X-263013Y69630D01*
Y67090D01*
X-264283Y65821D01*
X-268092D01*
X-265553D02*
X-263013Y63282D01*
X-260474D02*
X-257935D01*
X-259205D01*
Y70899D01*
X-260474Y69630D01*
X-250317Y63282D02*
Y70899D01*
X-254126Y67090D01*
X-249048D01*
X-677320Y262000D02*
X-684938D01*
Y265809D01*
X-683668Y267078D01*
X-681129D01*
X-679859Y265809D01*
Y262000D01*
Y264539D02*
X-677320Y267078D01*
Y269618D02*
Y272157D01*
Y270887D01*
X-684938D01*
X-683668Y269618D01*
X-684938Y281044D02*
Y275965D01*
X-681129D01*
X-682399Y278505D01*
Y279774D01*
X-681129Y281044D01*
X-678590D01*
X-677320Y279774D01*
Y277235D01*
X-678590Y275965D01*
X-422000Y290000D02*
X-429618D01*
Y293809D01*
X-428348Y295078D01*
X-425809D01*
X-424539Y293809D01*
Y290000D01*
Y292539D02*
X-422000Y295078D01*
Y297617D02*
Y300157D01*
Y298887D01*
X-429618D01*
X-428348Y297617D01*
X-429618Y309044D02*
X-428348Y306505D01*
X-425809Y303965D01*
X-423270D01*
X-422000Y305235D01*
Y307774D01*
X-423270Y309044D01*
X-424539D01*
X-425809Y307774D01*
Y303965D01*
X-664320Y262000D02*
X-671938D01*
Y265809D01*
X-670668Y267078D01*
X-668129D01*
X-666859Y265809D01*
Y262000D01*
Y264539D02*
X-664320Y267078D01*
Y269618D02*
Y272157D01*
Y270887D01*
X-671938D01*
X-670668Y269618D01*
X-671938Y275965D02*
Y281044D01*
X-670668D01*
X-665590Y275965D01*
X-664320D01*
X-499256Y395000D02*
X-506874D01*
Y398809D01*
X-505604Y400078D01*
X-503065D01*
X-501795Y398809D01*
Y395000D01*
Y397539D02*
X-499256Y400078D01*
Y402617D02*
Y405157D01*
Y403887D01*
X-506874D01*
X-505604Y402617D01*
Y408965D02*
X-506874Y410235D01*
Y412774D01*
X-505604Y414044D01*
X-504334D01*
X-503065Y412774D01*
X-501795Y414044D01*
X-500526D01*
X-499256Y412774D01*
Y410235D01*
X-500526Y408965D01*
X-501795D01*
X-503065Y410235D01*
X-504334Y408965D01*
X-505604D01*
X-503065Y410235D02*
Y412774D01*
X-640320Y261000D02*
X-647938D01*
Y264809D01*
X-646668Y266078D01*
X-644129D01*
X-642859Y264809D01*
Y261000D01*
Y263539D02*
X-640320Y266078D01*
Y268617D02*
Y271157D01*
Y269887D01*
X-647938D01*
X-646668Y268617D01*
X-641590Y274965D02*
X-640320Y276235D01*
Y278774D01*
X-641590Y280044D01*
X-646668D01*
X-647938Y278774D01*
Y276235D01*
X-646668Y274965D01*
X-645398D01*
X-644129Y276235D01*
Y280044D01*
X-286256Y103000D02*
Y110618D01*
X-282447D01*
X-281178Y109348D01*
Y106809D01*
X-282447Y105539D01*
X-286256D01*
X-283717D02*
X-281178Y103000D01*
X-273560D02*
X-278638D01*
X-273560Y108078D01*
Y109348D01*
X-274830Y110618D01*
X-277369D01*
X-278638Y109348D01*
X-271021D02*
X-269751Y110618D01*
X-267212D01*
X-265943Y109348D01*
Y104270D01*
X-267212Y103000D01*
X-269751D01*
X-271021Y104270D01*
Y109348D01*
X-652320Y262000D02*
X-659938D01*
Y265809D01*
X-658668Y267078D01*
X-656129D01*
X-654859Y265809D01*
Y262000D01*
Y264539D02*
X-652320Y267078D01*
Y274696D02*
Y269618D01*
X-657399Y274696D01*
X-658668D01*
X-659938Y273426D01*
Y270887D01*
X-658668Y269618D01*
X-652320Y277235D02*
Y279774D01*
Y278505D01*
X-659938D01*
X-658668Y277235D01*
X-510256Y395000D02*
X-517873D01*
Y398809D01*
X-516604Y400078D01*
X-514065D01*
X-512795Y398809D01*
Y395000D01*
Y397539D02*
X-510256Y400078D01*
Y407696D02*
Y402617D01*
X-515334Y407696D01*
X-516604D01*
X-517873Y406426D01*
Y403887D01*
X-516604Y402617D01*
X-510256Y415313D02*
Y410235D01*
X-515334Y415313D01*
X-516604D01*
X-517873Y414044D01*
Y411505D01*
X-516604Y410235D01*
X-521256Y395000D02*
X-528873D01*
Y398809D01*
X-527604Y400078D01*
X-525065D01*
X-523795Y398809D01*
Y395000D01*
Y397539D02*
X-521256Y400078D01*
Y407696D02*
Y402617D01*
X-526334Y407696D01*
X-527604D01*
X-528873Y406426D01*
Y403887D01*
X-527604Y402617D01*
X-521256Y414044D02*
X-528873D01*
X-525065Y410235D01*
Y415313D01*
X-532256Y395000D02*
X-539874D01*
Y398809D01*
X-538604Y400078D01*
X-536065D01*
X-534795Y398809D01*
Y395000D01*
Y397539D02*
X-532256Y400078D01*
Y407696D02*
Y402617D01*
X-537334Y407696D01*
X-538604D01*
X-539874Y406426D01*
Y403887D01*
X-538604Y402617D01*
X-539874Y415313D02*
Y410235D01*
X-536065D01*
X-537334Y412774D01*
Y414044D01*
X-536065Y415313D01*
X-533526D01*
X-532256Y414044D01*
Y411505D01*
X-533526Y410235D01*
X-335320Y171000D02*
Y178617D01*
X-331511D01*
X-330242Y177348D01*
Y174809D01*
X-331511Y173539D01*
X-335320D01*
X-332781D02*
X-330242Y171000D01*
X-322624D02*
X-327703D01*
X-322624Y176078D01*
Y177348D01*
X-323894Y178617D01*
X-326433D01*
X-327703Y177348D01*
X-315007Y178617D02*
X-317546Y177348D01*
X-320085Y174809D01*
Y172270D01*
X-318815Y171000D01*
X-316276D01*
X-315007Y172270D01*
Y173539D01*
X-316276Y174809D01*
X-320085D01*
X-69000Y417000D02*
Y424618D01*
X-65191D01*
X-63922Y423348D01*
Y420809D01*
X-65191Y419539D01*
X-69000D01*
X-66461D02*
X-63922Y417000D01*
X-56304D02*
X-61382D01*
X-56304Y422078D01*
Y423348D01*
X-57574Y424618D01*
X-60113D01*
X-61382Y423348D01*
X-53765Y424618D02*
X-48687D01*
Y423348D01*
X-53765Y418270D01*
Y417000D01*
X-69000Y405000D02*
Y412617D01*
X-65191D01*
X-63922Y411348D01*
Y408809D01*
X-65191Y407539D01*
X-69000D01*
X-66461D02*
X-63922Y405000D01*
X-56304D02*
X-61382D01*
X-56304Y410078D01*
Y411348D01*
X-57574Y412617D01*
X-60113D01*
X-61382Y411348D01*
X-53765D02*
X-52495Y412617D01*
X-49956D01*
X-48687Y411348D01*
Y410078D01*
X-49956Y408809D01*
X-48687Y407539D01*
Y406270D01*
X-49956Y405000D01*
X-52495D01*
X-53765Y406270D01*
Y407539D01*
X-52495Y408809D01*
X-53765Y410078D01*
Y411348D01*
X-52495Y408809D02*
X-49956D01*
X-69000Y382000D02*
Y389618D01*
X-65191D01*
X-63922Y388348D01*
Y385809D01*
X-65191Y384539D01*
X-69000D01*
X-66461D02*
X-63922Y382000D01*
X-56304D02*
X-61382D01*
X-56304Y387078D01*
Y388348D01*
X-57574Y389618D01*
X-60113D01*
X-61382Y388348D01*
X-53765Y383270D02*
X-52495Y382000D01*
X-49956D01*
X-48687Y383270D01*
Y388348D01*
X-49956Y389618D01*
X-52495D01*
X-53765Y388348D01*
Y387078D01*
X-52495Y385809D01*
X-48687D01*
X-306320Y171000D02*
Y178617D01*
X-302511D01*
X-301242Y177348D01*
Y174809D01*
X-302511Y173539D01*
X-306320D01*
X-303781D02*
X-301242Y171000D01*
X-298703Y177348D02*
X-297433Y178617D01*
X-294894D01*
X-293624Y177348D01*
Y176078D01*
X-294894Y174809D01*
X-296163D01*
X-294894D01*
X-293624Y173539D01*
Y172270D01*
X-294894Y171000D01*
X-297433D01*
X-298703Y172270D01*
X-291085Y177348D02*
X-289815Y178617D01*
X-287276D01*
X-286007Y177348D01*
Y172270D01*
X-287276Y171000D01*
X-289815D01*
X-291085Y172270D01*
Y177348D01*
X-435320Y151000D02*
Y158617D01*
X-431511D01*
X-430242Y157348D01*
Y154809D01*
X-431511Y153539D01*
X-435320D01*
X-432781D02*
X-430242Y151000D01*
X-427703Y157348D02*
X-426433Y158617D01*
X-423894D01*
X-422624Y157348D01*
Y156078D01*
X-423894Y154809D01*
X-425163D01*
X-423894D01*
X-422624Y153539D01*
Y152270D01*
X-423894Y151000D01*
X-426433D01*
X-427703Y152270D01*
X-420085Y151000D02*
X-417546D01*
X-418815D01*
Y158617D01*
X-420085Y157348D01*
X-435320Y164000D02*
Y171618D01*
X-431511D01*
X-430242Y170348D01*
Y167809D01*
X-431511Y166539D01*
X-435320D01*
X-432781D02*
X-430242Y164000D01*
X-427703Y170348D02*
X-426433Y171618D01*
X-423894D01*
X-422624Y170348D01*
Y169078D01*
X-423894Y167809D01*
X-425163D01*
X-423894D01*
X-422624Y166539D01*
Y165270D01*
X-423894Y164000D01*
X-426433D01*
X-427703Y165270D01*
X-415007Y164000D02*
X-420085D01*
X-415007Y169078D01*
Y170348D01*
X-416276Y171618D01*
X-418815D01*
X-420085Y170348D01*
X-69000Y394000D02*
Y401618D01*
X-65191D01*
X-63922Y400348D01*
Y397809D01*
X-65191Y396539D01*
X-69000D01*
X-66461D02*
X-63922Y394000D01*
X-61382Y400348D02*
X-60113Y401618D01*
X-57574D01*
X-56304Y400348D01*
Y399078D01*
X-57574Y397809D01*
X-58843D01*
X-57574D01*
X-56304Y396539D01*
Y395270D01*
X-57574Y394000D01*
X-60113D01*
X-61382Y395270D01*
X-53765Y400348D02*
X-52495Y401618D01*
X-49956D01*
X-48687Y400348D01*
Y399078D01*
X-49956Y397809D01*
X-51226D01*
X-49956D01*
X-48687Y396539D01*
Y395270D01*
X-49956Y394000D01*
X-52495D01*
X-53765Y395270D01*
X-675984Y320505D02*
Y328122D01*
X-672176D01*
X-670906Y326853D01*
Y324314D01*
X-672176Y323044D01*
X-675984D01*
X-673445D02*
X-670906Y320505D01*
X-668367Y326853D02*
X-667097Y328122D01*
X-664558D01*
X-663288Y326853D01*
Y325583D01*
X-664558Y324314D01*
X-665828D01*
X-664558D01*
X-663288Y323044D01*
Y321774D01*
X-664558Y320505D01*
X-667097D01*
X-668367Y321774D01*
X-656941Y320505D02*
Y328122D01*
X-660749Y324314D01*
X-655671D01*
X-676048Y345168D02*
Y352785D01*
X-672240D01*
X-670970Y351516D01*
Y348977D01*
X-672240Y347707D01*
X-676048D01*
X-673509D02*
X-670970Y345168D01*
X-668431Y351516D02*
X-667161Y352785D01*
X-664622D01*
X-663352Y351516D01*
Y350246D01*
X-664622Y348977D01*
X-665892D01*
X-664622D01*
X-663352Y347707D01*
Y346438D01*
X-664622Y345168D01*
X-667161D01*
X-668431Y346438D01*
X-655735Y352785D02*
X-660813D01*
Y348977D01*
X-658274Y350246D01*
X-657004D01*
X-655735Y348977D01*
Y346438D01*
X-657004Y345168D01*
X-659544D01*
X-660813Y346438D01*
X-417000Y297000D02*
Y304618D01*
X-413191D01*
X-411922Y303348D01*
Y300809D01*
X-413191Y299539D01*
X-417000D01*
X-414461D02*
X-411922Y297000D01*
X-409383Y303348D02*
X-408113Y304618D01*
X-405574D01*
X-404304Y303348D01*
Y302078D01*
X-405574Y300809D01*
X-406843D01*
X-405574D01*
X-404304Y299539D01*
Y298270D01*
X-405574Y297000D01*
X-408113D01*
X-409383Y298270D01*
X-396687Y304618D02*
X-399226Y303348D01*
X-401765Y300809D01*
Y298270D01*
X-400495Y297000D01*
X-397956D01*
X-396687Y298270D01*
Y299539D01*
X-397956Y300809D01*
X-401765D01*
X-662320Y287000D02*
Y294618D01*
X-658511D01*
X-657242Y293348D01*
Y290809D01*
X-658511Y289539D01*
X-662320D01*
X-659781D02*
X-657242Y287000D01*
X-654703Y293348D02*
X-653433Y294618D01*
X-650894D01*
X-649624Y293348D01*
Y292078D01*
X-650894Y290809D01*
X-652163D01*
X-650894D01*
X-649624Y289539D01*
Y288270D01*
X-650894Y287000D01*
X-653433D01*
X-654703Y288270D01*
X-647085D02*
X-645815Y287000D01*
X-643276D01*
X-642007Y288270D01*
Y293348D01*
X-643276Y294618D01*
X-645815D01*
X-647085Y293348D01*
Y292078D01*
X-645815Y290809D01*
X-642007D01*
X-284256Y91000D02*
Y98617D01*
X-280447D01*
X-279178Y97348D01*
Y94809D01*
X-280447Y93539D01*
X-284256D01*
X-281717D02*
X-279178Y91000D01*
X-272830D02*
Y98617D01*
X-276638Y94809D01*
X-271560D01*
X-269021Y91000D02*
X-266482D01*
X-267751D01*
Y98617D01*
X-269021Y97348D01*
X-534509Y310000D02*
Y317617D01*
X-530700D01*
X-529431Y316348D01*
Y313809D01*
X-530700Y312539D01*
X-534509D01*
X-531970D02*
X-529431Y310000D01*
X-523083D02*
Y317617D01*
X-526892Y313809D01*
X-521813D01*
X-514196Y310000D02*
X-519274D01*
X-514196Y315078D01*
Y316348D01*
X-515466Y317617D01*
X-518005D01*
X-519274Y316348D01*
X-458320Y39000D02*
X-465938D01*
Y42809D01*
X-464668Y44078D01*
X-462129D01*
X-460859Y42809D01*
Y39000D01*
Y41539D02*
X-458320Y44078D01*
Y50426D02*
X-465938D01*
X-462129Y46617D01*
Y51696D01*
X-465938Y54235D02*
Y59313D01*
X-464668D01*
X-459590Y54235D01*
X-458320D01*
X-448320Y39000D02*
X-455938D01*
Y42809D01*
X-454668Y44078D01*
X-452129D01*
X-450859Y42809D01*
Y39000D01*
Y41539D02*
X-448320Y44078D01*
Y50426D02*
X-455938D01*
X-452129Y46617D01*
Y51696D01*
X-449590Y54235D02*
X-448320Y55505D01*
Y58044D01*
X-449590Y59313D01*
X-454668D01*
X-455938Y58044D01*
Y55505D01*
X-454668Y54235D01*
X-453399D01*
X-452129Y55505D01*
Y59313D01*
X-659320Y245000D02*
Y252617D01*
X-655511D01*
X-654242Y251348D01*
Y248809D01*
X-655511Y247539D01*
X-659320D01*
X-656781D02*
X-654242Y245000D01*
X-646624Y252617D02*
X-651703D01*
Y248809D01*
X-649163Y250078D01*
X-647894D01*
X-646624Y248809D01*
Y246270D01*
X-647894Y245000D01*
X-650433D01*
X-651703Y246270D01*
X-644085Y251348D02*
X-642815Y252617D01*
X-640276D01*
X-639007Y251348D01*
Y246270D01*
X-640276Y245000D01*
X-642815D01*
X-644085Y246270D01*
Y251348D01*
X-479320Y276000D02*
X-486938D01*
Y279809D01*
X-485668Y281078D01*
X-483129D01*
X-481859Y279809D01*
Y276000D01*
Y278539D02*
X-479320Y281078D01*
X-486938Y288696D02*
Y283617D01*
X-483129D01*
X-484398Y286157D01*
Y287426D01*
X-483129Y288696D01*
X-480590D01*
X-479320Y287426D01*
Y284887D01*
X-480590Y283617D01*
X-479320Y291235D02*
Y293774D01*
Y292505D01*
X-486938D01*
X-485668Y291235D01*
X-676320Y309000D02*
Y316618D01*
X-672511D01*
X-671242Y315348D01*
Y312809D01*
X-672511Y311539D01*
X-676320D01*
X-673781D02*
X-671242Y309000D01*
X-663624Y316618D02*
X-668703D01*
Y312809D01*
X-666163Y314078D01*
X-664894D01*
X-663624Y312809D01*
Y310270D01*
X-664894Y309000D01*
X-667433D01*
X-668703Y310270D01*
X-661085Y316618D02*
X-656007D01*
Y315348D01*
X-661085Y310270D01*
Y309000D01*
X-628320Y261000D02*
X-635938D01*
Y264809D01*
X-634668Y266078D01*
X-632129D01*
X-630859Y264809D01*
Y261000D01*
Y263539D02*
X-628320Y266078D01*
X-635938Y273696D02*
Y268617D01*
X-632129D01*
X-633399Y271157D01*
Y272426D01*
X-632129Y273696D01*
X-629590D01*
X-628320Y272426D01*
Y269887D01*
X-629590Y268617D01*
X-634668Y276235D02*
X-635938Y277505D01*
Y280044D01*
X-634668Y281313D01*
X-633399D01*
X-632129Y280044D01*
X-630859Y281313D01*
X-629590D01*
X-628320Y280044D01*
Y277505D01*
X-629590Y276235D01*
X-630859D01*
X-632129Y277505D01*
X-633399Y276235D01*
X-634668D01*
X-632129Y277505D02*
Y280044D01*
X-539320Y338000D02*
X-546938D01*
Y341809D01*
X-545668Y343078D01*
X-543129D01*
X-541859Y341809D01*
Y338000D01*
Y340539D02*
X-539320Y343078D01*
X-546938Y350696D02*
Y345617D01*
X-543129D01*
X-544398Y348157D01*
Y349426D01*
X-543129Y350696D01*
X-540590D01*
X-539320Y349426D01*
Y346887D01*
X-540590Y345617D01*
Y353235D02*
X-539320Y354505D01*
Y357044D01*
X-540590Y358313D01*
X-545668D01*
X-546938Y357044D01*
Y354505D01*
X-545668Y353235D01*
X-544398D01*
X-543129Y354505D01*
Y358313D01*
X-676048Y332515D02*
Y340132D01*
X-672240D01*
X-670970Y338863D01*
Y336324D01*
X-672240Y335054D01*
X-676048D01*
X-673509D02*
X-670970Y332515D01*
X-663352Y340132D02*
X-665892Y338863D01*
X-668431Y336324D01*
Y333784D01*
X-667161Y332515D01*
X-664622D01*
X-663352Y333784D01*
Y335054D01*
X-664622Y336324D01*
X-668431D01*
X-660813Y338863D02*
X-659544Y340132D01*
X-657004D01*
X-655735Y338863D01*
Y333784D01*
X-657004Y332515D01*
X-659544D01*
X-660813Y333784D01*
Y338863D01*
X-552320Y338000D02*
X-559938D01*
Y341809D01*
X-558668Y343078D01*
X-556129D01*
X-554859Y341809D01*
Y338000D01*
Y340539D02*
X-552320Y343078D01*
X-559938Y350696D02*
X-558668Y348157D01*
X-556129Y345617D01*
X-553590D01*
X-552320Y346887D01*
Y349426D01*
X-553590Y350696D01*
X-554859D01*
X-556129Y349426D01*
Y345617D01*
X-552320Y353235D02*
Y355774D01*
Y354505D01*
X-559938D01*
X-558668Y353235D01*
X-736398Y161850D02*
X-731320D01*
X-733859D01*
Y154232D01*
X-728781D02*
X-726242D01*
X-727511D01*
Y161850D01*
X-728781Y160580D01*
X-135178Y99348D02*
X-136447Y100618D01*
X-138986D01*
X-140256Y99348D01*
Y98078D01*
X-138986Y96809D01*
X-136447D01*
X-135178Y95539D01*
Y94270D01*
X-136447Y93000D01*
X-138986D01*
X-140256Y94270D01*
X-132638Y93000D02*
Y100618D01*
X-128830D01*
X-127560Y99348D01*
Y96809D01*
X-128830Y95539D01*
X-132638D01*
X-119943Y100618D02*
X-125021D01*
Y96809D01*
X-122482Y98078D01*
X-121212D01*
X-119943Y96809D01*
Y94270D01*
X-121212Y93000D01*
X-123751D01*
X-125021Y94270D01*
X-799242Y98348D02*
X-800511Y99618D01*
X-803051D01*
X-804320Y98348D01*
Y97078D01*
X-803051Y95809D01*
X-800511D01*
X-799242Y94539D01*
Y93270D01*
X-800511Y92000D01*
X-803051D01*
X-804320Y93270D01*
X-796703Y92000D02*
Y99618D01*
X-792894D01*
X-791624Y98348D01*
Y95809D01*
X-792894Y94539D01*
X-796703D01*
X-784007Y99618D02*
X-786546Y98348D01*
X-789085Y95809D01*
Y93270D01*
X-787815Y92000D01*
X-785276D01*
X-784007Y93270D01*
Y94539D01*
X-785276Y95809D01*
X-789085D01*
X-474178Y309348D02*
X-475447Y310618D01*
X-477986D01*
X-479256Y309348D01*
Y304270D01*
X-477986Y303000D01*
X-475447D01*
X-474178Y304270D01*
X-466560Y310618D02*
X-471638D01*
Y306809D01*
X-469099Y308078D01*
X-467830D01*
X-466560Y306809D01*
Y304270D01*
X-467830Y303000D01*
X-470369D01*
X-471638Y304270D01*
X-464021Y310618D02*
X-458943D01*
Y309348D01*
X-464021Y304270D01*
Y303000D01*
X-455922Y394348D02*
X-457191Y395617D01*
X-459730D01*
X-461000Y394348D01*
Y389270D01*
X-459730Y388000D01*
X-457191D01*
X-455922Y389270D01*
X-448304Y395617D02*
X-453382D01*
Y391809D01*
X-450843Y393078D01*
X-449574D01*
X-448304Y391809D01*
Y389270D01*
X-449574Y388000D01*
X-452113D01*
X-453382Y389270D01*
X-445765Y394348D02*
X-444495Y395617D01*
X-441956D01*
X-440687Y394348D01*
Y393078D01*
X-441956Y391809D01*
X-440687Y390539D01*
Y389270D01*
X-441956Y388000D01*
X-444495D01*
X-445765Y389270D01*
Y390539D01*
X-444495Y391809D01*
X-445765Y393078D01*
Y394348D01*
X-444495Y391809D02*
X-441956D01*
X-790348Y309788D02*
X-791618Y308519D01*
Y305980D01*
X-790348Y304710D01*
X-785270D01*
X-784000Y305980D01*
Y308519D01*
X-785270Y309788D01*
X-791618Y317406D02*
Y312328D01*
X-787809D01*
X-789078Y314867D01*
Y316136D01*
X-787809Y317406D01*
X-785270D01*
X-784000Y316136D01*
Y313597D01*
X-785270Y312328D01*
Y319945D02*
X-784000Y321215D01*
Y323754D01*
X-785270Y325023D01*
X-790348D01*
X-791618Y323754D01*
Y321215D01*
X-790348Y319945D01*
X-789078D01*
X-787809Y321215D01*
Y325023D01*
X-719113Y350348D02*
X-720383Y351618D01*
X-722922D01*
X-724192Y350348D01*
Y345270D01*
X-722922Y344000D01*
X-720383D01*
X-719113Y345270D01*
X-711496Y351618D02*
X-714035Y350348D01*
X-716574Y347809D01*
Y345270D01*
X-715305Y344000D01*
X-712766D01*
X-711496Y345270D01*
Y346539D01*
X-712766Y347809D01*
X-716574D01*
X-708957Y350348D02*
X-707687Y351618D01*
X-705148D01*
X-703878Y350348D01*
Y345270D01*
X-705148Y344000D01*
X-707687D01*
X-708957Y345270D01*
Y350348D01*
X-714219Y304826D02*
X-715488Y303556D01*
Y301017D01*
X-714219Y299747D01*
X-709140D01*
X-707871Y301017D01*
Y303556D01*
X-709140Y304826D01*
X-715488Y312443D02*
X-714219Y309904D01*
X-711679Y307365D01*
X-709140D01*
X-707871Y308634D01*
Y311173D01*
X-709140Y312443D01*
X-710410D01*
X-711679Y311173D01*
Y307365D01*
X-707871Y314982D02*
Y317521D01*
Y316252D01*
X-715488D01*
X-714219Y314982D01*
X-527256Y348618D02*
X-524717D01*
X-525986D01*
Y341000D01*
X-527256D01*
X-524717D01*
X-515830Y347348D02*
X-517099Y348618D01*
X-519638D01*
X-520908Y347348D01*
Y342270D01*
X-519638Y341000D01*
X-517099D01*
X-515830Y342270D01*
X-513290D02*
X-512021Y341000D01*
X-509482D01*
X-508212Y342270D01*
Y347348D01*
X-509482Y348618D01*
X-512021D01*
X-513290Y347348D01*
Y346078D01*
X-512021Y344809D01*
X-508212D01*
X-752233Y339499D02*
X-749694D01*
X-750963D01*
Y331881D01*
X-752233D01*
X-749694D01*
X-740807Y338229D02*
X-742076Y339499D01*
X-744615D01*
X-745885Y338229D01*
Y333151D01*
X-744615Y331881D01*
X-742076D01*
X-740807Y333151D01*
X-738268Y331881D02*
X-735728D01*
X-736998D01*
Y339499D01*
X-738268Y338229D01*
X-731919D02*
X-730650Y339499D01*
X-728111D01*
X-726841Y338229D01*
Y333151D01*
X-728111Y331881D01*
X-730650D01*
X-731919Y333151D01*
Y338229D01*
X-487000Y395617D02*
Y388000D01*
X-481922D01*
X-474304Y395617D02*
X-476843Y394348D01*
X-479383Y391809D01*
Y389270D01*
X-478113Y388000D01*
X-475574D01*
X-474304Y389270D01*
Y390539D01*
X-475574Y391809D01*
X-479383D01*
X-817617Y37000D02*
X-810000D01*
Y42078D01*
X-817617Y44618D02*
Y49696D01*
X-816348D01*
X-811270Y44618D01*
X-810000D01*
X-780604Y187078D02*
X-781873Y185809D01*
Y183270D01*
X-780604Y182000D01*
X-775526D01*
X-774256Y183270D01*
Y185809D01*
X-775526Y187078D01*
X-781873Y194696D02*
X-780604Y192157D01*
X-778065Y189618D01*
X-775526D01*
X-774256Y190887D01*
Y193426D01*
X-775526Y194696D01*
X-776795D01*
X-778065Y193426D01*
Y189618D01*
X-774256Y202313D02*
Y197235D01*
X-779334Y202313D01*
X-780604D01*
X-781873Y201044D01*
Y198505D01*
X-780604Y197235D01*
X-753526Y216078D02*
X-758604D01*
X-759874Y214809D01*
Y212270D01*
X-758604Y211000D01*
X-753526D01*
X-752256Y212270D01*
Y214809D01*
X-754795Y213539D02*
X-752256Y216078D01*
Y214809D02*
X-753526Y216078D01*
X-752256Y223696D02*
Y218617D01*
X-757334Y223696D01*
X-758604D01*
X-759874Y222426D01*
Y219887D01*
X-758604Y218617D01*
X-807320Y170000D02*
X-814938D01*
Y173809D01*
X-813668Y175078D01*
X-811129D01*
X-809859Y173809D01*
Y170000D01*
Y172539D02*
X-807320Y175078D01*
X-814938Y177617D02*
Y182696D01*
X-813668D01*
X-808590Y177617D01*
X-807320D01*
Y185235D02*
Y187774D01*
Y186505D01*
X-814938D01*
X-813668Y185235D01*
X-812256Y210000D02*
X-819874D01*
Y213809D01*
X-818604Y215078D01*
X-816065D01*
X-814795Y213809D01*
Y210000D01*
Y212539D02*
X-812256Y215078D01*
X-819874Y217617D02*
Y222696D01*
X-818604D01*
X-813526Y217617D01*
X-812256D01*
Y230313D02*
Y225235D01*
X-817334Y230313D01*
X-818604D01*
X-819874Y229044D01*
Y226505D01*
X-818604Y225235D01*
X-799000Y223000D02*
X-806618D01*
Y226809D01*
X-805348Y228078D01*
X-802809D01*
X-801539Y226809D01*
Y223000D01*
Y225539D02*
X-799000Y228078D01*
X-806618Y230618D02*
Y235696D01*
X-805348D01*
X-800270Y230618D01*
X-799000D01*
X-805348Y238235D02*
X-806618Y239505D01*
Y242044D01*
X-805348Y243313D01*
X-804078D01*
X-802809Y242044D01*
Y240774D01*
Y242044D01*
X-801539Y243313D01*
X-800270D01*
X-799000Y242044D01*
Y239505D01*
X-800270Y238235D01*
X-786320Y275000D02*
X-793938D01*
Y278809D01*
X-792668Y280078D01*
X-790129D01*
X-788859Y278809D01*
Y275000D01*
Y277539D02*
X-786320Y280078D01*
X-793938Y282617D02*
Y287696D01*
X-792668D01*
X-787590Y282617D01*
X-786320D01*
X-793938Y295313D02*
Y290235D01*
X-790129D01*
X-791398Y292774D01*
Y294044D01*
X-790129Y295313D01*
X-787590D01*
X-786320Y294044D01*
Y291505D01*
X-787590Y290235D01*
X-799000Y275000D02*
X-806618D01*
Y278809D01*
X-805348Y280078D01*
X-802809D01*
X-801539Y278809D01*
Y275000D01*
Y277539D02*
X-799000Y280078D01*
X-806618Y282617D02*
Y287696D01*
X-805348D01*
X-800270Y282617D01*
X-799000D01*
X-806618Y295313D02*
X-805348Y292774D01*
X-802809Y290235D01*
X-800270D01*
X-799000Y291505D01*
Y294044D01*
X-800270Y295313D01*
X-801539D01*
X-802809Y294044D01*
Y290235D01*
X-154318Y190633D02*
X-146700D01*
Y194442D01*
X-147970Y195711D01*
X-153048D01*
X-154318Y194442D01*
Y190633D01*
X-146700Y198251D02*
Y200790D01*
Y199520D01*
X-154318D01*
X-153048Y198251D01*
X-146700Y208407D02*
X-154318D01*
X-150509Y204599D01*
Y209677D01*
X-308256Y40000D02*
X-315874D01*
Y43809D01*
X-314604Y45078D01*
X-312065D01*
X-310795Y43809D01*
Y40000D01*
X-315874Y47618D02*
X-308256D01*
X-310795Y50157D01*
X-308256Y52696D01*
X-315874D01*
X-308256Y55235D02*
X-315874D01*
Y59044D01*
X-314604Y60313D01*
X-312065D01*
X-310795Y59044D01*
Y55235D01*
Y57774D02*
X-308256Y60313D01*
X-268256Y76000D02*
Y83617D01*
X-264447D01*
X-263178Y82348D01*
Y79809D01*
X-264447Y78539D01*
X-268256D01*
X-265717D02*
X-263178Y76000D01*
X-260638Y77270D02*
X-259369Y76000D01*
X-256830D01*
X-255560Y77270D01*
Y82348D01*
X-256830Y83617D01*
X-259369D01*
X-260638Y82348D01*
Y81078D01*
X-259369Y79809D01*
X-255560D01*
X-253021Y83617D02*
X-247943D01*
Y82348D01*
X-253021Y77270D01*
Y76000D01*
X-480320Y65000D02*
Y72618D01*
X-476511D01*
X-475242Y71348D01*
Y68809D01*
X-476511Y67539D01*
X-480320D01*
X-477781D02*
X-475242Y65000D01*
X-472703Y66270D02*
X-471433Y65000D01*
X-468894D01*
X-467624Y66270D01*
Y71348D01*
X-468894Y72618D01*
X-471433D01*
X-472703Y71348D01*
Y70078D01*
X-471433Y68809D01*
X-467624D01*
X-465085Y71348D02*
X-463815Y72618D01*
X-461276D01*
X-460007Y71348D01*
Y70078D01*
X-461276Y68809D01*
X-460007Y67539D01*
Y66270D01*
X-461276Y65000D01*
X-463815D01*
X-465085Y66270D01*
Y67539D01*
X-463815Y68809D01*
X-465085Y70078D01*
Y71348D01*
X-463815Y68809D02*
X-461276D01*
X-455320Y65000D02*
Y72618D01*
X-451511D01*
X-450242Y71348D01*
Y68809D01*
X-451511Y67539D01*
X-455320D01*
X-452781D02*
X-450242Y65000D01*
X-447703Y66270D02*
X-446433Y65000D01*
X-443894D01*
X-442624Y66270D01*
Y71348D01*
X-443894Y72618D01*
X-446433D01*
X-447703Y71348D01*
Y70078D01*
X-446433Y68809D01*
X-442624D01*
X-440085Y66270D02*
X-438815Y65000D01*
X-436276D01*
X-435007Y66270D01*
Y71348D01*
X-436276Y72618D01*
X-438815D01*
X-440085Y71348D01*
Y70078D01*
X-438815Y68809D01*
X-435007D01*
X-719509Y272951D02*
X-720779Y271682D01*
Y269142D01*
X-719509Y267873D01*
X-714431D01*
X-713161Y269142D01*
Y271682D01*
X-714431Y272951D01*
X-720779Y280569D02*
X-719509Y278030D01*
X-716970Y275490D01*
X-714431D01*
X-713161Y276760D01*
Y279299D01*
X-714431Y280569D01*
X-715700D01*
X-716970Y279299D01*
Y275490D01*
X-720779Y288186D02*
Y283108D01*
X-716970D01*
X-718240Y285647D01*
Y286917D01*
X-716970Y288186D01*
X-714431D01*
X-713161Y286917D01*
Y284378D01*
X-714431Y283108D01*
X-654320Y237617D02*
X-651781D01*
X-653051D01*
Y230000D01*
X-654320D01*
X-651781D01*
X-642894Y236348D02*
X-644163Y237617D01*
X-646703D01*
X-647972Y236348D01*
Y231270D01*
X-646703Y230000D01*
X-644163D01*
X-642894Y231270D01*
X-640355Y230000D02*
X-637816D01*
X-639085D01*
Y237617D01*
X-640355Y236348D01*
X-628928Y237617D02*
X-631468Y236348D01*
X-634007Y233809D01*
Y231270D01*
X-632737Y230000D01*
X-630198D01*
X-628928Y231270D01*
Y232539D01*
X-630198Y233809D01*
X-634007D01*
X-25256Y328000D02*
Y335617D01*
X-21447D01*
X-20178Y334348D01*
Y331809D01*
X-21447Y330539D01*
X-25256D01*
X-22717D02*
X-20178Y328000D01*
X-17638Y334348D02*
X-16369Y335617D01*
X-13830D01*
X-12560Y334348D01*
Y333078D01*
X-13830Y331809D01*
X-12560Y330539D01*
Y329270D01*
X-13830Y328000D01*
X-16369D01*
X-17638Y329270D01*
Y330539D01*
X-16369Y331809D01*
X-17638Y333078D01*
Y334348D01*
X-16369Y331809D02*
X-13830D01*
X-10021Y329270D02*
X-8751Y328000D01*
X-6212D01*
X-4943Y329270D01*
Y334348D01*
X-6212Y335617D01*
X-8751D01*
X-10021Y334348D01*
Y333078D01*
X-8751Y331809D01*
X-4943D01*
X-518000Y321000D02*
X-525617D01*
Y324809D01*
X-524348Y326078D01*
X-521809D01*
X-520539Y324809D01*
Y321000D01*
Y323539D02*
X-518000Y326078D01*
X-519270Y328618D02*
X-518000Y329887D01*
Y332426D01*
X-519270Y333696D01*
X-524348D01*
X-525617Y332426D01*
Y329887D01*
X-524348Y328618D01*
X-523078D01*
X-521809Y329887D01*
Y333696D01*
X-518000Y336235D02*
Y338774D01*
Y337505D01*
X-525617D01*
X-524348Y336235D01*
X-721242Y246348D02*
X-722511Y247617D01*
X-725051D01*
X-726320Y246348D01*
Y241270D01*
X-725051Y240000D01*
X-722511D01*
X-721242Y241270D01*
X-713624Y240000D02*
X-718703D01*
X-713624Y245078D01*
Y246348D01*
X-714894Y247617D01*
X-717433D01*
X-718703Y246348D01*
X-711085D02*
X-709815Y247617D01*
X-707276D01*
X-706007Y246348D01*
Y245078D01*
X-707276Y243809D01*
X-706007Y242539D01*
Y241270D01*
X-707276Y240000D01*
X-709815D01*
X-711085Y241270D01*
Y242539D01*
X-709815Y243809D01*
X-711085Y245078D01*
Y246348D01*
X-709815Y243809D02*
X-707276D01*
X-294256Y22617D02*
X-289178D01*
X-291717D01*
Y15000D01*
X-282830D02*
Y22617D01*
X-286638Y18809D01*
X-281560D01*
X-258918Y221009D02*
X-253840D01*
X-256379D01*
Y213391D01*
X-246222D02*
X-251301D01*
X-246222Y218470D01*
Y219739D01*
X-247492Y221009D01*
X-250031D01*
X-251301Y219739D01*
X-72874Y355000D02*
X-65256D01*
Y360078D01*
Y366426D02*
X-72874D01*
X-69065Y362617D01*
Y367696D01*
D148*
X-723240Y58260D02*
X-719854D01*
X-721547D01*
Y68417D01*
X-723240Y66724D01*
X-714776Y59953D02*
X-713083Y58260D01*
X-709698D01*
X-708005Y59953D01*
Y66724D01*
X-709698Y68417D01*
X-713083D01*
X-714776Y66724D01*
Y65031D01*
X-713083Y63338D01*
X-708005D01*
X-638240Y58260D02*
X-634854D01*
X-636547D01*
Y68417D01*
X-638240Y66724D01*
D149*
X-830256Y167800D02*
X-832255D01*
X-831256D01*
Y161802D01*
X-830256Y162802D01*
X-846255Y193800D02*
X-842256D01*
X-846255Y189801D01*
Y188802D01*
X-845255Y187802D01*
X-843256D01*
X-842256Y188802D01*
X-958256Y166800D02*
X-959256Y167800D01*
X-961255D01*
X-962255Y166800D01*
Y162802D01*
X-961255Y161802D01*
X-959256D01*
X-958256Y162802D01*
Y163801D01*
X-959256Y164801D01*
X-962255D01*
X-970256Y191800D02*
X-972255D01*
X-971256D01*
Y185802D01*
X-970256Y186802D01*
X-975254D02*
X-976254Y185802D01*
X-978253D01*
X-979253Y186802D01*
Y190800D01*
X-978253Y191800D01*
X-976254D01*
X-975254Y190800D01*
Y186802D01*
X-843836Y255070D02*
X-845835D01*
X-844836D01*
Y249072D01*
X-843836Y250072D01*
X-848834Y255070D02*
X-850834D01*
X-849834D01*
Y249072D01*
X-848834Y250072D01*
X-867966Y255070D02*
X-869965D01*
X-868966D01*
Y249072D01*
X-867966Y250072D01*
X-876963Y255070D02*
X-872964D01*
X-876963Y251071D01*
Y250072D01*
X-875963Y249072D01*
X-873964D01*
X-872964Y250072D01*
X-926386Y255070D02*
X-928385D01*
X-927386D01*
Y249072D01*
X-926386Y250072D01*
X-931384D02*
X-932384Y249072D01*
X-934383D01*
X-935383Y250072D01*
Y251071D01*
X-934383Y252071D01*
X-933384D01*
X-934383D01*
X-935383Y253071D01*
Y254070D01*
X-934383Y255070D01*
X-932384D01*
X-931384Y254070D01*
X-953056Y255070D02*
X-955055D01*
X-954056D01*
Y249072D01*
X-953056Y250072D01*
X-961053Y255070D02*
Y249072D01*
X-958054Y252071D01*
X-962053D01*
M02*
