%FSLAX44Y44*%
%MOMM*%
G71*
G01*
G75*
G04 Layer_Physical_Order=4*
G04 Layer_Color=16440176*
%ADD10C,0.2500*%
%ADD11R,0.3000X0.3000*%
%ADD12R,0.4500X1.3800*%
%ADD13R,0.7620X0.7620*%
%ADD14R,0.6000X0.5500*%
%ADD15R,0.7620X0.7620*%
%ADD16R,0.6200X0.5700*%
%ADD17R,0.9500X0.9500*%
%ADD18R,0.9600X0.9700*%
%ADD19R,0.5500X1.5000*%
%ADD20R,0.9500X0.9500*%
%ADD21R,1.0000X0.6000*%
%ADD22R,0.5500X0.6000*%
%ADD23R,1.2000X3.0000*%
%ADD24R,0.6000X1.0000*%
%ADD25R,1.5500X1.5500*%
%ADD26O,0.6000X0.3000*%
%ADD27R,0.5000X0.4000*%
%ADD28R,0.5700X0.6200*%
%ADD29R,2.4000X1.5000*%
%ADD30R,0.5900X0.4500*%
%ADD31R,0.3500X0.8500*%
%ADD32R,0.2000X1.0000*%
%ADD33R,0.3000X1.2000*%
%ADD34R,3.2000X1.2000*%
%ADD35R,0.4500X0.2000*%
%ADD36R,0.5000X0.2000*%
%ADD37R,0.2000X0.4500*%
%ADD38R,0.2000X0.5000*%
%ADD39R,0.4500X0.5900*%
%ADD40R,0.3000X1.4500*%
%ADD41R,1.1000X1.4000*%
%ADD42R,0.2300X1.0000*%
%ADD43R,0.4000X0.5500*%
%ADD44R,0.3000X0.5500*%
%ADD45R,1.2500X1.7500*%
%ADD46R,0.9700X0.9600*%
%ADD47R,2.1000X2.1000*%
%ADD48R,0.2500X0.6000*%
%ADD49R,0.6000X0.2500*%
%ADD50O,0.5000X1.6000*%
%ADD51R,0.3000X0.3000*%
%ADD52R,1.0160X1.7000*%
%ADD53R,1.0160X1.7000*%
%ADD54R,1.0000X1.5000*%
%ADD55O,0.3000X0.8000*%
%ADD56O,0.8000X0.3000*%
G04:AMPARAMS|DCode=57|XSize=0.75mm|YSize=1.6mm|CornerRadius=0.075mm|HoleSize=0mm|Usage=FLASHONLY|Rotation=270.000|XOffset=0mm|YOffset=0mm|HoleType=Round|Shape=RoundedRectangle|*
%AMROUNDEDRECTD57*
21,1,0.7500,1.4500,0,0,270.0*
21,1,0.6000,1.6000,0,0,270.0*
1,1,0.1500,-0.7250,-0.3000*
1,1,0.1500,-0.7250,0.3000*
1,1,0.1500,0.7250,0.3000*
1,1,0.1500,0.7250,-0.3000*
%
%ADD57ROUNDEDRECTD57*%
G04:AMPARAMS|DCode=58|XSize=0.6mm|YSize=1.8mm|CornerRadius=0.06mm|HoleSize=0mm|Usage=FLASHONLY|Rotation=270.000|XOffset=0mm|YOffset=0mm|HoleType=Round|Shape=RoundedRectangle|*
%AMROUNDEDRECTD58*
21,1,0.6000,1.6800,0,0,270.0*
21,1,0.4800,1.8000,0,0,270.0*
1,1,0.1200,-0.8400,-0.2400*
1,1,0.1200,-0.8400,0.2400*
1,1,0.1200,0.8400,0.2400*
1,1,0.1200,0.8400,-0.2400*
%
%ADD58ROUNDEDRECTD58*%
G04:AMPARAMS|DCode=59|XSize=1.3mm|YSize=0.7mm|CornerRadius=0.07mm|HoleSize=0mm|Usage=FLASHONLY|Rotation=270.000|XOffset=0mm|YOffset=0mm|HoleType=Round|Shape=RoundedRectangle|*
%AMROUNDEDRECTD59*
21,1,1.3000,0.5600,0,0,270.0*
21,1,1.1600,0.7000,0,0,270.0*
1,1,0.1400,-0.2800,-0.5800*
1,1,0.1400,-0.2800,0.5800*
1,1,0.1400,0.2800,0.5800*
1,1,0.1400,0.2800,-0.5800*
%
%ADD59ROUNDEDRECTD59*%
%ADD60R,3.2000X3.2000*%
%ADD61R,0.7500X0.3000*%
%ADD62R,0.3000X0.7500*%
%ADD63R,1.0160X1.2700*%
%ADD64R,0.4000X0.9000*%
%ADD65R,0.4000X0.5000*%
%ADD66R,1.3900X1.4000*%
%ADD67R,3.3600X4.8600*%
%ADD68R,1.4000X1.1000*%
%ADD69R,0.8500X0.3560*%
%ADD70R,2.6000X3.0000*%
%ADD71R,0.3000X1.7500*%
%ADD72R,2.0000X3.5000*%
%ADD73R,3.4000X2.4000*%
%ADD74R,1.7000X1.0160*%
%ADD75R,1.7000X1.0160*%
%ADD76R,1.4000X2.1000*%
%ADD77R,2.3700X1.9000*%
%ADD78R,1.1750X1.9000*%
%ADD79C,0.2000*%
%ADD80C,0.3000*%
%ADD81C,0.1500*%
%ADD82C,0.4000*%
%ADD83C,0.1800*%
%ADD84C,0.2200*%
%ADD85C,0.3500*%
%ADD86R,2.1000X10.0000*%
%ADD87R,2.6000X6.8000*%
%ADD88R,4.4000X3.2000*%
%ADD89R,2.2000X13.7000*%
%ADD90O,1.0000X1.6000*%
%ADD91C,0.6500*%
%ADD92C,6.0000*%
%ADD93O,1.2000X1.7000*%
%ADD94O,1.2000X1.9000*%
%ADD95C,0.7500*%
%ADD96O,1.4000X2.8500*%
%ADD97O,1.2000X2.2500*%
%ADD98C,0.5000*%
%ADD99C,1.5000*%
%ADD100R,1.5000X1.5000*%
%ADD101O,4.5000X2.0000*%
%ADD102O,2.0000X4.0000*%
%ADD103O,4.0000X2.0000*%
%ADD104C,1.7000*%
%ADD105C,3.2500*%
%ADD106C,1.6500*%
%ADD107C,2.6000*%
%ADD108C,1.9000*%
%ADD109R,1.7000X1.7000*%
%ADD110C,0.6000*%
%ADD111C,1.0160*%
%ADD112R,3.4000X0.8000*%
%ADD113R,6.2000X1.5000*%
%ADD114O,1.6160X2.2160*%
%ADD115C,1.4160*%
%ADD116C,4.7160*%
%ADD117O,1.6160X2.1160*%
%ADD118O,1.6160X2.3160*%
%ADD119C,1.5660*%
%ADD120C,2.0160*%
%ADD121O,1.9160X3.3660*%
%ADD122O,1.7160X2.7560*%
%ADD123C,1.9160*%
%ADD124C,2.0360*%
%ADD125O,2.0160X4.0160*%
%ADD126O,4.0160X2.0160*%
%ADD127C,1.9060*%
%ADD128C,4.2660*%
%ADD129C,2.0360*%
%ADD130C,2.7160*%
%ADD131C,2.6160*%
%ADD132C,2.1160*%
%ADD133C,1.1660*%
%ADD134C,1.2660*%
%ADD135C,1.2160*%
%ADD136C,0.0000*%
D10*
X-199256Y163121D02*
X-194010Y168367D01*
X-199256Y93000D02*
Y163121D01*
X-226256Y66000D02*
X-199256Y93000D01*
X-279256Y377000D02*
Y386256D01*
X-312000Y419000D02*
X-279256Y386256D01*
X-341256Y419000D02*
X-312000D01*
X-303256Y111000D02*
X-286320D01*
X-368723Y135261D02*
X-352548D01*
X-352547Y135262D02*
X-327518D01*
X-352548Y135261D02*
X-352547Y135262D01*
X-327518D02*
X-303256Y111000D01*
X-373430Y139969D02*
X-368723Y135261D01*
X-492041Y101725D02*
X-453797Y139969D01*
X-492041Y95215D02*
Y101725D01*
X-453797Y139969D02*
X-373430D01*
X-523256Y64000D02*
X-492041Y95215D01*
X-560256Y64000D02*
X-523256D01*
X-574266Y78010D02*
X-560256Y64000D01*
X-605256Y78010D02*
X-574266D01*
X-619246Y92000D02*
X-605256Y78010D01*
X-636256Y92000D02*
X-619246D01*
X-654256Y262000D02*
X-653256Y263000D01*
X-729256Y262000D02*
X-654256D01*
X-761256Y230000D02*
X-729256Y262000D01*
X-769256Y230000D02*
X-761256D01*
X-676031Y319225D02*
X-628119D01*
X-714256Y281000D02*
X-676031Y319225D01*
X-252256Y66000D02*
X-226256D01*
D79*
X-126530Y386230D02*
G03*
X-122300Y382000I4230J0D01*
G01*
X-126530Y386230D02*
G03*
X-128800Y388500I-2270J0D01*
G01*
X-128800D02*
G03*
X-131070Y386230I0J-2270D01*
G01*
X-136640Y375500D02*
G03*
X-131070Y381070I0J5570D01*
G01*
X-142210D02*
G03*
X-136640Y375500I5570J0D01*
G01*
X-142210Y386230D02*
G03*
X-144480Y388500I-2270J0D01*
G01*
X-144480D02*
G03*
X-146750Y386230I0J-2270D01*
G01*
X-152320Y375500D02*
G03*
X-146750Y381070I0J5570D01*
G01*
X-157890D02*
G03*
X-152320Y375500I5570J0D01*
G01*
X-157890Y386230D02*
G03*
X-160160Y388500I-2270J0D01*
G01*
X-160160D02*
G03*
X-162430Y386230I0J-2270D01*
G01*
X-166660Y382000D02*
G03*
X-162430Y386230I0J4230D01*
G01*
X-123230D02*
G03*
X-122300Y385300I930J0D01*
G01*
X-123230Y386230D02*
G03*
X-128800Y391800I-5570J0D01*
G01*
X-128800D02*
G03*
X-134370Y386230I0J-5570D01*
G01*
X-136640Y378800D02*
G03*
X-134370Y381070I0J2270D01*
G01*
X-138910D02*
G03*
X-136640Y378800I2270J0D01*
G01*
X-138910Y386230D02*
G03*
X-144480Y391800I-5570J0D01*
G01*
X-144480D02*
G03*
X-150050Y386230I0J-5570D01*
G01*
X-152320Y378800D02*
G03*
X-150050Y381070I0J2270D01*
G01*
X-154590D02*
G03*
X-152320Y378800I2270J0D01*
G01*
X-154590Y386230D02*
G03*
X-160160Y391800I-5570J0D01*
G01*
X-160160D02*
G03*
X-165730Y386230I0J-5570D01*
G01*
X-166660Y385300D02*
G03*
X-165730Y386230I0J930D01*
G01*
X-203220Y407160D02*
G03*
X-199490Y403430I3730J0D01*
G01*
X-197220Y401160D02*
G03*
X-199490Y403430I-2270J0D01*
G01*
Y398890D02*
G03*
X-197220Y401160I0J2270D01*
G01*
X-199490Y398890D02*
G03*
X-203220Y395160I0J-3730D01*
G01*
X-199920Y407160D02*
G03*
X-199490Y406730I430J0D01*
G01*
X-193920Y401160D02*
G03*
X-199490Y406730I-5570J0D01*
G01*
Y395590D02*
G03*
X-193920Y401160I0J5570D01*
G01*
X-199490Y395590D02*
G03*
X-199920Y395160I0J-430D01*
G01*
X-165160Y357700D02*
G03*
X-161430Y361430I0J3730D01*
G01*
X-159160Y363700D02*
G03*
X-161430Y361430I0J-2270D01*
G01*
X-156890D02*
G03*
X-159160Y363700I-2270J0D01*
G01*
X-156890Y357270D02*
G03*
X-151320Y351700I5570J0D01*
G01*
X-151320D02*
G03*
X-145750Y357270I0J5570D01*
G01*
X-143480Y363700D02*
G03*
X-145750Y361430I0J-2270D01*
G01*
X-141210D02*
G03*
X-143480Y363700I-2270J0D01*
G01*
X-141210Y357270D02*
G03*
X-135640Y351700I5570J0D01*
G01*
X-135640D02*
G03*
X-130070Y357270I0J5570D01*
G01*
X-101092Y337670D02*
G03*
X-101700Y337670I-304J-304D01*
G01*
X-109578D02*
G03*
X-101700Y337670I3938J3938D01*
G01*
X-109578Y345547D02*
G03*
X-109578Y337670I3938J-3938D01*
G01*
X-106636Y348489D02*
G03*
X-105971Y350094I-1605J1605D01*
G01*
D02*
G03*
X-106636Y351699I-2270J0D01*
G01*
X-106641Y351704D02*
G03*
X-109846Y351699I-1600J-1610D01*
G01*
X-115121D02*
G03*
X-109846Y351699I2637J2637D01*
G01*
X-98759Y340003D02*
G03*
X-104034Y340003I-2637J-2637D01*
G01*
X-107244Y340003D02*
G03*
X-104034Y340003I1605J1605D01*
G01*
X-107244Y343214D02*
G03*
X-107249Y340008I1605J-1605D01*
G01*
X-104303Y346155D02*
G03*
X-102671Y350094I-3938J3938D01*
G01*
D02*
G03*
X-104303Y354032I-5570J0D01*
G01*
X-104303Y354032D02*
G03*
X-112180Y354032I-3938J-3939D01*
G01*
X-112788Y354032D02*
G03*
X-112180Y354032I304J304D01*
G01*
X-129640Y361000D02*
G03*
X-133370Y357270I0J-3730D01*
G01*
X-135640Y355000D02*
G03*
X-133370Y357270I0J2270D01*
G01*
X-137910D02*
G03*
X-135640Y355000I2270J0D01*
G01*
X-137910Y361430D02*
G03*
X-143480Y367000I-5570J0D01*
G01*
X-143480D02*
G03*
X-149050Y361430I0J-5570D01*
G01*
X-151320Y355000D02*
G03*
X-149050Y357270I0J2270D01*
G01*
X-153590D02*
G03*
X-151320Y355000I2270J0D01*
G01*
X-153590Y361430D02*
G03*
X-159160Y367000I-5570J0D01*
G01*
X-159160D02*
G03*
X-164730Y361430I0J-5570D01*
G01*
X-129640Y357700D02*
G03*
X-130070Y357270I0J-430D01*
G01*
X-165160Y361000D02*
G03*
X-164730Y361430I0J430D01*
G01*
X-121890Y271730D02*
G03*
X-118160Y268000I3730J0D01*
G01*
X-121890Y271730D02*
G03*
X-124160Y274000I-2270J0D01*
G01*
X-124160D02*
G03*
X-126430Y271730I0J-2270D01*
G01*
X-130160Y268000D02*
G03*
X-126430Y271730I0J3730D01*
G01*
X-118590D02*
G03*
X-118160Y271300I430J0D01*
G01*
X-118590Y271730D02*
G03*
X-124160Y277300I-5570J0D01*
G01*
X-124160D02*
G03*
X-129730Y271730I0J-5570D01*
G01*
X-130160Y271300D02*
G03*
X-129730Y271730I0J430D01*
G01*
X-147574Y283241D02*
G03*
X-152849Y283241I-2637J-2637D01*
G01*
X-156060Y283241D02*
G03*
X-152849Y283241I1605J1605D01*
G01*
X-156060Y286451D02*
G03*
X-156065Y283246I1605J-1605D01*
G01*
X-153118Y289393D02*
G03*
X-151487Y293332I-3938J3938D01*
G01*
D02*
G03*
X-153118Y297270I-5570J0D01*
G01*
X-153118Y297270D02*
G03*
X-160995Y297270I-3938J-3938D01*
G01*
X-167147Y294328D02*
G03*
X-163937Y294328I1605J1605D01*
G01*
X-167147Y297539D02*
G03*
X-167152Y294333I1605J-1605D01*
G01*
X-164205Y300480D02*
G03*
X-162574Y304419I-3938J3938D01*
G01*
D02*
G03*
X-164205Y308358I-5570J0D01*
G01*
X-164205Y308358D02*
G03*
X-172083Y308358I-3938J-3939D01*
G01*
X-178234Y305416D02*
G03*
X-175024Y305416I1605J1605D01*
G01*
X-178234Y308626D02*
G03*
X-178239Y305421I1605J-1605D01*
G01*
X-175293Y311568D02*
G03*
X-173661Y315506I-3938J3938D01*
G01*
D02*
G03*
X-175293Y319445I-5570J0D01*
G01*
X-175293Y319445D02*
G03*
X-183170Y319445I-3938J-3938D01*
G01*
X-189317Y316499D02*
G03*
X-186112Y316503I1600J1610D01*
G01*
X-189322Y319714D02*
G03*
X-189322Y316503I1605J-1605D01*
G01*
X-186380Y322655D02*
G03*
X-184749Y326594I-3938J3938D01*
G01*
D02*
G03*
X-186380Y330532I-5570J0D01*
G01*
X-186380Y330532D02*
G03*
X-194257Y330532I-3938J-3939D01*
G01*
X-149908Y280908D02*
G03*
X-150516Y280908I-304J-304D01*
G01*
X-158393D02*
G03*
X-150516Y280908I3938J3939D01*
G01*
X-158393Y288785D02*
G03*
X-158393Y280908I3938J-3938D01*
G01*
X-155451Y291726D02*
G03*
X-154787Y293332I-1605J1605D01*
G01*
D02*
G03*
X-155447Y294932I-2270J0D01*
G01*
X-155451Y294937D02*
G03*
X-158662Y294937I-1605J-1605D01*
G01*
X-169480Y291995D02*
G03*
X-161603Y291995I3938J3938D01*
G01*
X-169480Y299872D02*
G03*
X-169480Y291995I3938J-3938D01*
G01*
X-166539Y302814D02*
G03*
X-165874Y304419I-1605J1605D01*
G01*
D02*
G03*
X-166539Y306024I-2270J0D01*
G01*
X-166544Y306029D02*
G03*
X-169749Y306024I-1600J-1610D01*
G01*
X-180568Y303083D02*
G03*
X-172691Y303083I3938J3938D01*
G01*
X-180568Y310960D02*
G03*
X-180568Y303083I3938J-3938D01*
G01*
X-177626Y313901D02*
G03*
X-176961Y315506I-1605J1605D01*
G01*
D02*
G03*
X-177626Y317111I-2270J0D01*
G01*
X-177626Y317111D02*
G03*
X-180837Y317111I-1605J-1605D01*
G01*
X-191655Y314170D02*
G03*
X-183778Y314170I3938J3938D01*
G01*
X-191655Y322047D02*
G03*
X-191655Y314170I3938J-3938D01*
G01*
X-188714Y324989D02*
G03*
X-188049Y326594I-1605J1605D01*
G01*
D02*
G03*
X-188709Y328194I-2270J0D01*
G01*
X-188714Y328199D02*
G03*
X-191924Y328199I-1605J-1605D01*
G01*
X-197199D02*
G03*
X-191924Y328199I2637J2637D01*
G01*
X-194865Y330532D02*
G03*
X-194257Y330532I304J304D01*
G01*
X-205668Y230381D02*
G03*
X-198621Y229698I3938J3938D01*
G01*
X-205668Y238258D02*
G03*
X-205668Y230381I3938J-3938D01*
G01*
X-204848Y239078D02*
G03*
X-204183Y240683I-1605J1605D01*
G01*
D02*
G03*
X-204848Y242289I-2270J0D01*
G01*
X-204853Y242293D02*
G03*
X-208058Y242289I-1600J-1610D01*
G01*
X-216755Y241468D02*
G03*
X-208878Y241468I3938J3938D01*
G01*
X-216755Y249345D02*
G03*
X-216755Y241468I3939J-3938D01*
G01*
X-215935Y250166D02*
G03*
X-215270Y251771I-1605J1605D01*
G01*
D02*
G03*
X-215935Y253376I-2270J0D01*
G01*
X-215935D02*
G03*
X-219145Y253376I-1605J-1605D01*
G01*
X-227843Y252556D02*
G03*
X-219965Y252556I3938J3938D01*
G01*
X-227843Y260433D02*
G03*
X-227843Y252556I3938J-3938D01*
G01*
X-227022Y261253D02*
G03*
X-226357Y262858I-1605J1605D01*
G01*
D02*
G03*
X-227022Y264463I-2270J0D01*
G01*
X-227027Y264468D02*
G03*
X-230233Y264464I-1600J-1610D01*
G01*
X-238930Y263643D02*
G03*
X-231053Y263643I3938J3939D01*
G01*
X-238930Y271520D02*
G03*
X-238930Y263643I3938J-3938D01*
G01*
X-238110Y272341D02*
G03*
X-237445Y273946I-1605J1605D01*
G01*
D02*
G03*
X-238110Y275551I-2270J0D01*
G01*
X-238110Y275551D02*
G03*
X-241320Y275551I-1605J-1605D01*
G01*
X-250017Y274731D02*
G03*
X-242140Y274731I3938J3938D01*
G01*
X-250018Y282608D02*
G03*
X-250018Y274731I3938J-3938D01*
G01*
X-249197Y283428D02*
G03*
X-248532Y285033I-1605J1605D01*
G01*
D02*
G03*
X-249197Y286638I-2270J0D01*
G01*
X-249197Y286638D02*
G03*
X-252407Y286638I-1605J-1605D01*
G01*
X-255561Y286638D02*
G03*
X-252407Y286638I1577J1577D01*
G01*
X-196970Y232714D02*
G03*
X-200124Y232714I-1577J-1577D01*
G01*
X-203334Y232714D02*
G03*
X-200124Y232714I1605J1605D01*
G01*
X-203334Y235925D02*
G03*
X-203334Y232714I1605J-1605D01*
G01*
X-202514Y236745D02*
G03*
X-200883Y240683I-3938J3938D01*
G01*
D02*
G03*
X-202514Y244622I-5570J0D01*
G01*
Y244622D02*
G03*
X-210391Y244622I-3938J-3939D01*
G01*
X-214422Y243802D02*
G03*
X-211211Y243802I1605J1605D01*
G01*
X-214422Y247012D02*
G03*
X-214422Y243802I1605J-1605D01*
G01*
X-213601Y247832D02*
G03*
X-211970Y251771I-3938J3938D01*
G01*
D02*
G03*
X-213601Y255709I-5570J0D01*
G01*
X-213602D02*
G03*
X-221479Y255709I-3938J-3938D01*
G01*
X-225504Y254884D02*
G03*
X-222299Y254889I1600J1610D01*
G01*
X-225509Y258099D02*
G03*
X-225509Y254889I1605J-1605D01*
G01*
X-224689Y258920D02*
G03*
X-223057Y262858I-3939J3938D01*
G01*
D02*
G03*
X-224689Y266797I-5570J0D01*
G01*
Y266797D02*
G03*
X-232566Y266797I-3938J-3939D01*
G01*
X-236592Y265972D02*
G03*
X-233386Y265977I1600J1610D01*
G01*
X-236597Y269187D02*
G03*
X-236597Y265977I1605J-1605D01*
G01*
X-235776Y270007D02*
G03*
X-234145Y273946I-3938J3938D01*
G01*
D02*
G03*
X-235776Y277884I-5570J0D01*
G01*
X-235776Y277884D02*
G03*
X-243654Y277884I-3938J-3938D01*
G01*
X-247684Y277064D02*
G03*
X-244474Y277064I1605J1605D01*
G01*
X-247684Y280274D02*
G03*
X-247689Y277069I1605J-1605D01*
G01*
X-246864Y281095D02*
G03*
X-245232Y285033I-3939J3938D01*
G01*
D02*
G03*
X-246864Y288972I-5570J0D01*
G01*
X-246864Y288972D02*
G03*
X-253911Y289655I-3938J-3938D01*
G01*
X-576485Y503056D02*
G03*
X-575055Y504487I0J1430D01*
G01*
X-576485Y503056D02*
G03*
X-582055Y497486I0J-5570D01*
G01*
Y497486D02*
G03*
X-576485Y491917I5570J0D01*
G01*
X-568055Y489646D02*
G03*
X-570325Y491917I-2270J0D01*
G01*
Y487377D02*
G03*
X-568055Y489646I0J2270D01*
G01*
X-570325Y487377D02*
G03*
X-575055Y482646I0J-4730D01*
G01*
X-576485Y499757D02*
G03*
X-571755Y504487I0J4730D01*
G01*
X-576485Y499757D02*
G03*
X-578755Y497486I0J-2270D01*
G01*
Y497486D02*
G03*
X-576485Y495216I2270J0D01*
G01*
X-564755Y489646D02*
G03*
X-570325Y495216I-5570J0D01*
G01*
Y484076D02*
G03*
X-564755Y489646I0J5570D01*
G01*
X-570325Y484076D02*
G03*
X-571755Y482646I0J-1430D01*
G01*
X-552680Y458700D02*
G03*
X-547950Y463430I0J4730D01*
G01*
X-545680Y465700D02*
G03*
X-547950Y463430I0J-2270D01*
G01*
X-543410D02*
G03*
X-545680Y465700I-2270J0D01*
G01*
X-543410Y463430D02*
G03*
X-538680Y458700I4730J0D01*
G01*
X-552680Y462000D02*
G03*
X-551250Y463430I0J1430D01*
G01*
X-545680Y469000D02*
G03*
X-551250Y463430I0J-5570D01*
G01*
X-540110D02*
G03*
X-545680Y469000I-5570J0D01*
G01*
X-540110Y463430D02*
G03*
X-538680Y462000I1430J0D01*
G01*
X-404334Y495650D02*
G03*
X-409800Y500150I-5466J-1070D01*
G01*
X-409800D02*
G03*
X-415266Y495650I0J-5570D01*
G01*
X-420014D02*
G03*
X-425480Y500150I-5466J-1070D01*
G01*
X-425480D02*
G03*
X-430946Y495650I0J-5570D01*
G01*
X-435694D02*
G03*
X-441160Y500150I-5466J-1070D01*
G01*
X-441160D02*
G03*
X-446626Y495650I0J-5570D01*
G01*
X-407530Y494580D02*
G03*
X-405300Y492350I2230J0D01*
G01*
X-407530Y494580D02*
G03*
X-409800Y496850I-2270J0D01*
G01*
X-409800D02*
G03*
X-412070Y494580I0J-2270D01*
G01*
X-414300Y492350D02*
G03*
X-412070Y494580I0J2230D01*
G01*
X-423210D02*
G03*
X-420980Y492350I2230J0D01*
G01*
X-423210Y494580D02*
G03*
X-425480Y496850I-2270J0D01*
G01*
X-425480D02*
G03*
X-427750Y494580I0J-2270D01*
G01*
X-429980Y492350D02*
G03*
X-427750Y494580I0J2230D01*
G01*
X-438890D02*
G03*
X-436660Y492350I2230J0D01*
G01*
X-438890Y494580D02*
G03*
X-441160Y496850I-2270J0D01*
G01*
X-441160D02*
G03*
X-443430Y494580I0J-2270D01*
G01*
X-445660Y492350D02*
G03*
X-443430Y494580I0J2230D01*
G01*
X-214650Y524110D02*
G03*
X-212420Y526340I0J2230D01*
G01*
X-214650Y524110D02*
G03*
X-216920Y521840I0J-2270D01*
G01*
Y521840D02*
G03*
X-214650Y519570I2270J0D01*
G01*
X-212420Y517340D02*
G03*
X-214650Y519570I-2230J0D01*
G01*
X-491850Y494580D02*
G03*
X-489620Y492350I2230J0D01*
G01*
X-491850Y494580D02*
G03*
X-494120Y496850I-2270J0D01*
G01*
X-494120D02*
G03*
X-496390Y494580I0J-2270D01*
G01*
X-215720Y527306D02*
G03*
X-220220Y521840I1070J-5466D01*
G01*
Y521840D02*
G03*
X-215720Y516374I5570J0D01*
G01*
X-488654Y495650D02*
G03*
X-494120Y500150I-5466J-1070D01*
G01*
X-494120D02*
G03*
X-499690Y494580I0J-5570D01*
G01*
X-501960Y491150D02*
G03*
X-499690Y493420I0J2270D01*
G01*
X-504230D02*
G03*
X-501960Y491150I2270J0D01*
G01*
X-504230Y494580D02*
G03*
X-509800Y500150I-5570J0D01*
G01*
X-509800D02*
G03*
X-515370Y494580I0J-5570D01*
G01*
X-517640Y491150D02*
G03*
X-515370Y493420I0J2270D01*
G01*
X-519910D02*
G03*
X-517640Y491150I2270J0D01*
G01*
X-519910Y494580D02*
G03*
X-525480Y500150I-5570J0D01*
G01*
X-525480D02*
G03*
X-531050Y494580I0J-5570D01*
G01*
X-533320Y491150D02*
G03*
X-531050Y493420I0J2270D01*
G01*
X-535590D02*
G03*
X-533320Y491150I2270J0D01*
G01*
X-535590Y494580D02*
G03*
X-541160Y500150I-5570J0D01*
G01*
X-541160D02*
G03*
X-546626Y495650I0J-5570D01*
G01*
X-501960Y487850D02*
G03*
X-496390Y493420I0J5570D01*
G01*
X-507530D02*
G03*
X-501960Y487850I5570J0D01*
G01*
X-507530Y494580D02*
G03*
X-509800Y496850I-2270J0D01*
G01*
X-509800D02*
G03*
X-512070Y494580I0J-2270D01*
G01*
X-517640Y487850D02*
G03*
X-512070Y493420I0J5570D01*
G01*
X-523210D02*
G03*
X-517640Y487850I5570J0D01*
G01*
X-523210Y494580D02*
G03*
X-525480Y496850I-2270J0D01*
G01*
X-525480D02*
G03*
X-527750Y494580I0J-2270D01*
G01*
X-533320Y487850D02*
G03*
X-527750Y493420I0J5570D01*
G01*
X-538890D02*
G03*
X-533320Y487850I5570J0D01*
G01*
X-538890Y494580D02*
G03*
X-541160Y496850I-2270J0D01*
G01*
X-541160D02*
G03*
X-543430Y494580I0J-2270D01*
G01*
X-545660Y492350D02*
G03*
X-543430Y494580I0J2230D01*
G01*
X-454256Y454000D02*
X-181923D01*
X-458923Y458667D02*
X-188589D01*
X-460289Y461967D02*
X-189956D01*
X-465256Y466333D02*
X-195667D01*
X-466623Y469633D02*
X-197034D01*
X-586755Y471499D02*
X-569256Y454000D01*
X-590055Y470132D02*
X-570623Y450700D01*
X-615070Y243250D02*
X-611071Y247250D01*
X-722570Y243250D02*
X-615070D01*
X-722994Y243674D02*
X-722570Y243250D01*
X-86791Y340485D02*
Y352535D01*
X-83491Y340485D02*
Y353902D01*
X-116256Y382000D02*
X-86791Y352535D01*
X-114889Y385300D02*
X-83491Y353902D01*
X-122300Y382000D02*
X-116256D01*
X-131070Y381070D02*
Y386230D01*
X-142210Y381070D02*
Y386230D01*
X-146750Y381070D02*
Y386230D01*
X-157890Y381070D02*
Y386230D01*
X-179923Y382000D02*
X-166660D01*
X-122300Y385300D02*
X-114889Y385300D01*
X-134370Y381070D02*
Y386230D01*
X-138910Y381070D02*
Y386230D01*
X-150050Y381070D02*
Y386230D01*
X-154590Y381070D02*
Y386230D01*
X-178556Y385300D02*
X-166660Y385300D01*
X-188220Y390297D02*
X-179923Y382000D01*
X-184920Y391664D02*
X-178556Y385300D01*
X-188220Y390297D02*
Y419500D01*
X-184920Y391664D02*
Y419500D01*
X-203220Y407160D02*
Y418500D01*
Y383297D02*
Y395160D01*
X-199920Y407160D02*
X-199920Y418500D01*
X-199920Y395160D02*
X-199920Y384664D01*
X-203220Y383297D02*
X-177623Y357700D01*
X-199920Y384664D02*
X-176256Y361000D01*
X-177623Y357700D02*
X-165160D01*
X-176256Y361000D02*
X-165160D01*
X-156890Y357270D02*
Y361430D01*
X-145750Y357270D02*
Y361430D01*
X-141210Y357270D02*
Y361430D01*
X-88623Y325201D02*
X-77741D01*
X-87256Y328501D02*
X-77741D01*
X-101095Y337672D02*
X-88623Y325201D01*
X-109578Y345547D02*
X-106636Y348489D01*
X-121122Y357700D02*
X-115121Y351699D01*
X-98759Y340003D02*
X-87256Y328501D01*
X-107244Y343214D02*
X-104303Y346155D01*
X-119755Y361000D02*
X-112786Y354030D01*
X-129640Y357700D02*
X-121122D01*
X-129640Y361000D02*
X-119755D01*
X-137910Y357270D02*
Y361430D01*
X-149050Y357270D02*
Y361430D01*
X-153590Y357270D02*
Y361430D01*
X-80623Y210201D02*
X-43201D01*
X-79256Y213501D02*
X-42485D01*
X-88556Y218134D02*
X-80623Y210201D01*
X-85256Y219501D02*
X-79256Y213501D01*
X-88556Y218134D02*
Y252300D01*
X-85256Y219501D02*
Y253667D01*
X-104256Y268000D02*
X-88556Y252300D01*
X-102889Y271300D02*
X-85256Y253667D01*
X-118160Y268000D02*
X-104256D01*
X-137000D02*
X-130160D01*
X-118160Y271300D02*
X-102889Y271300D01*
X-135633D02*
X-130160Y271300D01*
X-149910Y280910D02*
X-137000Y268000D01*
X-147574Y283241D02*
X-135633Y271300D01*
X-156060Y286451D02*
X-153118Y289393D01*
X-163937Y294329D02*
X-160995Y297270D01*
X-167147Y297539D02*
X-164205Y300480D01*
X-175024Y305416D02*
X-172083Y308358D01*
X-178234Y308626D02*
X-175293Y311568D01*
X-186112Y316503D02*
X-183170Y319445D01*
X-189322Y319714D02*
X-186380Y322655D01*
X-158393Y288785D02*
X-155451Y291726D01*
X-161603Y291995D02*
X-158662Y294937D01*
X-169480Y299872D02*
X-166539Y302814D01*
X-172691Y303083D02*
X-169749Y306024D01*
X-180568Y310960D02*
X-177626Y313901D01*
X-183778Y314170D02*
X-180837Y317111D01*
X-191655Y322047D02*
X-188714Y324989D01*
X-203700Y334700D02*
X-197199Y328199D01*
X-202333Y338000D02*
X-194863Y330530D01*
X-234323Y334700D02*
X-203700D01*
X-232956Y338000D02*
X-202333D01*
X-240256Y340633D02*
X-234323Y334700D01*
X-236956Y342000D02*
X-232956Y338000D01*
X-240256Y340633D02*
Y395333D01*
X-236956Y342000D02*
Y396700D01*
X-260753Y415831D02*
X-240256Y395333D01*
X-258420Y418164D02*
X-236956Y396700D01*
X-264720Y419797D02*
X-260753Y415831D01*
X-215256Y373923D02*
Y422000D01*
Y373923D02*
X-156633Y315300D01*
X-66889D01*
X-158000Y312000D02*
X-68256D01*
X-218556Y372556D02*
X-158000Y312000D01*
X-218556Y372556D02*
Y424836D01*
X-169124Y200201D02*
X-76259D01*
X-167757Y203501D02*
X-75741D01*
X-198621Y229698D02*
X-169124Y200201D01*
X-205668Y238258D02*
X-204848Y239078D01*
X-208878Y241468D02*
X-208058Y242289D01*
X-216755Y249345D02*
X-215935Y250166D01*
X-219965Y252556D02*
X-219145Y253376D01*
X-227843Y260433D02*
X-227022Y261253D01*
X-231053Y263643D02*
X-230233Y264464D01*
X-238930Y271520D02*
X-238110Y272341D01*
X-242140Y274731D02*
X-241320Y275551D01*
X-250018Y282608D02*
X-249197Y283428D01*
X-264556Y295633D02*
X-255561Y286638D01*
X-196970Y232714D02*
X-167757Y203501D01*
X-203334Y235925D02*
X-202514Y236745D01*
X-211211Y243802D02*
X-210391Y244622D01*
X-214422Y247012D02*
X-213601Y247832D01*
X-222299Y254889D02*
X-221479Y255709D01*
X-225509Y258099D02*
X-224689Y258920D01*
X-233386Y265977D02*
X-232566Y266797D01*
X-236597Y269187D02*
X-235776Y270007D01*
X-244474Y277064D02*
X-243654Y277884D01*
X-247684Y280274D02*
X-246864Y281095D01*
X-261256Y297000D02*
X-253911Y289655D01*
X-264556Y295633D02*
Y348700D01*
X-261256Y297000D02*
Y347333D01*
X-264556Y348700D02*
X-252556Y360700D01*
X-261256Y347333D02*
X-249256Y359333D01*
X-252556Y360700D02*
Y388969D01*
X-249256Y359333D02*
Y390336D01*
X-278220Y414633D02*
X-252556Y388969D01*
X-274920Y416000D02*
X-249256Y390336D01*
X-278220Y414633D02*
Y419500D01*
X-274920Y416000D02*
Y419500D01*
X-575055Y504487D02*
Y507055D01*
X-576485Y491917D02*
X-570325D01*
X-575055Y470633D02*
Y482646D01*
X-571755Y504487D02*
X-571755Y507243D01*
X-576485Y495216D02*
X-570325D01*
X-571755Y482646D02*
X-571755Y472000D01*
X-575055Y470633D02*
X-563122Y458700D01*
X-571755Y472000D02*
X-561755Y462000D01*
X-563122Y458700D02*
X-552680D01*
X-561755Y462000D02*
X-552680D01*
X-538680Y458700D02*
X-472889D01*
X-465256Y466333D01*
X-195667D02*
X-171333Y490667D01*
X-157386D01*
X-155720Y489000D01*
Y485500D02*
Y489000D01*
X-538680Y462000D02*
X-474256D01*
X-466623Y469633D01*
X-197034D02*
X-172700Y493967D01*
X-156019D01*
X-152420Y490367D01*
Y485500D02*
Y490367D01*
Y485500D02*
X-150920Y484000D01*
X-157220D02*
X-155720Y485500D01*
X-576999Y508999D02*
X-575055Y507055D01*
X-571755Y507243D02*
X-569999Y508999D01*
X-115367Y539700D02*
X-105300Y529633D01*
X-114000Y543000D02*
X-102000Y531000D01*
X-127256Y520000D02*
X-127256D01*
X-128556Y521300D02*
X-127256Y520000D01*
X-179787Y521300D02*
X-128556D01*
X-185720Y515367D02*
X-179787Y521300D01*
X-129923Y518000D02*
X-128589Y516667D01*
X-178420Y518000D02*
X-129923D01*
X-182420Y514000D02*
X-178420Y518000D01*
X-182420Y511500D02*
Y514000D01*
Y511500D02*
X-180920Y510000D01*
X-189633Y533300D02*
X-185333Y529000D01*
X-202367Y533300D02*
X-189633D01*
X-166300Y529000D02*
X-163000Y532300D01*
X-185333Y529000D02*
X-166300D01*
X-198000Y500000D02*
Y510000D01*
X-207300Y519300D02*
Y528367D01*
X-202367Y533300D01*
X-207300Y519300D02*
X-198000Y510000D01*
X-211000Y487000D02*
X-198000Y500000D01*
X-481256Y487000D02*
X-211000D01*
X-493256Y475000D02*
X-481256Y487000D01*
X-494755Y475000D02*
X-493256D01*
X-496755Y477000D02*
X-494755Y475000D01*
X-496755Y477000D02*
Y479515D01*
X-495270Y481000D01*
X-185720Y511500D02*
Y515367D01*
X-187220Y510000D02*
X-185720Y511500D01*
X-164933Y525700D02*
X-161633Y529000D01*
X-191000Y530000D02*
X-186700Y525700D01*
X-201000Y530000D02*
X-191000D01*
X-186700Y525700D02*
X-164933D01*
X-194700Y498633D02*
Y511367D01*
X-204000Y520667D02*
Y527000D01*
X-201000Y530000D01*
X-204000Y520667D02*
X-194700Y511367D01*
X-209633Y483700D02*
X-194700Y498633D01*
X-479889Y483700D02*
X-209633D01*
X-491889Y471700D02*
X-479889Y483700D01*
X-496122Y471700D02*
X-491889D01*
X-500055Y475633D02*
X-496122Y471700D01*
X-500055Y475633D02*
Y479515D01*
X-501540Y481000D02*
X-500055Y479515D01*
X-128589Y516667D02*
X-128589D01*
X-127623Y515700D01*
X-113633D01*
X-127256Y520000D02*
X-126256Y519000D01*
X-115000D01*
X-113633Y515700D02*
X-109700Y519633D01*
X-115000Y519000D02*
X-113000Y521000D01*
X-109700Y519633D02*
Y525367D01*
X-113000Y521000D02*
Y524000D01*
X-116633Y532300D02*
X-109700Y525367D01*
X-163000Y532300D02*
X-116633D01*
X-118000Y529000D02*
X-113000Y524000D01*
X-161633Y529000D02*
X-118000D01*
X-105300Y515700D02*
Y529633D01*
X-192432Y539700D02*
X-115367D01*
X-102000Y514333D02*
Y531000D01*
X-195920Y543000D02*
X-114000D01*
X-117700Y503300D02*
X-105300Y515700D01*
X-116333Y500000D02*
X-102000Y514333D01*
X-178493Y500000D02*
X-116333D01*
X-179860Y503300D02*
X-117700D01*
X-204143Y474350D02*
X-178493Y500000D01*
X-477906Y474350D02*
X-204143D01*
X-480270Y471986D02*
X-477906Y474350D01*
X-480355Y471901D02*
X-480270Y471986D01*
Y468000D02*
Y471986D01*
X-205509Y477650D02*
X-179860Y503300D01*
X-479273Y477650D02*
X-205509D01*
X-479789Y477467D02*
X-479456D01*
X-479273Y477650D01*
X-486540Y470716D02*
X-479789Y477467D01*
X-486540Y468000D02*
Y470716D01*
X-193932Y538200D02*
X-192432Y539700D01*
X-197908Y538200D02*
X-193932D01*
X-202220Y542512D02*
Y543000D01*
Y542512D02*
X-197908Y538200D01*
X-215720Y501536D02*
Y516374D01*
X-212420Y500169D02*
Y517340D01*
X-221606Y495650D02*
X-215720Y501536D01*
X-220239Y492350D02*
X-212420Y500169D01*
X-404334Y495650D02*
X-221606Y495650D01*
X-420014Y495650D02*
X-415266D01*
X-435694D02*
X-430946D01*
X-488654Y495650D02*
X-446626Y495650D01*
X-405300Y492350D02*
X-220239D01*
X-420980D02*
X-414300D01*
X-436660D02*
X-429980D01*
X-489620D02*
X-445660D01*
X-212420Y526340D02*
Y540500D01*
X-215720Y527306D02*
Y540500D01*
X-499690Y493420D02*
Y494580D01*
X-504230Y493420D02*
Y494580D01*
X-515370Y493420D02*
Y494580D01*
X-519910Y493420D02*
Y494580D01*
X-531050Y493420D02*
Y494580D01*
X-535590Y493420D02*
Y494580D01*
X-554273Y495650D02*
X-546626Y495650D01*
X-496390Y493420D02*
Y494580D01*
X-507530Y493420D02*
Y494580D01*
X-512070Y493420D02*
Y494580D01*
X-523210Y493420D02*
Y494580D01*
X-527750Y493420D02*
Y494580D01*
X-538890Y493420D02*
Y494580D01*
X-552906Y492350D02*
X-545660D01*
X-560556Y489367D02*
X-554273Y495650D01*
X-557256Y488000D02*
X-552906Y492350D01*
X-560556Y483633D02*
Y489367D01*
X-557256Y485000D02*
Y488000D01*
X-560556Y483633D02*
X-555623Y478700D01*
X-557256Y485000D02*
X-554256Y482000D01*
X-555623Y478700D02*
X-534294D01*
X-554256Y482000D02*
X-535660D01*
X-534294Y478700D02*
X-532224Y480770D01*
X-535660Y482000D02*
X-533590Y484070D01*
X-532224Y480770D02*
X-522444D01*
X-533590Y484070D02*
X-521077D01*
X-522444Y480770D02*
X-515041Y473367D01*
X-521077Y484070D02*
X-511741Y474734D01*
X-515041Y470216D02*
Y473367D01*
X-511741Y469485D02*
Y474734D01*
X-76259Y200201D02*
X-76244Y200186D01*
X-75726D01*
X-74000Y198460D01*
Y198000D02*
Y198460D01*
X-279720Y421000D02*
X-278220Y419500D01*
X-75741Y203501D02*
X-74256Y204986D01*
X-274920Y419500D02*
X-273420Y421000D01*
X-738006Y443006D02*
Y476994D01*
X-732256Y465000D02*
X-649256D01*
X-222683Y176683D02*
X-149966D01*
X-116000Y142718D01*
Y142000D02*
Y142718D01*
X-411256Y377000D02*
X-406506Y372250D01*
X-391032D01*
X-390283Y373000D02*
X-354420D01*
X-391032Y372250D02*
X-390283Y373000D01*
X-356000Y423000D02*
X-351378Y418378D01*
X-351070D01*
X-352000Y306000D02*
X-222683Y176683D01*
X-454000Y306000D02*
X-352000D01*
X-327256Y292000D02*
X-264256Y229000D01*
X-327256Y292000D02*
Y345836D01*
X-354420Y373000D02*
X-327256Y345836D01*
X-466750Y318750D02*
X-454000Y306000D01*
X-527250Y318750D02*
X-466750D01*
X-549000Y297000D02*
X-527250Y318750D01*
X-712000Y403000D02*
Y427000D01*
X-717000Y422000D02*
X-717000D01*
X-738006Y443006D02*
X-717000Y422000D01*
X-738006Y476994D02*
X-738000Y477000D01*
X-358603Y423000D02*
X-356000D01*
X-372603Y437000D02*
X-358603Y423000D01*
X-582603Y437000D02*
X-372603D01*
X-623602Y478000D02*
X-582603Y437000D01*
X-719000Y478000D02*
X-623602D01*
X-600055Y462633D02*
Y471515D01*
Y462633D02*
X-581122Y443700D01*
X-601540Y473000D02*
X-600055Y471515D01*
X-738000Y497000D02*
X-719000Y478000D01*
X-738000Y497000D02*
Y505000D01*
X-420256Y171000D02*
Y239000D01*
Y171000D02*
X-415256Y166000D01*
X-410506Y173654D02*
X-391602Y154750D01*
X-410506Y173654D02*
Y251654D01*
X-407256Y175000D02*
Y253000D01*
Y175000D02*
X-390256Y158000D01*
X-434256Y280000D02*
X-407256Y253000D01*
X-428256Y247000D02*
X-420256Y239000D01*
X-435602Y276750D02*
X-410506Y251654D01*
X-517257Y468000D02*
X-515041Y470216D01*
X-569256Y454000D02*
X-468256D01*
X-460289Y461967D01*
X-466889Y450700D02*
X-458923Y458667D01*
X-570623Y450700D02*
X-466889D01*
X-579755Y447000D02*
X-461256D01*
X-454256Y454000D01*
X-452889Y450700D02*
X-180556D01*
X-459889Y443700D02*
X-452889Y450700D01*
X-581122Y443700D02*
X-459889D01*
X-180556Y450700D02*
X-166256Y465000D01*
X-586755Y483515D02*
X-585270Y485000D01*
X-586755Y471499D02*
Y483515D01*
X-596755Y471515D02*
X-595270Y473000D01*
X-596755Y464000D02*
Y471515D01*
X-611071Y247250D02*
X-557886D01*
X-332602Y154750D02*
X-297602Y119750D01*
X-390256Y158000D02*
X-331256D01*
X-296256Y123000D01*
X-391602Y154750D02*
X-332602D01*
X-297602Y119750D02*
X-273256D01*
X-270756Y117250D01*
X-259925D01*
X-264256Y229000D02*
X-239256D01*
X-725256Y473000D02*
X-649256D01*
X-733256Y464000D02*
X-732256Y465000D01*
X-450256Y247000D02*
X-428256D01*
X-468505Y265250D02*
X-450256Y247000D01*
X-223141Y85117D02*
Y114244D01*
X-223258Y85001D02*
X-223141Y85117D01*
X-259925Y117250D02*
X-259327Y117848D01*
X-267256Y123000D02*
X-266256Y122000D01*
X-296256Y123000D02*
X-267256D01*
X-466602Y276750D02*
X-435602D01*
X-465256Y280000D02*
X-434256D01*
X-482506Y292654D02*
X-466602Y276750D01*
X-479256Y294000D02*
X-465256Y280000D01*
X-576906Y261316D02*
X-576904Y261318D01*
X-567889Y261196D02*
Y261524D01*
X-567904Y261211D02*
X-567889Y261196D01*
X-557886Y247250D02*
X-539886Y265250D01*
X-468505D01*
X-582078Y256404D02*
Y272950D01*
X-569028Y285999D01*
X-529320Y237000D02*
X-515070Y222750D01*
X-506353D01*
X-494603Y211000D02*
X-444320D01*
X-161521Y457000D02*
X-160021Y458500D01*
Y462000D01*
X-137420Y462500D02*
X-135920Y461000D01*
X-137420Y462500D02*
Y467367D01*
X-148353Y478300D02*
X-137420Y467367D01*
X-173623Y478300D02*
X-148353D01*
X-189956Y461967D02*
X-173623Y478300D01*
X-149720Y475000D02*
X-140720Y466000D01*
X-172256Y475000D02*
X-149720D01*
X-188589Y458667D02*
X-172256Y475000D01*
X-161654Y468300D02*
X-156721Y463367D01*
X-167623Y468300D02*
X-161654D01*
X-181923Y454000D02*
X-167623Y468300D01*
X-163021Y465000D02*
X-160021Y462000D01*
X-166256Y465000D02*
X-163021D01*
X-212420Y540500D02*
X-210920Y542000D01*
X-217220D02*
X-215720Y540500D01*
X-511741Y469485D02*
X-510256Y468000D01*
X-596755Y464000D02*
X-579755Y447000D01*
X-156721Y458500D02*
Y463367D01*
Y458500D02*
X-155221Y457000D01*
X-591540Y485000D02*
X-590055Y483515D01*
Y470132D02*
Y483515D01*
X-140720Y462500D02*
Y466000D01*
X-142220Y461000D02*
X-140720Y462500D01*
X-506353Y222750D02*
X-494603Y211000D01*
X-586319Y251999D02*
Y252319D01*
X-586481Y252481D02*
X-586319Y252319D01*
X-605422Y145102D02*
X-480422D01*
X-475320Y140000D01*
X-612320Y152000D02*
X-605422Y145102D01*
X-690320Y152000D02*
X-612320D01*
X-721320Y121000D02*
X-690320Y152000D01*
X-732320Y121000D02*
X-721320D01*
X-741320Y130000D02*
X-732320Y121000D01*
X-258823Y126490D02*
X-235387D01*
X-223141Y114244D01*
X-259072Y126739D02*
Y126873D01*
Y126739D02*
X-258823Y126490D01*
X-531241Y102610D02*
X-524594Y109256D01*
Y123884D01*
X-569028Y285999D02*
X-521219D01*
X-586001Y252481D02*
X-582078Y256404D01*
X-586481Y252481D02*
X-586001D01*
X-482506Y292654D02*
Y301000D01*
X-479256Y294000D02*
Y303000D01*
X-484256Y308000D02*
X-479256Y303000D01*
X-511000Y312000D02*
X-507000Y308000D01*
X-484256D01*
X-276256Y281000D02*
Y357333D01*
Y281000D02*
X-186256Y191000D01*
X-276256Y357333D02*
X-260956Y372633D01*
X-276256Y399265D02*
X-274756Y397765D01*
X-260956Y372633D02*
Y390832D01*
X-274756Y397765D02*
X-267889D01*
X-260956Y390832D01*
X-186256Y191000D02*
X-151276D01*
X-150256Y192020D01*
X-279556Y279633D02*
Y358700D01*
X-276256Y392965D02*
X-274756Y394465D01*
X-279556Y279633D02*
X-187623Y187700D01*
X-279556Y358700D02*
X-264256Y374000D01*
X-274756Y394465D02*
X-269256D01*
X-152957Y187700D02*
X-150258Y185001D01*
X-187623Y187700D02*
X-152957D01*
X-269256Y394465D02*
X-264256Y389465D01*
Y374000D02*
Y389465D01*
X-43201Y210201D02*
X-41000Y208000D01*
X-42485Y213501D02*
X-41000Y214986D01*
X-264720Y419797D02*
Y421000D01*
X-258420Y418164D02*
Y421000D01*
X-215256Y422000D02*
X-213420Y423836D01*
Y426000D01*
X-76256Y298716D02*
X-74771Y300201D01*
X-67726D01*
X-66889Y315300D02*
X-62625Y311035D01*
X-67726Y300201D02*
X-62625Y305302D01*
Y311035D01*
X-219720Y426000D02*
X-218556Y424836D01*
X-74771Y303501D02*
X-69092D01*
X-76256Y304986D02*
X-74771Y303501D01*
X-69092D02*
X-65925Y306668D01*
X-68256Y312000D02*
X-65925Y309669D01*
Y306668D02*
Y309669D01*
X-189720Y421000D02*
X-188220Y419500D01*
X-88276Y339000D02*
X-86791Y340485D01*
X-184920Y419500D02*
X-183420Y421000D01*
X-83491Y340485D02*
X-82006Y339000D01*
X-204720Y420000D02*
X-203220Y418500D01*
X-77741Y325201D02*
X-76256Y323716D01*
X-199920Y418500D02*
X-198420Y420000D01*
X-77741Y328501D02*
X-76256Y329986D01*
D80*
X-65000Y460000D02*
X-43000Y438000D01*
Y424350D02*
Y438000D01*
D81*
X-602006Y383250D02*
X-568256Y417000D01*
X-469256D01*
X-566256Y414000D02*
X-477256D01*
X-599256Y381000D02*
X-566256Y414000D01*
X-565145Y411000D02*
X-479256D01*
X-595256Y380889D02*
X-565145Y411000D01*
X-564256Y408000D02*
X-480256D01*
X-592256Y380000D02*
X-564256Y408000D01*
X-541000Y385000D02*
X-322000D01*
X-543222Y388000D02*
X-319000D01*
X-544111Y391000D02*
X-317000D01*
X-545000Y394000D02*
X-314000D01*
X-548000Y378000D02*
X-541000Y385000D01*
X-322000D02*
X-306000Y369000D01*
X-553783Y377439D02*
X-543222Y388000D01*
X-319000D02*
X-306000Y375000D01*
X-563256Y371855D02*
X-544111Y391000D01*
X-317000D02*
X-307999Y381999D01*
X-570257Y368743D02*
X-545000Y394000D01*
X-314000D02*
X-309000Y389000D01*
X-477256Y414000D02*
X-474256Y411000D01*
X-476256Y408000D02*
X-454256D01*
X-479256Y411000D02*
X-476256Y408000D01*
X-477256Y405000D02*
X-447256D01*
X-480256Y408000D02*
X-477256Y405000D01*
X-309000Y389000D02*
X-296000D01*
X-295999Y367999D02*
Y368999D01*
X-436000Y173000D02*
X-432000Y177000D01*
X-466320Y173000D02*
X-436000D01*
X-459256Y414000D02*
Y417000D01*
X-462256Y411000D02*
X-459256Y414000D01*
X-474256Y411000D02*
X-462256D01*
X-450256Y412000D02*
Y417000D01*
X-454256Y408000D02*
X-450256Y412000D01*
X-447256Y405000D02*
X-440256Y412000D01*
X-729719Y184398D02*
X-477719D01*
X-426257Y411883D02*
X-426256D01*
Y410306D02*
Y411883D01*
X-426257Y410000D02*
Y411883D01*
X-426256Y416200D02*
Y417000D01*
X-440256Y412000D02*
Y417000D01*
X-595256Y273903D02*
Y380889D01*
X-599256Y278154D02*
Y381000D01*
X-602006Y281513D02*
Y383250D01*
X-592256Y276000D02*
Y380000D01*
Y276000D02*
X-587095Y270839D01*
Y261545D02*
Y270839D01*
X-597095Y272064D02*
X-595256Y273903D01*
X-607095Y270315D02*
X-599256Y278154D01*
X-617095Y266423D02*
X-602006Y281513D01*
X-617095Y261545D02*
Y266423D01*
X-477719Y184398D02*
X-466320Y173000D01*
X-735320Y190000D02*
X-729719Y184398D01*
X-597095Y261545D02*
Y272064D01*
X-703966Y63061D02*
Y97613D01*
X-685084Y111436D02*
X-617318D01*
X-697344Y99176D02*
X-685084Y111436D01*
X-697344Y63061D02*
Y99176D01*
X-580701Y116028D02*
X-576506Y111832D01*
X-703966Y97613D02*
X-685552Y116028D01*
X-580701D01*
X-607095Y261545D02*
Y270315D01*
X-548000Y338000D02*
Y378000D01*
X-570257Y354000D02*
Y368743D01*
X-563256Y354000D02*
Y371855D01*
X-553783Y333866D02*
Y377439D01*
X-306000Y369000D02*
X-296000D01*
X-295999Y368999D01*
X-306000Y375000D02*
X-296000D01*
X-307999Y381999D02*
X-295999D01*
X-521000Y312000D02*
X-514000Y305000D01*
X-486506D01*
X-482506Y301000D01*
D83*
X-366086Y233810D02*
G03*
X-368256Y231640I0J-2170D01*
G01*
X-363426Y233810D02*
G03*
X-361256Y235980I0J2170D01*
G01*
D02*
G03*
X-363426Y238150I-2170J0D01*
G01*
X-368256Y240320D02*
G03*
X-366086Y238150I2170J0D01*
G01*
Y242490D02*
G03*
X-368256Y240320I0J-2170D01*
G01*
X-363426Y242490D02*
G03*
X-361256Y244660I0J2170D01*
G01*
D02*
G03*
X-363426Y246830I-2170J0D01*
G01*
X-368256Y249000D02*
G03*
X-366086Y246830I2170J0D01*
G01*
X-678401Y350267D02*
G03*
X-680989Y350267I-1294J-1294D01*
G01*
X-678401D02*
G03*
X-675337Y350262I1534J1534D01*
G01*
X-675332Y350267D02*
G03*
X-674697Y351801I-1534J1534D01*
G01*
D02*
G03*
X-675332Y353336I-2170J0D01*
G01*
X-675587Y361326D02*
G03*
X-675587Y353590I3868J-3868D01*
G01*
X-667851Y361326D02*
G03*
X-675587Y361326I-3868J-3868D01*
G01*
X-667596Y361072D02*
G03*
X-664532Y361067I1534J1534D01*
G01*
X-664528Y361072D02*
G03*
X-663892Y362606I-1534J1534D01*
G01*
D02*
G03*
X-664528Y364141I-2170J0D01*
G01*
X-664782Y372131D02*
G03*
X-664782Y364395I3868J-3868D01*
G01*
X-657046Y372131D02*
G03*
X-664782Y372131I-3868J-3868D01*
G01*
X-656792Y371876D02*
G03*
X-653728Y371871I1534J1534D01*
G01*
X-653723Y371876D02*
G03*
X-653087Y373411I-1534J1534D01*
G01*
D02*
G03*
X-653723Y374945I-2170J0D01*
G01*
X-653978Y382935D02*
G03*
X-653978Y375200I3868J-3868D01*
G01*
X-646242Y382935D02*
G03*
X-653978Y382935I-3868J-3868D01*
G01*
X-645987Y382681D02*
G03*
X-642923Y382676I1534J1534D01*
G01*
X-642918Y382681D02*
G03*
X-642283Y384215I-1534J1534D01*
G01*
D02*
G03*
X-642918Y385750I-2170J0D01*
G01*
X-643173Y393740D02*
G03*
X-643173Y386004I3868J-3868D01*
G01*
X-635437Y393740D02*
G03*
X-643173Y393740I-3868J-3868D01*
G01*
X-635183Y393485D02*
G03*
X-632119Y393480I1534J1534D01*
G01*
X-632114Y393485D02*
G03*
X-631478Y395020I-1534J1534D01*
G01*
D02*
G03*
X-632114Y396554I-2170J0D01*
G01*
Y399142D02*
G03*
X-632114Y396554I1294J-1294D01*
G01*
X-679553Y347036D02*
G03*
X-672999Y347934I2686J4765D01*
G01*
X-672999Y347934D02*
G03*
X-671396Y351801I-3868J3868D01*
G01*
D02*
G03*
X-672999Y355669I-5470J0D01*
G01*
X-673258Y358988D02*
G03*
X-673253Y355924I1539J-1530D01*
G01*
X-670184Y358993D02*
G03*
X-673253Y358993I-1534J-1534D01*
G01*
X-669930Y358738D02*
G03*
X-662194Y358738I3868J3868D01*
G01*
X-662194Y358738D02*
G03*
X-660592Y362606I-3868J3868D01*
G01*
D02*
G03*
X-662194Y366474I-5470J0D01*
G01*
X-662454Y369792D02*
G03*
X-662449Y366728I1539J-1530D01*
G01*
X-659380Y369797D02*
G03*
X-662449Y369797I-1534J-1534D01*
G01*
X-659125Y369543D02*
G03*
X-651389Y369543I3868J3868D01*
G01*
X-651389Y369543D02*
G03*
X-649787Y373411I-3868J3868D01*
G01*
D02*
G03*
X-651389Y377279I-5470J0D01*
G01*
X-651649Y380597D02*
G03*
X-651644Y377533I1539J-1530D01*
G01*
X-648575Y380602D02*
G03*
X-651644Y380602I-1534J-1534D01*
G01*
X-648321Y380347D02*
G03*
X-640585Y380347I3868J3868D01*
G01*
X-640585Y380347D02*
G03*
X-638983Y384215I-3868J3868D01*
G01*
D02*
G03*
X-640585Y388083I-5470J0D01*
G01*
X-640844Y391402D02*
G03*
X-640839Y388338I1539J-1530D01*
G01*
X-637771Y391407D02*
G03*
X-640835Y391411I-1534J-1534D01*
G01*
X-637516Y391152D02*
G03*
X-629780Y391152I3868J3868D01*
G01*
X-629780Y391152D02*
G03*
X-628178Y395020I-3868J3868D01*
G01*
D02*
G03*
X-628883Y397706I-5470J0D01*
G01*
X-798786Y301300D02*
G03*
X-796616Y303470I0J2170D01*
G01*
X-790106Y301300D02*
G03*
X-787936Y303470I0J2170D01*
G01*
X-807466Y301300D02*
G03*
X-805296Y303470I0J2170D01*
G01*
X-800956D02*
G03*
X-798786Y301300I2170J0D01*
G01*
X-783596Y303470D02*
G03*
X-781426Y301300I2170J0D01*
G01*
X-792276Y303470D02*
G03*
X-790106Y301300I2170J0D01*
G01*
X-803126Y305915D02*
G03*
X-805296Y303745I0J-2170D01*
G01*
X-794446Y305915D02*
G03*
X-796616Y303745I0J-2170D01*
G01*
X-800956D02*
G03*
X-803126Y305915I-2170J0D01*
G01*
X-785766D02*
G03*
X-787936Y303745I0J-2170D01*
G01*
X-792276D02*
G03*
X-794446Y305915I-2170J0D01*
G01*
X-783596Y303745D02*
G03*
X-785766Y305915I-2170J0D01*
G01*
X-368256Y249000D02*
Y262400D01*
Y226077D02*
Y229470D01*
Y231640D01*
X-366086Y233810D02*
X-363426D01*
X-366086Y238150D02*
X-363426D01*
X-366086Y242490D02*
X-363426D01*
X-366086Y246830D02*
X-363426D01*
X-377700Y207367D02*
X-366333Y196000D01*
X-377700Y207367D02*
Y216633D01*
X-376720Y217613D01*
X-381000Y218000D02*
X-380020Y218980D01*
X-381000Y206000D02*
Y218000D01*
Y206000D02*
X-367700Y192700D01*
X-375267Y223733D02*
X-371556Y227444D01*
X-375363Y223733D02*
X-375267D01*
X-380020Y219076D02*
X-375363Y223733D01*
X-380020Y218980D02*
Y219076D01*
X-373900Y220433D02*
X-368256Y226077D01*
X-373996Y220433D02*
X-373900D01*
X-376720Y217709D02*
X-373996Y220433D01*
X-376720Y217613D02*
Y217709D01*
X-371556Y227444D02*
Y262400D01*
X-366333Y196000D02*
X-349000D01*
X-367700Y192700D02*
X-347633D01*
X-368256Y262400D02*
X-366656Y264000D01*
X-307396Y224729D02*
Y225159D01*
X-311866Y220259D02*
X-307396Y224729D01*
X-315925Y220259D02*
X-311866D01*
X-373156Y264000D02*
X-371556Y262400D01*
X-317037Y228300D02*
X-313896Y225159D01*
X-331067Y228300D02*
X-317037D01*
X-320667Y225000D02*
X-315925Y220259D01*
X-337000Y222367D02*
X-331067Y228300D01*
X-337000Y208000D02*
Y222367D01*
X-329700Y225000D02*
X-320667D01*
X-333700Y221000D02*
X-329700Y225000D01*
X-333700Y206633D02*
Y221000D01*
X-347633Y192700D02*
X-333700Y206633D01*
X-349000Y196000D02*
X-337000Y208000D01*
X-570898Y115110D02*
X-544706D01*
X-526842Y134962D02*
X-514392D01*
X-539241Y122563D02*
X-526842Y134962D01*
X-539241Y120575D02*
Y122563D01*
X-511668Y130876D02*
X-507673Y126882D01*
X-511668Y130876D02*
Y132238D01*
X-514392Y134962D02*
X-511668Y132238D01*
X-579067Y123279D02*
X-570898Y115110D01*
X-623115Y123279D02*
X-579067D01*
X-628260Y128424D02*
X-623115Y123279D01*
X-628260Y128424D02*
Y146837D01*
X-544706Y115110D02*
X-539241Y120575D01*
Y102610D02*
Y120575D01*
X-515019Y124000D02*
X-510555D01*
X-507673Y126882D01*
X-894972Y279654D02*
X-893318Y278000D01*
X-896874Y279654D02*
X-894972D01*
X-896874Y273215D02*
X-895389Y274700D01*
X-734889D02*
X-609920Y399669D01*
Y454400D01*
X-608320Y456000D01*
X-893318Y278000D02*
X-736256D01*
X-613220Y401036D01*
Y454400D01*
X-614820Y456000D02*
X-613220Y454400D01*
X-895389Y274700D02*
X-734889D01*
X-864397Y291518D02*
X-862397Y289518D01*
X-629820Y456000D02*
X-628220Y454400D01*
X-868831Y287085D02*
X-867964Y286218D01*
X-624920Y454400D02*
X-623320Y456000D01*
X-867964Y286218D02*
X-862397D01*
Y289518D02*
X-741738D01*
X-862397Y286218D02*
X-740371D01*
X-741738Y289518D02*
X-680989Y350267D01*
X-675586Y353590D02*
X-675332Y353336D01*
X-667851Y361326D02*
X-667597Y361072D01*
X-664782Y364395D02*
X-664528Y364141D01*
X-657046Y372131D02*
X-656792Y371876D01*
X-653978Y375200D02*
X-653723Y374945D01*
X-646242Y382935D02*
X-645987Y382681D01*
X-643173Y386004D02*
X-642918Y385750D01*
X-635437Y393740D02*
X-635182Y393485D01*
X-632114Y399142D02*
X-628220Y403036D01*
X-740371Y286218D02*
X-679553Y347036D01*
X-673253Y355924D02*
X-672999Y355669D01*
X-670184Y358993D02*
X-669930Y358738D01*
X-662449Y366729D02*
X-662194Y366474D01*
X-659380Y369797D02*
X-659125Y369543D01*
X-651644Y377533D02*
X-651389Y377279D01*
X-648575Y380602D02*
X-648321Y380347D01*
X-640839Y388338D02*
X-640585Y388083D01*
X-637771Y391406D02*
X-637516Y391152D01*
X-628883Y397706D02*
X-624920Y401669D01*
X-628220Y403036D02*
Y423067D01*
X-624920Y401669D02*
Y423067D01*
X-628220D02*
Y454400D01*
X-624920Y423067D02*
Y454400D01*
X-845256Y303022D02*
X-843534Y301300D01*
X-845820Y303022D02*
X-845256D01*
X-744956Y301300D02*
X-643220Y403036D01*
Y454400D01*
X-644820Y456000D02*
X-643220Y454400D01*
X-845820Y296515D02*
X-844335Y298000D01*
X-743589D02*
X-639920Y401669D01*
X-844335Y298000D02*
X-743589D01*
X-639920Y401669D02*
Y454400D01*
X-638320Y456000D01*
X-843534Y301300D02*
X-807466D01*
X-800956Y303470D02*
Y303745D01*
X-805296Y303470D02*
Y303745D01*
X-792276Y303470D02*
Y303745D01*
X-796616Y303470D02*
Y303745D01*
X-781426Y301300D02*
X-744956D01*
X-787936Y303470D02*
Y303745D01*
X-783596Y303470D02*
Y303745D01*
X-820115Y312115D02*
X-816471D01*
X-821690Y313690D02*
X-820115Y312115D01*
X-816471D02*
X-816356Y312000D01*
X-750256D01*
X-658220Y404036D01*
X-659820Y456000D02*
X-658220Y454400D01*
Y404036D02*
Y454400D01*
X-821690Y307215D02*
X-820205Y308700D01*
X-748889D01*
X-654920Y402669D01*
Y454400D01*
X-653320Y456000D01*
D84*
X-872830Y93433D02*
Y110426D01*
X-876300Y90848D02*
Y111863D01*
X-483266Y238103D02*
X-453266D01*
X-859406Y72151D02*
Y80009D01*
X-528532Y254200D02*
X-499363D01*
X-431656Y232530D02*
X-430256Y231130D01*
X-499363Y254200D02*
X-483266Y238103D01*
X-447693Y232530D02*
X-431656D01*
X-453266Y238103D02*
X-447693Y232530D01*
X-575726Y235530D02*
X-547202D01*
X-528532Y254200D01*
X-587726Y223530D02*
X-575726Y235530D01*
X-718726Y223530D02*
X-587726D01*
X-744726Y197530D02*
X-718726Y223530D01*
X-744726Y180530D02*
Y197530D01*
X-859406Y72151D02*
X-858256Y71001D01*
X-481829Y241573D02*
X-451829D01*
X-497926Y257670D02*
X-481829Y241573D01*
X-529970Y257670D02*
X-497926D01*
X-431656Y236000D02*
X-430256Y237400D01*
X-548640Y239000D02*
X-529970Y257670D01*
X-446256Y236000D02*
X-431656D01*
X-451829Y241573D02*
X-446256Y236000D01*
X-577163Y239000D02*
X-548640D01*
X-589163Y227000D02*
X-577163Y239000D01*
X-720163Y227000D02*
X-589163D01*
X-746163Y201000D02*
Y201000D01*
X-720163Y227000D01*
X-748196Y198967D02*
X-746163Y201000D01*
X-748196Y181967D02*
Y198967D01*
X-870256Y72001D02*
X-869106Y73151D01*
X-872830Y93433D02*
X-859406Y80009D01*
X-864719Y123444D02*
Y123444D01*
X-876300Y111863D02*
X-864719Y123444D01*
X-773965Y151291D02*
X-744726Y180530D01*
X-864719Y123444D02*
X-833731Y154432D01*
X-775731D01*
X-748196Y181967D01*
X-872830Y110426D02*
X-832294Y150962D01*
X-774294D01*
X-773965Y151291D01*
X-773965D01*
X-876300Y90848D02*
X-869106Y83654D01*
Y73151D02*
Y83654D01*
D91*
X-539241Y102610D02*
D03*
X-531241D02*
D03*
D98*
X-366656Y264000D02*
D03*
X-307396Y225159D02*
D03*
X-373156Y264000D02*
D03*
X-313896Y225159D02*
D03*
X-150920Y484000D02*
D03*
X-157220D02*
D03*
X-576999Y508999D02*
D03*
X-569999D02*
D03*
X-180920Y510000D02*
D03*
X-495270Y481000D02*
D03*
X-187220Y510000D02*
D03*
X-501540Y481000D02*
D03*
X-480270Y468000D02*
D03*
X-195920Y543000D02*
D03*
X-486540Y468000D02*
D03*
X-202220Y543000D02*
D03*
X-74000Y198000D02*
D03*
X-279720Y421000D02*
D03*
X-74256Y204986D02*
D03*
X-273420Y421000D02*
D03*
X-65000Y460000D02*
D03*
X-733256Y464000D02*
D03*
X-351070Y418378D02*
D03*
X-116000Y142000D02*
D03*
X-549000Y297000D02*
D03*
X-426256Y417000D02*
D03*
X-712000Y403000D02*
D03*
Y427000D02*
D03*
X-717000Y422000D02*
D03*
X-295999Y367999D02*
D03*
X-296000Y375000D02*
D03*
X-295999Y381999D02*
D03*
X-296000Y389000D02*
D03*
X-279256Y377000D02*
D03*
X-511000Y312000D02*
D03*
X-521000D02*
D03*
X-738000Y477000D02*
D03*
X-601540Y473000D02*
D03*
X-738000Y505000D02*
D03*
X-432000Y177000D02*
D03*
X-517257Y468000D02*
D03*
X-585270Y485000D02*
D03*
X-595270Y473000D02*
D03*
X-587095Y261545D02*
D03*
X-586319Y251999D02*
D03*
X-607095Y261545D02*
D03*
X-553783Y333866D02*
D03*
X-636256Y92000D02*
D03*
X-653256Y263000D02*
D03*
X-239256Y229000D02*
D03*
X-725256Y473000D02*
D03*
X-649256Y465000D02*
D03*
Y473000D02*
D03*
X-769256Y230000D02*
D03*
X-714256Y281000D02*
D03*
X-628119Y319225D02*
D03*
X-521219Y285999D02*
D03*
X-468505Y265250D02*
D03*
X-567889Y261524D02*
D03*
X-411256Y377000D02*
D03*
X-415256Y166000D02*
D03*
X-223258Y85001D02*
D03*
X-252256Y66000D02*
D03*
X-266256Y122000D02*
D03*
X-570257Y354000D02*
D03*
X-576906Y261316D02*
D03*
X-563256Y354000D02*
D03*
X-529619Y236500D02*
D03*
X-142220Y461000D02*
D03*
X-155221Y457000D02*
D03*
X-161521D02*
D03*
X-135920Y461000D02*
D03*
X-210920Y542000D02*
D03*
X-217220D02*
D03*
X-510256Y468000D02*
D03*
X-426257Y410000D02*
D03*
X-341256Y419000D02*
D03*
X-469256Y417000D02*
D03*
X-459256D02*
D03*
X-450256D02*
D03*
X-440256D02*
D03*
X-591540Y485000D02*
D03*
X-725320Y245000D02*
D03*
X-286320Y111000D02*
D03*
X-444320Y211000D02*
D03*
X-597095Y261545D02*
D03*
X-735320Y190000D02*
D03*
X-475320Y140000D02*
D03*
X-741320Y130000D02*
D03*
X-703966Y63061D02*
D03*
X-194010Y168367D02*
D03*
X-465400Y337028D02*
D03*
Y342028D02*
D03*
X-697344Y63061D02*
D03*
X-576506Y111832D02*
D03*
X-617318Y111436D02*
D03*
X-617095Y261545D02*
D03*
X-259327Y117848D02*
D03*
X-259072Y126873D02*
D03*
X-628260Y146837D02*
D03*
X-515019Y124000D02*
D03*
X-524519D02*
D03*
X-548000Y338000D02*
D03*
X-43000Y424350D02*
D03*
X-276256Y399265D02*
D03*
X-150256Y192020D02*
D03*
X-276256Y392965D02*
D03*
X-150258Y185001D02*
D03*
X-41000Y214986D02*
D03*
X-41000Y208000D02*
D03*
X-264720Y421000D02*
D03*
X-258420D02*
D03*
X-213420Y426000D02*
D03*
X-76256Y298716D02*
D03*
X-219720Y426000D02*
D03*
X-76256Y304986D02*
D03*
X-189720Y421000D02*
D03*
X-88276Y339000D02*
D03*
X-183420Y421000D02*
D03*
X-82006Y339000D02*
D03*
X-204720Y420000D02*
D03*
X-76256Y323716D02*
D03*
X-198420Y420000D02*
D03*
X-76256Y329986D02*
D03*
X-430256Y231130D02*
D03*
X-858256Y71001D02*
D03*
X-430256Y237400D02*
D03*
X-870256Y72001D02*
D03*
X-896874Y279654D02*
D03*
Y273215D02*
D03*
X-608320Y456000D02*
D03*
X-614820D02*
D03*
X-864397Y291518D02*
D03*
X-629820Y456000D02*
D03*
X-868831Y287085D02*
D03*
X-623320Y456000D02*
D03*
X-845820Y303022D02*
D03*
X-644820Y456000D02*
D03*
X-845820Y296515D02*
D03*
X-638320Y456000D02*
D03*
X-821690Y313690D02*
D03*
X-659820Y456000D02*
D03*
X-821690Y307215D02*
D03*
X-653320Y456000D02*
D03*
D103*
X-61256Y78760D02*
D03*
D110*
X-981000Y494000D02*
D03*
M02*
