%FSLAX44Y44*%
%MOMM*%
G71*
G01*
G75*
G04 Layer_Physical_Order=1*
G04 Layer_Color=255*
%ADD10C,0.2500*%
%ADD11R,0.3000X0.3000*%
%ADD12R,0.4500X1.3800*%
%ADD13R,0.7620X0.7620*%
%ADD14R,0.6000X0.5500*%
%ADD15R,0.7620X0.7620*%
%ADD16R,0.6200X0.5700*%
%ADD17R,0.9500X0.9500*%
%ADD18R,0.9600X0.9700*%
%ADD19R,0.5500X1.5000*%
%ADD20R,0.9500X0.9500*%
%ADD21R,1.0000X0.6000*%
%ADD22R,0.5500X0.6000*%
%ADD23R,1.2000X3.0000*%
%ADD24R,0.6000X1.0000*%
%ADD25R,1.5500X1.5500*%
%ADD26O,0.6000X0.3000*%
%ADD27R,0.5000X0.4000*%
%ADD28R,0.5700X0.6200*%
%ADD29R,2.4000X1.5000*%
%ADD30R,0.5900X0.4500*%
%ADD31R,0.3500X0.8500*%
%ADD32R,0.2000X1.0000*%
%ADD33R,0.3000X1.2000*%
%ADD34R,3.2000X1.2000*%
%ADD35R,0.4500X0.2000*%
%ADD36R,0.5000X0.2000*%
%ADD37R,0.2000X0.4500*%
%ADD38R,0.2000X0.5000*%
%ADD39R,0.4500X0.5900*%
%ADD40R,0.3000X1.4500*%
%ADD41R,1.1000X1.4000*%
%ADD42R,0.2300X1.0000*%
%ADD43R,0.4000X0.5500*%
%ADD44R,0.3000X0.5500*%
%ADD45R,1.2500X1.7500*%
%ADD46R,0.9700X0.9600*%
%ADD47R,2.1000X2.1000*%
%ADD48R,0.2500X0.6000*%
%ADD49R,0.6000X0.2500*%
%ADD50O,0.5000X1.6000*%
%ADD51R,0.3000X0.3000*%
%ADD52R,1.0160X1.7000*%
%ADD53R,1.0160X1.7000*%
%ADD54R,1.0000X1.5000*%
%ADD55O,0.3000X0.8000*%
%ADD56O,0.8000X0.3000*%
G04:AMPARAMS|DCode=57|XSize=0.75mm|YSize=1.6mm|CornerRadius=0.075mm|HoleSize=0mm|Usage=FLASHONLY|Rotation=270.000|XOffset=0mm|YOffset=0mm|HoleType=Round|Shape=RoundedRectangle|*
%AMROUNDEDRECTD57*
21,1,0.7500,1.4500,0,0,270.0*
21,1,0.6000,1.6000,0,0,270.0*
1,1,0.1500,-0.7250,-0.3000*
1,1,0.1500,-0.7250,0.3000*
1,1,0.1500,0.7250,0.3000*
1,1,0.1500,0.7250,-0.3000*
%
%ADD57ROUNDEDRECTD57*%
G04:AMPARAMS|DCode=58|XSize=0.6mm|YSize=1.8mm|CornerRadius=0.06mm|HoleSize=0mm|Usage=FLASHONLY|Rotation=270.000|XOffset=0mm|YOffset=0mm|HoleType=Round|Shape=RoundedRectangle|*
%AMROUNDEDRECTD58*
21,1,0.6000,1.6800,0,0,270.0*
21,1,0.4800,1.8000,0,0,270.0*
1,1,0.1200,-0.8400,-0.2400*
1,1,0.1200,-0.8400,0.2400*
1,1,0.1200,0.8400,0.2400*
1,1,0.1200,0.8400,-0.2400*
%
%ADD58ROUNDEDRECTD58*%
G04:AMPARAMS|DCode=59|XSize=1.3mm|YSize=0.7mm|CornerRadius=0.07mm|HoleSize=0mm|Usage=FLASHONLY|Rotation=270.000|XOffset=0mm|YOffset=0mm|HoleType=Round|Shape=RoundedRectangle|*
%AMROUNDEDRECTD59*
21,1,1.3000,0.5600,0,0,270.0*
21,1,1.1600,0.7000,0,0,270.0*
1,1,0.1400,-0.2800,-0.5800*
1,1,0.1400,-0.2800,0.5800*
1,1,0.1400,0.2800,0.5800*
1,1,0.1400,0.2800,-0.5800*
%
%ADD59ROUNDEDRECTD59*%
%ADD60R,3.2000X3.2000*%
%ADD61R,0.7500X0.3000*%
%ADD62R,0.3000X0.7500*%
%ADD63R,1.0160X1.2700*%
%ADD64R,0.4000X0.9000*%
%ADD65R,0.4000X0.5000*%
%ADD66R,1.3900X1.4000*%
%ADD67R,3.3600X4.8600*%
%ADD68R,1.4000X1.1000*%
%ADD69R,0.8500X0.3560*%
%ADD70R,2.6000X3.0000*%
%ADD71R,0.3000X1.7500*%
%ADD72R,2.0000X3.5000*%
%ADD73R,3.4000X2.4000*%
%ADD74R,1.7000X1.0160*%
%ADD75R,1.7000X1.0160*%
%ADD76R,1.4000X2.1000*%
%ADD77R,2.3700X1.9000*%
%ADD78R,1.1750X1.9000*%
%ADD79C,0.2000*%
%ADD80C,0.3000*%
%ADD81C,0.1500*%
%ADD82C,0.4000*%
%ADD83C,0.1800*%
%ADD84C,0.2200*%
%ADD85C,0.3500*%
%ADD86R,2.1000X10.0000*%
%ADD87R,2.6000X6.8000*%
%ADD88R,4.4000X3.2000*%
%ADD89R,2.2000X13.7000*%
%ADD90O,1.0000X1.6000*%
%ADD91C,0.6500*%
%ADD92C,6.0000*%
%ADD93O,1.2000X1.7000*%
%ADD94O,1.2000X1.9000*%
%ADD95C,0.7500*%
%ADD96O,1.4000X2.8500*%
%ADD97O,1.2000X2.2500*%
%ADD98C,0.5000*%
%ADD99C,1.5000*%
%ADD100R,1.5000X1.5000*%
%ADD101O,4.5000X2.0000*%
%ADD102O,2.0000X4.0000*%
%ADD103O,4.0000X2.0000*%
%ADD104C,1.7000*%
%ADD105C,3.2500*%
%ADD106C,1.6500*%
%ADD107C,2.6000*%
%ADD108C,1.9000*%
%ADD109R,1.7000X1.7000*%
%ADD110C,0.6000*%
G36*
X-801000Y335000D02*
X-886000D01*
Y368000D01*
X-801000D01*
Y335000D01*
D02*
G37*
G36*
X-813000Y374000D02*
X-856000D01*
Y419000D01*
X-813000D01*
Y374000D01*
D02*
G37*
G36*
X-910000Y251000D02*
X-997000D01*
Y278000D01*
X-910000D01*
Y251000D01*
D02*
G37*
G36*
X-864000Y303000D02*
X-903000D01*
Y283000D01*
X-978000D01*
Y327000D01*
X-864000D01*
Y303000D01*
D02*
G37*
G36*
X-959000Y415000D02*
X-919000D01*
Y382000D01*
X-994000D01*
Y456000D01*
X-959000D01*
Y415000D01*
D02*
G37*
G36*
X-827000Y461000D02*
X-873000D01*
Y530000D01*
X-827000D01*
Y461000D01*
D02*
G37*
G36*
X-977138Y479806D02*
X-960882D01*
X-961000Y464000D01*
X-997000D01*
Y501000D01*
X-976884Y501142D01*
X-977138Y479806D01*
D02*
G37*
G36*
X-736000Y382000D02*
X-750000D01*
Y415000D01*
X-736000D01*
Y382000D01*
D02*
G37*
G36*
X-882000Y460000D02*
X-917000D01*
Y532000D01*
X-882000D01*
Y460000D01*
D02*
G37*
D10*
X-482320Y168000D02*
G03*
X-479800Y165480I2520J0D01*
G01*
Y160440D02*
G03*
X-482320Y157920I0J-2520D01*
G01*
X-474840Y160440D02*
G03*
X-472320Y162960I0J2520D01*
G01*
Y162960D02*
G03*
X-474840Y165480I-2520J0D01*
G01*
X-648244Y327246D02*
X-648195Y327198D01*
X-151570Y511758D02*
Y522000D01*
X-152185Y485265D02*
Y511143D01*
X-151570Y511758D01*
X-152185Y485265D02*
X-150920Y484000D01*
X-156258Y511446D02*
X-155955Y511143D01*
X-156570Y512383D02*
X-156258Y512071D01*
X-156570Y512383D02*
Y522000D01*
X-156258Y511446D02*
Y512071D01*
X-155955Y485265D02*
Y511143D01*
X-157220Y484000D02*
X-155955Y485265D01*
X-181570Y510650D02*
X-180920Y510000D01*
X-181570Y510650D02*
Y522000D01*
X-186570Y510650D02*
Y522000D01*
X-187220Y510000D02*
X-186570Y510650D01*
X-197185Y533373D02*
Y541735D01*
X-195920Y543000D01*
X-197185Y533373D02*
X-196570Y532758D01*
Y522000D02*
Y532758D01*
X-202220Y543000D02*
X-200955Y541735D01*
Y533373D02*
Y541735D01*
X-201570Y532758D02*
X-200955Y533373D01*
X-201570Y522000D02*
Y532758D01*
X-229070Y429758D02*
Y440000D01*
X-229685Y423265D02*
X-228420Y422000D01*
X-229685Y429143D02*
X-229070Y429758D01*
X-229685Y423265D02*
Y429143D01*
X-234000Y429688D02*
X-233455Y429143D01*
Y423265D02*
Y429143D01*
X-234070Y430141D02*
X-234000Y430071D01*
X-234070Y430141D02*
Y440000D01*
X-234000Y429688D02*
Y430071D01*
X-234720Y422000D02*
X-233455Y423265D01*
X-249000Y429688D02*
X-248455Y429143D01*
Y423265D02*
Y429143D01*
X-249070Y430141D02*
X-249000Y430071D01*
X-249070Y430141D02*
Y440000D01*
X-249000Y429688D02*
Y430071D01*
X-249720Y422000D02*
X-248455Y423265D01*
X-244070Y429758D02*
Y440000D01*
X-244685Y423265D02*
X-243420Y422000D01*
X-244685Y429143D02*
X-244070Y429758D01*
X-244685Y423265D02*
Y429143D01*
X-279070Y429758D02*
X-278455Y429143D01*
Y422265D02*
Y429143D01*
X-279070Y429758D02*
Y440000D01*
X-279720Y421000D02*
X-278455Y422265D01*
X-274070Y429758D02*
Y440000D01*
X-274685Y422265D02*
X-273420Y421000D01*
X-274685Y429143D02*
X-274070Y429758D01*
X-274685Y422265D02*
Y429143D01*
X-151000Y413000D02*
X-149000Y411000D01*
X-151000Y413000D02*
Y428145D01*
X-155000Y415000D02*
Y426071D01*
X-158000Y412000D02*
X-155000Y415000D01*
X-154070Y431214D02*
X-151000Y428145D01*
X-154070Y431214D02*
Y440000D01*
X-159070Y430141D02*
X-155000Y426071D01*
X-159070Y430141D02*
Y440000D01*
X-685535Y460250D02*
X-674070Y448786D01*
X-693250Y460250D02*
X-685535D01*
X-721000Y488000D02*
X-693250Y460250D01*
X-721000Y488000D02*
Y498998D01*
X-710999Y508999D01*
X-712000Y492019D02*
X-669070Y449089D01*
X-674070Y440000D02*
Y448786D01*
X-669070Y440000D02*
Y449089D01*
X-712000Y492019D02*
Y495000D01*
X-629000Y491000D02*
X-622000D01*
X-616570Y496430D01*
Y522000D01*
X-724070Y448930D02*
X-718000Y455000D01*
X-724070Y440000D02*
Y448930D01*
X-426256Y425000D02*
X-425256Y426000D01*
X-480256Y402200D02*
X-469256D01*
X-555247Y474770D02*
X-531506D01*
X-568455Y461562D02*
X-555247Y474770D01*
X-553685Y471000D02*
X-531506D01*
X-564685Y460000D02*
X-553685Y471000D01*
X-730256Y353000D02*
X-637183D01*
X-735006Y348250D02*
X-730256Y353000D01*
X-637183D02*
X-628119Y343937D01*
X-814256Y243000D02*
Y254200D01*
X-769852Y229404D02*
X-769256Y230000D01*
X-779694Y229404D02*
X-769852D01*
X-735006Y346000D02*
Y348250D01*
X-735032Y345974D02*
X-735006Y346000D01*
X-735032Y321246D02*
Y345974D01*
X-819256Y195000D02*
X-818658Y195598D01*
X-808844D01*
X-469256Y402141D02*
X-460539D01*
X-490256Y402200D02*
X-480256D01*
X-223111Y85147D02*
Y94214D01*
X-223258Y85001D02*
X-223111Y85147D01*
X-252256Y66000D02*
X-248256Y62000D01*
Y52630D02*
Y62000D01*
X-143506Y130760D02*
X-142256Y132010D01*
X-161004Y134808D02*
X-156956Y130760D01*
X-143506D01*
X-167099Y134808D02*
X-161004D01*
X-173104D02*
X-167099D01*
X-173104Y134164D02*
Y134808D01*
X-175804Y131464D02*
X-173104Y134164D01*
X-180861Y131464D02*
X-175804D01*
X-240141Y84186D02*
Y88750D01*
X-241391Y90000D02*
X-240141Y88750D01*
X-243256Y72715D02*
X-241756Y71214D01*
X-243256Y81071D02*
X-240141Y84186D01*
X-241756Y65750D02*
Y71214D01*
X-243256Y72715D02*
Y81071D01*
X-241756Y52630D02*
Y65750D01*
X-241756Y52630D02*
X-241756Y52630D01*
X-143506Y126990D02*
X-142256Y125740D01*
X-156956Y126990D02*
X-143506D01*
X-161004Y122942D02*
X-156956Y126990D01*
X-167070Y122942D02*
X-161004D01*
X-173104D02*
Y123764D01*
X-180861Y126464D02*
X-175804D01*
X-173104Y123764D01*
Y122942D02*
X-167070D01*
X-236371Y88750D02*
X-235121Y90000D01*
X-233256Y72715D02*
Y81071D01*
X-234756Y71214D02*
X-233256Y72715D01*
X-236371Y84186D02*
X-233256Y81071D01*
X-234756Y65750D02*
Y71214D01*
X-236371Y84186D02*
Y88750D01*
X-234756Y53130D02*
Y65750D01*
X-235256Y52630D02*
X-234756Y53130D01*
X-249534Y111464D02*
X-230361D01*
X-320256Y38500D02*
X-312256Y30500D01*
X-320256Y38500D02*
Y78970D01*
X-311177Y88049D01*
X-534120Y251659D02*
X-530478Y248017D01*
Y244430D02*
Y248017D01*
Y244430D02*
X-524619Y238571D01*
X-526708Y245992D02*
X-520849Y240132D01*
X-526708Y245992D02*
Y247971D01*
X-523020Y251659D01*
Y255750D01*
X-295740Y88586D02*
X-295205Y88051D01*
X-416570Y509635D02*
X-415935Y509000D01*
X-416570Y509635D02*
Y522000D01*
X-421570Y509635D02*
Y522000D01*
X-422205Y509000D02*
X-421570Y509635D01*
X-144070Y429758D02*
X-143455Y429143D01*
X-144720Y425000D02*
X-143455Y426265D01*
X-144070Y429758D02*
Y440000D01*
X-143455Y426265D02*
Y429143D01*
X-139070Y429758D02*
Y440000D01*
X-139685Y426265D02*
X-138420Y425000D01*
X-139685Y429143D02*
X-139070Y429758D01*
X-139685Y426265D02*
Y429143D01*
X-137185Y462265D02*
Y511143D01*
Y462265D02*
X-135920Y461000D01*
X-160256Y458265D02*
Y469668D01*
X-161521Y457000D02*
X-160256Y458265D01*
X-136570Y511758D02*
Y522000D01*
X-137185Y511143D02*
X-136570Y511758D01*
X-212185Y540735D02*
X-210920Y542000D01*
X-212185Y533373D02*
X-211570Y532758D01*
X-212185Y533373D02*
Y540735D01*
X-211570Y522000D02*
Y532758D01*
X-217220Y542000D02*
X-215955Y540735D01*
Y533373D02*
Y540735D01*
X-216570Y532758D02*
X-215955Y533373D01*
X-216570Y522000D02*
Y532758D01*
X-380256Y506000D02*
X-348256D01*
X-346570Y507686D01*
Y522000D01*
Y531986D01*
X-531705Y280147D02*
X-530455Y278897D01*
Y271924D02*
Y278897D01*
X-534120Y268259D02*
X-530455Y271924D01*
X-534120Y264250D02*
Y268259D01*
X-568455Y451373D02*
Y461562D01*
X-569070Y450758D02*
X-568455Y451373D01*
X-569070Y440000D02*
Y450758D01*
X-526685Y278897D02*
X-525025Y280557D01*
X-523020Y264250D02*
Y268259D01*
X-526685Y271924D02*
Y278897D01*
Y271924D02*
X-523020Y268259D01*
X-564685Y451373D02*
Y460000D01*
Y451373D02*
X-564070Y450758D01*
Y440000D02*
Y450758D01*
X-531506Y471000D02*
X-530256Y469750D01*
X-531506Y474770D02*
X-530256Y476020D01*
X-548885Y278595D02*
X-547635Y279845D01*
X-545220Y264250D02*
Y268259D01*
X-548885Y271924D02*
X-545220Y268259D01*
X-548885Y271924D02*
Y278595D01*
X-556570Y508074D02*
Y522000D01*
X-557205Y507438D02*
X-556570Y508074D01*
X-551570Y508074D02*
X-550935Y507438D01*
X-551570Y508074D02*
Y522000D01*
X-553905Y279845D02*
X-552655Y278595D01*
Y271924D02*
Y278595D01*
X-556320Y268259D02*
X-552655Y271924D01*
X-556320Y264250D02*
Y268259D01*
X-452144Y401992D02*
X-440353D01*
X-433256Y424999D02*
Y427000D01*
X-433257Y425000D02*
Y425000D01*
Y425000D02*
X-433256Y424999D01*
Y427000D02*
X-429070Y431186D01*
Y440000D01*
X-425256Y426000D02*
Y428000D01*
X-424070Y429186D01*
Y440000D01*
X-431570Y509635D02*
Y522000D01*
Y509635D02*
X-430935Y509000D01*
X-436570Y509635D02*
Y522000D01*
X-437205Y509000D02*
X-436570Y509635D01*
X-170955Y480367D02*
X-160256Y469668D01*
X-170955Y480367D02*
Y511143D01*
X-171570Y511758D02*
X-170955Y511143D01*
X-171570Y511758D02*
Y522000D01*
X-156486Y458265D02*
X-155221Y457000D01*
X-156486Y458265D02*
Y471230D01*
X-167185Y481929D02*
X-156486Y471230D01*
X-167185Y481929D02*
Y511143D01*
X-166570Y511758D01*
Y522000D01*
X-140955Y462265D02*
Y511143D01*
X-141570Y511758D02*
X-140955Y511143D01*
X-141570Y511758D02*
Y522000D01*
X-142220Y461000D02*
X-140955Y462265D01*
X-550209Y210115D02*
X-544957D01*
X-562505Y197819D02*
X-550209Y210115D01*
X-551771Y213885D02*
X-545257D01*
X-566275Y199381D02*
X-551771Y213885D01*
X-549126Y123074D02*
Y139565D01*
X-549741Y122459D02*
X-549126Y123074D01*
X-549741Y115110D02*
Y122459D01*
X-545356Y127820D02*
X-544320Y128856D01*
X-545356Y123074D02*
Y127820D01*
Y123074D02*
X-544741Y122459D01*
Y115110D02*
Y122459D01*
X-286320Y111000D02*
X-285693Y110373D01*
X-765320Y173985D02*
Y182000D01*
X-766305Y173000D02*
X-765320Y173985D01*
X-640148Y289073D02*
X-634704D01*
X-222269Y157674D02*
X-207041D01*
X-198111Y148744D01*
X-224482Y159886D02*
X-222269Y157674D01*
X-452328Y401992D02*
X-452320Y402000D01*
X-460390Y401992D02*
X-452328D01*
X-534120Y251659D02*
Y255750D01*
X-521320Y202159D02*
Y206000D01*
Y202159D02*
X-521205Y202044D01*
X-487572Y185502D02*
Y188018D01*
Y185502D02*
X-482320Y180250D01*
X-491342Y183514D02*
Y186457D01*
X-494606Y180250D02*
X-491342Y183514D01*
X-525320Y202159D02*
Y206000D01*
X-525435Y202044D02*
X-525320Y202159D01*
X-529320D02*
Y206000D01*
Y202159D02*
X-529205Y202044D01*
Y195338D02*
Y202044D01*
X-519177Y180250D02*
Y185311D01*
X-512794Y184259D02*
X-510901D01*
X-506892Y180250D01*
X-534787Y180461D02*
Y184559D01*
X-537678Y187451D02*
X-534787Y184559D01*
X-544340Y180299D02*
Y184359D01*
X-541448Y187251D01*
X-537678Y187451D02*
Y190741D01*
X-533435Y194984D01*
X-541448Y187251D02*
Y192303D01*
X-537205Y196546D01*
Y202044D01*
X-537320Y202159D02*
X-537205Y202044D01*
X-537320Y202159D02*
Y205750D01*
X-533435Y194984D02*
Y202044D01*
X-533320Y202159D01*
Y206000D01*
X-545142Y214000D02*
X-541320D01*
X-545257Y213885D02*
X-545142Y214000D01*
X-544842Y210000D02*
X-541320D01*
X-544957Y210115D02*
X-544842Y210000D01*
X-562505Y186269D02*
Y197819D01*
X-566275Y187115D02*
Y199381D01*
X-562505Y186269D02*
X-560395Y184159D01*
Y180103D02*
Y184159D01*
X-569331Y184059D02*
X-566275Y187115D01*
X-569331Y179979D02*
Y184059D01*
X-544320Y136150D02*
Y143850D01*
Y149919D01*
X-543685Y150554D01*
X-544340Y167759D02*
Y171799D01*
X-542916Y162336D02*
Y166335D01*
X-544340Y167759D02*
X-542916Y166335D01*
X-549320Y139759D02*
X-549126Y139565D01*
X-549320Y139759D02*
Y143850D01*
X-549955Y150554D02*
X-549320Y149919D01*
Y143850D02*
Y149919D01*
X-536646Y162336D02*
Y166099D01*
X-534787Y167959D01*
Y171961D01*
X-564955Y127004D02*
X-563705Y128254D01*
X-569331Y167459D02*
X-566748Y164876D01*
Y157868D02*
Y164876D01*
X-569331Y167459D02*
Y171479D01*
X-564320Y143850D02*
X-563705Y144465D01*
X-564320Y136150D02*
Y143850D01*
Y132059D02*
Y136150D01*
X-563705Y128254D02*
Y131444D01*
X-564320Y132059D02*
X-563705Y131444D01*
X-559935Y131444D02*
X-559320Y132059D01*
X-562978Y159429D02*
Y164976D01*
X-560395Y167559D01*
Y171603D01*
X-559935Y128254D02*
Y131444D01*
X-559320Y136150D02*
Y143850D01*
X-559935Y128254D02*
X-558685Y127004D01*
X-559935Y144465D02*
X-559320Y143850D01*
Y132059D02*
Y136150D01*
X-521338Y136406D02*
X-519261Y138482D01*
X-521338Y131562D02*
Y136406D01*
X-522588Y130312D02*
X-521338Y131562D01*
X-519177Y171750D02*
X-514919Y167492D01*
X-509320Y136150D02*
Y143850D01*
Y149217D01*
X-509955Y149852D02*
X-509320Y149217D01*
X-511149Y167492D02*
X-506892Y171750D01*
X-504320Y143850D02*
Y149217D01*
Y136150D02*
Y143850D01*
Y149217D02*
X-503685Y149852D01*
X-808844Y195598D02*
X-800059D01*
X-799988Y195528D01*
X-788824D01*
X-788529Y195233D01*
X-808844Y205198D02*
X-799809D01*
X-799545Y205462D01*
X-794787Y210220D01*
X-787782D01*
X-180861Y136464D02*
Y154963D01*
X-178346Y157478D01*
X-266292Y167947D02*
X-258008D01*
X-266300Y167939D02*
X-266292Y167947D01*
X-258008D02*
Y173054D01*
X-255208Y175853D01*
X-246436D02*
X-245007Y174425D01*
Y167947D02*
Y174425D01*
X-255208Y175853D02*
X-246436D01*
X-198111Y143714D02*
Y148744D01*
X-224482Y159886D02*
Y167952D01*
X-245002D02*
X-224482D01*
X-245007Y167947D02*
X-245002Y167952D01*
X-204162Y167952D02*
X-194424D01*
X-194010Y168367D01*
X-511117Y188690D02*
X-493576D01*
X-491342Y186457D01*
X-509555Y192460D02*
X-492014D01*
X-487572Y188018D01*
X-616904Y276873D02*
Y278563D01*
X-606404Y289063D01*
Y293073D01*
X-601404Y287893D02*
Y293073D01*
X-606968Y282328D02*
X-601404Y287893D01*
X-606968Y276938D02*
Y282328D01*
Y276938D02*
X-606904Y276873D01*
X-596404Y277373D02*
Y293073D01*
X-596904Y276873D02*
X-596404Y277373D01*
X-591404Y286756D02*
Y293073D01*
Y286756D02*
X-586904Y282255D01*
Y276873D02*
Y282255D01*
X-576904Y276873D02*
Y278796D01*
X-586404Y288296D02*
Y293073D01*
Y288296D02*
X-576904Y278796D01*
X-581404Y290859D02*
Y293073D01*
X-567904Y276873D02*
Y277359D01*
X-625104Y296939D02*
X-622470Y299573D01*
X-625104Y289073D02*
Y296939D01*
X-642267Y291192D02*
X-640148Y289073D01*
X-642267Y291192D02*
Y305646D01*
X-641938Y305975D01*
Y306632D01*
X-639228Y309342D01*
X-633923D01*
X-633904Y309323D01*
X-622006Y314573D02*
X-612904D01*
X-627237Y309342D02*
X-622006Y314573D01*
X-633885Y309342D02*
X-627237D01*
X-633904Y309323D02*
X-633885Y309342D01*
X-622470Y299573D02*
X-620728D01*
X-620627Y299471D01*
X-613005D02*
X-612904Y299573D01*
X-620627Y299471D02*
X-613005D01*
X-581404Y290859D02*
X-567904Y277359D01*
X-633904Y309323D02*
Y318185D01*
X-633104Y318985D01*
X-628360D01*
X-628119Y319225D01*
X-642704Y318985D02*
Y327198D01*
Y335412D02*
Y343625D01*
X-460539Y402141D02*
X-460390Y401992D01*
X-648195Y327198D02*
X-642704D01*
X-648244Y335460D02*
X-648195Y335412D01*
X-642704D01*
X-249808Y111738D02*
X-249534Y111464D01*
X-559935Y144465D02*
Y156386D01*
X-562978Y159429D02*
X-559935Y156386D01*
X-563705Y144465D02*
Y154825D01*
X-566748Y157868D02*
X-563705Y154825D01*
X-525320Y230000D02*
Y233727D01*
X-521320Y230000D02*
Y232396D01*
X-525320Y233727D02*
X-524619Y234429D01*
Y238571D01*
X-521320Y232396D02*
X-520849Y232867D01*
Y240132D01*
X-553182Y246087D02*
Y248521D01*
Y246087D02*
X-549406Y242311D01*
X-556320Y251659D02*
Y255750D01*
Y251659D02*
X-553182Y248521D01*
X-538389Y232867D02*
X-537320Y231798D01*
Y230300D02*
Y231798D01*
X-549406Y242311D02*
X-544375D01*
X-538389Y232867D02*
Y236325D01*
X-544375Y242311D02*
X-538389Y236325D01*
X-549412Y247648D02*
X-547845Y246081D01*
X-542813D01*
X-549412Y247648D02*
Y251558D01*
X-545220Y255750D01*
X-533320Y230000D02*
Y233130D01*
X-542813Y246081D02*
X-534619Y237887D01*
Y234429D02*
X-533320Y233130D01*
X-534619Y234429D02*
Y237887D01*
X-517568Y131562D02*
X-516318Y130312D01*
X-514919Y160552D02*
Y167492D01*
X-511149Y158990D02*
Y167492D01*
X-519261Y138482D02*
Y156210D01*
X-514919Y160552D01*
X-515491Y154648D02*
X-511149Y158990D01*
X-517320Y202159D02*
Y206000D01*
X-517435Y202044D02*
X-517320Y202159D01*
X-517435Y200340D02*
Y202044D01*
Y200340D02*
X-509555Y192460D01*
X-521205Y198779D02*
Y202044D01*
Y198779D02*
X-511117Y188690D01*
X-525435Y196900D02*
Y202044D01*
Y196900D02*
X-512794Y184259D01*
X-529205Y195338D02*
X-519177Y185311D01*
X-530789Y124439D02*
X-529741Y123391D01*
Y115110D02*
Y123391D01*
X-517568Y131562D02*
Y134844D01*
X-515491Y136920D01*
Y154648D01*
X-504741Y115110D02*
Y131638D01*
X-504320Y132059D01*
Y136150D01*
X-509741Y115110D02*
Y122459D01*
X-509320Y122880D01*
Y136150D01*
X-524741Y115110D02*
Y123778D01*
X-524519Y124000D01*
X-544320Y128856D02*
Y136150D01*
X-814256Y254200D02*
X-804000D01*
X-289685Y407000D02*
X-280685Y398000D01*
X-277521D01*
X-289685Y407000D02*
Y429143D01*
X-289070Y429758D01*
Y440000D01*
X-277521Y398000D02*
X-276256Y399265D01*
X-277521Y394230D02*
X-276256Y392965D01*
X-293455Y405438D02*
Y429143D01*
X-294070Y429758D02*
Y440000D01*
Y429758D02*
X-293455Y429143D01*
X-282247Y394230D02*
X-277521D01*
X-293455Y405438D02*
X-282247Y394230D01*
X-264720Y421000D02*
X-263455Y422265D01*
X-264070Y430884D02*
Y440000D01*
X-263455Y422265D02*
Y425732D01*
X-263257Y425929D01*
Y430071D01*
X-264070Y430884D02*
X-263257Y430071D01*
X-259685Y422265D02*
Y424170D01*
X-259487Y424368D01*
Y429341D01*
X-259685Y422265D02*
X-258420Y421000D01*
X-259487Y429341D02*
X-259070Y429758D01*
Y440000D01*
X-174720Y424000D02*
X-173455Y425265D01*
Y429143D01*
X-174070Y429758D02*
Y440000D01*
Y429758D02*
X-173455Y429143D01*
X-169685Y425265D02*
Y429143D01*
X-169070Y429758D01*
X-169685Y425265D02*
X-168420Y424000D01*
X-169070Y429758D02*
Y440000D01*
X-214685Y427265D02*
Y429143D01*
X-214070Y429758D01*
Y440000D01*
X-214685Y427265D02*
X-213420Y426000D01*
X-218455Y427265D02*
Y429143D01*
X-219070Y429758D02*
Y440000D01*
X-219720Y426000D02*
X-218455Y427265D01*
X-219070Y429758D02*
X-218455Y429143D01*
X-189720Y421000D02*
X-188455Y422265D01*
X-189000Y429689D02*
Y430071D01*
X-189070Y430141D02*
Y440000D01*
Y430141D02*
X-189000Y430071D01*
X-188455Y422265D02*
Y429143D01*
X-189000Y429689D02*
X-188455Y429143D01*
X-184685Y422265D02*
X-183420Y421000D01*
X-184685Y422265D02*
Y429143D01*
X-184279Y429549D01*
Y430350D01*
X-184070Y430560D01*
Y440000D01*
X-203455Y421265D02*
Y429143D01*
X-204070Y429758D02*
Y440000D01*
X-204720Y420000D02*
X-203455Y421265D01*
X-204070Y429758D02*
X-203455Y429143D01*
X-199685Y421265D02*
Y429143D01*
X-199070Y429758D01*
X-199685Y421265D02*
X-198420Y420000D01*
X-199070Y429758D02*
Y440000D01*
X-489320Y126296D02*
X-488685Y125661D01*
X-489320Y136150D02*
Y143850D01*
Y126296D02*
Y136150D01*
X-488320Y145000D02*
X-482320Y151000D01*
X-494955Y125661D02*
X-494320Y126296D01*
Y153877D02*
X-490348Y157849D01*
X-494606Y171750D02*
X-490348Y167492D01*
X-494320Y126296D02*
Y136150D01*
Y143850D02*
Y153877D01*
Y136150D02*
Y143850D01*
X-490348Y157849D02*
Y167492D01*
X-482320Y151000D02*
Y157920D01*
Y168000D02*
Y171750D01*
X-479800Y160440D02*
X-474840D01*
X-472320Y162960D02*
Y162960D01*
X-479800Y165480D02*
X-474840D01*
X-401570Y509635D02*
X-400935Y509000D01*
X-401570Y509635D02*
Y522000D01*
X-406570Y509635D02*
Y522000D01*
X-407205Y509000D02*
X-406570Y509635D01*
D11*
X-241756Y65750D02*
D03*
X-234756D02*
D03*
X-710883Y103128D02*
D03*
X-717883D02*
D03*
X-714383Y94628D02*
D03*
X-238256Y74250D02*
D03*
D12*
X-241756Y52630D02*
D03*
X-235256D02*
D03*
X-248256D02*
D03*
X-228756D02*
D03*
X-222256D02*
D03*
D13*
X-295205Y74081D02*
D03*
Y88051D02*
D03*
X-311177Y88049D02*
D03*
Y74079D02*
D03*
X-752321Y125821D02*
D03*
Y139791D02*
D03*
X-710918Y132783D02*
D03*
Y146753D02*
D03*
X-605946Y62710D02*
D03*
Y76680D02*
D03*
D14*
X-685177Y187250D02*
D03*
X-675606D02*
D03*
X-403320Y208250D02*
D03*
X-411320D02*
D03*
X-392320D02*
D03*
X-384320D02*
D03*
X-353320D02*
D03*
X-344320D02*
D03*
X-722184Y302487D02*
D03*
Y310987D02*
D03*
X-364320Y199750D02*
D03*
X-373320D02*
D03*
X-569331Y179979D02*
D03*
X-656463Y178750D02*
D03*
X-646892D02*
D03*
X-494606Y180250D02*
D03*
X-675606Y178750D02*
D03*
X-637320D02*
D03*
X-704320D02*
D03*
X-560395Y180103D02*
D03*
X-666034Y178750D02*
D03*
X-685177D02*
D03*
X-694749D02*
D03*
X-482320Y180250D02*
D03*
X-633904Y309323D02*
D03*
Y300823D02*
D03*
X-403320Y199750D02*
D03*
X-411320D02*
D03*
X-384320D02*
D03*
X-392320D02*
D03*
X-344320D02*
D03*
X-353320D02*
D03*
X-306146Y206113D02*
D03*
X-315146D02*
D03*
X-637320Y187250D02*
D03*
X-646892D02*
D03*
X-656463D02*
D03*
X-666034D02*
D03*
X-523020Y255750D02*
D03*
X-534120D02*
D03*
X-506892Y180250D02*
D03*
X-519177D02*
D03*
X-534787Y171961D02*
D03*
X-544340Y171799D02*
D03*
X-534787Y180461D02*
D03*
X-544340Y180299D02*
D03*
X-506892Y171750D02*
D03*
X-519177D02*
D03*
X-364320Y208250D02*
D03*
X-373320D02*
D03*
X-482320Y171750D02*
D03*
X-494606D02*
D03*
X-560395Y171603D02*
D03*
X-569331Y171479D02*
D03*
X-545220Y264250D02*
D03*
X-556320D02*
D03*
X-523020D02*
D03*
X-534120D02*
D03*
X-694749Y187250D02*
D03*
X-704320D02*
D03*
X-728193Y281992D02*
D03*
Y273493D02*
D03*
X-266300Y159439D02*
D03*
Y167939D02*
D03*
X-306146Y214613D02*
D03*
X-315146D02*
D03*
X-545220Y255750D02*
D03*
X-556320D02*
D03*
X-951000Y444250D02*
D03*
Y435750D02*
D03*
D15*
X-791305Y15000D02*
D03*
X-777335D02*
D03*
X-766305Y173000D02*
D03*
X-752335D02*
D03*
X-587290Y9118D02*
D03*
X-601260D02*
D03*
X-611323Y122662D02*
D03*
X-625293D02*
D03*
X-610735Y248500D02*
D03*
X-624705D02*
D03*
X-463790Y148922D02*
D03*
X-449820D02*
D03*
X-463790Y165234D02*
D03*
X-449820D02*
D03*
X-315881Y189485D02*
D03*
X-582459Y122618D02*
D03*
X-596429D02*
D03*
X-500335Y292000D02*
D03*
X-514305D02*
D03*
X-291881Y189485D02*
D03*
X-305851D02*
D03*
X-329851D02*
D03*
X-394968Y341647D02*
D03*
X-408938D02*
D03*
X-259034Y133515D02*
D03*
X-245064D02*
D03*
D16*
X-808844Y205198D02*
D03*
Y195598D02*
D03*
X-799864Y185975D02*
D03*
Y195575D02*
D03*
X-799545Y205462D02*
D03*
Y215062D02*
D03*
X-780320Y280200D02*
D03*
Y289800D02*
D03*
X-768171Y280084D02*
D03*
Y289684D02*
D03*
X-513320Y264800D02*
D03*
Y255200D02*
D03*
X-592910Y64348D02*
D03*
Y73948D02*
D03*
X-450256Y411800D02*
D03*
Y402200D02*
D03*
X-639320Y103200D02*
D03*
X-616904Y276873D02*
D03*
Y267273D02*
D03*
X-486320Y255200D02*
D03*
Y264800D02*
D03*
X-426655Y324959D02*
D03*
Y315359D02*
D03*
X-586904Y276873D02*
D03*
Y267273D02*
D03*
X-657320Y103200D02*
D03*
Y112800D02*
D03*
X-567904Y276873D02*
D03*
Y267273D02*
D03*
X-469256Y411800D02*
D03*
Y402200D02*
D03*
X-648320Y103200D02*
D03*
X-440256Y411800D02*
D03*
Y402200D02*
D03*
X-596904Y276873D02*
D03*
Y267273D02*
D03*
X-451033Y201568D02*
D03*
Y211168D02*
D03*
X-543787Y318268D02*
D03*
Y327868D02*
D03*
X-582718Y73948D02*
D03*
Y64348D02*
D03*
X-459256Y411800D02*
D03*
Y402200D02*
D03*
X-504320Y255200D02*
D03*
Y264800D02*
D03*
X-477320D02*
D03*
Y255200D02*
D03*
X-666320Y103200D02*
D03*
Y112800D02*
D03*
X-576904Y276873D02*
D03*
Y267273D02*
D03*
X-553721Y318268D02*
D03*
Y327868D02*
D03*
X-495320Y264800D02*
D03*
Y255200D02*
D03*
X-606904Y276873D02*
D03*
Y267273D02*
D03*
X-693320Y103200D02*
D03*
X-702320D02*
D03*
X-675320D02*
D03*
X-684320D02*
D03*
X-675320Y112800D02*
D03*
X-684320D02*
D03*
X-693320D02*
D03*
X-702320D02*
D03*
X-639320D02*
D03*
X-648320D02*
D03*
X-511000Y322200D02*
D03*
Y331800D02*
D03*
X-490256Y402200D02*
D03*
Y411800D02*
D03*
X-480256Y402200D02*
D03*
Y411800D02*
D03*
X-717978Y113472D02*
D03*
Y123072D02*
D03*
X-384198Y351283D02*
D03*
Y341683D02*
D03*
X-469000Y319200D02*
D03*
Y328800D02*
D03*
X-175000Y206200D02*
D03*
Y215800D02*
D03*
X-814256Y263800D02*
D03*
Y254200D02*
D03*
X-804000D02*
D03*
Y263800D02*
D03*
X-951000Y455200D02*
D03*
Y464800D02*
D03*
D17*
X-788529Y195233D02*
D03*
Y180732D02*
D03*
X-777537Y319210D02*
D03*
Y304710D02*
D03*
X-625845Y92074D02*
D03*
Y106574D02*
D03*
X-605940Y35368D02*
D03*
Y49868D02*
D03*
X-473701Y117188D02*
D03*
Y131688D02*
D03*
X-589733Y35368D02*
D03*
Y49868D02*
D03*
X-802256Y121250D02*
D03*
Y106750D02*
D03*
X-576154Y234840D02*
D03*
Y249340D02*
D03*
X-178346Y171978D02*
D03*
Y157478D02*
D03*
X-167099Y149308D02*
D03*
X-167070Y108442D02*
D03*
X-167099Y134808D02*
D03*
X-167070Y122942D02*
D03*
X-16256Y343750D02*
D03*
Y358250D02*
D03*
D18*
X-809000Y10850D02*
D03*
Y27150D02*
D03*
X-776651Y124241D02*
D03*
Y107941D02*
D03*
X-309611Y158288D02*
D03*
Y141988D02*
D03*
D19*
X-779694Y229404D02*
D03*
X-770193Y210404D02*
D03*
X-789193D02*
D03*
D20*
X-458250Y378000D02*
D03*
X-443750D02*
D03*
X-500250Y308000D02*
D03*
X-485750D02*
D03*
X-499070Y280000D02*
D03*
X-513570D02*
D03*
X-888250Y410000D02*
D03*
X-873750D02*
D03*
X-41006Y275000D02*
D03*
X-55506D02*
D03*
D21*
X-735032Y321246D02*
D03*
Y302246D02*
D03*
X-758032D02*
D03*
Y311746D02*
D03*
Y321246D02*
D03*
D22*
X-735006Y346000D02*
D03*
X-743506D02*
D03*
X-451517Y313204D02*
D03*
X-443017D02*
D03*
X-292570Y130000D02*
D03*
X-284070D02*
D03*
X-719570Y217000D02*
D03*
X-711070D02*
D03*
X-292570Y122000D02*
D03*
X-284070D02*
D03*
X-719455Y227685D02*
D03*
X-710955D02*
D03*
X-369142Y328316D02*
D03*
X-377642D02*
D03*
X-732070Y249000D02*
D03*
X-740570D02*
D03*
X-860250Y446000D02*
D03*
X-851750D02*
D03*
X-938250D02*
D03*
X-929750D02*
D03*
X-281423Y147674D02*
D03*
X-272923D02*
D03*
D23*
X-502000Y365000D02*
D03*
X-478000D02*
D03*
X-33256Y357000D02*
D03*
X-57256D02*
D03*
D24*
X-499500Y342500D02*
D03*
X-480500D02*
D03*
Y319500D02*
D03*
X-490000D02*
D03*
X-499500D02*
D03*
X-54756Y305500D02*
D03*
X-45256D02*
D03*
X-35756D02*
D03*
Y328500D02*
D03*
X-54756D02*
D03*
D25*
X-596831Y103933D02*
D03*
D26*
X-611331Y96433D02*
D03*
Y101433D02*
D03*
Y106433D02*
D03*
Y111433D02*
D03*
X-582331D02*
D03*
Y106433D02*
D03*
Y101433D02*
D03*
Y96433D02*
D03*
D27*
X-739820Y140000D02*
D03*
X-720820Y146500D02*
D03*
Y133500D02*
D03*
X-146500Y210000D02*
D03*
X-165500Y203500D02*
D03*
Y216500D02*
D03*
D28*
X-407586Y315333D02*
D03*
X-417186D02*
D03*
X-250011Y102130D02*
D03*
X-259611D02*
D03*
X-470648Y191092D02*
D03*
X-461048D02*
D03*
X-466519Y219798D02*
D03*
X-476119D02*
D03*
X-466520Y228000D02*
D03*
X-476120D02*
D03*
X-567120Y220000D02*
D03*
X-557520D02*
D03*
X-634704Y289073D02*
D03*
X-625104D02*
D03*
X-642704Y335412D02*
D03*
X-633104D02*
D03*
X-35959Y381759D02*
D03*
X-26359D02*
D03*
X-476266Y211321D02*
D03*
X-466666D02*
D03*
X-35959Y408759D02*
D03*
X-26359D02*
D03*
X-642704Y343625D02*
D03*
X-633104D02*
D03*
X-439994Y229832D02*
D03*
X-449594D02*
D03*
X-259408Y111738D02*
D03*
X-249808D02*
D03*
X-642704Y318985D02*
D03*
X-633104D02*
D03*
X-35959Y399759D02*
D03*
X-26359D02*
D03*
X-35959Y390759D02*
D03*
X-26359D02*
D03*
X-275489Y74100D02*
D03*
X-285089D02*
D03*
X-466388Y238103D02*
D03*
X-475988D02*
D03*
X-557520Y229000D02*
D03*
X-567120D02*
D03*
X-642704Y327198D02*
D03*
X-633104D02*
D03*
X-592131Y86749D02*
D03*
X-582531D02*
D03*
X-601813Y86749D02*
D03*
X-611413D02*
D03*
X-275502Y82477D02*
D03*
X-285102D02*
D03*
X-10956Y319000D02*
D03*
X-20556D02*
D03*
X-26359Y434494D02*
D03*
X-35959D02*
D03*
X-26359Y423281D02*
D03*
X-35959D02*
D03*
X-442648Y321707D02*
D03*
X-452248D02*
D03*
X-395803Y351708D02*
D03*
X-405404D02*
D03*
X-20556Y309243D02*
D03*
X-10956D02*
D03*
X-766105Y246215D02*
D03*
X-775705D02*
D03*
X-775561Y257373D02*
D03*
X-765961D02*
D03*
X-941300Y464000D02*
D03*
X-931700D02*
D03*
X-860300Y454000D02*
D03*
X-850700D02*
D03*
X-860300Y438000D02*
D03*
X-850700D02*
D03*
X-938800D02*
D03*
X-929200D02*
D03*
X-931700Y456000D02*
D03*
X-941300D02*
D03*
D29*
X-611320Y159500D02*
D03*
X-611320Y186500D02*
D03*
D30*
X-732770Y115000D02*
D03*
X-753870D02*
D03*
X-391337Y328305D02*
D03*
X-412437D02*
D03*
D31*
X-740326Y260409D02*
D03*
X-753326D02*
D03*
Y282409D02*
D03*
X-746826D02*
D03*
X-740326D02*
D03*
X-462203Y111627D02*
D03*
X-455703D02*
D03*
X-449203D02*
D03*
Y133627D02*
D03*
X-462203D02*
D03*
X-245007Y167947D02*
D03*
X-251507D02*
D03*
X-258008D02*
D03*
Y145947D02*
D03*
X-245007D02*
D03*
D32*
X-527241Y69310D02*
D03*
Y38310D02*
D03*
D33*
X-554741Y115110D02*
D03*
X-539741D02*
D03*
X-534741D02*
D03*
X-529741D02*
D03*
X-524741D02*
D03*
X-519741D02*
D03*
X-514741D02*
D03*
X-509741D02*
D03*
X-504741D02*
D03*
X-499741D02*
D03*
X-544741D02*
D03*
X-549741D02*
D03*
D34*
X-519320Y218000D02*
D03*
D35*
X-497320Y226000D02*
D03*
Y210000D02*
D03*
X-541320Y226000D02*
D03*
Y210000D02*
D03*
D36*
X-497320Y222000D02*
D03*
Y218000D02*
D03*
Y214000D02*
D03*
X-541320Y218000D02*
D03*
Y222000D02*
D03*
Y214000D02*
D03*
D37*
X-501320Y205750D02*
D03*
Y230300D02*
D03*
X-537320D02*
D03*
Y205750D02*
D03*
D38*
X-505320Y206000D02*
D03*
X-509320D02*
D03*
X-513320D02*
D03*
X-529320Y230000D02*
D03*
X-517320D02*
D03*
X-513320D02*
D03*
X-509320D02*
D03*
X-505320D02*
D03*
X-533320D02*
D03*
X-521320D02*
D03*
X-525320D02*
D03*
X-517320Y206000D02*
D03*
X-521320D02*
D03*
X-525320D02*
D03*
X-529320D02*
D03*
X-533320D02*
D03*
D39*
X-309320Y109450D02*
D03*
Y130550D02*
D03*
X-134000Y188450D02*
D03*
Y209550D02*
D03*
D40*
X-685320Y136750D02*
D03*
X-670320D02*
D03*
X-655320D02*
D03*
X-692820Y155250D02*
D03*
X-677820D02*
D03*
X-662820D02*
D03*
X-647820D02*
D03*
X-361320Y174250D02*
D03*
X-376320D02*
D03*
X-391320D02*
D03*
X-353820Y155750D02*
D03*
X-368820D02*
D03*
X-383820D02*
D03*
X-398820D02*
D03*
X-393820D02*
D03*
X-403820D02*
D03*
X-363820D02*
D03*
X-373820D02*
D03*
X-348820D02*
D03*
X-358820D02*
D03*
X-378820D02*
D03*
X-388820D02*
D03*
X-672820Y155250D02*
D03*
X-682820D02*
D03*
X-687820D02*
D03*
X-697820D02*
D03*
X-657820D02*
D03*
X-667820D02*
D03*
X-642820D02*
D03*
X-652820D02*
D03*
D41*
X-457188Y253376D02*
D03*
X-439688D02*
D03*
D42*
X-642240Y76760D02*
D03*
X-654240D02*
D03*
X-666240D02*
D03*
X-678240D02*
D03*
X-690240D02*
D03*
X-694240D02*
D03*
X-698240D02*
D03*
X-702240D02*
D03*
X-706240D02*
D03*
X-710240D02*
D03*
X-714240D02*
D03*
X-682240D02*
D03*
X-686240D02*
D03*
X-658240D02*
D03*
X-662240D02*
D03*
X-646240D02*
D03*
X-650240D02*
D03*
X-670240D02*
D03*
X-674240D02*
D03*
D43*
X-554320Y136150D02*
D03*
Y143850D02*
D03*
X-499320D02*
D03*
Y136150D02*
D03*
D44*
X-549320D02*
D03*
X-544320D02*
D03*
X-509320D02*
D03*
X-504320D02*
D03*
X-489320Y143850D02*
D03*
X-494320D02*
D03*
X-559320D02*
D03*
X-564320D02*
D03*
X-544320D02*
D03*
X-549320D02*
D03*
X-504320D02*
D03*
X-509320D02*
D03*
X-559320Y136150D02*
D03*
X-564320D02*
D03*
X-489320D02*
D03*
X-494320D02*
D03*
D45*
X-744506Y404000D02*
D03*
X-772006D02*
D03*
X-821006D02*
D03*
X-793506D02*
D03*
X-865250Y519667D02*
D03*
X-892750D02*
D03*
X-865250Y496333D02*
D03*
X-892750D02*
D03*
X-865250Y473000D02*
D03*
X-892750D02*
D03*
D46*
X-611600Y137993D02*
D03*
X-627900D02*
D03*
X-755470Y98000D02*
D03*
X-739170D02*
D03*
D47*
X-593904Y312073D02*
D03*
D48*
X-606404Y293073D02*
D03*
X-601404D02*
D03*
X-596404D02*
D03*
X-591404D02*
D03*
X-586404D02*
D03*
X-581404D02*
D03*
X-581404Y331073D02*
D03*
X-586404D02*
D03*
X-591404D02*
D03*
X-596404D02*
D03*
X-601404D02*
D03*
X-606404D02*
D03*
D49*
X-574904Y299573D02*
D03*
Y304573D02*
D03*
Y309573D02*
D03*
Y314573D02*
D03*
Y319573D02*
D03*
Y324573D02*
D03*
X-612904D02*
D03*
Y319573D02*
D03*
Y314573D02*
D03*
Y309573D02*
D03*
Y304573D02*
D03*
Y299573D02*
D03*
D50*
X-601221Y232663D02*
D03*
X-610721D02*
D03*
X-620221D02*
D03*
X-601221Y210663D02*
D03*
X-610721D02*
D03*
X-620221D02*
D03*
D51*
X-458968Y91595D02*
D03*
Y98595D02*
D03*
X-467468Y95095D02*
D03*
D52*
X-775000Y359000D02*
D03*
D53*
X-807000Y359000D02*
D03*
D54*
X-446405Y346831D02*
D03*
D55*
X-443905Y331831D02*
D03*
X-448905D02*
D03*
Y361831D02*
D03*
X-443905D02*
D03*
D56*
X-458905Y336831D02*
D03*
Y341831D02*
D03*
Y346831D02*
D03*
Y351831D02*
D03*
Y356831D02*
D03*
X-433905D02*
D03*
Y351831D02*
D03*
Y346831D02*
D03*
Y341831D02*
D03*
Y336831D02*
D03*
D57*
X-39597Y181672D02*
D03*
Y157172D02*
D03*
Y247321D02*
D03*
Y222821D02*
D03*
D58*
Y169422D02*
D03*
Y235071D02*
D03*
D59*
X-17097Y187922D02*
D03*
Y150922D02*
D03*
Y253571D02*
D03*
Y216571D02*
D03*
D60*
X-205611Y118964D02*
D03*
D61*
X-230361Y101464D02*
D03*
Y106464D02*
D03*
Y111464D02*
D03*
Y116464D02*
D03*
Y121464D02*
D03*
Y126464D02*
D03*
Y131464D02*
D03*
Y136464D02*
D03*
X-180861D02*
D03*
Y121464D02*
D03*
Y116464D02*
D03*
Y111464D02*
D03*
Y106464D02*
D03*
Y101464D02*
D03*
Y131464D02*
D03*
Y126464D02*
D03*
D62*
X-223111Y143714D02*
D03*
X-218111D02*
D03*
X-213111D02*
D03*
X-208111D02*
D03*
X-203111D02*
D03*
X-198111D02*
D03*
X-193111D02*
D03*
X-188111D02*
D03*
Y94214D02*
D03*
X-193111D02*
D03*
X-198111D02*
D03*
X-203111D02*
D03*
X-208111D02*
D03*
X-213111D02*
D03*
X-218111D02*
D03*
X-223111D02*
D03*
D63*
X-224482Y167952D02*
D03*
X-204162Y167952D02*
D03*
D64*
X-368468Y386841D02*
D03*
X-355468D02*
D03*
Y367841D02*
D03*
X-361968D02*
D03*
X-368468D02*
D03*
X-389256Y368134D02*
D03*
X-402256D02*
D03*
Y387134D02*
D03*
X-395756D02*
D03*
X-389256D02*
D03*
D65*
X-318756Y11500D02*
D03*
X-305756D02*
D03*
X-312256Y30500D02*
D03*
X-271256Y194500D02*
D03*
X-277756Y213500D02*
D03*
X-264756D02*
D03*
D66*
X-967602Y471624D02*
D03*
X-986398D02*
D03*
D67*
X-977000Y432000D02*
D03*
D68*
X-924000Y271250D02*
D03*
Y288750D02*
D03*
X-964000Y271250D02*
D03*
Y288750D02*
D03*
X-944000Y271250D02*
D03*
Y288750D02*
D03*
D69*
X-913000Y438000D02*
D03*
Y430000D02*
D03*
Y422000D02*
D03*
Y446000D02*
D03*
Y454000D02*
D03*
X-873000D02*
D03*
Y446000D02*
D03*
Y422000D02*
D03*
Y430000D02*
D03*
Y438000D02*
D03*
D70*
X-893000D02*
D03*
D71*
X-294070Y440000D02*
D03*
X-289070D02*
D03*
X-279070D02*
D03*
X-274070D02*
D03*
X-264070D02*
D03*
X-259070D02*
D03*
X-249070D02*
D03*
X-244070D02*
D03*
X-234070D02*
D03*
X-229070D02*
D03*
X-189070D02*
D03*
X-184070D02*
D03*
X-204070D02*
D03*
X-199070D02*
D03*
X-219070D02*
D03*
X-214070D02*
D03*
X-174070D02*
D03*
X-169070D02*
D03*
X-144070D02*
D03*
X-139070D02*
D03*
X-186570Y522000D02*
D03*
X-181570D02*
D03*
X-201570D02*
D03*
X-196570D02*
D03*
X-216570D02*
D03*
X-211570D02*
D03*
X-614070Y440000D02*
D03*
X-609070D02*
D03*
X-569070D02*
D03*
X-564070D02*
D03*
X-406570Y522000D02*
D03*
X-401570D02*
D03*
X-171570D02*
D03*
X-166570D02*
D03*
X-556570D02*
D03*
X-551570D02*
D03*
X-291570D02*
D03*
X-286570D02*
D03*
X-231570D02*
D03*
X-226570D02*
D03*
X-796570D02*
D03*
X-799070Y440000D02*
D03*
X-791570Y522000D02*
D03*
X-794070Y440000D02*
D03*
X-786570Y522000D02*
D03*
X-789070Y440000D02*
D03*
X-781570Y522000D02*
D03*
X-784070Y440000D02*
D03*
X-776570Y522000D02*
D03*
X-779070Y440000D02*
D03*
X-771570Y522000D02*
D03*
X-774070Y440000D02*
D03*
X-766570Y522000D02*
D03*
X-769070Y440000D02*
D03*
X-761570Y522000D02*
D03*
X-764070Y440000D02*
D03*
X-756570Y522000D02*
D03*
X-759070Y440000D02*
D03*
X-751570Y522000D02*
D03*
X-754070Y440000D02*
D03*
X-746570Y522000D02*
D03*
X-749070Y440000D02*
D03*
X-741570Y522000D02*
D03*
X-744070Y440000D02*
D03*
X-736570Y522000D02*
D03*
X-739070Y440000D02*
D03*
X-731570Y522000D02*
D03*
X-734070Y440000D02*
D03*
X-726570Y522000D02*
D03*
X-729070Y440000D02*
D03*
X-721570Y522000D02*
D03*
X-724070Y440000D02*
D03*
X-716570Y522000D02*
D03*
X-719070Y440000D02*
D03*
X-711570Y522000D02*
D03*
X-714070Y440000D02*
D03*
X-706570Y522000D02*
D03*
X-709070Y440000D02*
D03*
X-701570Y522000D02*
D03*
X-704070Y440000D02*
D03*
X-696570Y522000D02*
D03*
X-699070Y440000D02*
D03*
X-691570Y522000D02*
D03*
X-694070Y440000D02*
D03*
X-686570Y522000D02*
D03*
X-689070Y440000D02*
D03*
X-681570Y522000D02*
D03*
X-684070Y440000D02*
D03*
X-676570Y522000D02*
D03*
X-679070Y440000D02*
D03*
X-671570Y522000D02*
D03*
X-674070Y440000D02*
D03*
X-666570Y522000D02*
D03*
X-669070Y440000D02*
D03*
X-661570Y522000D02*
D03*
X-664070Y440000D02*
D03*
X-656570Y522000D02*
D03*
X-659070Y440000D02*
D03*
X-651570Y522000D02*
D03*
X-654070Y440000D02*
D03*
X-646570Y522000D02*
D03*
X-649070Y440000D02*
D03*
X-641570Y522000D02*
D03*
X-644070Y440000D02*
D03*
X-636570Y522000D02*
D03*
X-639070Y440000D02*
D03*
X-631570Y522000D02*
D03*
X-634070Y440000D02*
D03*
X-626570Y522000D02*
D03*
X-629070Y440000D02*
D03*
X-621570Y522000D02*
D03*
X-624070Y440000D02*
D03*
X-616570Y522000D02*
D03*
X-619070Y440000D02*
D03*
X-611570Y522000D02*
D03*
X-606570D02*
D03*
X-601570D02*
D03*
X-604070Y440000D02*
D03*
X-596570Y522000D02*
D03*
X-599070Y440000D02*
D03*
X-591570Y522000D02*
D03*
X-594070Y440000D02*
D03*
X-586570Y522000D02*
D03*
X-589070Y440000D02*
D03*
X-581570Y522000D02*
D03*
X-584070Y440000D02*
D03*
X-576570Y522000D02*
D03*
X-579070Y440000D02*
D03*
X-541570Y522000D02*
D03*
X-546570D02*
D03*
X-561570D02*
D03*
X-566570D02*
D03*
X-571570D02*
D03*
X-511570D02*
D03*
X-516570D02*
D03*
X-521570D02*
D03*
X-526570D02*
D03*
X-531570D02*
D03*
X-536570D02*
D03*
X-544070Y440000D02*
D03*
X-549070D02*
D03*
X-554070D02*
D03*
X-559070D02*
D03*
X-574070D02*
D03*
X-514070D02*
D03*
X-519070D02*
D03*
X-524070D02*
D03*
X-529070D02*
D03*
X-534070D02*
D03*
X-539070D02*
D03*
X-224070D02*
D03*
X-209070D02*
D03*
X-254070D02*
D03*
X-239070D02*
D03*
X-221570Y522000D02*
D03*
X-206570D02*
D03*
X-261570D02*
D03*
X-256570D02*
D03*
X-251570D02*
D03*
X-246570D02*
D03*
X-241570D02*
D03*
X-236570D02*
D03*
X-269070Y440000D02*
D03*
X-266570Y522000D02*
D03*
X-271570D02*
D03*
X-276570D02*
D03*
X-284070Y440000D02*
D03*
X-281570Y522000D02*
D03*
X-299070Y440000D02*
D03*
X-296570Y522000D02*
D03*
X-304070Y440000D02*
D03*
X-301570Y522000D02*
D03*
X-309070Y440000D02*
D03*
X-306570Y522000D02*
D03*
X-314070Y440000D02*
D03*
X-311570Y522000D02*
D03*
X-319070Y440000D02*
D03*
X-316570Y522000D02*
D03*
X-324070Y440000D02*
D03*
X-321570Y522000D02*
D03*
X-329070Y440000D02*
D03*
X-326570Y522000D02*
D03*
X-334070Y440000D02*
D03*
X-331570Y522000D02*
D03*
X-339070Y440000D02*
D03*
X-336570Y522000D02*
D03*
X-344070Y440000D02*
D03*
X-341570Y522000D02*
D03*
X-349070Y440000D02*
D03*
X-346570Y522000D02*
D03*
X-354070Y440000D02*
D03*
X-351570Y522000D02*
D03*
X-359070Y440000D02*
D03*
X-356570Y522000D02*
D03*
X-364070Y440000D02*
D03*
X-361570Y522000D02*
D03*
X-369070Y440000D02*
D03*
X-366570Y522000D02*
D03*
X-374070Y440000D02*
D03*
X-371570Y522000D02*
D03*
X-379070Y440000D02*
D03*
X-376570Y522000D02*
D03*
X-384070Y440000D02*
D03*
X-381570Y522000D02*
D03*
X-389070Y440000D02*
D03*
X-386570Y522000D02*
D03*
X-394070Y440000D02*
D03*
X-391570Y522000D02*
D03*
X-399070Y440000D02*
D03*
X-396570Y522000D02*
D03*
X-404070Y440000D02*
D03*
X-409070D02*
D03*
X-414070D02*
D03*
X-411570Y522000D02*
D03*
X-419070Y440000D02*
D03*
X-416570Y522000D02*
D03*
X-424070Y440000D02*
D03*
X-421570Y522000D02*
D03*
X-429070Y440000D02*
D03*
X-426570Y522000D02*
D03*
X-434070Y440000D02*
D03*
X-431570Y522000D02*
D03*
X-439070Y440000D02*
D03*
X-436570Y522000D02*
D03*
X-444070Y440000D02*
D03*
X-441570Y522000D02*
D03*
X-449070Y440000D02*
D03*
X-446570Y522000D02*
D03*
X-454070Y440000D02*
D03*
X-451570Y522000D02*
D03*
X-459070Y440000D02*
D03*
X-456570Y522000D02*
D03*
X-464070Y440000D02*
D03*
X-461570Y522000D02*
D03*
X-469070Y440000D02*
D03*
X-466570Y522000D02*
D03*
X-474070Y440000D02*
D03*
X-471570Y522000D02*
D03*
X-479070Y440000D02*
D03*
X-476570Y522000D02*
D03*
X-484070Y440000D02*
D03*
X-481570Y522000D02*
D03*
X-489070Y440000D02*
D03*
X-486570Y522000D02*
D03*
X-191570D02*
D03*
X-156570D02*
D03*
X-161570D02*
D03*
X-176570D02*
D03*
X-194070Y440000D02*
D03*
X-159070D02*
D03*
X-164070D02*
D03*
X-179070D02*
D03*
X-154070D02*
D03*
X-149070D02*
D03*
X-134070D02*
D03*
X-151570Y522000D02*
D03*
X-146570D02*
D03*
X-141570D02*
D03*
X-136570D02*
D03*
X-131570D02*
D03*
D72*
X-87570Y361000D02*
D03*
X-842570Y401000D02*
D03*
D73*
X-943000Y394000D02*
D03*
Y312000D02*
D03*
D74*
X-877000Y311000D02*
D03*
D75*
X-877000Y343000D02*
D03*
D76*
X-209856Y49030D02*
D03*
X-263196D02*
D03*
D77*
X-206156Y26030D02*
D03*
X-264356D02*
D03*
D78*
X-226881D02*
D03*
X-243631D02*
D03*
D79*
X-313870Y225159D02*
X-312281Y223569D01*
Y221324D02*
Y223569D01*
X-313896Y225159D02*
X-313870D01*
X-315146Y218459D02*
X-312281Y221324D01*
X-315146Y214613D02*
Y218459D01*
X-369070Y429758D02*
X-368205Y428893D01*
Y422615D02*
Y428893D01*
X-369070Y429758D02*
Y440000D01*
X-369820Y421000D02*
X-368205Y422615D01*
X-307421Y225159D02*
X-307396D01*
X-309011Y223569D02*
X-307421Y225159D01*
X-309011Y221324D02*
X-306146Y218459D01*
Y214613D02*
Y218459D01*
X-309011Y221324D02*
Y223569D01*
X-364070Y429758D02*
Y440000D01*
X-364935Y422615D02*
X-363320Y421000D01*
X-364935Y422615D02*
Y428893D01*
X-364070Y429758D01*
X-459000Y303000D02*
X-445000Y289000D01*
X-459000Y303000D02*
Y318000D01*
X-455293Y321707D01*
X-452248D01*
X-276570Y511758D02*
X-275705Y510893D01*
X-276570Y511758D02*
Y522000D01*
X-275705Y504615D02*
Y510893D01*
X-277320Y503000D02*
X-275705Y504615D01*
X-637320Y187250D02*
Y191059D01*
X-640850Y195385D02*
X-639235Y197000D01*
X-640850Y194589D02*
X-637320Y191059D01*
X-640850Y194589D02*
Y195385D01*
X-271570Y511758D02*
Y522000D01*
X-272435Y510893D02*
X-271570Y511758D01*
X-272435Y504615D02*
Y510893D01*
Y504615D02*
X-270820Y503000D01*
X-644120Y193830D02*
Y195385D01*
X-646892Y191059D02*
X-644120Y193830D01*
X-645735Y197000D02*
X-644120Y195385D01*
X-646892Y187250D02*
Y191059D01*
X-664878Y197000D02*
X-663263Y195385D01*
Y193830D02*
Y195385D01*
X-666034Y191059D02*
X-663263Y193830D01*
X-666034Y187250D02*
Y191059D01*
X-261570Y511758D02*
X-260705Y510893D01*
Y504615D02*
Y510893D01*
X-261570Y511758D02*
Y522000D01*
X-262320Y503000D02*
X-260705Y504615D01*
X-656463Y187250D02*
Y191059D01*
X-659993Y194589D02*
Y195385D01*
X-658378Y197000D01*
X-659993Y194589D02*
X-656463Y191059D01*
X-256570Y511758D02*
Y522000D01*
X-257435Y510893D02*
X-256570Y511758D01*
X-257435Y504615D02*
Y510893D01*
Y504615D02*
X-255820Y503000D01*
X-703164Y197000D02*
X-701549Y195385D01*
Y193830D02*
Y195385D01*
X-704320Y187250D02*
Y191059D01*
X-701549Y193830D01*
X-245705Y504615D02*
Y510893D01*
X-246570Y511758D02*
X-245705Y510893D01*
X-246570Y511758D02*
Y522000D01*
X-247320Y503000D02*
X-245705Y504615D01*
X-698279Y195385D02*
X-696664Y197000D01*
X-698279Y194589D02*
X-694749Y191059D01*
X-698279Y194589D02*
Y195385D01*
X-694749Y187250D02*
Y191059D01*
X-241570Y511758D02*
Y522000D01*
X-242435Y510893D02*
X-241570Y511758D01*
X-242435Y504615D02*
X-240820Y503000D01*
X-242435Y504615D02*
Y510893D01*
X-797570Y528000D02*
X-791570Y522000D01*
X-805000Y528000D02*
X-797570D01*
X-611570Y486430D02*
Y522000D01*
X-616000Y482000D02*
X-611570Y486430D01*
X-393000Y377000D02*
X-366000D01*
X-361000Y382000D01*
Y406820D01*
X-355820Y412000D01*
X-355468Y405532D02*
X-352000Y409000D01*
X-355468Y386841D02*
Y405532D01*
X-352000Y409000D02*
Y419000D01*
X-355820Y412000D02*
Y421897D01*
X-351378Y418378D02*
X-351070D01*
X-352000Y419000D02*
X-351378Y418378D01*
X-355820Y421897D02*
X-354070Y423647D01*
Y440000D01*
X-603000Y403000D02*
X-602000Y402000D01*
X-712000Y403000D02*
X-603000D01*
X-712000Y427000D02*
X-688638D01*
X-684070Y431568D01*
Y440000D01*
X-739070Y428814D02*
X-725256Y415000D01*
X-739070Y428814D02*
Y440000D01*
X-725256Y415000D02*
X-600013D01*
X-715000Y420000D02*
X-506000D01*
X-717000Y422000D02*
X-715000Y420000D01*
X-506000D02*
X-501000Y425000D01*
X-175000Y215800D02*
Y338000D01*
X-195000Y358000D02*
X-175000Y338000D01*
X-307000Y358000D02*
X-195000D01*
X-325000Y376000D02*
X-307000Y358000D01*
X-352000Y376000D02*
X-325000D01*
X-355468Y379468D02*
X-352000Y376000D01*
X-355468Y379468D02*
Y386841D01*
X-419250Y381750D02*
X-409288D01*
X-427000Y374000D02*
X-419250Y381750D01*
X-409288D02*
X-407922Y380384D01*
X-399324D01*
X-395756Y383952D01*
X-411006Y376750D02*
X-400006D01*
X-411256Y377000D02*
X-411006Y376750D01*
X-395756Y383952D02*
Y387134D01*
X-400006Y376750D02*
X-396256Y373000D01*
X-512056Y390000D02*
X-490256Y411800D01*
X-517000Y318000D02*
X-511000Y312000D01*
X-517000Y318000D02*
Y369000D01*
X-532000Y384000D02*
X-517000Y369000D01*
X-569013Y384000D02*
X-532000D01*
X-600013Y415000D02*
X-569013Y384000D01*
X-561000Y390000D02*
X-512056D01*
X-731570Y506570D02*
X-730000Y505000D01*
X-731570Y506570D02*
Y522000D01*
X-741570Y508570D02*
X-738000Y505000D01*
X-741570Y508570D02*
Y522000D01*
X-740326Y239006D02*
Y260409D01*
X-746354D02*
X-740326D01*
X-746676Y260731D02*
X-746354Y260409D01*
X-513000Y389056D02*
X-512056Y390000D01*
X-563000Y392000D02*
X-561000Y390000D01*
X-62506Y434494D02*
X-35959D01*
X-86000Y411000D02*
X-62506Y434494D01*
X-466655Y347528D02*
Y350772D01*
X-465400Y352028D01*
X-513000Y379000D02*
Y389056D01*
X-478000Y247000D02*
X-475988Y244988D01*
X-779998Y269998D02*
Y270000D01*
Y269998D02*
X-779000Y269000D01*
X-651570Y500570D02*
X-647000Y496000D01*
X-651570Y500570D02*
Y522000D01*
X-696000Y538000D02*
X-691570Y533570D01*
Y522000D02*
Y533570D01*
X-285000Y214000D02*
X-284500Y213500D01*
X-277756D01*
X-39597Y151000D02*
Y157172D01*
X-635320Y273052D02*
X-619063Y256795D01*
X-579103D01*
X-780320Y280200D02*
X-779000Y278880D01*
Y269000D02*
Y278880D01*
X-726320Y240000D02*
Y245000D01*
X-363820Y147155D02*
Y155750D01*
X-364007Y146968D02*
X-363820Y147155D01*
X-364007Y144022D02*
Y146968D01*
X-366633Y141396D02*
X-364007Y144022D01*
X-359257Y144900D02*
Y145001D01*
Y144900D02*
X-359053Y144695D01*
X-743320Y232000D02*
X-734320D01*
X-751320Y240000D02*
X-743320Y232000D01*
X-11256Y298000D02*
X-10956Y298300D01*
Y309243D01*
X-361968Y352723D02*
Y366341D01*
X-373009Y341683D02*
X-361968Y352723D01*
X-384198Y341683D02*
X-373009D01*
X-381539Y351283D02*
X-380256Y350000D01*
X-384198Y351283D02*
X-381539D01*
X-619256Y426000D02*
X-619070Y426186D01*
Y440000D01*
X-634256Y426000D02*
X-634070Y426186D01*
Y440000D01*
X-770479Y220611D02*
X-770193Y220325D01*
Y210404D02*
Y220325D01*
X-700641Y207000D02*
X-687027D01*
X-702256Y205385D02*
X-700641Y207000D01*
X-743506Y352750D02*
X-743256Y353000D01*
X-743506Y346000D02*
Y352750D01*
X-673556Y493000D02*
X-661256D01*
X-681570Y501014D02*
X-673556Y493000D01*
X-681570Y501014D02*
Y522000D01*
X-676256Y486000D02*
X-661256D01*
X-686570Y496314D02*
X-676256Y486000D01*
X-686570Y496314D02*
Y522000D01*
X-790506Y106750D02*
X-790256Y107000D01*
X-802256Y106750D02*
X-790506D01*
X-477320Y271000D02*
X-477320Y271000D01*
X-396256Y363283D02*
Y373000D01*
Y363283D02*
X-384256Y351283D01*
X-384198D01*
X-275489Y67233D02*
X-275256Y67000D01*
X-275489Y67233D02*
Y74100D01*
X-267779Y82477D02*
X-267256Y83000D01*
X-275502Y82477D02*
X-267779D01*
X-201256Y81000D02*
X-200256D01*
X-208111Y87855D02*
X-201256Y81000D01*
X-405404Y351708D02*
X-405256Y351855D01*
Y357000D01*
X-402256Y360000D01*
Y368134D01*
X-35756Y305500D02*
X-24299D01*
X-20556Y309243D01*
X-308256Y22000D02*
X-298256D01*
X-318756Y11500D02*
X-308256Y22000D01*
X-831456Y263800D02*
X-814256D01*
X-847566Y247690D02*
X-831456Y263800D01*
X-847566Y238600D02*
Y247690D01*
X-266256Y108774D02*
Y122000D01*
Y108774D02*
X-259611Y102130D01*
X-433905Y351831D02*
X-420704D01*
X-433905Y346831D02*
X-417274D01*
X-412398Y351708D01*
X-811256Y296000D02*
Y326000D01*
Y296000D02*
X-795456Y280200D01*
X-780320D01*
X-576904Y261318D02*
Y267273D01*
X-576906Y261316D02*
X-576904Y261318D01*
X-567904Y267273D02*
X-567889Y267258D01*
Y261524D02*
Y267258D01*
X-541320Y218000D02*
X-497320D01*
X-517320Y241420D02*
X-513693Y245047D01*
X-517320Y230000D02*
Y241420D01*
X-581320Y222000D02*
X-576154Y227166D01*
X-487236Y212029D02*
X-476974D01*
X-489264Y210000D02*
X-487236Y212029D01*
X-513320Y230000D02*
Y239478D01*
X-497320Y210000D02*
X-489264D01*
X-457294Y224026D02*
X-448346D01*
X-457814Y224546D02*
X-457294Y224026D01*
X-459110Y224546D02*
X-457814D01*
X-462564Y228000D02*
X-459110Y224546D01*
X-408955Y215124D02*
Y223354D01*
X-411320Y212759D02*
X-408955Y215124D01*
X-405685Y215124D02*
Y222000D01*
X-230705Y504615D02*
Y510893D01*
X-231570Y511758D02*
X-230705Y510893D01*
X-231570Y511758D02*
Y522000D01*
X-232320Y503000D02*
X-230705Y504615D01*
X-675606Y187250D02*
Y191759D01*
X-678757Y194910D02*
X-675606Y191759D01*
X-685672Y210270D02*
X-678757Y203354D01*
Y194910D02*
Y203354D01*
X-700641Y210270D02*
X-685672D01*
X-226570Y511758D02*
Y522000D01*
X-227435Y504615D02*
Y510893D01*
X-226570Y511758D01*
X-227435Y504615D02*
X-225820Y503000D01*
X-682027Y194910D02*
Y202000D01*
X-685177Y187250D02*
Y191759D01*
X-682027Y194910D01*
X-687027Y207000D02*
X-682027Y202000D01*
X-702256Y211885D02*
X-700641Y210270D01*
X-286570Y511758D02*
Y522000D01*
X-287435Y510893D02*
X-286570Y511758D01*
X-287435Y504615D02*
Y510893D01*
X-291570Y511758D02*
Y522000D01*
Y511758D02*
X-290705Y510893D01*
Y504615D02*
Y510893D01*
X-412256Y426000D02*
Y428000D01*
X-414070Y429814D02*
X-412256Y428000D01*
X-414070Y429814D02*
Y440000D01*
X-408256Y536000D02*
X-401256D01*
X-424256D02*
X-408256D01*
X-411570Y532686D02*
X-408256Y536000D01*
X-411570Y522000D02*
Y532686D01*
X-437256Y536000D02*
X-424256D01*
X-426570Y533686D02*
X-424256Y536000D01*
X-426570Y522000D02*
Y533686D01*
X-448256Y536000D02*
X-437256D01*
X-441570Y531686D02*
X-437256Y536000D01*
X-441570Y522000D02*
Y531686D01*
X-463256Y536000D02*
X-448256D01*
X-451570Y532686D02*
X-448256Y536000D01*
X-451570Y522000D02*
Y532686D01*
X-478256Y536000D02*
X-463256D01*
X-466570Y532686D02*
X-463256Y536000D01*
X-466570Y522000D02*
Y532686D01*
X-481570Y522000D02*
Y532686D01*
X-478256Y536000D01*
X-401256D02*
X-396570Y531314D01*
Y522000D02*
Y531314D01*
X-306570Y511758D02*
Y522000D01*
Y511758D02*
X-305705Y510893D01*
Y504615D02*
Y510893D01*
X-302435Y504615D02*
X-300820Y503000D01*
X-302435Y504615D02*
Y510893D01*
X-301570Y511758D01*
Y522000D01*
X-307320Y503000D02*
X-305705Y504615D01*
X-352070Y213309D02*
Y215783D01*
X-353320Y212059D02*
X-352070Y213309D01*
X-353320Y208250D02*
Y212059D01*
X-345570Y213309D02*
Y215783D01*
Y213309D02*
X-344320Y212059D01*
Y208250D02*
Y212059D01*
X-287435Y504615D02*
X-285820Y503000D01*
X-386685Y218000D02*
X-377847Y226838D01*
X-321794D01*
X-384320Y208250D02*
Y212759D01*
X-386685Y215124D02*
Y218000D01*
Y215124D02*
X-384320Y212759D01*
X-292320Y503000D02*
X-290705Y504615D01*
X-389955Y219354D02*
X-379202Y230108D01*
X-323148D01*
X-389955Y215124D02*
Y219354D01*
X-392320Y212759D02*
X-389955Y215124D01*
X-392320Y208250D02*
Y212759D01*
X-292141Y268000D02*
X-290526Y266385D01*
Y262730D02*
Y266385D01*
X-323148Y230108D02*
X-290526Y262730D01*
X-287256Y266385D02*
X-285641Y268000D01*
X-287256Y261376D02*
Y266385D01*
X-321794Y226838D02*
X-287256Y261376D01*
X-330086Y239454D02*
X-327802D01*
X-333901Y243270D02*
X-330086Y239454D01*
X-389039Y243270D02*
X-333901D01*
X-408955Y223354D02*
X-389039Y243270D01*
X-411320Y208250D02*
Y212759D01*
X-317435Y504615D02*
X-315820Y503000D01*
X-316570Y511758D02*
Y522000D01*
X-317435Y510893D02*
X-316570Y511758D01*
X-317435Y504615D02*
Y510893D01*
X-321570Y511758D02*
X-320705Y510893D01*
Y504615D02*
Y510893D01*
X-321570Y511758D02*
Y522000D01*
X-322320Y503000D02*
X-320705Y504615D01*
X-332398Y234858D02*
Y237142D01*
X-335256Y240000D02*
X-332398Y237142D01*
X-387685Y240000D02*
X-335256D01*
X-405685Y215124D02*
X-403320Y212759D01*
X-405685Y222000D02*
X-387685Y240000D01*
X-403320Y208250D02*
Y212759D01*
X-331570Y511758D02*
Y522000D01*
X-332435Y504615D02*
X-330820Y503000D01*
X-332435Y510893D02*
X-331570Y511758D01*
X-332435Y504615D02*
Y510893D01*
X-373320Y212059D02*
X-372070Y213309D01*
Y215783D01*
X-373320Y208250D02*
Y212059D01*
X-336570Y511758D02*
X-335705Y510893D01*
X-337320Y503000D02*
X-335705Y504615D01*
X-336570Y511758D02*
Y522000D01*
X-335705Y504615D02*
Y510893D01*
X-365570Y213309D02*
Y215783D01*
Y213309D02*
X-364320Y212059D01*
Y208250D02*
Y212059D01*
X-476320Y140000D02*
X-473701Y137381D01*
X-564179Y321859D02*
Y330141D01*
X-566070Y319967D02*
X-564179Y321859D01*
X-566070Y319654D02*
Y319967D01*
X-571151Y314573D02*
X-566070Y319654D01*
X-574904Y314573D02*
X-571151D01*
X-568320Y322314D02*
Y331000D01*
X-569320Y321314D02*
X-568320Y322314D01*
X-569320Y321000D02*
Y321314D01*
X-570747Y319573D02*
X-569320Y321000D01*
X-574320Y337000D02*
Y337000D01*
Y337000D02*
X-568320Y331000D01*
X-574904Y319573D02*
X-570747D01*
X-615320Y26000D02*
Y39000D01*
X-610070Y20750D02*
X-598922D01*
X-615320Y26000D02*
X-610070Y20750D01*
X-598922D02*
X-587290Y9118D01*
X-765320Y15000D02*
X-764320Y16000D01*
X-777335Y15000D02*
X-765320D01*
X-726320Y245000D02*
X-725320D01*
X-251947Y152447D02*
X-245173Y145674D01*
X-245064D02*
Y145891D01*
Y133515D02*
Y145674D01*
X-244173D01*
X-245173D02*
X-245064D01*
X-268149Y152447D02*
X-251947D01*
X-272923Y147674D02*
X-268149Y152447D01*
X-567320Y74000D02*
X-555320D01*
X-580069Y86749D02*
X-567320Y74000D01*
X-582531Y86749D02*
X-580069D01*
X-752320Y171000D02*
X-751320Y172000D01*
X-752320Y161000D02*
Y171000D01*
X-601221Y227901D02*
X-591320Y218000D01*
X-601221Y227901D02*
Y232663D01*
X-601320Y16000D02*
X-601260Y15940D01*
Y9118D02*
Y15940D01*
X-39597Y181672D02*
Y193421D01*
X-448346Y224026D02*
X-446320Y222000D01*
X-22213Y202000D02*
X-22176D01*
X-17097Y196921D01*
Y187922D02*
Y196921D01*
X-22213Y202000D02*
X-17097Y207116D01*
X-720820Y146500D02*
X-720567Y146753D01*
X-721320Y146000D02*
X-720820Y146500D01*
X-712411Y146753D02*
X-710918D01*
X-720567D02*
X-712411D01*
X-780320Y289000D02*
X-779636Y289684D01*
X-768171D01*
X-297608Y158288D02*
X-296320Y157000D01*
X-309611Y158288D02*
X-297608D01*
X-469861Y205750D02*
X-465680Y201568D01*
X-501320Y205750D02*
X-469861D01*
X-465680Y201568D02*
X-451033D01*
X-444488Y211168D02*
X-444320Y211000D01*
X-451033Y211168D02*
X-444488D01*
X-571981Y249340D02*
X-568320Y253000D01*
X-635320Y273052D02*
Y289000D01*
X-579103Y256795D02*
X-575308Y253000D01*
X-568320D01*
X-576154Y249340D02*
X-571981D01*
X-567320Y228000D02*
Y240505D01*
X-576154Y249340D02*
X-567320Y240505D01*
X-477320Y264800D02*
Y271000D01*
X-764320Y257000D02*
X-762320D01*
X-751320Y246000D01*
Y240000D02*
Y246000D01*
X-734320Y232000D02*
X-726320Y240000D01*
X-473701Y131688D02*
Y137381D01*
X-745499Y125821D02*
X-741320Y130000D01*
X-752321Y125821D02*
X-745499D01*
X-592160Y234840D02*
X-576154D01*
X-466520Y228000D02*
X-462564D01*
X-208111Y87855D02*
Y94214D01*
X-576154Y227166D02*
Y234840D01*
X-592320Y235000D02*
X-592160Y234840D01*
X-214173Y153674D02*
X-211173Y150674D01*
X-214173Y152674D02*
Y153674D01*
X-211173Y150674D02*
X-206173D01*
X-203111Y147612D01*
Y143714D02*
Y147612D01*
X-227173Y152674D02*
X-223111Y148612D01*
Y143714D02*
Y148612D01*
X-188173Y158674D02*
X-188111Y158612D01*
Y143714D02*
Y158612D01*
X-401311Y332187D02*
Y346200D01*
X-395803Y351708D01*
X-307765Y179000D02*
Y182729D01*
X-314212Y179000D02*
Y182974D01*
X-306146Y194638D02*
X-305851Y194344D01*
Y189485D02*
Y194344D01*
Y184644D02*
Y189485D01*
X-306146Y194638D02*
Y206113D01*
X-307765Y182729D02*
X-305851Y184644D01*
X-315146Y195079D02*
Y206113D01*
X-315881Y184644D02*
X-314212Y182974D01*
X-315881Y189485D02*
Y194344D01*
X-315146Y195079D01*
X-315881Y184644D02*
Y189485D01*
X-693320Y99259D02*
Y103200D01*
X-696185Y96394D02*
X-693320Y99259D01*
X-702320D02*
Y103200D01*
Y99259D02*
X-699455Y96394D01*
X-682240Y76760D02*
Y88000D01*
X-688245Y89380D02*
X-686240Y87376D01*
Y76760D02*
Y87376D01*
X-686890Y92650D02*
X-682240Y88000D01*
X-658240Y76760D02*
Y82859D01*
X-658605Y83224D02*
X-658240Y82859D01*
X-662240Y76760D02*
Y82859D01*
X-661875Y83224D01*
Y94814D01*
X-658605Y83224D02*
Y97974D01*
X-657320Y99259D01*
Y103200D01*
X-666320Y99259D02*
X-661875Y94814D01*
X-666320Y99259D02*
Y103200D01*
X-646240Y76760D02*
Y82859D01*
X-646605Y83224D02*
X-646240Y82859D01*
X-646605Y83224D02*
Y87511D01*
X-650240Y76760D02*
Y82859D01*
X-649875Y83224D01*
X-646605Y87511D02*
X-642125Y91990D01*
X-649875Y83224D02*
Y88865D01*
X-645395Y93345D01*
Y96334D01*
X-648320Y99259D02*
X-645395Y96334D01*
X-648320Y99259D02*
Y103200D01*
X-675320Y112800D02*
Y116659D01*
X-678185Y119524D02*
X-675320Y116659D01*
X-684320Y112800D02*
Y116659D01*
X-681455Y119524D01*
X-678185D02*
Y127373D01*
X-676185Y129373D01*
X-681455Y119524D02*
Y128727D01*
X-679455Y130727D01*
X-685177Y178750D02*
X-682820Y176393D01*
Y155250D02*
Y176393D01*
Y146959D02*
X-679455Y143594D01*
X-682820Y146959D02*
Y155250D01*
X-676185Y143594D02*
X-672820Y146959D01*
X-675606Y178750D02*
X-672820Y175964D01*
Y146959D02*
Y155250D01*
Y175964D01*
X-679455Y130727D02*
Y143594D01*
X-676185Y129373D02*
Y143594D01*
X-699455Y126738D02*
X-694455Y131738D01*
X-696185Y125384D02*
X-691185Y130384D01*
X-704320Y178750D02*
X-697820Y172250D01*
Y146959D02*
Y155250D01*
Y172250D01*
Y146959D02*
X-694455Y143594D01*
X-702320Y112800D02*
Y116659D01*
X-699455Y119524D01*
Y126738D01*
X-694749Y178750D02*
X-687820Y171821D01*
X-691185Y143594D02*
X-687820Y146959D01*
Y155250D01*
Y171821D01*
X-696185Y119524D02*
X-693320Y116659D01*
Y112800D02*
Y116659D01*
X-696185Y119524D02*
Y125384D01*
X-694455Y131738D02*
Y143594D01*
X-691185Y130384D02*
Y143594D01*
X-657820Y146959D02*
Y155250D01*
X-661185Y143594D02*
X-657820Y146959D01*
X-661185Y117875D02*
Y143594D01*
X-667820Y146959D02*
Y155250D01*
Y146959D02*
X-664455Y143594D01*
Y114665D02*
Y143594D01*
X-657820Y155250D02*
Y177393D01*
X-656463Y178750D01*
X-667820Y155250D02*
Y176964D01*
X-666034Y178750D01*
X-645455Y119524D02*
Y134108D01*
X-642185Y119524D02*
Y135463D01*
X-648320Y112800D02*
Y116659D01*
X-645455Y119524D01*
X-652820Y146959D02*
X-649455Y143594D01*
X-652820Y146959D02*
Y155250D01*
Y168627D01*
X-648218Y173229D01*
X-649455Y138108D02*
Y143594D01*
X-648218Y173229D02*
Y177423D01*
X-646892Y178750D01*
X-642185Y119524D02*
X-639320Y116659D01*
Y112800D02*
Y116659D01*
X-646185Y139463D02*
Y143594D01*
X-642820Y146959D01*
Y155250D01*
Y171941D01*
X-637320Y177441D01*
Y178750D01*
X-649455Y138108D02*
X-645455Y134108D01*
X-646185Y139463D02*
X-642185Y135463D01*
X-666320Y112800D02*
X-664455Y114665D01*
X-661185Y117875D02*
X-657320Y114010D01*
Y112800D02*
Y114010D01*
X-352846Y126172D02*
X-351346Y127672D01*
Y128907D01*
X-348076Y127672D02*
X-346576Y126172D01*
X-348076Y127672D02*
Y130262D01*
X-366633Y137796D02*
X-363030Y134193D01*
X-367544Y134082D02*
X-364385Y130923D01*
X-366633Y137796D02*
Y141396D01*
X-367544Y134082D02*
Y134082D01*
X-369903Y136442D02*
X-367544Y134082D01*
X-373820Y155750D02*
Y164759D01*
X-370455Y168124D01*
X-373320Y195759D02*
Y199750D01*
Y195759D02*
X-370455Y192894D01*
Y168124D02*
Y192894D01*
X-367185Y168124D02*
Y192894D01*
X-364320Y195759D01*
X-367185Y168124D02*
X-363820Y164759D01*
Y155750D02*
Y164759D01*
X-364320Y195759D02*
Y199750D01*
X-373820Y155750D02*
X-373592Y155521D01*
X-369903Y136442D02*
Y140250D01*
X-352007Y134193D02*
X-348076Y130262D01*
X-364385Y130923D02*
X-353362D01*
X-351346Y128907D01*
X-363030Y134193D02*
X-352007D01*
X-352185Y183103D02*
X-347185Y188103D01*
X-352185Y172183D02*
X-348069Y168067D01*
Y164132D02*
Y168067D01*
X-352185Y172183D02*
Y183103D01*
X-347185Y188103D02*
Y193094D01*
X-344320Y195959D01*
Y199750D01*
X-358820Y155750D02*
Y164818D01*
X-357570Y166068D01*
Y168469D01*
X-355455Y170584D01*
Y184555D01*
X-350455Y189555D02*
Y193094D01*
X-353320Y195959D02*
Y199750D01*
X-355455Y184555D02*
X-350455Y189555D01*
X-353320Y195959D02*
X-350455Y193094D01*
X-359053Y144695D02*
Y155517D01*
X-358820Y155750D01*
X-354619Y140261D02*
X-348820Y146060D01*
Y155750D01*
Y163381D01*
X-348069Y164132D01*
X-642125Y91990D02*
Y96454D01*
X-639320Y99259D01*
Y103200D01*
X-670240Y76760D02*
Y82859D01*
X-670605Y83224D02*
X-670240Y82859D01*
X-670605Y83224D02*
Y89268D01*
X-674240Y76760D02*
Y82859D01*
X-673875Y83224D01*
Y87913D01*
X-681034Y95073D02*
X-673875Y87913D01*
X-677764Y96427D02*
X-670605Y89268D01*
X-677764Y100756D02*
X-675320Y103200D01*
X-677764Y96427D02*
Y100756D01*
X-681034Y95073D02*
Y99914D01*
X-684320Y103200D02*
X-681034Y99914D01*
X-405685Y184921D02*
Y193594D01*
X-403320Y195959D01*
X-393820Y141404D02*
Y155750D01*
X-397185Y167424D02*
Y176422D01*
X-405685Y184921D02*
X-397185Y176422D01*
X-403320Y195959D02*
Y199750D01*
X-397185Y167424D02*
X-393820Y164059D01*
Y155750D02*
Y164059D01*
X-408955Y183567D02*
Y193594D01*
X-411320Y195959D02*
Y199750D01*
Y195959D02*
X-408955Y193594D01*
X-403820Y155750D02*
Y164059D01*
X-400455Y167424D01*
X-408955Y183567D02*
X-400455Y175067D01*
Y167424D02*
Y175067D01*
X-426429Y101734D02*
X-422070D01*
X-432446Y138193D02*
X-407328D01*
X-403820Y141701D01*
Y155750D01*
X-431358Y134656D02*
X-400568D01*
X-393820Y141404D01*
X-458817Y98444D02*
X-452293D01*
X-458968Y98595D02*
X-458817Y98444D01*
X-458968Y98595D02*
Y100773D01*
X-456300Y103441D01*
Y111030D01*
X-455703Y111627D01*
X-471762Y133627D02*
X-462203D01*
X-473701Y131688D02*
X-471762Y133627D01*
X-473701Y109562D02*
Y117188D01*
X-473899Y109365D02*
X-473701Y109562D01*
X-462203Y111627D02*
Y116454D01*
X-473701Y117188D02*
X-471796Y119093D01*
X-449820Y148922D02*
X-443039D01*
X-443009Y148892D01*
X-449820Y165234D02*
X-443142D01*
X-442876Y165500D01*
X-799294Y214549D02*
Y220491D01*
X-167070Y108442D02*
X-159120D01*
X-159034Y108529D01*
X-178346Y171978D02*
X-170801D01*
X-170756Y171933D01*
X-167099Y149308D02*
Y157258D01*
X-251507Y161063D02*
Y167947D01*
Y161063D02*
X-251483Y161039D01*
X-266300Y159439D02*
X-260532D01*
X-260406Y159313D01*
X-236737Y131464D02*
X-230361D01*
X-236962Y131240D02*
X-236737Y131464D01*
X-259034Y126713D02*
Y133515D01*
X-395803Y351708D02*
X-395756Y351755D01*
X-443905Y361831D02*
Y368398D01*
Y349331D02*
Y361831D01*
X-446405Y346831D02*
X-443905Y349331D01*
X-465203Y356831D02*
X-458905D01*
X-465400Y357028D02*
X-465203Y356831D01*
X-465400Y352028D02*
X-465203Y351831D01*
X-458905D01*
X-465203Y336831D02*
X-458905D01*
X-465400Y337028D02*
X-465203Y336831D01*
X-465400Y342028D02*
X-465203Y341831D01*
X-458905D01*
X-443905Y322965D02*
Y331831D01*
Y322965D02*
X-442648Y321707D01*
X-448905Y325049D02*
Y331831D01*
X-452248Y321707D02*
X-448905Y325049D01*
X-433905Y356831D02*
X-426043D01*
X-425970Y356904D01*
X-426481Y336831D02*
X-426356Y336706D01*
X-433905Y336831D02*
X-426481D01*
X-420704Y351831D02*
X-420695Y351823D01*
X-433862Y341788D02*
X-420502D01*
X-433905Y341831D02*
X-433862Y341788D01*
X-412398Y351708D02*
X-405404D01*
X-420502Y341788D02*
X-409079D01*
X-408938Y341647D01*
Y331804D02*
Y341647D01*
X-412437Y328305D02*
X-408938Y331804D01*
X-394968Y331937D02*
Y341647D01*
Y331937D02*
X-391337Y328305D01*
X-394968Y341647D02*
X-384233D01*
X-384198Y341683D01*
X-442648Y313573D02*
Y321707D01*
X-443017Y313204D02*
X-442648Y313573D01*
X-426501Y329051D02*
Y336561D01*
X-426356Y336706D01*
X-407519Y319119D02*
Y323388D01*
X-412437Y328305D02*
X-407519Y323388D01*
X-407586Y315333D02*
Y319053D01*
X-407519Y319119D01*
X-426629Y315333D02*
X-417186D01*
X-426655Y315359D02*
X-426629Y315333D01*
X-426655Y324959D02*
Y328897D01*
X-426501Y329051D01*
X-391337Y328305D02*
X-377653D01*
X-377642Y328316D01*
X-432451Y315359D02*
X-426655D01*
X-432654Y315156D02*
X-432451Y315359D01*
X-625704Y106433D02*
X-611331D01*
X-625845Y106574D02*
X-625704Y106433D01*
X-582531Y86749D02*
Y96234D01*
X-582331Y96433D01*
X-611413Y86749D02*
Y96351D01*
X-611331Y96433D01*
X-513693Y245047D02*
Y254827D01*
X-513320Y255200D01*
X-497320Y226000D02*
X-493148D01*
X-491129Y228019D01*
X-484376Y228000D02*
X-476120D01*
X-497320Y222000D02*
X-497217Y222103D01*
X-490273D01*
X-484376Y228000D01*
X-485012Y219798D02*
X-476119D01*
X-494389Y214000D02*
X-490810D01*
X-476974Y212029D02*
X-476266Y211321D01*
X-463790Y159050D02*
Y165234D01*
X-463815Y159025D02*
X-463790Y159050D01*
X-463815Y142714D02*
X-463790Y142738D01*
Y148922D01*
X-589733Y49868D02*
Y55821D01*
X-592910Y58998D02*
X-589733Y55821D01*
X-592910Y58998D02*
Y64348D01*
X-696185Y94563D02*
Y96394D01*
Y94563D02*
X-694272Y92650D01*
X-686890D01*
X-699455Y93209D02*
Y96394D01*
Y93209D02*
X-695627Y89380D01*
X-688245D01*
X-275502Y74113D02*
Y82477D01*
Y74113D02*
X-275489Y74100D01*
X-799905Y179012D02*
Y185934D01*
X-799864Y185975D01*
X-167185Y157344D02*
X-167099Y157258D01*
X-17097Y207116D02*
Y216571D01*
X-17162Y141402D02*
X-17097Y141468D01*
Y150922D01*
X-26359Y381759D02*
Y390759D01*
Y399759D01*
Y408759D01*
Y422701D01*
X-26938Y423281D02*
X-26359Y422701D01*
X-27015Y423358D02*
Y434494D01*
Y423358D02*
X-26938Y423281D01*
X-20556Y309243D02*
Y319000D01*
X-20588Y319032D02*
X-20556Y319000D01*
X-768171Y289684D02*
X-763203D01*
X-758032Y294855D01*
Y302246D01*
X-373592Y143938D02*
X-369903Y140250D01*
X-373592Y143938D02*
Y155521D01*
X-259040Y126707D02*
X-259034Y126713D01*
X-259072Y126739D02*
X-259040Y126707D01*
X-259072Y126739D02*
Y126873D01*
X-471796Y119093D02*
X-464841D01*
X-462203Y116454D01*
X-567120Y214183D02*
Y220000D01*
Y214183D02*
X-566792Y213855D01*
X-291881Y189485D02*
X-285686D01*
X-285440Y189239D01*
X-504953Y247845D02*
X-503708D01*
X-513320Y239478D02*
X-504953Y247845D01*
X-451185Y211321D02*
X-451033Y211168D01*
X-466666Y211321D02*
X-451185D01*
X-475988Y238103D02*
Y244988D01*
X-457188Y253376D02*
Y263421D01*
X-457193Y263425D02*
X-457188Y263421D01*
X-467238Y253372D02*
X-467233Y253376D01*
X-457188D01*
X-490810Y214000D02*
X-487674Y217136D01*
X-485012Y219798D01*
X-582718Y64348D02*
X-576765D01*
X-576658Y64455D01*
X-421510Y109170D02*
Y120365D01*
Y109170D02*
X-415263Y102923D01*
X-421510Y120365D02*
X-420357Y121518D01*
Y121518D01*
X-411373Y130502D01*
X-415263Y102923D02*
X-389807D01*
X-411373Y130502D02*
X-389984D01*
X-392320Y195959D02*
Y199750D01*
Y195959D02*
X-389955Y193594D01*
X-389984Y130502D02*
X-385455Y135031D01*
X-388375Y97154D02*
X-386875Y98653D01*
X-389807Y102923D02*
X-386875Y99991D01*
Y98653D02*
Y99991D01*
X-388769Y144132D02*
X-385455Y140818D01*
Y135031D02*
Y140818D01*
X-388820Y147459D02*
X-388769Y147408D01*
Y144132D02*
Y147408D01*
X-388820Y155750D02*
Y164059D01*
Y147459D02*
Y155750D01*
Y164059D02*
X-385455Y167424D01*
X-418240Y110525D02*
X-413908Y106193D01*
X-418240Y119011D02*
X-410019Y127232D01*
X-418240Y110525D02*
Y119011D01*
X-413908Y106193D02*
X-388453D01*
X-383605Y101345D01*
X-410019Y127232D02*
X-388630D01*
X-386685Y190760D02*
Y193594D01*
X-384320Y195959D02*
Y199750D01*
X-388630Y127232D02*
X-382185Y133677D01*
X-386685Y193594D02*
X-384320Y195959D01*
X-383605Y98653D02*
Y101345D01*
X-382185Y133677D02*
Y141216D01*
X-383605Y98653D02*
X-382105Y97154D01*
X-382185Y141216D02*
X-378820Y144581D01*
Y155750D01*
X-382185Y167424D02*
X-378820Y164059D01*
Y155750D02*
Y164059D01*
X-385455Y167424D02*
Y184906D01*
X-382185Y167424D02*
Y186261D01*
X-386685Y190760D02*
X-382185Y186261D01*
X-389955Y189406D02*
Y193594D01*
Y189406D02*
X-385455Y184906D01*
X-931466Y238600D02*
X-890400D01*
X-859000Y270000D01*
X-810000Y269800D02*
X-804000Y263800D01*
X-810000Y269800D02*
Y270000D01*
X-859000D02*
X-810000D01*
X-920000Y422000D02*
X-913000D01*
X-564179Y330141D02*
X-561356Y332964D01*
X-543787Y327868D02*
Y331787D01*
X-548000Y336000D02*
X-543787Y331787D01*
X-469000Y328800D02*
X-460791D01*
X-460591Y329000D01*
X-511000Y312000D02*
X-511000D01*
X-508300Y319500D02*
X-499500D01*
X-511000Y322200D02*
X-508300Y319500D01*
X-499500D02*
Y326500D01*
X-500000Y327000D02*
X-499500Y326500D01*
X-500250Y308000D02*
Y318750D01*
X-499500Y319500D01*
X-174300Y216500D02*
X-165500D01*
X-175000Y215800D02*
X-174300Y216500D01*
X-945000Y438000D02*
X-938800D01*
X-947250Y435750D02*
X-945000Y438000D01*
X-951000Y435750D02*
X-947250D01*
X-55000Y169422D02*
X-39597D01*
Y193421D02*
X-31017Y202000D01*
X-22213D01*
X-45256Y305500D02*
Y309744D01*
X-40000Y315000D01*
X-444246Y114927D02*
X-425019Y95700D01*
X-444246Y126393D02*
X-432446Y138193D01*
X-444246Y114927D02*
Y126393D01*
X-440944Y116249D02*
X-426429Y101734D01*
X-440944Y116249D02*
Y125071D01*
X-431358Y134656D01*
X-609070Y440000D02*
Y449758D01*
X-609935Y450623D02*
X-609070Y449758D01*
X-609935Y450623D02*
Y454385D01*
X-608320Y456000D01*
X-614070Y440000D02*
Y449758D01*
X-614820Y456000D02*
X-613205Y454385D01*
X-614070Y449758D02*
X-613205Y450624D01*
Y454385D01*
X-629070Y440000D02*
Y449758D01*
X-628205Y450624D01*
Y454385D01*
X-629820Y456000D02*
X-628205Y454385D01*
X-624935Y450623D02*
X-624070Y449758D01*
Y440000D02*
Y449758D01*
X-624935Y450623D02*
Y454385D01*
X-623320Y456000D01*
X-799481Y220677D02*
X-799294Y220491D01*
X-644070Y440000D02*
Y449758D01*
X-643205Y450624D01*
X-644820Y456000D02*
X-643205Y454385D01*
Y450624D02*
Y454385D01*
X-639070Y440000D02*
Y449758D01*
X-639935Y450623D02*
Y454385D01*
Y450623D02*
X-639070Y449758D01*
X-639935Y454385D02*
X-638320Y456000D01*
X-659070Y440000D02*
Y449758D01*
X-658205Y450624D01*
Y454385D01*
X-659820Y456000D02*
X-658205Y454385D01*
X-654070Y440000D02*
Y449758D01*
X-654935Y450623D02*
Y454385D01*
Y450623D02*
X-654070Y449758D01*
X-654935Y454385D02*
X-653320Y456000D01*
D80*
X-691000Y288000D02*
X-672000Y269000D01*
X-149000Y221000D02*
X-139000D01*
X-153000Y217000D02*
X-149000Y221000D01*
X-153000Y216000D02*
Y217000D01*
X-165500Y203500D02*
X-153000Y216000D01*
X-127140Y461000D02*
X-119000D01*
X-135140Y453000D02*
X-127140Y461000D01*
X-125000Y410000D02*
X-124000Y409000D01*
X-125000Y410000D02*
Y422000D01*
X-134070Y431070D02*
X-125000Y422000D01*
X-134070Y431070D02*
Y440000D01*
X-149070Y449930D02*
X-147250Y451750D01*
X-181681D02*
X-179070Y449139D01*
X-181681Y451750D02*
X-147250D01*
X-146000Y453000D01*
X-183931Y454000D02*
X-181681Y451750D01*
X-249209Y454000D02*
X-235000D01*
X-264209D02*
X-249209D01*
X-254070Y449139D02*
X-249209Y454000D01*
X-254070Y440000D02*
Y449139D01*
X-269070D02*
X-264209Y454000D01*
X-269070Y440000D02*
Y449139D01*
X-211000Y454000D02*
X-197000D01*
X-222000D02*
X-211000D01*
X-235000D02*
X-222000D01*
X-239070Y440000D02*
Y449930D01*
X-235000Y454000D01*
X-197000D02*
X-183931D01*
X-179070Y440000D02*
Y449139D01*
X-135140Y453000D02*
X-134070Y451930D01*
X-146000Y453000D02*
X-135140D01*
X-149070Y440000D02*
Y449930D01*
X-459000Y440070D02*
Y451000D01*
X-462000Y454000D02*
X-459000Y451000D01*
X-471000Y454000D02*
X-462000D01*
X-474070Y440000D02*
Y450930D01*
X-459070Y440000D02*
X-459000Y440070D01*
X-474070Y450930D02*
X-471000Y454000D01*
X-576570Y531139D02*
X-572709Y535000D01*
X-578000Y534000D02*
X-576570Y532570D01*
X-590000Y534000D02*
X-578000D01*
X-591570Y532430D02*
X-590000Y534000D01*
X-591570Y522000D02*
Y532430D01*
X-576570Y531139D02*
Y532570D01*
X-572709Y535000D02*
X-565431D01*
X-561570Y531139D01*
Y522000D02*
Y531139D01*
X-722185Y288000D02*
X-691000D01*
X-634000Y248000D02*
X-633500Y248500D01*
X-624705D01*
X-174639Y533500D02*
X-96500D01*
X-96000Y533000D01*
X-744000Y456000D02*
Y457000D01*
X-749070Y450930D02*
X-744000Y456000D01*
X-749070Y440000D02*
Y450930D01*
X-510550Y332250D02*
X-485250D01*
X-791305Y21695D02*
X-791000Y22000D01*
X-791305Y15000D02*
Y21695D01*
X-625000Y200000D02*
X-621320D01*
X-620221Y201099D01*
X-226881Y26030D02*
X-206156D01*
X-243631D02*
X-226881D01*
X-264356D02*
X-243631D01*
X-209856Y29730D02*
Y49030D01*
Y29730D02*
X-206156Y26030D01*
X-264356D02*
X-263196Y27190D01*
Y49030D01*
X-804000Y344000D02*
X-803000Y343000D01*
X-785000D01*
X-777537Y335537D01*
Y319210D02*
Y335537D01*
X-137000Y280000D02*
X-124000Y267000D01*
X-63506D01*
X-55506Y275000D01*
X-10956Y319000D02*
Y319239D01*
X-16567Y324850D02*
X-10956Y319239D01*
X-54756Y313244D02*
X-47750Y320250D01*
X-54756Y305500D02*
Y313244D01*
Y275750D02*
Y305500D01*
X-55506Y275000D02*
X-54756Y275750D01*
X-728193Y281992D02*
X-722185Y288000D01*
X-775320Y257853D02*
X-767148Y266024D01*
X-775320Y257614D02*
Y257853D01*
X-767148Y266024D02*
X-763586D01*
X-753326Y276284D01*
X-766320Y238000D02*
X-766105Y238215D01*
X-172300Y203500D02*
X-165500D01*
X-175000Y206200D02*
X-172300Y203500D01*
X-809000Y27150D02*
Y35000D01*
X-816000Y42000D02*
X-809000Y35000D01*
X-825000Y42000D02*
X-816000D01*
X-800150Y10850D02*
X-800000Y11000D01*
X-809000Y10850D02*
X-800150D01*
X-339256Y456000D02*
X-334256D01*
X-344070Y451186D02*
X-339256Y456000D01*
X-334256D02*
X-287256D01*
X-72000Y361000D02*
X-72000Y361000D01*
X-87570Y361000D02*
X-72000D01*
X-416000Y399000D02*
X-408000D01*
X-402256Y393256D01*
Y387134D02*
Y393256D01*
X-354684Y328316D02*
X-354000Y329000D01*
X-369142Y328316D02*
X-354684D01*
X-222256Y61744D02*
X-218000Y66000D01*
X-222256Y52630D02*
Y61744D01*
X-805000Y316000D02*
Y317000D01*
Y316000D02*
X-793710Y304710D01*
X-777537D01*
X-725000Y346000D02*
X-722184Y343184D01*
Y310987D02*
Y343184D01*
X-748000Y314256D02*
Y326000D01*
X-750510Y311746D02*
X-748000Y314256D01*
X-758032Y311746D02*
X-750510D01*
X-17097Y216571D02*
Y253571D01*
X-22000Y285000D02*
Y289000D01*
X-32000Y275000D02*
X-22000Y285000D01*
X-41006Y275000D02*
X-32000D01*
X-284070Y130000D02*
X-278000D01*
X-559070Y429928D02*
Y440000D01*
X-561999Y426999D02*
X-559070Y429928D01*
X-574070Y428070D02*
X-574000Y428000D01*
X-574070Y428070D02*
Y440000D01*
X-589070Y428070D02*
X-589000Y428000D01*
X-589070Y428070D02*
Y440000D01*
X-176570Y531570D02*
X-174639Y533500D01*
X-179000Y534000D02*
X-176570Y531570D01*
X-188709Y534000D02*
X-179000D01*
X-191570Y531139D02*
X-188709Y534000D01*
X-191570Y522000D02*
Y531139D01*
X-209070Y451930D02*
X-208930Y452070D01*
X-194070Y440000D02*
Y451070D01*
X-197000Y454000D02*
X-194070Y451070D01*
X-209070Y440000D02*
Y451930D01*
Y452070D02*
X-208930D01*
X-211000Y454000D02*
X-209070Y452070D01*
X-224070Y451930D02*
X-222000Y454000D01*
X-224070Y440000D02*
Y451930D01*
X-160000Y424000D02*
Y425000D01*
X-164070Y429070D02*
X-160000Y425000D01*
X-164070Y429070D02*
Y440000D01*
X-134070D02*
Y451930D01*
X-747000Y270000D02*
X-746814Y270186D01*
Y274967D01*
X-721492Y273493D02*
X-717000Y269000D01*
X-728193Y273493D02*
X-721492D01*
X-732070Y249000D02*
X-728070Y253000D01*
X-719000D01*
X-712257Y209001D02*
X-711319D01*
X-711070Y209250D01*
X-719455Y215865D02*
Y227685D01*
X-720320Y215000D02*
X-719455Y215865D01*
X-720320Y155389D02*
Y215000D01*
X-823474Y131900D02*
X-812824Y121250D01*
X-802256D01*
X-35756Y354500D02*
X-33256Y357000D01*
X-35756Y328500D02*
Y354500D01*
X-355256Y359000D02*
X-353256Y357000D01*
X-355256Y359000D02*
Y367629D01*
X-355468Y367841D02*
X-355256Y367629D01*
X-32006Y358250D02*
X-16256D01*
Y335000D02*
X-16256Y335000D01*
X-16256Y335000D02*
Y343750D01*
X-238256Y79000D02*
X-238256Y79000D01*
Y74250D02*
Y79000D01*
X-299756Y11500D02*
X-299256Y12000D01*
X-305756Y11500D02*
X-299756D01*
X-441256Y297000D02*
X-430256D01*
X-451517Y307261D02*
X-441256Y297000D01*
X-451517Y307261D02*
Y313204D01*
X-466388Y238103D02*
X-444602D01*
X-649070Y428187D02*
Y440000D01*
X-649257Y428000D02*
X-649070Y428187D01*
X-348256Y424403D02*
X-344070Y428589D01*
X-326570Y522000D02*
Y534314D01*
X-328556Y536300D02*
X-326570Y534314D01*
X-338956Y536300D02*
X-328556D01*
X-341570Y533686D02*
X-338956Y536300D01*
X-341570Y522000D02*
Y533686D01*
X-394257Y509000D02*
X-394256Y508999D01*
X-544207Y428451D02*
X-544070Y428589D01*
Y440000D01*
X-529207Y428451D02*
X-529070Y428589D01*
Y440000D01*
X-514207Y428451D02*
X-514070Y428589D01*
Y440000D01*
X-489207Y428451D02*
X-489070Y428589D01*
Y440000D01*
X-459207Y428451D02*
X-459070Y428589D01*
Y440000D01*
X-384207Y428451D02*
X-384070Y428589D01*
Y440000D01*
X-161258Y510000D02*
Y510002D01*
X-161707Y510451D02*
X-161258Y510002D01*
X-546570Y510498D02*
X-542072Y506000D01*
X-536256D01*
X-546570Y510498D02*
Y522000D01*
X-591707Y510451D02*
X-591570Y510589D01*
Y522000D01*
X-531707Y510451D02*
X-531570Y510589D01*
Y522000D01*
X-516707Y510451D02*
X-516570Y510589D01*
Y522000D01*
X-131570Y510589D02*
Y522000D01*
X-131707Y510451D02*
X-131570Y510589D01*
X-146570D02*
Y522000D01*
X-146707Y510451D02*
X-146570Y510589D01*
X-161570D02*
Y522000D01*
X-161707Y510451D02*
X-161570Y510589D01*
X-206570D02*
Y522000D01*
X-206707Y510451D02*
X-206570Y510589D01*
X-221707Y510451D02*
X-221570Y510589D01*
Y522000D01*
X-451570Y510589D02*
Y522000D01*
X-451707Y510451D02*
X-451570Y510589D01*
X-466570D02*
Y522000D01*
X-466707Y510451D02*
X-466570Y510589D01*
X-481570D02*
Y522000D01*
X-481707Y510451D02*
X-481570Y510589D01*
X-299070Y440000D02*
Y450814D01*
X-304256Y456000D02*
X-299070Y450814D01*
X-314070Y440000D02*
Y450814D01*
X-319256Y456000D02*
X-314070Y450814D01*
X-334256Y456000D02*
X-329070Y450814D01*
Y440000D02*
Y450814D01*
X-284070Y440000D02*
Y452814D01*
X-287256Y456000D02*
X-284070Y452814D01*
X-344070Y440000D02*
Y451186D01*
Y428589D02*
Y440000D01*
X-296570Y510589D02*
Y522000D01*
X-326707Y510451D02*
X-326570Y510589D01*
Y522000D01*
X-311707Y510451D02*
X-311570Y510589D01*
Y522000D01*
X-296707Y510451D02*
X-296570Y510589D01*
X-281570D02*
Y522000D01*
X-281707Y510451D02*
X-281570Y510589D01*
X-266570D02*
Y522000D01*
X-266707Y510451D02*
X-266570Y510589D01*
X-251570D02*
Y522000D01*
X-251707Y510451D02*
X-251570Y510589D01*
X-236570D02*
Y522000D01*
X-236707Y510451D02*
X-236570Y510589D01*
X-290173Y147674D02*
X-281423D01*
X-601320Y205000D02*
X-598320Y202000D01*
X-593320D01*
X-600320Y210000D02*
X-594320D01*
X-561320Y57000D02*
X-558320D01*
X-578268Y73948D02*
X-561320Y57000D01*
X-582718Y73948D02*
X-578268D01*
X-552320Y195000D02*
X-549320Y198000D01*
X-552320Y161000D02*
Y195000D01*
X-555205Y158115D02*
X-552320Y161000D01*
X-555205Y148379D02*
Y158115D01*
X-578320Y37000D02*
Y46000D01*
Y20000D02*
Y37000D01*
X-566320Y20000D02*
Y25000D01*
X-578320Y37000D02*
X-566320Y25000D01*
X-582188Y49868D02*
X-578320Y46000D01*
X-589733Y49868D02*
X-582188D01*
X-775705Y246215D02*
Y257229D01*
X-739170Y98000D02*
X-728320D01*
X-489320Y292000D02*
X-484320Y287000D01*
X-500335Y292000D02*
X-489320D01*
X-614887Y101433D02*
X-611331D01*
X-615320Y50000D02*
X-615188Y49868D01*
X-605940D01*
X-732320Y143389D02*
X-720320Y155389D01*
X-732320Y116000D02*
Y143389D01*
X-759533Y115000D02*
X-753870D01*
X-766030Y108503D02*
X-759533Y115000D01*
X-776088Y108503D02*
X-766030D01*
X-636320Y124000D02*
X-634982Y122662D01*
X-625293D01*
X-577158Y101433D02*
X-577033Y101308D01*
X-620221Y201099D02*
Y210663D01*
X-446412Y191092D02*
X-446320Y191000D01*
X-461048Y191092D02*
X-446412D01*
X-440320Y265000D02*
X-439688Y264368D01*
Y253376D02*
Y264368D01*
X-428696Y253376D02*
X-428320Y253000D01*
X-439688Y253376D02*
X-428696D01*
X-775561Y257373D02*
X-775320Y257614D01*
X-775705Y257229D02*
X-775561Y257373D01*
X-775320Y257000D02*
Y257614D01*
X-554741Y101579D02*
Y115110D01*
X-555320Y101000D02*
X-554741Y101579D01*
X-554320Y143850D02*
Y147494D01*
Y136150D02*
Y143850D01*
X-555205Y148379D02*
X-554320Y147494D01*
X-753870Y115000D02*
X-745320D01*
X-765320Y98000D02*
X-755470D01*
Y89150D02*
X-755320Y89000D01*
X-755470Y89150D02*
Y98000D01*
X-788320Y124000D02*
X-788080Y124241D01*
X-776651D01*
Y134670D02*
X-776320Y135000D01*
X-776651Y124241D02*
Y134670D01*
X-711320Y209000D02*
X-711070Y209250D01*
Y217000D01*
X-711320Y236000D02*
X-710955Y235634D01*
Y227685D02*
Y235634D01*
X-766105Y238215D02*
Y246215D01*
X-284070Y122000D02*
Y130000D01*
X-625845Y84862D02*
Y92074D01*
X-626096Y84610D02*
X-625845Y84862D01*
X-582331Y101433D02*
X-577158D01*
X-788529Y173152D02*
Y180732D01*
X-780949D02*
X-780799Y180583D01*
X-788529Y180732D02*
X-780949D01*
X-592910Y73948D02*
X-582718D01*
X-610735Y232677D02*
Y248500D01*
Y232677D02*
X-610721Y232663D01*
X-513570Y265050D02*
X-513320Y264800D01*
X-513570Y265050D02*
Y280000D01*
Y291265D01*
X-514305Y292000D02*
X-513570Y291265D01*
X-499070Y280000D02*
X-491646D01*
X-491517Y279872D01*
X-605940Y28004D02*
Y35368D01*
X-606124Y27820D02*
X-605940Y28004D01*
X-589916Y27820D02*
X-589733Y28004D01*
Y35368D01*
X-611413Y82147D02*
X-605946Y76680D01*
X-611413Y82147D02*
Y86749D01*
X-611331Y111433D02*
Y122653D01*
X-611323Y122662D01*
X-625845Y122110D02*
X-625293Y122662D01*
X-625845Y106574D02*
Y122110D01*
X-735032Y302246D02*
X-734791Y302487D01*
X-753326Y276284D02*
Y282409D01*
X-739910Y281992D02*
X-728193D01*
X-740326Y282409D02*
X-739910Y281992D01*
X-746826Y274979D02*
Y282409D01*
Y274979D02*
X-746814Y274967D01*
X-775501Y321246D02*
X-758032D01*
X-777537Y319210D02*
X-775501Y321246D01*
X-777537Y304710D02*
X-771837D01*
X-764801Y311746D01*
X-758032D01*
X-596429Y122618D02*
Y126328D01*
X-599832Y129731D02*
X-596429Y126328D01*
X-618224Y129731D02*
X-599832D01*
X-625293Y122662D02*
X-618224Y129731D01*
X-776651Y107941D02*
X-776088Y108503D01*
X-670320Y126935D02*
Y136750D01*
Y126935D02*
X-670106Y126721D01*
X-655320Y126935D02*
X-655106Y126721D01*
X-655320Y126935D02*
Y136750D01*
X-329851Y149925D02*
Y189485D01*
Y149925D02*
X-321914Y141988D01*
X-309611D01*
X-439994Y253071D02*
X-439688Y253376D01*
X-444602Y238103D02*
X-439994Y242711D01*
Y253071D01*
Y229832D02*
Y242711D01*
X-610721Y187099D02*
Y210663D01*
X-611320Y186500D02*
X-610721Y187099D01*
X-611320Y176215D02*
Y186500D01*
X-611407Y176128D02*
X-611320Y176215D01*
Y186500D02*
X-610064D01*
X-604060Y180496D01*
Y176028D02*
Y180496D01*
X-617952Y176028D02*
Y180496D01*
X-611948Y186500D01*
X-499320Y136150D02*
Y143850D01*
X-519064Y292000D02*
X-514305D01*
X-521634Y289431D02*
X-519064Y292000D01*
X-521634Y286348D02*
Y289431D01*
Y286348D02*
X-521285Y285999D01*
X-521219D01*
X-391422Y174352D02*
X-391320Y174250D01*
X-391422Y174352D02*
Y184156D01*
X-376422Y174352D02*
Y184156D01*
Y174352D02*
X-376320Y174250D01*
X-734791Y302487D02*
X-722184D01*
X-920000Y438000D02*
X-913000D01*
X-943000Y446000D02*
X-938250D01*
X-941300Y464000D02*
Y469700D01*
X-941000Y470000D01*
X-929750Y446000D02*
X-913000D01*
X-929200Y438000D02*
Y445450D01*
X-929750Y446000D02*
X-929200Y445450D01*
X-850700Y454000D02*
X-846000D01*
X-851750Y446000D02*
X-846000D01*
X-873000D02*
X-860250D01*
X-443750Y368554D02*
Y378000D01*
X-443905Y368398D02*
X-443750Y368554D01*
X-480500Y319500D02*
X-469300D01*
X-469000Y319200D01*
X-480500Y319500D02*
Y327500D01*
X-490000Y319500D02*
Y327000D01*
X-511000Y331800D02*
X-510550Y332250D01*
X-485250D02*
X-480500Y327500D01*
X-490000Y312250D02*
X-485750Y308000D01*
X-490000Y312250D02*
Y319500D01*
X-175800Y207000D02*
X-175000Y206200D01*
X-726570Y522000D02*
Y536570D01*
X-727000Y537000D02*
X-726570Y536570D01*
X-951000Y444250D02*
X-944750D01*
X-943000Y446000D01*
X-39597Y222821D02*
X-36309D01*
X-26562Y232568D01*
Y235071D01*
X-39597Y247321D02*
Y260597D01*
X-43000Y264000D02*
X-39597Y260597D01*
X-24725Y324850D02*
X-16567D01*
X-29325Y320250D02*
X-24725Y324850D01*
X-47750Y320250D02*
X-29325D01*
X-788679Y173002D02*
X-788529Y173152D01*
D81*
X-120000Y390000D02*
X-69000D01*
X-118000Y386000D02*
X-47000D01*
X-117000Y382000D02*
X-42000D01*
X-131001Y367999D02*
X-117000Y382000D01*
X-132000Y372000D02*
X-118000Y386000D01*
X-295999Y367999D02*
X-131001D01*
X-283000Y372000D02*
X-132000D01*
X-121000Y395000D02*
X-78000D01*
X-69000Y390000D02*
X-50000Y409000D01*
X-47000Y386000D02*
X-42000Y391000D01*
X-640000Y262000D02*
Y284000D01*
X-653000Y297000D02*
X-640000Y284000D01*
X-722999Y459999D02*
X-711635D01*
X-708635Y457000D01*
X-710999Y452999D02*
Y452999D01*
Y452999D02*
X-710000Y452000D01*
X-708635Y457000D02*
X-687992D01*
X-710000Y452000D02*
X-697992D01*
X-694070Y448078D01*
Y440000D02*
Y448078D01*
X-687992Y457000D02*
X-679070Y448078D01*
X-710000Y501000D02*
X-708000D01*
X-709999Y501001D02*
Y501999D01*
X-710000Y501000D02*
X-709999Y501001D01*
X-708000Y501000D02*
X-664320Y457320D01*
Y440250D02*
Y457320D01*
Y440250D02*
X-664070Y440000D01*
X-679070D02*
Y448078D01*
X-358820Y413243D02*
Y417827D01*
X-363913Y408150D02*
X-358820Y413243D01*
X-377770Y408150D02*
X-363913D01*
X-358820Y419136D02*
X-358820Y419136D01*
X-358820Y417827D02*
Y419136D01*
Y417827D02*
X-358820Y417827D01*
X-358820Y423140D02*
X-358820Y423140D01*
X-358820Y422864D02*
Y423140D01*
Y422864D02*
X-358820Y422864D01*
Y419136D02*
Y422864D01*
Y423140D02*
Y439750D01*
X-554249Y299573D02*
X-543787Y310034D01*
X-574904Y299573D02*
X-554249D01*
X-744070Y428814D02*
X-727256Y412000D01*
X-744070Y428814D02*
Y440000D01*
X-271000Y377000D02*
X-133000D01*
X-269000Y381000D02*
X-135000D01*
X-286000Y375000D02*
X-283000Y372000D01*
X-275999Y381999D02*
X-271000Y377000D01*
X-295999Y381999D02*
X-275999D01*
X-276465Y388465D02*
X-269000Y381000D01*
X-289465Y388465D02*
X-276465D01*
X-290000Y389000D02*
X-289465Y388465D01*
X-296000Y389000D02*
X-290000D01*
X-486320Y248488D02*
Y255200D01*
X-501320Y233488D02*
X-486320Y248488D01*
X-495320Y243838D02*
Y255200D01*
X-505320Y233838D02*
X-495320Y243838D01*
X-505320Y230000D02*
Y233838D01*
X-501320Y230300D02*
Y233488D01*
X-746570Y505570D02*
X-746000Y505000D01*
X-746570Y505570D02*
Y522000D01*
X-264756Y205756D02*
Y213500D01*
Y205756D02*
X-264000Y205000D01*
X-349070Y440000D02*
Y452070D01*
X-383000Y486000D02*
X-349070Y452070D01*
X-552000Y486000D02*
X-383000D01*
X-565000Y473000D02*
X-552000Y486000D01*
X-649000Y253000D02*
X-640000Y262000D01*
X-705000Y253000D02*
X-649000D01*
X-727292Y230708D02*
X-705000Y253000D01*
X-727292Y184123D02*
Y230708D01*
X-727256Y412000D02*
X-601256D01*
X-570256Y381000D01*
X-626685Y327198D02*
X-619060Y319573D01*
X-633104Y327198D02*
X-626685D01*
X-295205Y88051D02*
X-289205D01*
X-281256Y96000D01*
X-271256Y188000D02*
Y194500D01*
X-250256Y93000D02*
X-250011Y93245D01*
Y102130D01*
X-218111Y81855D02*
X-209256Y73000D01*
X-218111Y81855D02*
Y94214D01*
X-570257Y354000D02*
X-569620D01*
X-495320Y270083D02*
X-495223Y270180D01*
X-285338Y82241D02*
X-285102Y82477D01*
X-303015Y82241D02*
X-285338D01*
X-311177Y74079D02*
X-303015Y82241D01*
X-295185Y74100D02*
X-285089D01*
X-295205Y74081D02*
X-295185Y74100D01*
X-473669Y300000D02*
X-466261Y292591D01*
X-521256Y300000D02*
X-473669D01*
X-417256Y409000D02*
X-378620D01*
X-423256Y403000D02*
X-417256Y409000D01*
X-426257Y403000D02*
X-423256D01*
X-421256Y410000D02*
X-418256Y413000D01*
X-426257Y410000D02*
X-421256D01*
X-418256Y413000D02*
X-387256D01*
X-378620Y409000D02*
X-377770Y408150D01*
X-359070Y440000D02*
X-358820Y439750D01*
X-426256Y417000D02*
X-388256D01*
X-387256Y413000D02*
X-374070Y426186D01*
Y440000D01*
X-379070Y426186D02*
Y440000D01*
X-388256Y417000D02*
X-379070Y426186D01*
X-394256Y508999D02*
Y510000D01*
X-459256Y411800D02*
Y417000D01*
X-450256Y411800D02*
Y417000D01*
X-440256Y411800D02*
Y417000D01*
X-396570Y512314D02*
X-394256Y510000D01*
X-396570Y512314D02*
Y522000D01*
X-712411Y146753D02*
X-711547Y147617D01*
X-482882Y198656D02*
X-474879Y190653D01*
X-718883Y102128D02*
X-717883Y103128D01*
X-718883Y87641D02*
Y102128D01*
Y87641D02*
X-714240Y82998D01*
Y76760D02*
Y82998D01*
X-702240Y67615D02*
Y76760D01*
X-704173Y65682D02*
X-702240Y67615D01*
X-694619Y67236D02*
Y76382D01*
Y67236D02*
X-689503Y62120D01*
X-740084Y140110D02*
Y171331D01*
X-710883Y98724D02*
X-694240Y82081D01*
X-460522Y219798D02*
X-460320Y220000D01*
X-466519Y219798D02*
X-460522D01*
X-59176Y229000D02*
X-53105Y235071D01*
X-39597D01*
X-740084Y171331D02*
X-727292Y184123D01*
X-740084Y140110D02*
X-739742Y139768D01*
X-752298D02*
X-739742D01*
X-752321Y139791D02*
X-752298Y139768D01*
X-457543Y229697D02*
X-449730D01*
X-732770Y115000D02*
X-726827D01*
X-368820Y145927D02*
Y155750D01*
X-398820Y146098D02*
Y155750D01*
X-398902Y146016D02*
X-398820Y146098D01*
X-384019Y146100D02*
Y155551D01*
X-383820Y155750D01*
X-692820Y155250D02*
Y165498D01*
X-692964Y165643D02*
X-692820Y165498D01*
X-677820Y155250D02*
Y165743D01*
X-677792Y165771D01*
X-662820Y155250D02*
Y165972D01*
X-662877Y166028D02*
X-662820Y165972D01*
X-647820Y155250D02*
Y165655D01*
X-647704Y165771D01*
X-353820Y155750D02*
Y165099D01*
X-352819Y166100D01*
X-449203Y111627D02*
Y118774D01*
X-449053Y118923D01*
X-471596Y95095D02*
X-467468D01*
X-471892Y95391D02*
X-471596Y95095D01*
X-486320Y255200D02*
X-477320D01*
X-495320Y264800D02*
Y270083D01*
X-485717Y195853D02*
X-481836Y191972D01*
Y189212D02*
Y191972D01*
Y189212D02*
X-481523Y188899D01*
X-478875Y201455D02*
X-478419Y201000D01*
X-474879Y190653D02*
X-470827D01*
X-470648Y190832D01*
X-605940Y49868D02*
Y62704D01*
X-605946Y62710D02*
X-605940Y62704D01*
X-694240Y76760D02*
Y82081D01*
X-710883Y98724D02*
Y103128D01*
X-714383Y90303D02*
Y94628D01*
Y90303D02*
X-714383Y90303D01*
X-717883Y103128D02*
Y113377D01*
X-717978Y113472D02*
X-717883Y113377D01*
X-711547Y147617D02*
Y154718D01*
X-717978Y123072D02*
Y130504D01*
X-720257Y132783D02*
X-710918D01*
X-720742Y133268D02*
X-720257Y132783D01*
X-717978Y130504D01*
X-581932Y111832D02*
X-576506D01*
X-582331Y111433D02*
X-581932Y111832D01*
X-582331Y111433D02*
Y122490D01*
X-582459Y122618D02*
X-582331Y122490D01*
X-617318Y111436D02*
X-611335D01*
X-611331Y111433D01*
X-642240Y68726D02*
Y76760D01*
Y68726D02*
X-642022Y68508D01*
X-654240Y68726D02*
X-654022Y68508D01*
X-654240Y68726D02*
Y76760D01*
X-666240Y68726D02*
X-666022Y68508D01*
X-666240Y68726D02*
Y76760D01*
X-678240Y68726D02*
X-678022Y68508D01*
X-678240Y68726D02*
Y76760D01*
X-690240D02*
X-690119Y76639D01*
Y69100D02*
Y76639D01*
Y69100D02*
X-690119Y69100D01*
X-710240Y76760D02*
X-710199Y76719D01*
Y68664D02*
Y76719D01*
X-726827Y115000D02*
X-726693Y115135D01*
X-633904Y300823D02*
X-629067D01*
X-628798Y300554D01*
X-618454Y304573D02*
X-612904D01*
X-618556Y304471D02*
Y307781D01*
X-616763Y309573D02*
X-612904D01*
X-618556Y307781D02*
X-616763Y309573D01*
X-606404Y331073D02*
Y336760D01*
X-606548Y336903D02*
X-606404Y336760D01*
X-694619Y76382D02*
X-694240Y76760D01*
X-698240Y63957D02*
X-697344Y63061D01*
X-698240Y63957D02*
Y76760D01*
X-689503Y58307D02*
Y62120D01*
X-574904Y304573D02*
X-560721D01*
X-553721Y311573D02*
Y318268D01*
X-560721Y304573D02*
X-553721Y311573D01*
X-543787Y310034D02*
Y318268D01*
X-553783Y327930D02*
X-553721Y327868D01*
X-553783Y327930D02*
Y333866D01*
X-619060Y319573D02*
X-612904D01*
X-616744Y324573D02*
X-612904D01*
X-368842Y145905D02*
X-368820Y145927D01*
X-586904Y261737D02*
Y267273D01*
X-587095Y261545D02*
X-586904Y261737D01*
X-597095Y261545D02*
X-596904Y261737D01*
Y267273D01*
X-607095Y261545D02*
X-606904Y261737D01*
Y267273D01*
X-617095Y261545D02*
X-616904Y261737D01*
Y267273D01*
X-574904Y309573D02*
X-566461D01*
X-561940Y314094D01*
Y317911D01*
X-633104Y335412D02*
X-627582D01*
X-616744Y324573D01*
X-259408Y111738D02*
Y117767D01*
X-259327Y117848D01*
X-218641Y93684D02*
X-218111Y94214D01*
X-250011Y102130D02*
X-249844Y101962D01*
X-601813Y86749D02*
Y92394D01*
X-601819Y92400D02*
X-601813Y92394D01*
X-592131Y86749D02*
Y92388D01*
X-592119Y92400D01*
X-547741Y226000D02*
X-541320D01*
X-549920Y228179D02*
X-547741Y226000D01*
X-556699Y228179D02*
X-549920D01*
X-557520Y229000D02*
X-556699Y228179D01*
X-548265Y222000D02*
X-541320D01*
X-550265Y220000D02*
X-548265Y222000D01*
X-557520Y220000D02*
X-550265D01*
X-529320Y230000D02*
Y236201D01*
X-529619Y236500D02*
X-529320Y236201D01*
X-505320Y254200D02*
X-504320Y255200D01*
X-509320Y236760D02*
X-507076Y239004D01*
X-509320Y230000D02*
Y236760D01*
X-449730Y229697D02*
X-449594Y229832D01*
X-505320Y202902D02*
Y206000D01*
Y202902D02*
X-503874Y201455D01*
X-478875D01*
X-509320Y203013D02*
Y206000D01*
Y203013D02*
X-504964Y198656D01*
X-482882D01*
X-513320Y201695D02*
Y206000D01*
Y201695D02*
X-507478Y195853D01*
X-485717D01*
X-504320Y255200D02*
X-495320D01*
X-499320Y143850D02*
X-499185Y143985D01*
Y156347D01*
X-500503Y157664D02*
X-499185Y156347D01*
X-499741Y103110D02*
Y115110D01*
Y103110D02*
X-499241Y102610D01*
X-296000Y375000D02*
X-286000D01*
X-570256Y381000D02*
X-535000D01*
X-521500Y312500D02*
X-521000Y312000D01*
X-521500Y312500D02*
Y367500D01*
X-535000Y381000D02*
X-521500Y367500D01*
X-41759Y381759D02*
X-35959D01*
X-42000Y382000D02*
X-41759Y381759D01*
X-42000Y409000D02*
X-41759Y408759D01*
X-35959D01*
X-50000Y409000D02*
X-42000D01*
X-133000Y377000D02*
X-120000Y390000D01*
X-135000Y381000D02*
X-121000Y395000D01*
X-59176Y180824D02*
X-55352Y177000D01*
X-55000D01*
X-59176Y180824D02*
Y229000D01*
X-42000Y400000D02*
X-41001Y400999D01*
X-41000D01*
X-41999Y390999D02*
X-41000D01*
X-42000Y400000D02*
X-41759Y399759D01*
X-35959D01*
X-42000Y391000D02*
X-41999Y390999D01*
X-41759Y390759D01*
X-35959D01*
D82*
X-134000Y188450D02*
Y195000D01*
X-95000Y210000D02*
X-74300Y189300D01*
Y186000D02*
Y189300D01*
X-99940Y185760D02*
X-99700Y186000D01*
X-110956Y185760D02*
X-99940D01*
X-480256Y422744D02*
X-480000Y423000D01*
X-502000Y365000D02*
X-499500Y362500D01*
Y342500D02*
Y362500D01*
X-480256Y411800D02*
Y422744D01*
X-634070Y199967D02*
Y218814D01*
Y199967D02*
X-628320Y194216D01*
Y170000D02*
Y194216D01*
X-793000Y261000D02*
X-789751Y264249D01*
X-777617D01*
X-768171Y273695D01*
Y280084D01*
X-54756Y328500D02*
Y354500D01*
X-380097Y367841D02*
X-368468D01*
X-389256Y363000D02*
X-385256Y359000D01*
X-389256Y363000D02*
Y368134D01*
X-380256Y368000D02*
X-380097Y367841D01*
X-368468Y399788D02*
X-368256Y400000D01*
X-368468Y386841D02*
Y399788D01*
X-57256Y357000D02*
X-54756Y354500D01*
X-628320Y170000D02*
X-620320Y162000D01*
X-634070Y218814D02*
X-620221Y232663D01*
X-611600Y137993D02*
Y159220D01*
X-611320Y159500D01*
X-951000Y464800D02*
Y470000D01*
Y320000D02*
Y333000D01*
Y320000D02*
X-943000Y312000D01*
X-842000Y430000D02*
X-834000Y438000D01*
Y469000D01*
X-465000Y378000D02*
X-458250D01*
X-478000Y365000D02*
X-465000Y378000D01*
X-458000Y368000D02*
Y377750D01*
X-458250Y378000D02*
X-458000Y377750D01*
X-480500Y342500D02*
Y362500D01*
X-478000Y365000D01*
X-16256Y358250D02*
Y365744D01*
X-16000Y366000D01*
X-41931Y423281D02*
X-35959D01*
X-43000Y424350D02*
X-41931Y423281D01*
X-134450Y210000D02*
X-134000Y209550D01*
X-146500Y210000D02*
X-134450D01*
X-95000D01*
X-134000Y188450D02*
X-113646D01*
X-110956Y185760D01*
X-850700Y430300D02*
Y438000D01*
X-851000Y430000D02*
X-850700Y430300D01*
X-873000Y430000D02*
X-851000D01*
X-842000D01*
D83*
X-537573Y148586D02*
X-526539Y159619D01*
X-514741Y103110D02*
Y115110D01*
X-515241Y102610D02*
X-514741Y103110D01*
X-539741D02*
Y115110D01*
Y103110D02*
X-539241Y102610D01*
X-504320Y264800D02*
Y269236D01*
X-504117Y269438D01*
X-504516Y269838D02*
X-504117Y269438D01*
X-504516Y269838D02*
Y270237D01*
X-628260Y146837D02*
X-627900Y146478D01*
Y137993D02*
Y146478D01*
X-526539Y159619D02*
Y162179D01*
X-514741Y115110D02*
Y123722D01*
X-515019Y124000D02*
X-514741Y123722D01*
X-534741Y115110D02*
Y121815D01*
X-537573Y124647D02*
X-534741Y121815D01*
X-537573Y124647D02*
Y148586D01*
D84*
X-293320Y114000D02*
Y131000D01*
X-297870Y109450D02*
X-293320Y114000D01*
X-309320Y109450D02*
X-297870D01*
X-356286Y105222D02*
X-346932D01*
X-342703Y109450D02*
X-309320D01*
X-346932Y105222D02*
X-342703Y109450D01*
X-309611Y141988D02*
X-309320Y141697D01*
Y130550D02*
Y141697D01*
D85*
X-931700Y456000D02*
Y464000D01*
X-950200Y456000D02*
X-941300D01*
X-951000Y455200D02*
X-950200Y456000D01*
X-929700Y454000D02*
X-913000D01*
X-931700Y456000D02*
X-929700Y454000D01*
X-931000Y430000D02*
X-913000D01*
X-943000Y418000D02*
X-931000Y430000D01*
X-943000Y394000D02*
Y418000D01*
X-873750Y410000D02*
Y421250D01*
X-873000Y422000D01*
X-905000Y410000D02*
X-888250D01*
X-921000Y394000D02*
X-905000Y410000D01*
X-943000Y394000D02*
X-921000D01*
X-873000Y454000D02*
X-860300D01*
X-860300Y454000D01*
X-873000Y438000D02*
X-860300D01*
D86*
X-762756Y481000D02*
D03*
D87*
X-768256Y381000D02*
D03*
D88*
X-777256Y399000D02*
D03*
D89*
X-788256Y463500D02*
D03*
D90*
X-569941Y43810D02*
D03*
X-484541D02*
D03*
X-569941Y91110D02*
D03*
X-484541D02*
D03*
D91*
X-519241Y95610D02*
D03*
X-535241D02*
D03*
X-499241Y102610D02*
D03*
X-555241D02*
D03*
X-507241D02*
D03*
X-547241D02*
D03*
X-515241D02*
D03*
X-539241D02*
D03*
X-503241Y95610D02*
D03*
X-511241D02*
D03*
X-543241D02*
D03*
X-551241D02*
D03*
X-523241Y102610D02*
D03*
X-531241D02*
D03*
D92*
X-144240Y59760D02*
D03*
X-780256D02*
D03*
D93*
X-623990Y21260D02*
D03*
X-732490D02*
D03*
D94*
X-623990Y66260D02*
D03*
X-732490D02*
D03*
D95*
X-432740Y121010D02*
D03*
X-337740D02*
D03*
D96*
X-440240Y89510D02*
D03*
X-330240D02*
D03*
D97*
X-437240Y34510D02*
D03*
X-333240D02*
D03*
D98*
X-27597Y190672D02*
D03*
Y148172D02*
D03*
Y256321D02*
D03*
Y213821D02*
D03*
X-369820Y421000D02*
D03*
X-366656Y264000D02*
D03*
X-307396Y225159D02*
D03*
X-363320Y421000D02*
D03*
X-373156Y264000D02*
D03*
X-313896Y225159D02*
D03*
X-672000Y269000D02*
D03*
X-139000Y221000D02*
D03*
X-445000Y289000D02*
D03*
X-119000Y461000D02*
D03*
X-124000Y409000D02*
D03*
X-580000Y472000D02*
D03*
X-634000Y248000D02*
D03*
X-648244Y327246D02*
D03*
X-653000Y297000D02*
D03*
X-277320Y503000D02*
D03*
X-639235Y197000D02*
D03*
X-270820Y503000D02*
D03*
X-645735Y197000D02*
D03*
X-664878D02*
D03*
X-262320Y503000D02*
D03*
X-658378Y197000D02*
D03*
X-255820Y503000D02*
D03*
X-703164Y197000D02*
D03*
X-247320Y503000D02*
D03*
X-696664Y197000D02*
D03*
X-240820Y503000D02*
D03*
X-565000Y473000D02*
D03*
X-150920Y484000D02*
D03*
X-157220D02*
D03*
X-576999Y508999D02*
D03*
X-569999D02*
D03*
X-96000Y533000D02*
D03*
X-180920Y510000D02*
D03*
X-495270Y481000D02*
D03*
X-187220Y510000D02*
D03*
X-501540Y481000D02*
D03*
X-480270Y468000D02*
D03*
X-195920Y543000D02*
D03*
X-486540Y468000D02*
D03*
X-202220Y543000D02*
D03*
X-126276Y248000D02*
D03*
X-228420Y422000D02*
D03*
X-120006Y248000D02*
D03*
X-234720Y422000D02*
D03*
X-100456Y249000D02*
D03*
X-249720Y422000D02*
D03*
X-106756Y249000D02*
D03*
X-243420Y422000D02*
D03*
X-74000Y198000D02*
D03*
X-279720Y421000D02*
D03*
X-74256Y204986D02*
D03*
X-273420Y421000D02*
D03*
X-134000Y195000D02*
D03*
X-805000Y528000D02*
D03*
X-149000Y411000D02*
D03*
X-158000Y412000D02*
D03*
X-65000Y460000D02*
D03*
X-710999Y452999D02*
D03*
X-718000Y455000D02*
D03*
X-722999Y459999D02*
D03*
X-733256Y464000D02*
D03*
X-710999Y508999D02*
D03*
X-709999Y501999D02*
D03*
X-712000Y495000D02*
D03*
X-149000Y169000D02*
D03*
X-629000Y491000D02*
D03*
X-616000Y482000D02*
D03*
X-393000Y377000D02*
D03*
X-351070Y418378D02*
D03*
X-744000Y457000D02*
D03*
X-116000Y142000D02*
D03*
X-285641Y268000D02*
D03*
X-549000Y297000D02*
D03*
X-553905Y279845D02*
D03*
X-480000Y423000D02*
D03*
X-426256Y417000D02*
D03*
Y425000D02*
D03*
X-602000Y402000D02*
D03*
X-712000Y403000D02*
D03*
Y427000D02*
D03*
X-717000Y422000D02*
D03*
X-295999Y367999D02*
D03*
X-296000Y375000D02*
D03*
X-295999Y381999D02*
D03*
X-296000Y389000D02*
D03*
X-292141Y268000D02*
D03*
X-279256Y377000D02*
D03*
X-427000Y374000D02*
D03*
X-501000Y425000D02*
D03*
X-511000Y312000D02*
D03*
X-521000D02*
D03*
X-513000Y379000D02*
D03*
X-738000Y477000D02*
D03*
X-730000Y505000D02*
D03*
X-601540Y473000D02*
D03*
X-738000Y505000D02*
D03*
X-746676Y260731D02*
D03*
X-563000Y392000D02*
D03*
X-86000Y411000D02*
D03*
X-466655Y347528D02*
D03*
X-794000Y142000D02*
D03*
X-885000Y130000D02*
D03*
X-794000Y94000D02*
D03*
X-791000Y22000D02*
D03*
X-625000Y200000D02*
D03*
X-478000Y247000D02*
D03*
X-507076Y239004D02*
D03*
X-137000Y280000D02*
D03*
X-793000Y261000D02*
D03*
X-779998Y270000D02*
D03*
X-110000Y423000D02*
D03*
X-111000Y440000D02*
D03*
X-746000Y505000D02*
D03*
X-788000Y336000D02*
D03*
X-766320Y238000D02*
D03*
X-264000Y205000D02*
D03*
X-432000Y177000D02*
D03*
X-825000Y42000D02*
D03*
X-800000Y11000D02*
D03*
X-530256Y476020D02*
D03*
X-517257Y468000D02*
D03*
X-585270Y485000D02*
D03*
X-595270Y473000D02*
D03*
X-72000Y361000D02*
D03*
X-416000Y399000D02*
D03*
X-354000Y329000D02*
D03*
X-218000Y66000D02*
D03*
X-805000Y317000D02*
D03*
X-725000Y346000D02*
D03*
X-748000Y326000D02*
D03*
X-647000Y496000D02*
D03*
X-696000Y538000D02*
D03*
X-285000Y214000D02*
D03*
X-26562Y235071D02*
D03*
X-43000Y264000D02*
D03*
X-22000Y289000D02*
D03*
X-278000Y130000D02*
D03*
X-561999Y426999D02*
D03*
X-574000Y428000D02*
D03*
X-589000D02*
D03*
X-160000Y424000D02*
D03*
X-747000Y270000D02*
D03*
X-717000Y269000D02*
D03*
X-719000Y253000D02*
D03*
X-587095Y261545D02*
D03*
X-586319Y251999D02*
D03*
X-607095Y261545D02*
D03*
X-553783Y333866D02*
D03*
X-359257Y145001D02*
D03*
X-425019Y95700D02*
D03*
X-422070Y101734D02*
D03*
X-388375Y97154D02*
D03*
X-349320Y80000D02*
D03*
X-601819Y92400D02*
D03*
X-636256Y92000D02*
D03*
X-653256Y263000D02*
D03*
X-11256Y298000D02*
D03*
X-239256Y229000D02*
D03*
X-380256Y368000D02*
D03*
X-725256Y473000D02*
D03*
X-649256Y465000D02*
D03*
Y473000D02*
D03*
X-619256Y426000D02*
D03*
X-634256D02*
D03*
X-769256Y230000D02*
D03*
X-712257Y209001D02*
D03*
X-770479Y220611D02*
D03*
X-814256Y243000D02*
D03*
X-702256Y211885D02*
D03*
X-648244Y335460D02*
D03*
X-743256Y353000D02*
D03*
X-714256Y281000D02*
D03*
X-628119Y319225D02*
D03*
X-521219Y285999D02*
D03*
X-525025Y280557D02*
D03*
X-536646Y162336D02*
D03*
X-542916D02*
D03*
X-617952Y176028D02*
D03*
X-526539Y162179D02*
D03*
X-661256Y493000D02*
D03*
Y486000D02*
D03*
X-819256Y195000D02*
D03*
X-790256Y107000D02*
D03*
X-468505Y265250D02*
D03*
X-566320Y255000D02*
D03*
X-567889Y261524D02*
D03*
X-477320Y271000D02*
D03*
X-411256Y377000D02*
D03*
X-415256Y166000D02*
D03*
X-403320Y113000D02*
D03*
X-275256Y67000D02*
D03*
X-267256Y83000D02*
D03*
X-281256Y96000D02*
D03*
X-271256Y188000D02*
D03*
X-250256Y93000D02*
D03*
X-209256Y73000D02*
D03*
X-200256Y81000D02*
D03*
X-223258Y85001D02*
D03*
X-252256Y66000D02*
D03*
X-353256Y357000D02*
D03*
X-385256Y359000D02*
D03*
X-368256Y400000D02*
D03*
X-16256Y335000D02*
D03*
X-40000Y315000D02*
D03*
X-142256Y132010D02*
D03*
X-241391Y90000D02*
D03*
X-142256Y125740D02*
D03*
X-235121Y90000D02*
D03*
X-238256Y79000D02*
D03*
X-298256Y22000D02*
D03*
X-299256Y12000D02*
D03*
X-266256Y122000D02*
D03*
X-430256Y297000D02*
D03*
X-420695Y351823D02*
D03*
X-811256Y326000D02*
D03*
X-570257Y354000D02*
D03*
X-576906Y261316D02*
D03*
X-563256Y354000D02*
D03*
X-843256Y78000D02*
D03*
X-529619Y236500D02*
D03*
X-593320Y210000D02*
D03*
X-581320Y222000D02*
D03*
X-503708Y247845D02*
D03*
X-487674Y217136D02*
D03*
X-457543Y229697D02*
D03*
X-491129Y228019D02*
D03*
X-459781Y219796D02*
D03*
X-504516Y270237D02*
D03*
X-484320Y287000D02*
D03*
X-495223Y270180D02*
D03*
X-415935Y509000D02*
D03*
X-422205D02*
D03*
X-408506Y282000D02*
D03*
X-402236D02*
D03*
X-45256Y294986D02*
D03*
Y288716D02*
D03*
X-144720Y425000D02*
D03*
X-138420D02*
D03*
X-142220Y461000D02*
D03*
X-155221Y457000D02*
D03*
X-161521D02*
D03*
X-135920Y461000D02*
D03*
X-536256Y506000D02*
D03*
X-516707Y510451D02*
D03*
X-550935Y507438D02*
D03*
X-557205D02*
D03*
X-210920Y542000D02*
D03*
X-217220D02*
D03*
X-510256Y468000D02*
D03*
X-232320Y503000D02*
D03*
X-225820D02*
D03*
X-702256Y205385D02*
D03*
X-649257Y428000D02*
D03*
X-521256Y300000D02*
D03*
X-531705Y280147D02*
D03*
X-426257Y403000D02*
D03*
Y410000D02*
D03*
X-341256Y419000D02*
D03*
X-348256Y424403D02*
D03*
X-380256Y506000D02*
D03*
X-296707Y510451D02*
D03*
X-281707D02*
D03*
X-394257Y509000D02*
D03*
X-375906Y412650D02*
D03*
X-530256Y469750D02*
D03*
X-547635Y279845D02*
D03*
X-469256Y417000D02*
D03*
X-459256D02*
D03*
X-450256D02*
D03*
X-440256D02*
D03*
X-433257Y425000D02*
D03*
X-412256D02*
D03*
X-437205Y509000D02*
D03*
X-430935D02*
D03*
X-544207Y428451D02*
D03*
X-529207D02*
D03*
X-514207D02*
D03*
X-489207D02*
D03*
X-459207D02*
D03*
X-384207D02*
D03*
X-161258Y510000D02*
D03*
X-591540Y485000D02*
D03*
X-591707Y510451D02*
D03*
X-531707D02*
D03*
X-131707D02*
D03*
X-146707D02*
D03*
X-206707D02*
D03*
X-221707D02*
D03*
X-491255Y506000D02*
D03*
X-476256D02*
D03*
X-451707Y510451D02*
D03*
X-466707D02*
D03*
X-481707D02*
D03*
X-330820Y503000D02*
D03*
X-337320D02*
D03*
X-322320D02*
D03*
X-326707Y510451D02*
D03*
X-311707D02*
D03*
X-315820Y503000D02*
D03*
X-251707Y510451D02*
D03*
X-307320Y503000D02*
D03*
X-292320D02*
D03*
X-300820D02*
D03*
X-285820D02*
D03*
X-236707Y510451D02*
D03*
X-266707D02*
D03*
X-352070Y215783D02*
D03*
X-345570D02*
D03*
X-327802Y239454D02*
D03*
X-332398Y234858D02*
D03*
X-372070Y215783D02*
D03*
X-365570D02*
D03*
X-425320Y198000D02*
D03*
X-574320Y337000D02*
D03*
X-781320Y163000D02*
D03*
X-616320Y39000D02*
D03*
X-606124Y27820D02*
D03*
X-764320Y16000D02*
D03*
X-725320Y245000D02*
D03*
X-290173Y147674D02*
D03*
X-593320Y202000D02*
D03*
X-558320Y57000D02*
D03*
X-752320Y161000D02*
D03*
X-555320Y74000D02*
D03*
X-591320Y217000D02*
D03*
X-564955Y127004D02*
D03*
X-601320Y16000D02*
D03*
X-549320Y198000D02*
D03*
X-558685Y127004D02*
D03*
X-446320Y222000D02*
D03*
X-425320Y80000D02*
D03*
X-566320Y20000D02*
D03*
X-578320D02*
D03*
X-728320Y98000D02*
D03*
X-286320Y111000D02*
D03*
X-296320Y157000D02*
D03*
X-478419Y201000D02*
D03*
X-481523Y188899D02*
D03*
X-444320Y211000D02*
D03*
X-597095Y261545D02*
D03*
X-617319Y100000D02*
D03*
X-615320Y50000D02*
D03*
X-714383Y90303D02*
D03*
X-765320Y98000D02*
D03*
Y182000D02*
D03*
X-636320Y124000D02*
D03*
X-735320Y190000D02*
D03*
X-577033Y101308D02*
D03*
X-740320Y238000D02*
D03*
X-485319Y270000D02*
D03*
X-443938Y368431D02*
D03*
X-475320Y140000D02*
D03*
X-741320Y130000D02*
D03*
X-703966Y63061D02*
D03*
X-690119Y69100D02*
D03*
X-710199Y68664D02*
D03*
X-755320Y89000D02*
D03*
X-446320Y191000D02*
D03*
X-440320Y265000D02*
D03*
X-428320Y253000D02*
D03*
X-364105Y106916D02*
D03*
X-592320Y235000D02*
D03*
X-214173Y152674D02*
D03*
X-227173D02*
D03*
X-188173Y158674D02*
D03*
X-745320Y115000D02*
D03*
X-788320Y124000D02*
D03*
X-776320Y135000D02*
D03*
X-711320Y236000D02*
D03*
X-401311Y332187D02*
D03*
X-370375Y106916D02*
D03*
X-307319Y179000D02*
D03*
X-314319D02*
D03*
X-596831Y103933D02*
D03*
X-530320Y218000D02*
D03*
X-519320D02*
D03*
X-508320D02*
D03*
X-352819Y166100D02*
D03*
X-692964Y165643D02*
D03*
X-677792Y165771D02*
D03*
X-662877Y166028D02*
D03*
X-647704Y165771D02*
D03*
X-543685Y150554D02*
D03*
X-354619Y140261D02*
D03*
X-384019Y146100D02*
D03*
X-398902Y146016D02*
D03*
X-452293Y98444D02*
D03*
X-449053Y118923D02*
D03*
X-471892Y95391D02*
D03*
X-473899Y109365D02*
D03*
X-443009Y148892D02*
D03*
X-442876Y165500D02*
D03*
X-346576Y126172D02*
D03*
X-356286Y105222D02*
D03*
X-352846Y126172D02*
D03*
X-159034Y108529D02*
D03*
X-170756Y171933D02*
D03*
X-251483Y161039D02*
D03*
X-260406Y159313D02*
D03*
X-236962Y131240D02*
D03*
X-194010Y168367D02*
D03*
X-465400Y357028D02*
D03*
Y337028D02*
D03*
Y342028D02*
D03*
X-425970Y356904D02*
D03*
X-426356Y336706D02*
D03*
X-420502Y341788D02*
D03*
X-432654Y315156D02*
D03*
X-626096Y84610D02*
D03*
X-780799Y180583D02*
D03*
X-491517Y279872D02*
D03*
X-463815Y159025D02*
D03*
Y142714D02*
D03*
X-589916Y27820D02*
D03*
X-711547Y154718D02*
D03*
X-697344Y63061D02*
D03*
X-576506Y111832D02*
D03*
X-617318Y111436D02*
D03*
X-642022Y68508D02*
D03*
X-654022D02*
D03*
X-666022D02*
D03*
X-678022D02*
D03*
X-726693Y115135D02*
D03*
X-799905Y179012D02*
D03*
X-167185Y157344D02*
D03*
X-628798Y300554D02*
D03*
X-618556Y304471D02*
D03*
X-606548Y336903D02*
D03*
X-71599Y274073D02*
D03*
Y259074D02*
D03*
Y244073D02*
D03*
X-17162Y141402D02*
D03*
X-39597Y151000D02*
D03*
X-689503Y58307D02*
D03*
X-747854Y41257D02*
D03*
X-628119Y343937D02*
D03*
X-368842Y145905D02*
D03*
X-617095Y261545D02*
D03*
X-561320Y318000D02*
D03*
X-259327Y117848D02*
D03*
X-259072Y126873D02*
D03*
X-549955Y150554D02*
D03*
X-453038Y133657D02*
D03*
X-592119Y92400D02*
D03*
X-566792Y213855D02*
D03*
X-670106Y126721D02*
D03*
X-655106D02*
D03*
X-285440Y189239D02*
D03*
X-550265Y220000D02*
D03*
X-457193Y263425D02*
D03*
X-467238Y253372D02*
D03*
X-611407Y176128D02*
D03*
X-604060Y176028D02*
D03*
X-628260Y146837D02*
D03*
X-509955Y149852D02*
D03*
X-576658Y64455D02*
D03*
X-500503Y157664D02*
D03*
X-503685Y149852D02*
D03*
X-515019Y124000D02*
D03*
X-516318Y130312D02*
D03*
X-524519Y124000D02*
D03*
X-530789Y124439D02*
D03*
X-522588Y130312D02*
D03*
X-466261Y292591D02*
D03*
X-391422Y184156D02*
D03*
X-382105Y97154D02*
D03*
X-376422Y184156D02*
D03*
X-920000Y438000D02*
D03*
X-943000Y446000D02*
D03*
X-941000Y470000D02*
D03*
X-951000D02*
D03*
Y333000D02*
D03*
X-920000Y422000D02*
D03*
X-846000Y454000D02*
D03*
Y446000D02*
D03*
X-864256Y78000D02*
D03*
X-906000Y59000D02*
D03*
X-561356Y332964D02*
D03*
X-548000Y338000D02*
D03*
X-458000Y368000D02*
D03*
X-460591Y329000D02*
D03*
X-490000Y327000D02*
D03*
X-500000D02*
D03*
X-16000Y366000D02*
D03*
X-42000Y409000D02*
D03*
Y382000D02*
D03*
X-78000Y395000D02*
D03*
X-43000Y424350D02*
D03*
X-727000Y537000D02*
D03*
X-276256Y399265D02*
D03*
X-150256Y192020D02*
D03*
X-276256Y392965D02*
D03*
X-150258Y185001D02*
D03*
X-55000Y177000D02*
D03*
Y169422D02*
D03*
X-41000Y214986D02*
D03*
X-41000Y208000D02*
D03*
X-264720Y421000D02*
D03*
X-258420D02*
D03*
X-22213Y202000D02*
D03*
X-174720Y424000D02*
D03*
X-92256Y278701D02*
D03*
X-168420Y424000D02*
D03*
X-92256Y285001D02*
D03*
X-213420Y426000D02*
D03*
X-76256Y298716D02*
D03*
X-219720Y426000D02*
D03*
X-76256Y304986D02*
D03*
X-189720Y421000D02*
D03*
X-88276Y339000D02*
D03*
X-183420Y421000D02*
D03*
X-82006Y339000D02*
D03*
X-27000Y330000D02*
D03*
X-204720Y420000D02*
D03*
X-76256Y323716D02*
D03*
X-198420Y420000D02*
D03*
X-76256Y329986D02*
D03*
X-70000Y340000D02*
D03*
X-41000Y400999D02*
D03*
Y390999D02*
D03*
X-488685Y125661D02*
D03*
X-494955D02*
D03*
X-400935Y509000D02*
D03*
X-430256Y231130D02*
D03*
X-858256Y71001D02*
D03*
X-407205Y509000D02*
D03*
X-430256Y237400D02*
D03*
X-870256Y72001D02*
D03*
X-896874Y279654D02*
D03*
Y273215D02*
D03*
X-608320Y456000D02*
D03*
X-614820D02*
D03*
X-864397Y291518D02*
D03*
X-629820Y456000D02*
D03*
X-868831Y287085D02*
D03*
X-623320Y456000D02*
D03*
X-788679Y173002D02*
D03*
X-799481Y220677D02*
D03*
X-845820Y303022D02*
D03*
X-644820Y456000D02*
D03*
X-845820Y296515D02*
D03*
X-638320Y456000D02*
D03*
X-821690Y313690D02*
D03*
X-659820Y456000D02*
D03*
X-821690Y307215D02*
D03*
X-653320Y456000D02*
D03*
D99*
X-74300Y186000D02*
D03*
X-809320Y481000D02*
D03*
D100*
X-99700Y186000D02*
D03*
D101*
X-61256Y138760D02*
D03*
D102*
X-12256Y109260D02*
D03*
D103*
X-61256Y78760D02*
D03*
D104*
X-959406Y190300D02*
D03*
X-946706Y164900D02*
D03*
X-870506D02*
D03*
X-895906D02*
D03*
X-921306D02*
D03*
X-934006Y190300D02*
D03*
X-908606D02*
D03*
X-883206D02*
D03*
X-857806D02*
D03*
D105*
X-845106Y101400D02*
D03*
X-959406D02*
D03*
D106*
X-872966Y238600D02*
D03*
X-931466D02*
D03*
X-847566D02*
D03*
X-956866D02*
D03*
D107*
X-823474Y131900D02*
D03*
X-981038D02*
D03*
D108*
X-121320Y481000D02*
D03*
D109*
X-845106Y164900D02*
D03*
D110*
X-863000Y364000D02*
D03*
X-757500Y471500D02*
D03*
X-766500Y461750D02*
D03*
Y481250D02*
D03*
X-758000Y491000D02*
D03*
X-766500Y500750D02*
D03*
X-885500Y445500D02*
D03*
X-900500D02*
D03*
Y430500D02*
D03*
X-893000Y438000D02*
D03*
X-885500Y430500D02*
D03*
X-991000Y494000D02*
D03*
Y485000D02*
D03*
X-981000D02*
D03*
Y494000D02*
D03*
X-920000Y258000D02*
D03*
X-936500D02*
D03*
X-953000D02*
D03*
X-969500D02*
D03*
X-986000D02*
D03*
Y271000D02*
D03*
X-910000Y525000D02*
D03*
Y514200D02*
D03*
Y503400D02*
D03*
Y492600D02*
D03*
Y481800D02*
D03*
Y471000D02*
D03*
X-850000Y519000D02*
D03*
X-833000D02*
D03*
X-841500Y509250D02*
D03*
X-850000Y499500D02*
D03*
X-833000D02*
D03*
X-850000Y480000D02*
D03*
X-833000D02*
D03*
X-841000Y489750D02*
D03*
X-849000Y378000D02*
D03*
X-838000D02*
D03*
X-828000D02*
D03*
X-818000D02*
D03*
Y388000D02*
D03*
X-745000Y391000D02*
D03*
X-740000Y386000D02*
D03*
X-849000Y364000D02*
D03*
X-835000D02*
D03*
X-820000D02*
D03*
X-856000Y353000D02*
D03*
X-842000D02*
D03*
X-828000D02*
D03*
X-863000Y343000D02*
D03*
X-849000D02*
D03*
X-835000D02*
D03*
X-821000D02*
D03*
M02*
