%FSLAX44Y44*%
%MOMM*%
G71*
G01*
G75*
G04 Layer_Color=8388736*
%ADD10C,0.2500*%
%ADD11R,0.3000X0.3000*%
%ADD12R,0.4500X1.3800*%
%ADD13R,0.7620X0.7620*%
%ADD14R,0.6000X0.5500*%
%ADD15R,0.7620X0.7620*%
%ADD16R,0.6200X0.5700*%
%ADD17R,0.9500X0.9500*%
%ADD18R,0.9600X0.9700*%
%ADD19R,0.5500X1.5000*%
%ADD20R,0.9500X0.9500*%
%ADD21R,1.0000X0.6000*%
%ADD22R,0.5500X0.6000*%
%ADD23R,1.2000X3.0000*%
%ADD24R,0.6000X1.0000*%
%ADD25R,1.5500X1.5500*%
%ADD26O,0.6000X0.3000*%
%ADD27R,0.5000X0.4000*%
%ADD28R,0.5700X0.6200*%
%ADD29R,2.4000X1.5000*%
%ADD30R,0.5900X0.4500*%
%ADD31R,0.3500X0.8500*%
%ADD32R,0.2000X1.0000*%
%ADD33R,0.3000X1.2000*%
%ADD34R,3.2000X1.2000*%
%ADD35R,0.4500X0.2000*%
%ADD36R,0.5000X0.2000*%
%ADD37R,0.2000X0.4500*%
%ADD38R,0.2000X0.5000*%
%ADD39R,0.4500X0.5900*%
%ADD40R,0.3000X1.4500*%
%ADD41R,1.1000X1.4000*%
%ADD42R,0.2300X1.0000*%
%ADD43R,0.4000X0.5500*%
%ADD44R,0.3000X0.5500*%
%ADD45R,1.2500X1.7500*%
%ADD46R,0.9700X0.9600*%
%ADD47R,2.1000X2.1000*%
%ADD48R,0.2500X0.6000*%
%ADD49R,0.6000X0.2500*%
%ADD50O,0.5000X1.6000*%
%ADD51R,0.3000X0.3000*%
%ADD52R,1.0160X1.7000*%
%ADD53R,1.0160X1.7000*%
%ADD54R,1.0000X1.5000*%
%ADD55O,0.3000X0.8000*%
%ADD56O,0.8000X0.3000*%
G04:AMPARAMS|DCode=57|XSize=0.75mm|YSize=1.6mm|CornerRadius=0.075mm|HoleSize=0mm|Usage=FLASHONLY|Rotation=270.000|XOffset=0mm|YOffset=0mm|HoleType=Round|Shape=RoundedRectangle|*
%AMROUNDEDRECTD57*
21,1,0.7500,1.4500,0,0,270.0*
21,1,0.6000,1.6000,0,0,270.0*
1,1,0.1500,-0.7250,-0.3000*
1,1,0.1500,-0.7250,0.3000*
1,1,0.1500,0.7250,0.3000*
1,1,0.1500,0.7250,-0.3000*
%
%ADD57ROUNDEDRECTD57*%
G04:AMPARAMS|DCode=58|XSize=0.6mm|YSize=1.8mm|CornerRadius=0.06mm|HoleSize=0mm|Usage=FLASHONLY|Rotation=270.000|XOffset=0mm|YOffset=0mm|HoleType=Round|Shape=RoundedRectangle|*
%AMROUNDEDRECTD58*
21,1,0.6000,1.6800,0,0,270.0*
21,1,0.4800,1.8000,0,0,270.0*
1,1,0.1200,-0.8400,-0.2400*
1,1,0.1200,-0.8400,0.2400*
1,1,0.1200,0.8400,0.2400*
1,1,0.1200,0.8400,-0.2400*
%
%ADD58ROUNDEDRECTD58*%
G04:AMPARAMS|DCode=59|XSize=1.3mm|YSize=0.7mm|CornerRadius=0.07mm|HoleSize=0mm|Usage=FLASHONLY|Rotation=270.000|XOffset=0mm|YOffset=0mm|HoleType=Round|Shape=RoundedRectangle|*
%AMROUNDEDRECTD59*
21,1,1.3000,0.5600,0,0,270.0*
21,1,1.1600,0.7000,0,0,270.0*
1,1,0.1400,-0.2800,-0.5800*
1,1,0.1400,-0.2800,0.5800*
1,1,0.1400,0.2800,0.5800*
1,1,0.1400,0.2800,-0.5800*
%
%ADD59ROUNDEDRECTD59*%
%ADD60R,3.2000X3.2000*%
%ADD61R,0.7500X0.3000*%
%ADD62R,0.3000X0.7500*%
%ADD63R,1.0160X1.2700*%
%ADD64R,0.4000X0.9000*%
%ADD65R,0.4000X0.5000*%
%ADD66R,1.3900X1.4000*%
%ADD67R,3.3600X4.8600*%
%ADD68R,1.4000X1.1000*%
%ADD69R,0.8500X0.3560*%
%ADD70R,2.6000X3.0000*%
%ADD71R,0.3000X1.7500*%
%ADD72R,2.0000X3.5000*%
%ADD73R,3.4000X2.4000*%
%ADD74R,1.7000X1.0160*%
%ADD75R,1.7000X1.0160*%
%ADD76R,1.4000X2.1000*%
%ADD77R,2.3700X1.9000*%
%ADD78R,1.1750X1.9000*%
%ADD79C,0.2000*%
%ADD80C,0.3000*%
%ADD81C,0.1500*%
%ADD82C,0.4000*%
%ADD83C,0.1800*%
%ADD84C,0.2200*%
%ADD85C,0.3500*%
%ADD86R,2.1000X10.0000*%
%ADD87R,2.6000X6.8000*%
%ADD88R,4.4000X3.2000*%
%ADD89R,2.2000X13.7000*%
%ADD90O,1.0000X1.6000*%
%ADD91C,0.6500*%
%ADD92C,6.0000*%
%ADD93O,1.2000X1.7000*%
%ADD94O,1.2000X1.9000*%
%ADD95C,0.7500*%
%ADD96O,1.4000X2.8500*%
%ADD97O,1.2000X2.2500*%
%ADD98C,0.5000*%
%ADD99C,1.5000*%
%ADD100R,1.5000X1.5000*%
%ADD101O,4.5000X2.0000*%
%ADD102O,2.0000X4.0000*%
%ADD103O,4.0000X2.0000*%
%ADD104C,1.7000*%
%ADD105C,3.2500*%
%ADD106C,1.6500*%
%ADD107C,2.6000*%
%ADD108C,1.9000*%
%ADD109R,1.7000X1.7000*%
%ADD110C,0.6000*%
%ADD111C,1.0160*%
%ADD112R,3.4000X0.8000*%
%ADD113R,6.2000X1.5000*%
%ADD114O,1.6160X2.2160*%
%ADD115C,1.4160*%
%ADD116C,4.7160*%
%ADD117O,1.6160X2.1160*%
%ADD118O,1.6160X2.3160*%
%ADD119C,1.5660*%
%ADD120C,2.0160*%
%ADD121O,1.9160X3.3660*%
%ADD122O,1.7160X2.7560*%
%ADD123C,1.9160*%
%ADD124C,2.0360*%
%ADD125O,2.0160X4.0160*%
%ADD126O,4.0160X2.0160*%
%ADD127C,1.9060*%
%ADD128C,4.2660*%
%ADD129C,2.0360*%
%ADD130C,2.7160*%
%ADD131C,2.6160*%
%ADD132C,2.1160*%
%ADD133C,1.1660*%
%ADD134C,1.2660*%
%ADD135C,1.2160*%
%ADD136C,0.0000*%
%ADD137C,0.0051*%
%ADD138O,4.5160X2.0160*%
%ADD139R,1.2000X0.3000*%
%ADD140R,2.7000X3.0000*%
%ADD141R,3.0000X2.7000*%
%ADD142C,0.2540*%
%ADD143C,0.1000*%
%ADD144C,0.5500*%
%ADD145C,0.2286*%
%ADD146C,0.1270*%
%ADD147C,0.1778*%
%ADD148C,0.1524*%
%ADD149C,0.1200*%
%ADD150R,0.5032X0.5032*%
%ADD151R,0.6532X1.5832*%
%ADD152R,0.9652X0.9652*%
%ADD153R,0.8032X0.7532*%
%ADD154R,0.9652X0.9652*%
%ADD155R,0.8232X0.7732*%
%ADD156R,1.1532X1.1532*%
%ADD157R,1.1632X1.1732*%
%ADD158R,0.7532X1.7032*%
%ADD159R,1.1532X1.1532*%
%ADD160R,1.2032X0.8032*%
%ADD161R,0.7532X0.8032*%
%ADD162R,1.4032X3.2032*%
%ADD163R,0.8032X1.2032*%
%ADD164R,1.7532X1.7532*%
%ADD165O,0.8032X0.5032*%
%ADD166R,0.7032X0.6032*%
%ADD167R,0.7732X0.8232*%
%ADD168R,2.6032X1.7032*%
%ADD169R,0.7932X0.6532*%
%ADD170R,0.5532X1.0532*%
%ADD171R,0.4032X1.2032*%
%ADD172R,0.5032X1.4032*%
%ADD173R,3.4032X1.4032*%
%ADD174R,0.6532X0.4032*%
%ADD175R,0.7032X0.4032*%
%ADD176R,0.4032X0.6532*%
%ADD177R,0.4032X0.7032*%
%ADD178R,0.6532X0.7932*%
%ADD179R,0.5032X1.6532*%
%ADD180R,1.3032X1.6032*%
%ADD181R,0.4332X1.2032*%
%ADD182R,0.6032X0.7532*%
%ADD183R,0.5032X0.7532*%
%ADD184R,1.4532X1.9532*%
%ADD185R,1.1732X1.1632*%
%ADD186R,2.3032X2.3032*%
%ADD187R,0.4532X0.8032*%
%ADD188R,0.8032X0.4532*%
%ADD189O,0.7032X1.8032*%
%ADD190R,0.5032X0.5032*%
%ADD191R,1.2192X1.9032*%
%ADD192R,1.2192X1.9032*%
%ADD193R,1.2032X1.7032*%
%ADD194O,0.5032X1.0032*%
%ADD195O,1.0032X0.5032*%
G04:AMPARAMS|DCode=196|XSize=0.9532mm|YSize=1.8032mm|CornerRadius=0.1766mm|HoleSize=0mm|Usage=FLASHONLY|Rotation=270.000|XOffset=0mm|YOffset=0mm|HoleType=Round|Shape=RoundedRectangle|*
%AMROUNDEDRECTD196*
21,1,0.9532,1.4500,0,0,270.0*
21,1,0.6000,1.8032,0,0,270.0*
1,1,0.3532,-0.7250,-0.3000*
1,1,0.3532,-0.7250,0.3000*
1,1,0.3532,0.7250,0.3000*
1,1,0.3532,0.7250,-0.3000*
%
%ADD196ROUNDEDRECTD196*%
G04:AMPARAMS|DCode=197|XSize=0.8032mm|YSize=2.0032mm|CornerRadius=0.1616mm|HoleSize=0mm|Usage=FLASHONLY|Rotation=270.000|XOffset=0mm|YOffset=0mm|HoleType=Round|Shape=RoundedRectangle|*
%AMROUNDEDRECTD197*
21,1,0.8032,1.6800,0,0,270.0*
21,1,0.4800,2.0032,0,0,270.0*
1,1,0.3232,-0.8400,-0.2400*
1,1,0.3232,-0.8400,0.2400*
1,1,0.3232,0.8400,0.2400*
1,1,0.3232,0.8400,-0.2400*
%
%ADD197ROUNDEDRECTD197*%
G04:AMPARAMS|DCode=198|XSize=1.5032mm|YSize=0.9032mm|CornerRadius=0.1716mm|HoleSize=0mm|Usage=FLASHONLY|Rotation=270.000|XOffset=0mm|YOffset=0mm|HoleType=Round|Shape=RoundedRectangle|*
%AMROUNDEDRECTD198*
21,1,1.5032,0.5600,0,0,270.0*
21,1,1.1600,0.9032,0,0,270.0*
1,1,0.3432,-0.2800,-0.5800*
1,1,0.3432,-0.2800,0.5800*
1,1,0.3432,0.2800,0.5800*
1,1,0.3432,0.2800,-0.5800*
%
%ADD198ROUNDEDRECTD198*%
%ADD199R,3.4032X3.4032*%
%ADD200R,0.9532X0.5032*%
%ADD201R,0.5032X0.9532*%
%ADD202R,1.2192X1.4732*%
%ADD203R,0.6032X1.1032*%
%ADD204R,0.6032X0.7032*%
%ADD205R,1.5932X1.6032*%
%ADD206R,3.5632X5.0632*%
%ADD207R,1.6032X1.3032*%
%ADD208R,1.0532X0.5592*%
%ADD209R,2.8032X3.2032*%
%ADD210R,0.5032X1.9532*%
%ADD211R,2.2032X3.7032*%
%ADD212R,3.6032X2.6032*%
%ADD213R,1.9032X1.2192*%
%ADD214R,1.9032X1.2192*%
%ADD215R,1.6032X2.3032*%
%ADD216R,2.5732X2.1032*%
%ADD217R,1.3782X2.1032*%
%ADD218O,1.2032X1.8032*%
%ADD219C,0.8532*%
%ADD220C,0.2032*%
%ADD221C,6.2032*%
%ADD222O,1.4032X1.9032*%
%ADD223O,1.4032X2.1032*%
%ADD224C,0.9532*%
%ADD225O,1.6032X3.0532*%
%ADD226O,1.4032X2.4532*%
%ADD227C,0.7032*%
%ADD228C,1.7032*%
%ADD229R,1.7032X1.7032*%
%ADD230O,4.7032X2.2032*%
%ADD231O,2.2032X4.2032*%
%ADD232O,4.2032X2.2032*%
%ADD233C,1.9032*%
%ADD234C,3.4532*%
%ADD235C,1.8532*%
%ADD236C,2.8032*%
%ADD237C,2.1032*%
%ADD238R,1.9032X1.9032*%
D150*
X-241756Y65750D02*
D03*
X-234756D02*
D03*
X-710883Y103128D02*
D03*
X-717883D02*
D03*
X-714383Y94628D02*
D03*
X-238256Y74250D02*
D03*
D151*
X-241756Y52630D02*
D03*
X-235256D02*
D03*
X-248256D02*
D03*
X-228756D02*
D03*
X-222256D02*
D03*
D152*
X-295205Y74081D02*
D03*
Y88051D02*
D03*
X-311177Y88049D02*
D03*
Y74079D02*
D03*
X-752321Y125821D02*
D03*
Y139791D02*
D03*
X-710918Y132783D02*
D03*
Y146753D02*
D03*
X-605946Y62710D02*
D03*
Y76680D02*
D03*
D153*
X-685177Y187250D02*
D03*
X-675606D02*
D03*
X-403320Y208250D02*
D03*
X-411320D02*
D03*
X-392320D02*
D03*
X-384320D02*
D03*
X-353320D02*
D03*
X-344320D02*
D03*
X-722184Y302487D02*
D03*
Y310987D02*
D03*
X-364320Y199750D02*
D03*
X-373320D02*
D03*
X-569331Y179979D02*
D03*
X-656463Y178750D02*
D03*
X-646892D02*
D03*
X-494606Y180250D02*
D03*
X-675606Y178750D02*
D03*
X-637320D02*
D03*
X-704320D02*
D03*
X-560395Y180103D02*
D03*
X-666034Y178750D02*
D03*
X-685177D02*
D03*
X-694749D02*
D03*
X-482320Y180250D02*
D03*
X-633904Y309323D02*
D03*
Y300823D02*
D03*
X-403320Y199750D02*
D03*
X-411320D02*
D03*
X-384320D02*
D03*
X-392320D02*
D03*
X-344320D02*
D03*
X-353320D02*
D03*
X-306146Y206113D02*
D03*
X-315146D02*
D03*
X-637320Y187250D02*
D03*
X-646892D02*
D03*
X-656463D02*
D03*
X-666034D02*
D03*
X-523020Y255750D02*
D03*
X-534120D02*
D03*
X-506892Y180250D02*
D03*
X-519177D02*
D03*
X-534787Y171961D02*
D03*
X-544340Y171799D02*
D03*
X-534787Y180461D02*
D03*
X-544340Y180299D02*
D03*
X-506892Y171750D02*
D03*
X-519177D02*
D03*
X-364320Y208250D02*
D03*
X-373320D02*
D03*
X-482320Y171750D02*
D03*
X-494606D02*
D03*
X-560395Y171603D02*
D03*
X-569331Y171479D02*
D03*
X-545220Y264250D02*
D03*
X-556320D02*
D03*
X-523020D02*
D03*
X-534120D02*
D03*
X-694749Y187250D02*
D03*
X-704320D02*
D03*
X-728193Y281992D02*
D03*
Y273493D02*
D03*
X-266300Y159439D02*
D03*
Y167939D02*
D03*
X-306146Y214613D02*
D03*
X-315146D02*
D03*
X-545220Y255750D02*
D03*
X-556320D02*
D03*
X-951000Y444250D02*
D03*
Y435750D02*
D03*
D154*
X-791305Y15000D02*
D03*
X-777335D02*
D03*
X-766305Y173000D02*
D03*
X-752335D02*
D03*
X-587290Y9118D02*
D03*
X-601260D02*
D03*
X-611323Y122662D02*
D03*
X-625293D02*
D03*
X-610735Y248500D02*
D03*
X-624705D02*
D03*
X-463790Y148922D02*
D03*
X-449820D02*
D03*
X-463790Y165234D02*
D03*
X-449820D02*
D03*
X-315881Y189485D02*
D03*
X-582459Y122618D02*
D03*
X-596429D02*
D03*
X-500335Y292000D02*
D03*
X-514305D02*
D03*
X-291881Y189485D02*
D03*
X-305851D02*
D03*
X-329851D02*
D03*
X-394968Y341647D02*
D03*
X-408938D02*
D03*
X-259034Y133515D02*
D03*
X-245064D02*
D03*
D155*
X-808844Y205198D02*
D03*
Y195598D02*
D03*
X-799864Y185975D02*
D03*
Y195575D02*
D03*
X-799545Y205462D02*
D03*
Y215062D02*
D03*
X-780320Y280200D02*
D03*
Y289800D02*
D03*
X-768171Y280084D02*
D03*
Y289684D02*
D03*
X-513320Y264800D02*
D03*
Y255200D02*
D03*
X-592910Y64348D02*
D03*
Y73948D02*
D03*
X-450256Y411800D02*
D03*
Y402200D02*
D03*
X-639320Y103200D02*
D03*
X-616904Y276873D02*
D03*
Y267273D02*
D03*
X-486320Y255200D02*
D03*
Y264800D02*
D03*
X-426655Y324959D02*
D03*
Y315359D02*
D03*
X-586904Y276873D02*
D03*
Y267273D02*
D03*
X-657320Y103200D02*
D03*
Y112800D02*
D03*
X-567904Y276873D02*
D03*
Y267273D02*
D03*
X-469256Y411800D02*
D03*
Y402200D02*
D03*
X-648320Y103200D02*
D03*
X-440256Y411800D02*
D03*
Y402200D02*
D03*
X-596904Y276873D02*
D03*
Y267273D02*
D03*
X-451033Y201568D02*
D03*
Y211168D02*
D03*
X-543787Y318268D02*
D03*
Y327868D02*
D03*
X-582718Y73948D02*
D03*
Y64348D02*
D03*
X-459256Y411800D02*
D03*
Y402200D02*
D03*
X-504320Y255200D02*
D03*
Y264800D02*
D03*
X-477320D02*
D03*
Y255200D02*
D03*
X-666320Y103200D02*
D03*
Y112800D02*
D03*
X-576904Y276873D02*
D03*
Y267273D02*
D03*
X-553721Y318268D02*
D03*
Y327868D02*
D03*
X-495320Y264800D02*
D03*
Y255200D02*
D03*
X-606904Y276873D02*
D03*
Y267273D02*
D03*
X-693320Y103200D02*
D03*
X-702320D02*
D03*
X-675320D02*
D03*
X-684320D02*
D03*
X-675320Y112800D02*
D03*
X-684320D02*
D03*
X-693320D02*
D03*
X-702320D02*
D03*
X-639320D02*
D03*
X-648320D02*
D03*
X-511000Y322200D02*
D03*
Y331800D02*
D03*
X-490256Y402200D02*
D03*
Y411800D02*
D03*
X-480256Y402200D02*
D03*
Y411800D02*
D03*
X-717978Y113472D02*
D03*
Y123072D02*
D03*
X-384198Y351283D02*
D03*
Y341683D02*
D03*
X-469000Y319200D02*
D03*
Y328800D02*
D03*
X-175000Y206200D02*
D03*
Y215800D02*
D03*
X-814256Y263800D02*
D03*
Y254200D02*
D03*
X-804000D02*
D03*
Y263800D02*
D03*
X-951000Y455200D02*
D03*
Y464800D02*
D03*
D156*
X-788529Y195233D02*
D03*
Y180732D02*
D03*
X-777537Y319210D02*
D03*
Y304710D02*
D03*
X-625845Y92074D02*
D03*
Y106574D02*
D03*
X-605940Y35368D02*
D03*
Y49868D02*
D03*
X-473701Y117188D02*
D03*
Y131688D02*
D03*
X-589733Y35368D02*
D03*
Y49868D02*
D03*
X-802256Y121250D02*
D03*
Y106750D02*
D03*
X-576154Y234840D02*
D03*
Y249340D02*
D03*
X-178346Y171978D02*
D03*
Y157478D02*
D03*
X-167099Y149308D02*
D03*
X-167070Y108442D02*
D03*
X-167099Y134808D02*
D03*
X-167070Y122942D02*
D03*
X-16256Y343750D02*
D03*
Y358250D02*
D03*
D157*
X-809000Y10850D02*
D03*
Y27150D02*
D03*
X-776651Y124241D02*
D03*
Y107941D02*
D03*
X-309611Y158288D02*
D03*
Y141988D02*
D03*
D158*
X-779694Y229404D02*
D03*
X-770193Y210404D02*
D03*
X-789193D02*
D03*
D159*
X-458250Y378000D02*
D03*
X-443750D02*
D03*
X-500250Y308000D02*
D03*
X-485750D02*
D03*
X-499070Y280000D02*
D03*
X-513570D02*
D03*
X-888250Y410000D02*
D03*
X-873750D02*
D03*
X-41006Y275000D02*
D03*
X-55506D02*
D03*
D160*
X-735032Y321246D02*
D03*
Y302246D02*
D03*
X-758032D02*
D03*
Y311746D02*
D03*
Y321246D02*
D03*
D161*
X-735006Y346000D02*
D03*
X-743506D02*
D03*
X-451517Y313204D02*
D03*
X-443017D02*
D03*
X-292570Y130000D02*
D03*
X-284070D02*
D03*
X-719570Y217000D02*
D03*
X-711070D02*
D03*
X-292570Y122000D02*
D03*
X-284070D02*
D03*
X-719455Y227685D02*
D03*
X-710955D02*
D03*
X-369142Y328316D02*
D03*
X-377642D02*
D03*
X-732070Y249000D02*
D03*
X-740570D02*
D03*
X-860250Y446000D02*
D03*
X-851750D02*
D03*
X-938250D02*
D03*
X-929750D02*
D03*
X-281423Y147674D02*
D03*
X-272923D02*
D03*
D162*
X-502000Y365000D02*
D03*
X-478000D02*
D03*
X-33256Y357000D02*
D03*
X-57256D02*
D03*
D163*
X-499500Y342500D02*
D03*
X-480500D02*
D03*
Y319500D02*
D03*
X-490000D02*
D03*
X-499500D02*
D03*
X-54756Y305500D02*
D03*
X-45256D02*
D03*
X-35756D02*
D03*
Y328500D02*
D03*
X-54756D02*
D03*
D164*
X-596831Y103933D02*
D03*
D165*
X-611331Y96433D02*
D03*
Y101433D02*
D03*
Y106433D02*
D03*
Y111433D02*
D03*
X-582331D02*
D03*
Y106433D02*
D03*
Y101433D02*
D03*
Y96433D02*
D03*
D166*
X-739820Y140000D02*
D03*
X-720820Y146500D02*
D03*
Y133500D02*
D03*
X-146500Y210000D02*
D03*
X-165500Y203500D02*
D03*
Y216500D02*
D03*
D167*
X-407586Y315333D02*
D03*
X-417186D02*
D03*
X-250011Y102130D02*
D03*
X-259611D02*
D03*
X-470648Y191092D02*
D03*
X-461048D02*
D03*
X-466519Y219798D02*
D03*
X-476119D02*
D03*
X-466520Y228000D02*
D03*
X-476120D02*
D03*
X-567120Y220000D02*
D03*
X-557520D02*
D03*
X-634704Y289073D02*
D03*
X-625104D02*
D03*
X-642704Y335412D02*
D03*
X-633104D02*
D03*
X-35959Y381759D02*
D03*
X-26359D02*
D03*
X-476266Y211321D02*
D03*
X-466666D02*
D03*
X-35959Y408759D02*
D03*
X-26359D02*
D03*
X-642704Y343625D02*
D03*
X-633104D02*
D03*
X-439994Y229832D02*
D03*
X-449594D02*
D03*
X-259408Y111738D02*
D03*
X-249808D02*
D03*
X-642704Y318985D02*
D03*
X-633104D02*
D03*
X-35959Y399759D02*
D03*
X-26359D02*
D03*
X-35959Y390759D02*
D03*
X-26359D02*
D03*
X-275489Y74100D02*
D03*
X-285089D02*
D03*
X-466388Y238103D02*
D03*
X-475988D02*
D03*
X-557520Y229000D02*
D03*
X-567120D02*
D03*
X-642704Y327198D02*
D03*
X-633104D02*
D03*
X-592131Y86749D02*
D03*
X-582531D02*
D03*
X-601813Y86749D02*
D03*
X-611413D02*
D03*
X-275502Y82477D02*
D03*
X-285102D02*
D03*
X-10956Y319000D02*
D03*
X-20556D02*
D03*
X-26359Y434494D02*
D03*
X-35959D02*
D03*
X-26359Y423281D02*
D03*
X-35959D02*
D03*
X-442648Y321707D02*
D03*
X-452248D02*
D03*
X-395803Y351708D02*
D03*
X-405404D02*
D03*
X-20556Y309243D02*
D03*
X-10956D02*
D03*
X-766105Y246215D02*
D03*
X-775705D02*
D03*
X-775561Y257373D02*
D03*
X-765961D02*
D03*
X-941300Y464000D02*
D03*
X-931700D02*
D03*
X-860300Y454000D02*
D03*
X-850700D02*
D03*
X-860300Y438000D02*
D03*
X-850700D02*
D03*
X-938800D02*
D03*
X-929200D02*
D03*
X-931700Y456000D02*
D03*
X-941300D02*
D03*
D168*
X-611320Y159500D02*
D03*
X-611320Y186500D02*
D03*
D169*
X-732770Y115000D02*
D03*
X-753870D02*
D03*
X-391337Y328305D02*
D03*
X-412437D02*
D03*
D170*
X-740326Y260409D02*
D03*
X-753326D02*
D03*
Y282409D02*
D03*
X-746826D02*
D03*
X-740326D02*
D03*
X-462203Y111627D02*
D03*
X-455703D02*
D03*
X-449203D02*
D03*
Y133627D02*
D03*
X-462203D02*
D03*
X-245007Y167947D02*
D03*
X-251507D02*
D03*
X-258008D02*
D03*
Y145947D02*
D03*
X-245007D02*
D03*
D171*
X-527241Y69310D02*
D03*
Y38310D02*
D03*
D172*
X-554741Y115110D02*
D03*
X-539741D02*
D03*
X-534741D02*
D03*
X-529741D02*
D03*
X-524741D02*
D03*
X-519741D02*
D03*
X-514741D02*
D03*
X-509741D02*
D03*
X-504741D02*
D03*
X-499741D02*
D03*
X-544741D02*
D03*
X-549741D02*
D03*
D173*
X-519320Y218000D02*
D03*
D174*
X-497320Y226000D02*
D03*
Y210000D02*
D03*
X-541320Y226000D02*
D03*
Y210000D02*
D03*
D175*
X-497320Y222000D02*
D03*
Y218000D02*
D03*
Y214000D02*
D03*
X-541320Y218000D02*
D03*
Y222000D02*
D03*
Y214000D02*
D03*
D176*
X-501320Y205750D02*
D03*
Y230300D02*
D03*
X-537320D02*
D03*
Y205750D02*
D03*
D177*
X-505320Y206000D02*
D03*
X-509320D02*
D03*
X-513320D02*
D03*
X-529320Y230000D02*
D03*
X-517320D02*
D03*
X-513320D02*
D03*
X-509320D02*
D03*
X-505320D02*
D03*
X-533320D02*
D03*
X-521320D02*
D03*
X-525320D02*
D03*
X-517320Y206000D02*
D03*
X-521320D02*
D03*
X-525320D02*
D03*
X-529320D02*
D03*
X-533320D02*
D03*
D178*
X-309320Y109450D02*
D03*
Y130550D02*
D03*
X-134000Y188450D02*
D03*
Y209550D02*
D03*
D179*
X-685320Y136750D02*
D03*
X-670320D02*
D03*
X-655320D02*
D03*
X-692820Y155250D02*
D03*
X-677820D02*
D03*
X-662820D02*
D03*
X-647820D02*
D03*
X-361320Y174250D02*
D03*
X-376320D02*
D03*
X-391320D02*
D03*
X-353820Y155750D02*
D03*
X-368820D02*
D03*
X-383820D02*
D03*
X-398820D02*
D03*
X-393820D02*
D03*
X-403820D02*
D03*
X-363820D02*
D03*
X-373820D02*
D03*
X-348820D02*
D03*
X-358820D02*
D03*
X-378820D02*
D03*
X-388820D02*
D03*
X-672820Y155250D02*
D03*
X-682820D02*
D03*
X-687820D02*
D03*
X-697820D02*
D03*
X-657820D02*
D03*
X-667820D02*
D03*
X-642820D02*
D03*
X-652820D02*
D03*
D180*
X-457188Y253376D02*
D03*
X-439688D02*
D03*
D181*
X-642240Y76760D02*
D03*
X-654240D02*
D03*
X-666240D02*
D03*
X-678240D02*
D03*
X-690240D02*
D03*
X-694240D02*
D03*
X-698240D02*
D03*
X-702240D02*
D03*
X-706240D02*
D03*
X-710240D02*
D03*
X-714240D02*
D03*
X-682240D02*
D03*
X-686240D02*
D03*
X-658240D02*
D03*
X-662240D02*
D03*
X-646240D02*
D03*
X-650240D02*
D03*
X-670240D02*
D03*
X-674240D02*
D03*
D182*
X-554320Y136150D02*
D03*
Y143850D02*
D03*
X-499320D02*
D03*
Y136150D02*
D03*
D183*
X-549320D02*
D03*
X-544320D02*
D03*
X-509320D02*
D03*
X-504320D02*
D03*
X-489320Y143850D02*
D03*
X-494320D02*
D03*
X-559320D02*
D03*
X-564320D02*
D03*
X-544320D02*
D03*
X-549320D02*
D03*
X-504320D02*
D03*
X-509320D02*
D03*
X-559320Y136150D02*
D03*
X-564320D02*
D03*
X-489320D02*
D03*
X-494320D02*
D03*
D184*
X-744506Y404000D02*
D03*
X-772006D02*
D03*
X-821006D02*
D03*
X-793506D02*
D03*
X-865250Y519667D02*
D03*
X-892750D02*
D03*
X-865250Y496333D02*
D03*
X-892750D02*
D03*
X-865250Y473000D02*
D03*
X-892750D02*
D03*
D185*
X-611600Y137993D02*
D03*
X-627900D02*
D03*
X-755470Y98000D02*
D03*
X-739170D02*
D03*
D186*
X-593904Y312073D02*
D03*
D187*
X-606404Y293073D02*
D03*
X-601404D02*
D03*
X-596404D02*
D03*
X-591404D02*
D03*
X-586404D02*
D03*
X-581404D02*
D03*
X-581404Y331073D02*
D03*
X-586404D02*
D03*
X-591404D02*
D03*
X-596404D02*
D03*
X-601404D02*
D03*
X-606404D02*
D03*
D188*
X-574904Y299573D02*
D03*
Y304573D02*
D03*
Y309573D02*
D03*
Y314573D02*
D03*
Y319573D02*
D03*
Y324573D02*
D03*
X-612904D02*
D03*
Y319573D02*
D03*
Y314573D02*
D03*
Y309573D02*
D03*
Y304573D02*
D03*
Y299573D02*
D03*
D189*
X-601221Y232663D02*
D03*
X-610721D02*
D03*
X-620221D02*
D03*
X-601221Y210663D02*
D03*
X-610721D02*
D03*
X-620221D02*
D03*
D190*
X-458968Y91595D02*
D03*
Y98595D02*
D03*
X-467468Y95095D02*
D03*
D191*
X-775000Y359000D02*
D03*
D192*
X-807000Y359000D02*
D03*
D193*
X-446405Y346831D02*
D03*
D194*
X-443905Y331831D02*
D03*
X-448905D02*
D03*
Y361831D02*
D03*
X-443905D02*
D03*
D195*
X-458905Y336831D02*
D03*
Y341831D02*
D03*
Y346831D02*
D03*
Y351831D02*
D03*
Y356831D02*
D03*
X-433905D02*
D03*
Y351831D02*
D03*
Y346831D02*
D03*
Y341831D02*
D03*
Y336831D02*
D03*
D196*
X-39597Y181672D02*
D03*
Y157172D02*
D03*
Y247321D02*
D03*
Y222821D02*
D03*
D197*
Y169422D02*
D03*
Y235071D02*
D03*
D198*
X-17097Y187922D02*
D03*
Y150922D02*
D03*
Y253571D02*
D03*
Y216571D02*
D03*
D199*
X-205611Y118964D02*
D03*
D200*
X-230361Y101464D02*
D03*
Y106464D02*
D03*
Y111464D02*
D03*
Y116464D02*
D03*
Y121464D02*
D03*
Y126464D02*
D03*
Y131464D02*
D03*
Y136464D02*
D03*
X-180861D02*
D03*
Y121464D02*
D03*
Y116464D02*
D03*
Y111464D02*
D03*
Y106464D02*
D03*
Y101464D02*
D03*
Y131464D02*
D03*
Y126464D02*
D03*
D201*
X-223111Y143714D02*
D03*
X-218111D02*
D03*
X-213111D02*
D03*
X-208111D02*
D03*
X-203111D02*
D03*
X-198111D02*
D03*
X-193111D02*
D03*
X-188111D02*
D03*
Y94214D02*
D03*
X-193111D02*
D03*
X-198111D02*
D03*
X-203111D02*
D03*
X-208111D02*
D03*
X-213111D02*
D03*
X-218111D02*
D03*
X-223111D02*
D03*
D202*
X-224482Y167952D02*
D03*
X-204162Y167952D02*
D03*
D203*
X-368468Y386841D02*
D03*
X-355468D02*
D03*
Y367841D02*
D03*
X-361968D02*
D03*
X-368468D02*
D03*
X-389256Y368134D02*
D03*
X-402256D02*
D03*
Y387134D02*
D03*
X-395756D02*
D03*
X-389256D02*
D03*
D204*
X-318756Y11500D02*
D03*
X-305756D02*
D03*
X-312256Y30500D02*
D03*
X-271256Y194500D02*
D03*
X-277756Y213500D02*
D03*
X-264756D02*
D03*
D205*
X-967602Y471624D02*
D03*
X-986398D02*
D03*
D206*
X-977000Y432000D02*
D03*
D207*
X-924000Y271250D02*
D03*
Y288750D02*
D03*
X-964000Y271250D02*
D03*
Y288750D02*
D03*
X-944000Y271250D02*
D03*
Y288750D02*
D03*
D208*
X-913000Y438000D02*
D03*
Y430000D02*
D03*
Y422000D02*
D03*
Y446000D02*
D03*
Y454000D02*
D03*
X-873000D02*
D03*
Y446000D02*
D03*
Y422000D02*
D03*
Y430000D02*
D03*
Y438000D02*
D03*
D209*
X-893000D02*
D03*
D210*
X-294070Y440000D02*
D03*
X-289070D02*
D03*
X-279070D02*
D03*
X-274070D02*
D03*
X-264070D02*
D03*
X-259070D02*
D03*
X-249070D02*
D03*
X-244070D02*
D03*
X-234070D02*
D03*
X-229070D02*
D03*
X-189070D02*
D03*
X-184070D02*
D03*
X-204070D02*
D03*
X-199070D02*
D03*
X-219070D02*
D03*
X-214070D02*
D03*
X-174070D02*
D03*
X-169070D02*
D03*
X-144070D02*
D03*
X-139070D02*
D03*
X-186570Y522000D02*
D03*
X-181570D02*
D03*
X-201570D02*
D03*
X-196570D02*
D03*
X-216570D02*
D03*
X-211570D02*
D03*
X-614070Y440000D02*
D03*
X-609070D02*
D03*
X-569070D02*
D03*
X-564070D02*
D03*
X-406570Y522000D02*
D03*
X-401570D02*
D03*
X-171570D02*
D03*
X-166570D02*
D03*
X-556570D02*
D03*
X-551570D02*
D03*
X-291570D02*
D03*
X-286570D02*
D03*
X-231570D02*
D03*
X-226570D02*
D03*
X-796570D02*
D03*
X-799070Y440000D02*
D03*
X-791570Y522000D02*
D03*
X-794070Y440000D02*
D03*
X-786570Y522000D02*
D03*
X-789070Y440000D02*
D03*
X-781570Y522000D02*
D03*
X-784070Y440000D02*
D03*
X-776570Y522000D02*
D03*
X-779070Y440000D02*
D03*
X-771570Y522000D02*
D03*
X-774070Y440000D02*
D03*
X-766570Y522000D02*
D03*
X-769070Y440000D02*
D03*
X-761570Y522000D02*
D03*
X-764070Y440000D02*
D03*
X-756570Y522000D02*
D03*
X-759070Y440000D02*
D03*
X-751570Y522000D02*
D03*
X-754070Y440000D02*
D03*
X-746570Y522000D02*
D03*
X-749070Y440000D02*
D03*
X-741570Y522000D02*
D03*
X-744070Y440000D02*
D03*
X-736570Y522000D02*
D03*
X-739070Y440000D02*
D03*
X-731570Y522000D02*
D03*
X-734070Y440000D02*
D03*
X-726570Y522000D02*
D03*
X-729070Y440000D02*
D03*
X-721570Y522000D02*
D03*
X-724070Y440000D02*
D03*
X-716570Y522000D02*
D03*
X-719070Y440000D02*
D03*
X-711570Y522000D02*
D03*
X-714070Y440000D02*
D03*
X-706570Y522000D02*
D03*
X-709070Y440000D02*
D03*
X-701570Y522000D02*
D03*
X-704070Y440000D02*
D03*
X-696570Y522000D02*
D03*
X-699070Y440000D02*
D03*
X-691570Y522000D02*
D03*
X-694070Y440000D02*
D03*
X-686570Y522000D02*
D03*
X-689070Y440000D02*
D03*
X-681570Y522000D02*
D03*
X-684070Y440000D02*
D03*
X-676570Y522000D02*
D03*
X-679070Y440000D02*
D03*
X-671570Y522000D02*
D03*
X-674070Y440000D02*
D03*
X-666570Y522000D02*
D03*
X-669070Y440000D02*
D03*
X-661570Y522000D02*
D03*
X-664070Y440000D02*
D03*
X-656570Y522000D02*
D03*
X-659070Y440000D02*
D03*
X-651570Y522000D02*
D03*
X-654070Y440000D02*
D03*
X-646570Y522000D02*
D03*
X-649070Y440000D02*
D03*
X-641570Y522000D02*
D03*
X-644070Y440000D02*
D03*
X-636570Y522000D02*
D03*
X-639070Y440000D02*
D03*
X-631570Y522000D02*
D03*
X-634070Y440000D02*
D03*
X-626570Y522000D02*
D03*
X-629070Y440000D02*
D03*
X-621570Y522000D02*
D03*
X-624070Y440000D02*
D03*
X-616570Y522000D02*
D03*
X-619070Y440000D02*
D03*
X-611570Y522000D02*
D03*
X-606570D02*
D03*
X-601570D02*
D03*
X-604070Y440000D02*
D03*
X-596570Y522000D02*
D03*
X-599070Y440000D02*
D03*
X-591570Y522000D02*
D03*
X-594070Y440000D02*
D03*
X-586570Y522000D02*
D03*
X-589070Y440000D02*
D03*
X-581570Y522000D02*
D03*
X-584070Y440000D02*
D03*
X-576570Y522000D02*
D03*
X-579070Y440000D02*
D03*
X-541570Y522000D02*
D03*
X-546570D02*
D03*
X-561570D02*
D03*
X-566570D02*
D03*
X-571570D02*
D03*
X-511570D02*
D03*
X-516570D02*
D03*
X-521570D02*
D03*
X-526570D02*
D03*
X-531570D02*
D03*
X-536570D02*
D03*
X-544070Y440000D02*
D03*
X-549070D02*
D03*
X-554070D02*
D03*
X-559070D02*
D03*
X-574070D02*
D03*
X-514070D02*
D03*
X-519070D02*
D03*
X-524070D02*
D03*
X-529070D02*
D03*
X-534070D02*
D03*
X-539070D02*
D03*
X-224070D02*
D03*
X-209070D02*
D03*
X-254070D02*
D03*
X-239070D02*
D03*
X-221570Y522000D02*
D03*
X-206570D02*
D03*
X-261570D02*
D03*
X-256570D02*
D03*
X-251570D02*
D03*
X-246570D02*
D03*
X-241570D02*
D03*
X-236570D02*
D03*
X-269070Y440000D02*
D03*
X-266570Y522000D02*
D03*
X-271570D02*
D03*
X-276570D02*
D03*
X-284070Y440000D02*
D03*
X-281570Y522000D02*
D03*
X-299070Y440000D02*
D03*
X-296570Y522000D02*
D03*
X-304070Y440000D02*
D03*
X-301570Y522000D02*
D03*
X-309070Y440000D02*
D03*
X-306570Y522000D02*
D03*
X-314070Y440000D02*
D03*
X-311570Y522000D02*
D03*
X-319070Y440000D02*
D03*
X-316570Y522000D02*
D03*
X-324070Y440000D02*
D03*
X-321570Y522000D02*
D03*
X-329070Y440000D02*
D03*
X-326570Y522000D02*
D03*
X-334070Y440000D02*
D03*
X-331570Y522000D02*
D03*
X-339070Y440000D02*
D03*
X-336570Y522000D02*
D03*
X-344070Y440000D02*
D03*
X-341570Y522000D02*
D03*
X-349070Y440000D02*
D03*
X-346570Y522000D02*
D03*
X-354070Y440000D02*
D03*
X-351570Y522000D02*
D03*
X-359070Y440000D02*
D03*
X-356570Y522000D02*
D03*
X-364070Y440000D02*
D03*
X-361570Y522000D02*
D03*
X-369070Y440000D02*
D03*
X-366570Y522000D02*
D03*
X-374070Y440000D02*
D03*
X-371570Y522000D02*
D03*
X-379070Y440000D02*
D03*
X-376570Y522000D02*
D03*
X-384070Y440000D02*
D03*
X-381570Y522000D02*
D03*
X-389070Y440000D02*
D03*
X-386570Y522000D02*
D03*
X-394070Y440000D02*
D03*
X-391570Y522000D02*
D03*
X-399070Y440000D02*
D03*
X-396570Y522000D02*
D03*
X-404070Y440000D02*
D03*
X-409070D02*
D03*
X-414070D02*
D03*
X-411570Y522000D02*
D03*
X-419070Y440000D02*
D03*
X-416570Y522000D02*
D03*
X-424070Y440000D02*
D03*
X-421570Y522000D02*
D03*
X-429070Y440000D02*
D03*
X-426570Y522000D02*
D03*
X-434070Y440000D02*
D03*
X-431570Y522000D02*
D03*
X-439070Y440000D02*
D03*
X-436570Y522000D02*
D03*
X-444070Y440000D02*
D03*
X-441570Y522000D02*
D03*
X-449070Y440000D02*
D03*
X-446570Y522000D02*
D03*
X-454070Y440000D02*
D03*
X-451570Y522000D02*
D03*
X-459070Y440000D02*
D03*
X-456570Y522000D02*
D03*
X-464070Y440000D02*
D03*
X-461570Y522000D02*
D03*
X-469070Y440000D02*
D03*
X-466570Y522000D02*
D03*
X-474070Y440000D02*
D03*
X-471570Y522000D02*
D03*
X-479070Y440000D02*
D03*
X-476570Y522000D02*
D03*
X-484070Y440000D02*
D03*
X-481570Y522000D02*
D03*
X-489070Y440000D02*
D03*
X-486570Y522000D02*
D03*
X-191570D02*
D03*
X-156570D02*
D03*
X-161570D02*
D03*
X-176570D02*
D03*
X-194070Y440000D02*
D03*
X-159070D02*
D03*
X-164070D02*
D03*
X-179070D02*
D03*
X-154070D02*
D03*
X-149070D02*
D03*
X-134070D02*
D03*
X-151570Y522000D02*
D03*
X-146570D02*
D03*
X-141570D02*
D03*
X-136570D02*
D03*
X-131570D02*
D03*
D211*
X-87570Y361000D02*
D03*
X-842570Y401000D02*
D03*
D212*
X-943000Y394000D02*
D03*
Y312000D02*
D03*
D213*
X-877000Y311000D02*
D03*
D214*
X-877000Y343000D02*
D03*
D215*
X-209856Y49030D02*
D03*
X-263196D02*
D03*
D216*
X-206156Y26030D02*
D03*
X-264356D02*
D03*
D217*
X-226881D02*
D03*
X-243631D02*
D03*
D218*
X-569941Y43810D02*
D03*
X-484541D02*
D03*
X-569941Y91110D02*
D03*
X-484541D02*
D03*
D219*
X-519241Y95610D02*
D03*
X-535241D02*
D03*
X-499241Y102610D02*
D03*
X-555241D02*
D03*
X-507241D02*
D03*
X-547241D02*
D03*
X-515241D02*
D03*
X-539241D02*
D03*
X-503241Y95610D02*
D03*
X-511241D02*
D03*
X-543241D02*
D03*
X-551241D02*
D03*
X-523241Y102610D02*
D03*
X-531241D02*
D03*
D220*
X-50000Y40000D02*
D03*
X-49760Y509760D02*
D03*
X-952256Y40000D02*
D03*
X-952256Y510000D02*
D03*
X-358240Y79510D02*
D03*
X-394240D02*
D03*
X-376160D02*
D03*
X-412240D02*
D03*
Y113010D02*
D03*
X-376160D02*
D03*
X-394240D02*
D03*
X-358240D02*
D03*
X-398740Y120760D02*
D03*
X-407740D02*
D03*
X-362740Y87260D02*
D03*
X-371740D02*
D03*
X-380740Y120760D02*
D03*
X-389740D02*
D03*
X-362740D02*
D03*
X-371740D02*
D03*
X-398740Y87260D02*
D03*
X-407740D02*
D03*
X-380740D02*
D03*
X-389740D02*
D03*
D221*
X-144240Y59760D02*
D03*
X-780256D02*
D03*
D222*
X-623990Y21260D02*
D03*
X-732490D02*
D03*
D223*
X-623990Y66260D02*
D03*
X-732490D02*
D03*
D224*
X-432740Y121010D02*
D03*
X-337740D02*
D03*
D225*
X-440240Y89510D02*
D03*
X-330240D02*
D03*
D226*
X-437240Y34510D02*
D03*
X-333240D02*
D03*
D227*
X-27597Y190672D02*
D03*
Y148172D02*
D03*
Y256321D02*
D03*
Y213821D02*
D03*
X-896874Y279654D02*
D03*
Y273215D02*
D03*
X-845820Y303022D02*
D03*
Y296515D02*
D03*
X-821690Y313690D02*
D03*
Y307215D02*
D03*
D228*
X-74300Y186000D02*
D03*
X-809320Y481000D02*
D03*
D229*
X-99700Y186000D02*
D03*
D230*
X-61256Y138760D02*
D03*
D231*
X-12256Y109260D02*
D03*
D232*
X-61256Y78760D02*
D03*
D233*
X-959406Y190300D02*
D03*
X-946706Y164900D02*
D03*
X-870506D02*
D03*
X-895906D02*
D03*
X-921306D02*
D03*
X-934006Y190300D02*
D03*
X-908606D02*
D03*
X-883206D02*
D03*
X-857806D02*
D03*
D234*
X-845106Y101400D02*
D03*
X-959406D02*
D03*
D235*
X-872966Y238600D02*
D03*
X-931466D02*
D03*
X-847566D02*
D03*
X-956866D02*
D03*
D236*
X-823474Y131900D02*
D03*
X-981038D02*
D03*
D237*
X-121320Y481000D02*
D03*
D238*
X-845106Y164900D02*
D03*
M02*
